<svg xmlns="http://www.w3.org/2000/svg" width="512" height="512" viewBox="0 0 512 512"><path d="M450.829 291.707h39.806v6.248h-39.806zm45.509 0h15.598v6.248h-15.598z" fill="#D4EEF8"/><g fill="#D4EEF8"><path d="M15.501 149.061h36.336v4.45H15.501z"/><path d="M31.444 133.109h4.434v36.352h-4.434z"/></g><g fill="#FDBA12"><path d="M451.423 128.66h36.329v4.45h-36.329z"/><path d="M467.366 112.724h4.442v36.336h-4.442z"/></g><g fill="#D4EEF8"><path d="M398.541 397.326h36.337v4.449h-36.337z"/><path d="M414.484 381.391h4.442v36.336h-4.442z"/></g><path fill="#FDBA12" d="M30.987 279.321c0 8.578-6.956 15.502-15.518 15.502S-.065 287.899-.065 279.321s6.972-15.518 15.534-15.518 15.518 6.94 15.518 15.518z"/><path fill="#D4EEF8" d="M71.218 223.066c0 5.349-4.345 9.686-9.694 9.686-5.333 0-9.687-4.337-9.687-9.686 0-5.35 4.354-9.687 9.687-9.687 5.349.001 9.694 4.338 9.694 9.687z"/><path fill="#FDBA12" d="M451.978 365.504c0 5.349-4.337 9.686-9.694 9.686-5.333 0-9.687-4.337-9.687-9.686 0-5.35 4.354-9.671 9.687-9.671 5.357 0 9.694 4.321 9.694 9.671z"/><path fill="#D4EEF8" d="M491.197 355.833c0 2.699-2.192 4.899-4.899 4.899s-4.916-2.2-4.916-4.899c0-2.715 2.209-4.915 4.916-4.915s4.899 2.2 4.899 4.915zm-100.559-247.51c0-7.197 5.848-13.044 13.028-13.044 7.204 0 13.052 5.847 13.052 13.044s-5.848 13.028-13.052 13.028c-7.181 0-13.028-5.831-13.028-13.028zm65.171 88.415c0-3.807 3.084-6.908 6.875-6.908 3.823 0 6.916 3.101 6.916 6.908s-3.093 6.875-6.916 6.875a6.872 6.872 0 0 1-6.875-6.875z"/><path fill="#8BD7F8" d="M234.418 167.205c1.044 4.241 1.646 8.69 1.63 13.22 0 4.53-.578 8.972-1.63 13.301l62.319-.008c5.373 14.256 19.084 24.457 35.269 24.457 20.802 0 37.701-16.915 37.701-37.71.016-20.802-16.899-37.701-37.701-37.701-16.137-.041-29.896 10.192-35.269 24.441h-62.319zm97.636-1.84c8.297 0 15.012 6.714 15.012 15.012 0 8.305-6.715 15.02-15.012 15.02-8.305 0-15.02-6.715-15.02-15.02 0-8.297 6.715-15.012 15.02-15.012zM142.156 332.629c0 20.803 16.899 37.693 37.702 37.693 16.152-.032 29.911-10.184 35.268-24.529h62.32a55.268 55.268 0 0 1-1.631-13.212c0-4.53.586-8.972 1.631-13.213h-62.32c-5.357-14.257-19.083-24.457-35.268-24.457-20.803 0-37.702 16.9-37.702 37.718zm37.654-15.027c8.305 0 15.02 6.715 15.02 15.027 0 8.289-6.715 15.004-15.02 15.004-8.297 0-15.012-6.715-15.012-15.004 0-8.313 6.714-15.027 15.012-15.027z"/><path fill="#485A93" d="M142.244 180.393c-.048 16.136 10.185 29.895 24.441 35.252v62.336c4.241-1.045 8.683-1.646 13.205-1.646 4.53 0 8.988.586 13.221 1.646v-62.336c14.264-5.357 24.449-19.067 24.449-35.252 0-20.802-16.899-37.717-37.613-37.717-20.803-.001-37.703 16.914-37.703 37.717zm37.613-14.988c8.305 0 15.02 6.715 15.012 15.02.008 8.297-6.707 15.012-15.012 15.012s-15.011-6.715-15.011-15.012c0-8.305 6.707-15.02 15.011-15.02zm138.896 131.948c-14.249 5.366-24.441 19.076-24.441 35.276 0 20.803 16.907 37.693 37.613 37.693 20.795 0 37.71-16.891 37.71-37.693.032-16.152-10.2-29.91-24.449-35.276v-62.327c-4.24 1.052-8.69 1.647-13.212 1.647-4.53 0-8.972-.595-13.221-1.647v62.327zm13.253 20.216c8.313 0 15.027 6.715 15.027 15.012 0 8.305-6.715 15.02-15.027 15.02-8.298 0-15.004-6.715-15.004-15.02 0-8.297 6.706-15.012 15.004-15.012z"/></svg>