<svg xmlns="http://www.w3.org/2000/svg" width="512" height="512" viewBox="0 0 512 512"><path d="M450.477 291.446h39.806v6.249h-39.806zm45.508 0h15.598v6.249h-15.598z" fill="#D4EEF8"/><g fill="#D4EEF8"><path d="M15.149 148.809h36.336v4.45H15.149z"/><path d="M31.092 132.857h4.434v36.352h-4.434z"/></g><g fill="#FDBA12"><path d="M451.071 128.408h36.328v4.45h-36.328z"/><path d="M467.015 112.464h4.441v36.344h-4.441z"/></g><g fill="#D4EEF8"><path d="M398.189 397.074h36.336v4.449h-36.336z"/><path d="M414.133 381.139h4.441v36.336h-4.441z"/></g><path fill="#FDBA12" d="M30.634 279.062c0 8.578-6.956 15.51-15.518 15.51S-.418 287.64-.418 279.062c0-8.57 6.972-15.51 15.534-15.51s15.518 6.939 15.518 15.51z"/><path fill="#D4EEF8" d="M70.866 222.814c0 5.349-4.346 9.686-9.695 9.686-5.333 0-9.687-4.337-9.687-9.686 0-5.35 4.354-9.687 9.687-9.687 5.35.001 9.695 4.338 9.695 9.687z"/><path fill="#FDBA12" d="M451.625 365.252c0 5.349-4.337 9.686-9.694 9.686-5.333 0-9.687-4.337-9.687-9.686 0-5.35 4.354-9.679 9.687-9.679 5.357 0 9.694 4.329 9.694 9.679z"/><path fill="#D4EEF8" d="M490.845 355.581c0 2.699-2.192 4.899-4.899 4.899s-4.915-2.2-4.915-4.899c0-2.715 2.208-4.915 4.915-4.915s4.899 2.2 4.899 4.915zm-100.559-247.51c0-7.196 5.847-13.043 13.027-13.043 7.204 0 13.052 5.847 13.052 13.043 0 7.197-5.848 13.028-13.052 13.028-7.18 0-13.027-5.831-13.027-13.028zm65.17 88.407c0-3.799 3.085-6.899 6.876-6.899 3.822 0 6.915 3.101 6.915 6.899 0 3.815-3.093 6.883-6.915 6.883a6.875 6.875 0 0 1-6.876-6.883z"/><path fill="#8BD7F8" d="M277.462 199.401h44.85v101.9h-44.85z"/><path fill="#485A93" d="M211.079 239.497h44.834v61.805h-44.834z"/><path fill="#8BD7F8" d="M144.695 277.471h44.81v23.831h-44.81z"/><path fill="#485A93" d="M322.231 117.235l-55.661 14.899 16.418 16.409-47.131 47.107h-49.629l-44.657 44.674.257 18.248 49.829-49.725h49.637l50.946-51.051 15.205 15.108z"/><path fill="#8BD7F8" d="M362.52 376.865l-51.742-44.287H110.303V149.604h145.61v8.224H118.527v166.526h195.287l40.481 34.649V154.274l-23.453.35-.129-8.225 31.807-.47z"/></svg>