<svg xmlns="http://www.w3.org/2000/svg" width="512" height="512" viewBox="0 0 512 512"><path d="M449.91 328.77h40.209v6.313H449.91zm45.969 0h15.756v6.313h-15.756z" fill="#D4EEF8"/><g fill="#D4EEF8"><path d="M15.358 155.264h36.704v4.495H15.358z"/><path d="M31.47 139.151h4.479v36.72H31.47z"/></g><g fill="#FDBA12"><path d="M455.687 134.656h36.704v4.495h-36.704z"/><path d="M471.8 118.552h4.479v36.712H471.8z"/></g><g fill="#D4EEF8"><path d="M402.271 406.039h36.703v4.494h-36.703z"/><path d="M418.383 389.942h4.479v36.703h-4.479z"/></g><path fill="#FDBA12" d="M31 286.833c0 8.665-7.026 15.667-15.675 15.667-8.648 0-15.69-7.002-15.69-15.667 0-8.656 7.042-15.666 15.69-15.666 8.649 0 15.675 7.01 15.675 15.666z"/><path fill="#D4EEF8" d="M71.646 230.018c0 5.403-4.397 9.784-9.801 9.784-5.387 0-9.784-4.381-9.784-9.784s4.397-9.785 9.784-9.785c5.404 0 9.801 4.381 9.801 9.785z"/><path fill="#FDBA12" d="M456.255 373.895c0 5.403-4.381 9.784-9.801 9.784-5.387 0-9.784-4.381-9.784-9.784s4.397-9.776 9.784-9.776c5.42-.001 9.801 4.372 9.801 9.776z"/><path fill="#D4EEF8" d="M495.863 364.127a4.947 4.947 0 0 1-4.949 4.948c-2.727 0-4.966-2.223-4.966-4.948a4.976 4.976 0 0 1 4.966-4.966 4.952 4.952 0 0 1 4.949 4.966zM394.287 114.114c0-7.27 5.906-13.176 13.159-13.176 7.286 0 13.192 5.906 13.192 13.176 0 7.269-5.906 13.159-13.192 13.159-7.253 0-13.159-5.89-13.159-13.159zm65.829 89.301c0-3.837 3.116-6.969 6.945-6.969 3.861 0 6.993 3.132 6.993 6.969 0 3.854-3.132 6.953-6.993 6.953a6.944 6.944 0 0 1-6.945-6.953z"/><g fill="#E7E9ED"><path d="M255.635 368.021c-29.954 0-58.122-11.666-79.313-32.857-21.175-21.184-32.858-49.353-32.858-79.313 0-29.97 11.683-58.122 32.858-79.313 21.191-21.191 49.36-32.858 79.313-32.858 29.953 0 58.122 11.667 79.329 32.858 21.176 21.191 32.842 49.344 32.842 79.313 0 29.961-11.666 58.13-32.842 79.313-21.207 21.19-49.376 32.857-79.329 32.857zm0-215.216c-56.824 0-103.036 46.229-103.036 103.044 0 56.824 46.212 103.036 103.036 103.036s103.036-46.212 103.036-103.036c0-56.815-46.212-103.044-103.036-103.044z"/><path d="M255.635 425.08c-45.206 0-87.703-17.605-119.668-49.563-31.965-31.966-49.555-74.462-49.555-119.668s17.589-87.703 49.555-119.668c31.965-31.966 74.462-49.563 119.668-49.563s87.702 17.597 119.668 49.563c31.965 31.965 49.57 74.462 49.57 119.668s-17.605 87.702-49.57 119.668c-31.966 31.958-74.462 49.563-119.668 49.563zm0-329.334c-88.271 0-160.087 71.817-160.087 160.104 0 88.286 71.817 160.095 160.087 160.095 88.286 0 160.104-71.809 160.104-160.095-.001-88.287-71.818-160.104-160.104-160.104z"/><path d="M255.635 321.111c-35.974 0-65.262-29.28-65.262-65.262s29.288-65.253 65.262-65.253c35.989 0 65.262 29.272 65.262 65.253s-29.273 65.262-65.262 65.262zm0-121.388c-30.943 0-56.126 25.175-56.126 56.126 0 30.943 25.183 56.126 56.126 56.126 30.959 0 56.126-25.183 56.126-56.126 0-30.951-25.167-56.126-56.126-56.126z"/><path d="M255.635 283.563c-15.285 0-27.714-12.429-27.714-27.714s12.429-27.723 27.714-27.723 27.73 12.438 27.73 27.723-12.445 27.714-27.73 27.714zm0-46.309c-10.255 0-18.595 8.34-18.595 18.595s8.34 18.595 18.595 18.595 18.595-8.34 18.595-18.595-8.34-18.595-18.595-18.595z"/></g><path fill="#8BD7F8" d="M136.064 225.166c-.414 0-.819-.065-1.233-.195-2.134-.706-3.318-3.042-2.637-5.225 17.386-55.591 67.395-92.943 124.471-92.943 38.034 0 74.104 16.924 98.972 46.439 1.46 1.736 1.273 4.356-.431 5.857a3.99 3.99 0 0 1-5.72-.438c-23.316-27.674-57.156-43.551-92.821-43.551-53.53 0-100.44 35.032-116.731 87.167-.552 1.761-2.15 2.889-3.87 2.889z"/><path fill="#8BD7F8" d="M376.795 219.56c-19.188-15.731-46.398-33.158-68.766-40.582l40.281-8.064 25.913-32.566c-4.137 23.698-1.954 56.483 2.572 81.212z"/><g fill="#485A93"><path d="M256.665 384.888c-35.008 0-67.882-13.979-92.586-39.372-1.574-1.623-1.574-4.252.016-5.874 1.59-1.606 4.154-1.623 5.736.016 23.171 23.813 54.009 36.923 86.834 36.923 53.984 0 101.008-35.422 117.031-88.148.665-2.183 2.937-3.432 5.079-2.734 2.142.682 3.342 3.01 2.677 5.201-17.094 56.213-67.241 93.988-124.787 93.988z"/><path d="M136.737 292.78l72.272 50.001-38.083 2.434-16.802 35.056z"/></g><path fill="#8BD7F8" d="M333.731 255.85c0 42.472-34.433 76.912-76.912 76.912-42.472 0-76.912-34.44-76.912-76.912 0-42.48 34.44-76.92 76.912-76.92 42.48-.001 76.912 34.439 76.912 76.92z"/><path fill="#485A93" d="M316.345 255.85c0 32.866-26.644 59.518-59.518 59.518s-59.525-26.651-59.525-59.518c0-32.875 26.651-59.526 59.525-59.526s59.518 26.651 59.518 59.526z"/><path fill="#FFF" d="M251.854 294.095v-8.9c-6.28-.284-12.373-2.061-15.934-4.032l2.807-10.969c3.943 2.15 9.468 4.121 15.577 4.121 5.427 0 9.086-2.149 9.086-5.809 0-3.562-3.002-5.817-10.028-8.162-10.036-3.367-16.883-8.064-16.883-17.151 0-8.348 5.817-14.822 15.853-16.696v-8.9h9.176v8.251c6.19.179 10.409 1.599 13.687 3.091l-2.799 10.596c-2.345-1.128-6.75-3.286-13.509-3.286-6.093 0-8.064 2.726-8.064 5.347 0 3.002 3.286 5.063 11.342 7.967 11.163 3.943 15.568 9.094 15.568 17.637 0 8.333-5.816 15.464-16.599 17.24v9.655h-9.28z"/></svg>