<svg xmlns="http://www.w3.org/2000/svg" xmlns:xlink="http://www.w3.org/1999/xlink" width="512" height="160" viewBox="0 0 512 160"><g fill="#8BD7F8"><path d="M126.328 159.529a9.695 9.695 0 0 1-.36-2.59c0-5.234 4.177-9.49 9.312-9.49s9.313 4.256 9.313 9.49c0 .858-.122 1.729-.359 2.59l-.464-.129a9.212 9.212 0 0 0 .343-2.461c0-4.968-3.963-9.01-8.833-9.01-4.869 0-8.831 4.042-8.831 9.01 0 .817.116 1.645.343 2.461l-.464.129z"/><path d="M134.504 159.419l-.6-.058c.011-.119.233-2.919-2.633-4.027l.216-.561c3.3 1.276 3.019 4.612 3.017 4.646zm1.744 0c-.004-.034-.363-3.384 3.788-4.646l.175.575c-3.673 1.118-3.369 3.968-3.366 3.996l-.597.075zm-1.305-5.701h.601v5.531h-.601z"/></g><g fill="#8BD7F8"><path d="M273.484 159.529a6.62 6.62 0 0 1-.246-1.771c0-3.578 2.855-6.488 6.367-6.488 3.511 0 6.368 2.91 6.368 6.488a6.67 6.67 0 0 1-.246 1.771l-.317-.089a6.304 6.304 0 0 0 .235-1.683c0-3.396-2.71-6.16-6.04-6.16-3.329 0-6.039 2.764-6.039 6.16 0 .56.08 1.125.234 1.683l-.316.089z"/><path d="M279.074 159.454l-.41-.039c.008-.082.16-1.996-1.8-2.754l.147-.384c2.257.872 2.064 3.154 2.063 3.177zm1.194 0c-.004-.023-.248-2.314 2.59-3.177l.119.394c-2.511.764-2.303 2.713-2.302 2.732l-.407.051zm-.893-3.898h.41v3.782h-.41z"/></g><path fill="#8BD7F8" d="M.296 128.988l-.284-.752 65.573-24.784.111.021 70.458 13.32 86.171-46.78 80.052 30.419 53.462-56.511 88.467 21.186L493.07 4.222l.628.502-49.083 61.283-.248-.059-88.263-21.137-53.512 56.562-.251-.095-79.956-30.383-86.099 46.74-.14-.027-70.488-13.325zm-.142 30.208h511.858V160H.154z"/><path fill="#FFF" d="M181.87 120.025c13.35 0 24.172-10.823 24.172-24.173S195.22 71.68 181.87 71.68c-13.35 0-24.172 10.823-24.172 24.173s10.822 24.172 24.172 24.172"/><path fill="#8BD7F8" d="M181.87 120.427c-13.55 0-24.574-11.023-24.574-24.574 0-13.55 11.023-24.574 24.574-24.574s24.574 11.024 24.574 24.574c0 13.55-11.024 24.574-24.574 24.574zm0-48.345c-13.107 0-23.771 10.664-23.771 23.771s10.664 23.771 23.771 23.771 23.771-10.664 23.771-23.771-10.664-23.771-23.771-23.771zm101.082 2.615l-5.81-6.46h-25.669v-20.28h31.479v26.74zm-30.676-7.263H277.5l4.649 5.169V48.76h-29.873v18.674z"/><path fill="#8BD7F8" d="M261.795 60.495a2.106 2.106 0 0 1-2.104-2.103c0-1.161.944-2.104 2.104-2.104s2.104.944 2.104 2.104a2.106 2.106 0 0 1-2.104 2.103zm0-3.405a1.302 1.302 0 0 0 0 2.601 1.301 1.301 0 0 0 0-2.601zm5.382 3.405a2.106 2.106 0 0 1-2.104-2.103c0-1.161.944-2.104 2.104-2.104s2.104.944 2.104 2.104a2.106 2.106 0 0 1-2.104 2.103zm0-3.405c-.717 0-1.301.583-1.301 1.301a1.301 1.301 0 1 0 1.301-1.301zm5.453 3.405a2.106 2.106 0 0 1-2.104-2.103c0-1.161.944-2.104 2.104-2.104s2.104.944 2.104 2.104a2.107 2.107 0 0 1-2.104 2.103zm0-3.405c-.718 0-1.302.583-1.302 1.301a1.302 1.302 0 0 0 2.603 0c0-.717-.584-1.301-1.301-1.301zm65.669-14.562V11.379h35.308V35.03h-28.84l-6.468 7.498zm.804-30.345v28.185l5.295-6.14h28.405V12.183h-33.7z"/><path fill="#8BD7F8" d="M348.742 25.334c-1.521 0-2.76-1.237-2.76-2.759s1.238-2.759 2.76-2.759c1.521 0 2.759 1.237 2.759 2.759s-1.238 2.759-2.759 2.759zm0-4.714c-1.079 0-1.957.877-1.957 1.956s.878 1.956 1.957 1.956c1.078 0 1.955-.877 1.955-1.956s-.877-1.956-1.955-1.956zm7.163 4.714c-1.521 0-2.76-1.237-2.76-2.759s1.238-2.759 2.76-2.759c1.522 0 2.76 1.237 2.76 2.759s-1.237 2.759-2.76 2.759zm0-4.714c-1.078 0-1.956.877-1.956 1.956s.878 1.956 1.956 1.956c1.079 0 1.957-.877 1.957-1.956s-.878-1.956-1.957-1.956zm7.26 4.714c-1.522 0-2.76-1.237-2.76-2.759s1.237-2.759 2.76-2.759c1.521 0 2.759 1.237 2.759 2.759s-1.238 2.759-2.759 2.759zm0-4.714c-1.079 0-1.957.877-1.957 1.956s.878 1.956 1.957 1.956c1.078 0 1.955-.877 1.955-1.956s-.877-1.956-1.955-1.956zM216.613 148.316c-4.225 0-7.662-3.437-7.662-7.661 0-4.226 3.437-7.662 7.662-7.662s7.662 3.437 7.662 7.662c-.001 4.225-3.438 7.661-7.662 7.661zm0-14.519a6.865 6.865 0 0 0-6.858 6.858c0 3.781 3.077 6.858 6.858 6.858s6.858-3.077 6.858-6.858a6.865 6.865 0 0 0-6.858-6.858z"/><path fill="#8BD7F8" d="M216.211 136.319h.803v23.555h-.803z"/><path fill="#8BD7F8" d="M220.173 140.765l.57.565-3.942 3.98-.57-.565zm-.919-4.549l.57.565-3.011 3.046-.571-.565zm-5.917 2.724l3.572 4.191-.61.52-3.573-4.19z"/><circle fill="#FFF" cx="46.428" cy="140.655" r="7.26"/><path fill="#8BD7F8" d="M46.428 148.316c-4.225 0-7.662-3.437-7.662-7.661 0-4.226 3.437-7.662 7.662-7.662s7.662 3.437 7.662 7.662-3.437 7.661-7.662 7.661zm0-14.519a6.865 6.865 0 0 0-6.858 6.858c0 3.781 3.077 6.858 6.858 6.858s6.858-3.077 6.858-6.858c.001-3.782-3.076-6.858-6.858-6.858z"/><path fill="#8BD7F8" d="M46.027 136.319h.803v23.555h-.803z"/><path fill="#8BD7F8" d="M49.994 140.757l.572.565-3.942 3.982-.572-.565zm-.916-4.535l.57.565-3.01 3.047-.571-.564zm-5.913 2.724l3.365 4.017-.616.516-3.366-4.017zm457.294 9.37c-4.225 0-7.661-3.437-7.661-7.661 0-4.226 3.437-7.662 7.661-7.662 4.226 0 7.662 3.437 7.662 7.662s-3.436 7.661-7.662 7.661zm0-14.519a6.865 6.865 0 0 0-6.857 6.858c0 3.781 3.076 6.858 6.857 6.858a6.866 6.866 0 0 0 6.858-6.858 6.865 6.865 0 0 0-6.858-6.858z"/><path fill="#8BD7F8" d="M500.059 136.319h.803v23.555h-.803z"/><path fill="#8BD7F8" d="M504.01 140.777l.571.565-3.944 3.978-.57-.565zm-.92-4.574l.57.565-3.014 3.044-.57-.564zm-5.916 2.734l3.367 4.018-.615.515-3.367-4.017zm-5.022 17.871a4.926 4.926 0 0 1-4.92-4.92c0-2.713 2.207-4.92 4.92-4.92s4.92 2.207 4.92 4.92a4.926 4.926 0 0 1-4.92 4.92zm0-9.037c-2.271 0-4.117 1.847-4.117 4.116s1.847 4.116 4.117 4.116 4.116-1.847 4.116-4.116-1.846-4.116-4.116-4.116z"/><path fill="#8BD7F8" d="M491.851 149.13h.804v10.584h-.804z"/><path fill="#8BD7F8" d="M494.233 151.896l.57.564-2.363 2.393-.572-.564zm-.551-2.852l.573.563-1.77 1.801-.573-.564zm-3.245 1.721l1.982 2.435-.623.507-1.982-2.435z"/><path fill="#FFF" d="M200.529 111.221l17.648 12.743"/><path fill="#8BD7F8" d="M200.758 110.889l17.648 12.743-.47.65-17.647-12.743z"/><path fill="#FFF" d="M293.662 61.165h145.431v79.476H293.662z"/><path fill="#8BD7F8" d="M439.495 141.042H293.261V60.764h146.234v80.278zm-145.432-.804h144.628V61.567H294.063v78.671z"/><path fill="#8BD7F8" d="M383.653 154.405h-34.552v-14.167h34.552v14.167zm-33.749-.802h32.945v-12.561h-32.945v12.561z"/><path fill="#8BD7F8" d="M397.268 160h-61.781v-6.34h61.781V160zm-60.978-.804h60.174v-4.732H336.29v4.732z"/><path fill="#FFF" d="M297.858 65.557h137.038v69.363H297.858z"/><path fill="#8BD7F8" d="M435.298 135.321H297.456V65.156h137.842v70.165zm-137.038-.802h136.235v-68.56H298.26v68.56z"/><path fill="#FFF" d="M437.901 141.834c26.05 0 47.168-21.117 47.168-47.168 0-26.05-21.118-47.168-47.168-47.168s-47.169 21.118-47.169 47.168c0 26.051 21.12 47.168 47.169 47.168"/><path fill="#8BD7F8" d="M437.901 142.235c-26.23 0-47.57-21.34-47.57-47.569 0-26.23 21.34-47.569 47.57-47.569s47.569 21.339 47.569 47.569c.001 26.23-21.338 47.569-47.569 47.569zm0-94.335c-25.787 0-46.767 20.979-46.767 46.766s20.979 46.767 46.767 46.767 46.767-20.979 46.767-46.767S463.688 47.9 437.901 47.9z"/><path fill="#8BD7F8" d="M437.9 131.666c-20.402 0-37-16.598-37-37s16.598-37 37-37 37.001 16.598 37.001 37-16.598 37-37.001 37zm0-73.197c-19.959 0-36.196 16.238-36.196 36.197s16.237 36.197 36.196 36.197c19.96 0 36.197-16.238 36.197-36.197S457.86 58.469 437.9 58.469z"/><path fill="#FFF" d="M437.901 118.839c13.35 0 24.172-10.823 24.172-24.172 0-13.351-10.822-24.173-24.172-24.173-13.351 0-24.173 10.823-24.173 24.173.001 13.349 10.823 24.172 24.173 24.172"/><path fill="#8BD7F8" d="M437.901 119.24c-13.55 0-24.574-11.023-24.574-24.573 0-13.551 11.024-24.575 24.574-24.575s24.573 11.024 24.573 24.575c.001 13.55-11.023 24.573-24.573 24.573zm0-48.344c-13.107 0-23.771 10.664-23.771 23.771s10.664 23.77 23.771 23.77 23.771-10.662 23.771-23.77-10.663-23.771-23.771-23.771z"/><path fill="#FFF" d="M437.901 106.579c6.579 0 11.913-5.334 11.913-11.913 0-6.58-5.334-11.914-11.913-11.914-6.58 0-11.914 5.334-11.914 11.914 0 6.579 5.334 11.913 11.914 11.913"/><path fill="#8BD7F8" d="M437.901 106.98c-6.791 0-12.315-5.524-12.315-12.314 0-6.791 5.524-12.315 12.315-12.315 6.79 0 12.315 5.524 12.315 12.315.001 6.79-5.525 12.314-12.315 12.314zm0-23.827c-6.348 0-11.512 5.165-11.512 11.513s5.164 11.512 11.512 11.512 11.512-5.164 11.512-11.512-5.164-11.513-11.512-11.513z"/><path fill="#FFD682" d="M437.901 107.383c-7.012 0-12.717-5.705-12.717-12.717s5.705-12.717 12.717-12.717c7.013 0 12.717 5.705 12.717 12.717s-5.704 12.717-12.717 12.717zm0-23.827c-6.126 0-11.11 4.984-11.11 11.11 0 6.127 4.984 11.11 11.11 11.11 6.127 0 11.11-4.983 11.11-11.11.001-6.126-4.983-11.11-11.11-11.11z"/><path fill="#8BD7F8" d="M199.625 157.031h-30.01v-8.075c0-3.885 3.848-3.93 3.886-3.93h22.237c3.842 0 3.887 3.891 3.887 3.93v8.075zm-29.348-.662h28.687v-7.413c-.001-.133-.049-3.268-3.226-3.268h-22.237c-.131 0-3.224.05-3.224 3.268v7.413z"/><path fill="#FFF" d="M176.132 159.246a2.48 2.48 0 1 0 0-4.96 2.48 2.48 0 0 0 0 4.96"/><path fill="#8BD7F8" d="M176.132 159.577a2.814 2.814 0 0 1-2.811-2.812 2.815 2.815 0 0 1 2.811-2.812 2.815 2.815 0 0 1 2.811 2.812 2.814 2.814 0 0 1-2.811 2.812zm0-4.961c-1.184 0-2.149.964-2.149 2.149s.965 2.149 2.149 2.149c1.185 0 2.149-.964 2.149-2.149s-.965-2.149-2.149-2.149z"/><path fill="#FFF" d="M193.342 159.246a2.48 2.48 0 1 0 0-4.96 2.48 2.48 0 0 0 0 4.96"/><path fill="#8BD7F8" d="M193.342 159.577a2.815 2.815 0 0 1-2.812-2.812 2.815 2.815 0 0 1 2.812-2.812 2.815 2.815 0 0 1 2.811 2.812 2.815 2.815 0 0 1-2.811 2.812zm0-4.961c-1.186 0-2.149.964-2.149 2.149s.964 2.149 2.149 2.149 2.149-.964 2.149-2.149-.964-2.149-2.149-2.149zm-17.056-3.462h-2.965v-2.938h2.965v2.938zm-2.634-.331h2.304v-2.276h-2.304v2.276zm10.494.331h-2.965v-2.938h2.965v2.938zm-2.633-.331h2.303v-2.276h-2.303v2.276zm-1.297.331h-2.965v-2.938h2.965v2.938zm-2.634-.331h2.303v-2.276h-2.303v2.276zm10.494.331h-2.965v-2.938h2.965v2.938zm-2.634-.331h2.303v-2.276h-2.303v2.276zm6.564.331h-2.965v-2.938h2.965v2.938zm-2.634-.331h2.303v-2.276h-2.303v2.276zm6.547.331h-2.964v-2.938h2.964v2.938zm-2.634-.331h2.304v-2.276h-2.304v2.276z"/><path fill="#E0F3FD" d="M438.016 49.522c-25.396 0-45.983 20.588-45.983 45.983 0 25.396 20.588 45.983 45.983 45.983 25.396 0 45.984-20.587 45.984-45.983 0-25.395-20.588-45.983-45.984-45.983zm0 83.249c-20.58 0-37.264-16.685-37.264-37.265 0-20.581 16.684-37.265 37.264-37.265 20.582 0 37.266 16.684 37.266 37.265-.001 20.581-16.684 37.265-37.266 37.265z"/><path fill="#FDFBE1" d="M438.016 72.545c-12.682 0-22.961 10.281-22.961 22.962 0 12.682 10.279 22.961 22.961 22.961s22.962-10.279 22.962-22.961c0-12.681-10.281-22.962-22.962-22.962zm.001 35.675c-7.257 0-13.141-5.884-13.141-13.14 0-7.257 5.884-13.141 13.141-13.141s13.14 5.884 13.14 13.141c-.001 7.256-5.884 13.14-13.14 13.14z"/><path fill="#A2D8CB" d="M437.9 132.068c-20.623 0-37.401-16.778-37.401-37.402 0-20.624 16.778-37.402 37.401-37.402 20.624 0 37.402 16.778 37.402 37.402.001 20.624-16.778 37.402-37.402 37.402zm0-73.197c-19.737 0-35.795 16.058-35.795 35.795 0 19.738 16.058 35.795 35.795 35.795 19.738 0 35.796-16.057 35.796-35.795 0-19.737-16.057-35.795-35.796-35.795z"/><path fill="#FFF" d="M65.713 107.444a4.027 4.027 0 1 0 0-8.056 4.028 4.028 0 1 0 0 8.056"/><path fill="#8BD7F8" d="M65.713 107.846a4.435 4.435 0 0 1-4.431-4.43 4.435 4.435 0 0 1 4.431-4.43 4.435 4.435 0 0 1 4.43 4.43 4.435 4.435 0 0 1-4.43 4.43zm0-8.057c-2 0-3.627 1.627-3.627 3.627s1.627 3.627 3.627 3.627c2 0 3.626-1.627 3.626-3.627s-1.627-3.627-3.626-3.627z"/><path fill="#FFF" d="M136.619 120.622a4.028 4.028 0 1 0 0-8.056 4.028 4.028 0 0 0 0 8.056"/><path fill="#8BD7F8" d="M136.619 121.023a4.435 4.435 0 0 1-4.431-4.43 4.435 4.435 0 0 1 4.431-4.43 4.435 4.435 0 0 1 4.43 4.43 4.435 4.435 0 0 1-4.43 4.43zm0-8.056c-2 0-3.627 1.627-3.627 3.627s1.627 3.627 3.627 3.627c2 0 3.626-1.627 3.626-3.627s-1.627-3.627-3.626-3.627z"/><path fill="#FFF" d="M222.976 74.6a4.028 4.028 0 1 0 0-8.056 4.028 4.028 0 0 0 0 8.056"/><path fill="#8BD7F8" d="M222.976 75.001c-2.443 0-4.431-1.987-4.431-4.43s1.987-4.43 4.431-4.43c2.443 0 4.43 1.987 4.43 4.43s-1.987 4.43-4.43 4.43zm0-8.057c-2 0-3.627 1.627-3.627 3.627 0 2 1.627 3.626 3.627 3.626 2 0 3.626-1.627 3.626-3.626a3.63 3.63 0 0 0-3.626-3.627z"/><path fill="#FFF" d="M355.905 48.358a4.028 4.028 0 1 0 0-8.057 4.028 4.028 0 0 0 0 8.057"/><path fill="#8BD7F8" d="M355.905 48.76a4.436 4.436 0 0 1-4.431-4.43 4.436 4.436 0 0 1 4.431-4.431 4.435 4.435 0 0 1 4.43 4.431 4.434 4.434 0 0 1-4.43 4.43zm0-8.057c-2 0-3.627 1.627-3.627 3.627 0 2 1.627 3.626 3.627 3.626s3.627-1.627 3.627-3.626a3.632 3.632 0 0 0-3.627-3.627z"/><path fill="#FFF" d="M77.224 94.792h39.748v64.931H77.224z"/><defs><path id="a" d="M117.223 159.974H77.224V94.792h39.999v65.182zm-39.497-.502h38.996V95.295H77.726v64.177z"/></defs><use xlink:href="#a" overflow="visible" fill="#8BD7F8"/><clipPath id="b"><use xlink:href="#a" overflow="visible"/></clipPath><path clip-path="url(#b)" fill="#8BD7F8" d="M116.972 159.723H77.476v-64.68h39.496v64.68zm-38.995-.502h38.494V95.545H77.977v63.676z"/><path fill="#8BD7F8" d="M86.473 103.659h-3.958V99.7h3.958v3.959zm-3.456-.501h2.955v-2.956h-2.955v2.956zm13.768.501h-3.959V99.7h3.959v3.959zm-3.456-.501h2.954v-2.956h-2.954v2.956zm13.555.501h-3.96V99.7h3.96v3.959zm-3.458-.501h2.955v-2.956h-2.955v2.956zm-11.903.501h-3.959V99.7h3.959v3.959zm-3.458-.501h2.956v-2.956h-2.956v2.956zm13.768.501h-3.958V99.7h3.958v3.959zm-3.456-.501h2.955v-2.956h-2.955v2.956zm13.556.501h-3.959V99.7h3.959v3.959zm-3.457-.501h2.954v-2.956h-2.954v2.956zm-22.003 17.567h-3.958v-3.959h3.958v3.959zm-3.456-.502h2.955v-2.956h-2.955v2.956zm13.768.502h-3.959v-3.959h3.959v3.959zm-3.456-.502h2.954v-2.956h-2.954v2.956zm13.555.502h-3.96v-3.959h3.96v3.959zm-3.458-.502h2.955v-2.956h-2.955v2.956zm-11.903.502h-3.959v-3.959h3.959v3.959zm-3.458-.502h2.956v-2.956h-2.956v2.956zm13.768.502h-3.958v-3.959h3.958v3.959zm-3.456-.502h2.955v-2.956h-2.955v2.956zm13.556.502h-3.959v-3.959h3.959v3.959zm-3.457-.502h2.954v-2.956h-2.954v2.956zm-22.003 18.703h-3.958v-3.959h3.958v3.959zm-3.456-.502h2.955v-2.955h-2.955v2.955zm13.768.502h-3.959v-3.959h3.959v3.959zm-3.456-.502h2.954v-2.955h-2.954v2.955zm13.555.502h-3.96v-3.959h3.96v3.959zm-3.458-.502h2.955v-2.955h-2.955v2.955zm-11.903.502h-3.959v-3.959h3.959v3.959zm-3.458-.502h2.956v-2.955h-2.956v2.955zm13.768.502h-3.958v-3.959h3.958v3.959zm-3.456-.502h2.955v-2.955h-2.955v2.955zm13.556.502h-3.959v-3.959h3.959v3.959zm-3.457-.502h2.954v-2.955h-2.954v2.955zm-22.003-28.509h-3.958v-3.959h3.958v3.959zm-3.456-.502h2.955v-2.955h-2.955v2.955zm13.768.502h-3.959v-3.959h3.959v3.959zm-3.456-.502h2.954v-2.955h-2.954v2.955zm13.555.502h-3.96v-3.959h3.96v3.959zm-3.458-.502h2.955v-2.955h-2.955v2.955zm-11.903.502h-3.959v-3.959h3.959v3.959zm-3.458-.502h2.956v-2.955h-2.956v2.955zm13.768.502h-3.958v-3.959h3.958v3.959zm-3.456-.502h2.955v-2.955h-2.955v2.955zm13.556.502h-3.959v-3.959h3.959v3.959zm-3.457-.502h2.954v-2.955h-2.954v2.955zM86.473 126.98h-3.958v-3.959h3.958v3.959zm-3.456-.501h2.955v-2.956h-2.955v2.956zm13.768.501h-3.959v-3.959h3.959v3.959zm-3.456-.501h2.954v-2.956h-2.954v2.956zm13.555.501h-3.96v-3.959h3.96v3.959zm-3.458-.501h2.955v-2.956h-2.955v2.956zm-11.903.501h-3.959v-3.959h3.959v3.959zm-3.458-.501h2.956v-2.956h-2.956v2.956zm13.768.501h-3.958v-3.959h3.958v3.959zm-3.456-.501h2.955v-2.956h-2.955v2.956zm13.556.501h-3.959v-3.959h3.959v3.959zm-3.457-.501h2.954v-2.956h-2.954v2.956zm-22.003 18.704h-3.958v-3.959h3.958v3.959zm-3.456-.501h2.955v-2.957h-2.955v2.957zm3.456 11.349h-3.958v-3.96h3.958v3.96zm-3.456-.502h2.955v-2.956h-2.955v2.956zm13.768-10.346h-3.959v-3.959h3.959v3.959zm-3.456-.501h2.954v-2.957h-2.954v2.957zm13.555.501h-3.96v-3.959h3.96v3.959zm-3.458-.501h2.955v-2.957h-2.955v2.957zm3.458 11.349h-3.96v-3.96h3.96v3.96zm-3.458-.502h2.955v-2.956h-2.955v2.956zm-11.903-10.346h-3.959v-3.959h3.959v3.959zm-3.458-.501h2.956v-2.957h-2.956v2.957zm3.458 11.349h-3.959v-3.96h3.959v3.96zm-3.458-.502h2.956v-2.956h-2.956v2.956zm13.768-10.346h-3.958v-3.959h3.958v3.959zm-3.456-.501h2.955v-2.957h-2.955v2.957zm13.556.856h-3.959v-3.959h3.959v3.959zm-3.457-.502h2.954v-2.956h-2.954v2.956zm3.457 10.995h-3.959v-3.96h3.959v3.96zm-3.457-.502h2.954v-2.956h-2.954v2.956zm-25.961-43.708h29.417v.502H82.515zm0 18.201h29.417v.502H82.515zm0-16.384h29.417v.501H82.515zm0 18.2h29.417v.502H82.515z"/><defs><path id="c" d="M117.223 159.974H77.224V94.792h39.999v65.182zm-39.497-.502h38.996V95.295H77.726v64.177z"/></defs><use xlink:href="#c" overflow="visible" fill="#8BD7F8"/><clipPath id="d"><use xlink:href="#c" overflow="visible"/></clipPath><path clip-path="url(#d)" fill="#8BD7F8" d="M101.741 159.723h-9.035v-9.428h9.035v9.428zm-8.534-.502h8.032v-8.425h-8.032v8.425z"/><g fill="#8BD7F8"><path d="M260.148 156.866h-17.382v-20.489h17.382v20.489zm-16.761-.62h16.14v-19.249h-16.14v19.249zm14.501-21.723h-12.86v-17.156h12.86v17.156zm-12.24-.62h11.619v-15.915h-11.619v15.915zm10.837-17.333h-10.056v-8.999h10.056v8.999zm-9.435-.621h8.813v-7.758h-8.813v7.758z"/><path d="M248.379 156.866h-3.618v-17.177c0-.803.654-1.093 1.093-1.093h1.433c.802 0 1.093.654 1.093 1.093v17.177zm-2.997-.62h2.377v-16.557c-.003-.14-.055-.473-.472-.473h-1.433c-.14.002-.472.055-.472.473v16.557zm7.884.62h-3.618v-17.177c0-.803.654-1.093 1.093-1.093h1.431c.802 0 1.093.654 1.093 1.093v17.177zm-2.997-.62h2.376v-16.557c-.003-.14-.055-.473-.473-.473h-1.431c-.14.002-.473.055-.473.473v16.557zm7.885.62h-3.619v-17.177c0-.803.655-1.093 1.093-1.093h1.431c.802 0 1.095.654 1.095 1.093v17.177zm-2.998-.62h2.377v-16.557c-.004-.14-.055-.473-.474-.473h-1.431c-.14.002-.473.055-.473.473v16.557zm7.114-19.25h-21.624l1.043-3.062h19.536l1.045 3.062zm-20.758-.62h19.89l-.62-1.821h-18.649l-.621 1.821zm17.688-18.443h-15.487l.85-1.98h13.787l.85 1.98zm-14.545-.621h13.604l-.316-.739h-12.971l-.317.739zm3.394 5.697h-1.62v-4.062h1.62v4.062zm-.999-.621h.378v-2.819h-.378v2.819zm5.217.621h-1.62v-4.062h1.62v4.062zm-.999-.621h.379v-2.819h-.379v2.819zm-1.11.621h-1.619v-4.062h1.619v4.062zm-.998-.621h.378v-2.819h-.378v2.819zm5.216.621h-1.62v-4.062h1.62v4.062zm-.999-.621h.379v-2.819h-.379v2.819zm3.108.621h-1.619v-4.062h1.619v4.062zm-.999-.621h.379v-2.819h-.379v2.819zm-4.028-7.094a3.227 3.227 0 0 1-3.224-3.224 3.227 3.227 0 0 1 3.224-3.224 3.227 3.227 0 0 1 3.224 3.224 3.229 3.229 0 0 1-3.224 3.224zm0-5.827c-1.436 0-2.604 1.168-2.604 2.604s1.168 2.604 2.604 2.604c1.436 0 2.604-1.168 2.604-2.604s-1.168-2.604-2.604-2.604z"/><path d="M253.443 112.658h-2.42v-2.197h.62v1.576h1.8zm1.572-4.47h-7.113v-3.775c0-2.002 1.654-2.531 2.529-2.531h2.053c2.002 0 2.531 1.656 2.531 2.531v3.775zm-6.494-.62h5.873v-3.155c0-.195-.065-1.91-1.911-1.91h-2.053c-.195.001-1.91.065-1.91 1.91v3.155z"/><path d="M251.147 96.28h.621v6.077h-.621zm11.273 63.697h-21.925v-3.73h21.925v3.73zm-21.305-.621h20.684v-2.488h-20.684v2.488z"/></g><path fill="#8BD7F8" d="M34.155 81.82H4.322c-1.721 0-3.019-1.185-3.019-2.757 0-1.573 1.298-2.76 3.019-2.76h8.698c.977-.079 1.767-.932 1.767-1.942 0-.962-.69-1.771-1.641-1.925l-2.074.005c-1.721 0-3.019-1.186-3.019-2.759a2.762 2.762 0 0 1 2.759-2.759h21.777a2.763 2.763 0 0 1 2.759 2.759c0 1.47-1.168 2.759-2.499 2.759h-1.923c-.887.148-1.578.958-1.578 1.92a1.96 1.96 0 0 0 1.804 1.944l3.002-.001c1.331 0 2.499 1.29 2.499 2.76 0 1.468-1.167 2.756-2.498 2.756zM10.813 67.726a1.958 1.958 0 0 0-1.956 1.956c0 1.133.932 1.956 2.215 1.956h2.138c1.406.222 2.38 1.365 2.38 2.723a2.768 2.768 0 0 1-2.538 2.745l-8.729.001c-1.284 0-2.215.823-2.215 1.957 0 1.133.932 1.955 2.215 1.955h29.833c.784 0 1.695-.854 1.695-1.955 0-1.102-.911-1.957-1.695-1.957h-3.032c-1.458-.11-2.577-1.315-2.577-2.746 0-1.358.974-2.501 2.317-2.718l1.987-.005c.784 0 1.696-.854 1.696-1.956a1.958 1.958 0 0 0-1.956-1.956H10.813zM47.185 81.82h-5.837a2.88 2.88 0 0 1-2.877-2.876 2.88 2.88 0 0 1 2.877-2.876h5.837a2.88 2.88 0 0 1 2.877 2.876 2.88 2.88 0 0 1-2.877 2.876zm-5.837-4.949c-1.144 0-2.073.93-2.073 2.073 0 1.144.93 2.074 2.073 2.074h5.837c1.144 0 2.074-.93 2.074-2.074 0-1.143-.93-2.073-2.074-2.073h-5.837zM62 40.703h-5.837a2.88 2.88 0 0 1-2.876-2.877 2.88 2.88 0 0 1 2.876-2.876H62a2.88 2.88 0 0 1 2.877 2.876A2.88 2.88 0 0 1 62 40.703zm-5.837-4.95c-1.144 0-2.073.93-2.073 2.073 0 1.144.93 2.074 2.073 2.074H62c1.144 0 2.074-.93 2.074-2.074A2.076 2.076 0 0 0 62 35.753h-5.837zm390.022-10.301h-22.431a2.88 2.88 0 0 1-2.876-2.877 2.879 2.879 0 0 1 2.876-2.876h22.431a2.88 2.88 0 0 1 2.877 2.876 2.88 2.88 0 0 1-2.877 2.877zm-22.431-4.95c-1.143 0-2.073.93-2.073 2.073 0 1.144.931 2.074 2.073 2.074h22.431c1.144 0 2.074-.93 2.074-2.074a2.076 2.076 0 0 0-2.074-2.073h-22.431zM94.622 40.703H72.651a2.88 2.88 0 0 1-2.876-2.877 2.88 2.88 0 0 1 2.876-2.876h21.971a2.88 2.88 0 0 1 2.877 2.876 2.879 2.879 0 0 1-2.877 2.877zm-21.971-4.95c-1.143 0-2.073.93-2.073 2.073 0 1.144.93 2.074 2.073 2.074h21.971c1.144 0 2.074-.93 2.074-2.074 0-1.143-.93-2.073-2.074-2.073H72.651zm98.757 24.869H152.52a2.45 2.45 0 0 1-2.447-2.446c0-1.303 1.038-2.447 2.221-2.447h1.668c.735-.124 1.315-.804 1.315-1.612 0-.851-.666-1.568-1.516-1.633l-2.6.001c-1.183 0-2.22-1.143-2.22-2.446 0-1.303 1.038-2.445 2.22-2.445h25.875c1.523 0 2.672 1.051 2.672 2.445 0 1.395-1.149 2.446-2.672 2.446h-7.544c-.815.066-1.479.783-1.479 1.632 0 .808.58 1.488 1.378 1.617l1.791-.005c1.522 0 2.671 1.052 2.671 2.447a2.448 2.448 0 0 1-2.445 2.446zm-20.246-12.225c-.655 0-1.417.717-1.417 1.642 0 .925.762 1.643 1.417 1.643h2.631c1.296.098 2.288 1.167 2.288 2.435a2.432 2.432 0 0 1-2.055 2.41l-1.732.005c-.655 0-1.417.718-1.417 1.644 0 .906.738 1.643 1.644 1.643h18.888c.906 0 1.643-.737 1.643-1.643 0-.952-.786-1.644-1.868-1.644h-1.854c-1.253-.197-2.117-1.21-2.117-2.415 0-1.265.988-2.334 2.25-2.434l7.576-.001c1.083 0 1.869-.691 1.869-1.643 0-.952-.786-1.642-1.869-1.642h-25.877zm47.151 12.225h-16.74c-1.405 0-2.549-1.143-2.549-2.548s1.144-2.548 2.549-2.548h16.74c1.405 0 2.549 1.143 2.549 2.548s-1.144 2.548-2.549 2.548zm-16.741-4.293c-.963 0-1.746.782-1.746 1.745s.783 1.745 1.746 1.745h16.74c.963 0 1.746-.783 1.746-1.745s-.783-1.745-1.746-1.745h-16.74z"/><g fill="#8BD7F8"><path d="M183.041 110.089h-2.351c-.669 0-1.26-.454-1.436-1.104l-.171-.641a1.926 1.926 0 0 1-1.374-1.854v-.964a1.33 1.33 0 0 1 1.328-1.329h5.657c.75.011 1.332.599 1.332 1.337v.964c0 .854-.574 1.606-1.373 1.848l-.171.639a1.5 1.5 0 0 1-1.441 1.104zm1.646-5.09h-5.65a.52.52 0 0 0-.524.526v.964c0 .563.403 1.033.958 1.121l.259.04.3 1.125c.082.305.348.51.66.51h2.351a.683.683 0 0 0 .665-.511l.302-1.126.26-.038c.544-.082.955-.561.955-1.113v-.964a.536.536 0 0 0-.536-.534z"/><path d="M184.383 106.908h-5.034a1.74 1.74 0 0 1-1.72-1.471 7.095 7.095 0 0 0-1.896-3.827 8.479 8.479 0 0 1-2.375-5.813 8.466 8.466 0 0 1 2.433-6.063 8.472 8.472 0 0 1 6.022-2.542c4.752 0 8.568 3.819 8.568 8.513a8.467 8.467 0 0 1-2.389 5.91 6.989 6.989 0 0 0-1.884 3.82 1.74 1.74 0 0 1-1.725 1.473zm-2.507-18.912c-2.132.016-4.069.832-5.512 2.301a7.667 7.667 0 0 0-2.202 5.492 7.67 7.67 0 0 0 2.149 5.263 7.917 7.917 0 0 1 2.112 4.267c.066.45.464.786.926.786h5.034a.94.94 0 0 0 .932-.793 7.78 7.78 0 0 1 2.1-4.254 7.666 7.666 0 0 0 2.163-5.353c0-4.25-3.455-7.709-7.702-7.709zm-.008-2.662a1.318 1.318 0 0 1-1.315-1.317v-3.204a1.317 1.317 0 0 1 2.633 0v3.204c0 .726-.591 1.317-1.318 1.317zm0-5.035a.508.508 0 0 0-.512.514v3.204a.514.514 0 0 0 1.027 0v-3.204a.517.517 0 0 0-.515-.514zm-11.68 16.716h-3.205c-.726 0-1.316-.591-1.316-1.316s.59-1.316 1.316-1.316h3.205a1.317 1.317 0 0 1 0 2.632zm-3.205-1.829a.513.513 0 1 0 0 1.027h3.205a.508.508 0 0 0 .512-.514.513.513 0 0 0-.512-.513h-3.205zm29.77 1.829h-3.204c-.726 0-1.316-.591-1.316-1.316s.59-1.316 1.316-1.316h3.204c.727 0 1.318.591 1.318 1.316s-.591 1.316-1.318 1.316zm-3.203-1.829a.513.513 0 1 0 0 1.027h3.204a.515.515 0 1 0 0-1.027h-3.204zm-22.212 12.358a1.315 1.315 0 0 1-1.314-1.314c0-.351.139-.681.389-.931l2.27-2.269c.485-.496 1.364-.5 1.858.002.508.51.509 1.344-.001 1.858l-2.271 2.272a1.326 1.326 0 0 1-.931.382zm2.272-4.096a.494.494 0 0 0-.356.147l-2.273 2.272a.511.511 0 0 0 0 .727.537.537 0 0 0 .723-.002l2.267-2.269a.51.51 0 0 0-.361-.875zm16.519-14.692a1.33 1.33 0 0 1-.93-.378 1.308 1.308 0 0 1-.005-1.867l2.269-2.269c.5-.501 1.368-.501 1.864.002a1.316 1.316 0 0 1-.002 1.86l-2.271 2.269a1.305 1.305 0 0 1-.925.383zm2.268-4.099a.513.513 0 0 0-.364.153l-2.271 2.271a.506.506 0 0 0-.001.723c.195.189.537.193.725.002l2.272-2.271a.513.513 0 0 0 .152-.364.5.5 0 0 0-.151-.359.504.504 0 0 0-.362-.155zm-18.787 4.091a1.32 1.32 0 0 1-.927-.38l-2.275-2.269a1.314 1.314 0 0 1 0-1.866c.49-.496 1.356-.499 1.859 0l2.271 2.271c.51.514.51 1.35 0 1.862-.242.244-.58.382-.928.382zm-2.274-4.097a.502.502 0 0 0-.358.15.511.511 0 0 0-.002.729l2.274 2.268a.536.536 0 0 0 .721 0 .518.518 0 0 0-.001-.727l-2.269-2.269a.521.521 0 0 0-.365-.151zm21.056 22.893c-.346 0-.684-.138-.926-.38l-2.271-2.271a1.305 1.305 0 0 1-.388-.934c0-.351.139-.681.39-.93.497-.495 1.363-.498 1.861.003l2.263 2.269c.51.513.511 1.348.001 1.861a1.328 1.328 0 0 1-.93.382zm-2.266-4.096a.51.51 0 0 0-.364.151.509.509 0 0 0-.001.725l2.271 2.271a.534.534 0 0 0 .718 0 .512.512 0 0 0 0-.728l-2.263-2.269a.507.507 0 0 0-.361-.15z"/></g><path fill="#F15D62" d="M437.901 119.642c-13.772 0-24.977-11.203-24.977-24.975 0-13.772 11.204-24.977 24.977-24.977 13.771 0 24.975 11.205 24.975 24.977 0 13.771-11.203 24.975-24.975 24.975zm0-48.345c-12.886 0-23.37 10.484-23.37 23.37 0 12.885 10.484 23.368 23.37 23.368s23.368-10.483 23.368-23.368c.001-12.886-10.482-23.37-23.368-23.37z"/><path fill="#5D84C3" d="M437.901 142.638c-26.452 0-47.972-21.521-47.972-47.972 0-26.452 21.52-47.971 47.972-47.971 26.451 0 47.972 21.52 47.972 47.971 0 26.451-21.52 47.972-47.972 47.972zm0-94.337c-25.566 0-46.365 20.799-46.365 46.365s20.799 46.365 46.365 46.365c25.565 0 46.365-20.8 46.365-46.365s-20.799-46.365-46.365-46.365z"/><path fill="#939598" d="M437.872 94.702l35.331 31.243"/><path fill="#DDDCD2" d="M473.203 126.749a.8.8 0 0 1-.532-.202l-35.33-31.243a.803.803 0 1 1 1.064-1.203l35.33 31.243a.803.803 0 0 1-.532 1.405z"/><g fill="#8BD7F8"><path d="M477.136 64.368l4.053-11.31 13.905-11.082-4.053 11.31-13.905 11.082zm5.411-10.338l-1.992 5.559 9.128-7.274 1.992-5.56-9.128 7.275z"/><path d="M477.136 64.368l4.053-11.31 13.905-11.082-4.053 11.31-13.905 11.082zm5.411-10.338l-1.992 5.559 9.128-7.274 1.992-5.56-9.128 7.275z"/><path d="M476.472 62.794l13.932-11.057 11.926-1.427-13.932 11.056-11.926 1.428zm14.573-9.516l-9.13 7.245 5.841-.699 9.13-7.245-5.841.699z"/><path d="M476.472 62.794l13.932-11.057 11.926-1.427-13.932 11.056-11.926 1.428zm14.573-9.516l-9.13 7.245 5.841-.699 9.13-7.245-5.841.699z"/><path d="M437.873 95.506a.803.803 0 0 1-.502-1.432l56.419-45.085a.804.804 0 0 1 1.003 1.255L438.374 95.33a.8.8 0 0 1-.501.176z"/></g><path fill="#FFD682" d="M342.708 95.095a.402.402 0 0 1-.11-.789l8.525-2.4a.4.4 0 1 1 .219.773l-8.525 2.4a.379.379 0 0 1-.109.016z"/><path fill="#A2D8CB" d="M354.874 102.848a.401.401 0 0 1-.395-.477l1.301-6.826a.402.402 0 0 1 .789.151l-1.301 6.826a.403.403 0 0 1-.394.326z"/><path fill="#5D84C3" d="M348.186 107.304a.398.398 0 0 1-.171-.038l-5.892-2.753a.401.401 0 1 1 .341-.728l5.892 2.754a.401.401 0 0 1-.17.765z"/><g fill="#8BD7F8"><path d="M356.855 90.964c-1.11 0-2.641-1.805-2.641-3.114 0-1.819 1.185-3.3 2.641-3.3 1.457 0 2.641 1.48 2.641 3.3 0 1.28-1.555 3.114-2.641 3.114zm0-5.61c-1.013 0-1.837 1.119-1.837 2.496 0 .906 1.221 2.311 1.837 2.311.548 0 1.838-1.367 1.838-2.311 0-1.377-.824-2.496-1.838-2.496z"/><path d="M352.909 93.843l-.725-.346.584-1.227c.44-.928 1.709-1.219 2.426-1.309.07-.062.299-.547.422-.982l.773.218c-.156.552-.505 1.488-1.095 1.562-.929.117-1.603.438-1.801.856l-.584 1.228zm8.041 0l-.583-1.228c-.199-.419-.872-.739-1.803-.856-.555-.069-.926-.934-1.14-1.646l.77-.23c.147.49.397 1.013.525 1.097.663.073 1.934.363 2.373 1.293l.582 1.226-.724.344z"/><path d="M356.931 95.853a6.614 6.614 0 0 1-6.607-6.605c0-3.644 2.965-6.607 6.607-6.607s6.606 2.964 6.606 6.607a6.613 6.613 0 0 1-6.606 6.605zm0-12.411a5.811 5.811 0 0 0-5.804 5.805c0 3.199 2.604 5.802 5.804 5.802s5.804-2.603 5.804-5.802a5.813 5.813 0 0 0-5.804-5.805z"/></g><g fill="#8BD7F8"><path d="M333.808 101.526c-1.619 0-3.938-2.759-3.938-4.686 0-2.746 1.767-4.979 3.938-4.979s3.937 2.233 3.937 4.979c-.001 1.884-2.354 4.686-3.937 4.686zm0-8.862c-1.728 0-3.134 1.873-3.134 4.177 0 1.6 2.027 3.883 3.134 3.883 1.052 0 3.134-2.359 3.134-3.883-.001-2.304-1.407-4.177-3.134-4.177z"/><path d="M327.365 106.203l-.725-.345.922-1.936c.647-1.368 2.566-1.801 3.651-1.937.208-.063.628-.898.859-1.719l.773.218c-.186.657-.706 2.194-1.532 2.298-.743.093-2.524.424-3.026 1.483l-.922 1.938zm13.12 0l-.921-1.936c-.505-1.061-2.286-1.391-3.029-1.484-.822-.103-1.396-1.738-1.604-2.437l.77-.229c.27.901.719 1.793.943 1.87 1.076.134 2.994.566 3.645 1.935l.921 1.936-.725.345z"/><path d="M333.925 109.247c-5.625 0-10.201-4.576-10.201-10.201s4.576-10.202 10.201-10.202 10.201 4.577 10.201 10.202-4.576 10.201-10.201 10.201zm0-19.6c-5.182 0-9.398 4.216-9.398 9.398s4.217 9.398 9.398 9.398 9.398-4.216 9.398-9.398-4.217-9.398-9.398-9.398z"/></g><g fill="#8BD7F8"><path d="M354.225 110.59c-1.111 0-2.641-1.804-2.641-3.114 0-1.819 1.185-3.301 2.641-3.301 1.455 0 2.64 1.481 2.64 3.301-.001 1.281-1.554 3.114-2.64 3.114zm0-5.611c-1.013 0-1.837 1.12-1.837 2.497 0 .907 1.22 2.312 1.837 2.312.547 0 1.836-1.367 1.836-2.312 0-1.377-.824-2.497-1.836-2.497z"/><path d="M350.28 113.468l-.727-.343.581-1.228c.443-.93 1.712-1.22 2.429-1.309.068-.063.298-.548.42-.983l.773.218c-.156.552-.504 1.488-1.093 1.563-.929.116-1.604.437-1.804.856l-.579 1.226zm8.037 0l-.582-1.227c-.199-.419-.872-.739-1.802-.855-.556-.07-.927-.935-1.14-1.647l.771-.229c.146.49.396 1.013.523 1.097.663.073 1.933.362 2.373 1.292l.583 1.228-.726.341z"/><path d="M354.298 115.479a6.612 6.612 0 0 1-6.606-6.604 6.615 6.615 0 0 1 6.606-6.608 6.614 6.614 0 0 1 6.606 6.608 6.612 6.612 0 0 1-6.606 6.604zm0-12.41a5.811 5.811 0 0 0-5.803 5.805 5.81 5.81 0 0 0 5.803 5.802 5.81 5.81 0 0 0 5.804-5.802 5.811 5.811 0 0 0-5.804-5.805z"/></g><path fill="#8BD7F8" d="M343.63 125.642c-14.658 0-26.583-11.925-26.583-26.583 0-14.657 11.925-26.583 26.583-26.583s26.583 11.925 26.583 26.583c0 14.658-11.925 26.583-26.583 26.583zm0-52.363c-14.215 0-25.779 11.564-25.779 25.779s11.564 25.78 25.779 25.78 25.779-11.565 25.779-25.78-11.564-25.779-25.779-25.779z"/></svg>