<svg xmlns="http://www.w3.org/2000/svg" width="512" height="512" viewBox="0 0 512 512"><path fill="#F1F2F2" d="M310.044 64.762h-163v114.673h200.013l-.011-60.244h-37.002z"/><path fill="#FFF" d="M290.751 41.961v85.108h85.373"/><path fill="#8BD7F8" d="M376.124 128.004h-86.308V41.961h1.87v84.174h84.438z"/><path fill="#8BD7F8" d="M377.058 512H118.59V41.027h173.146l85.321 85.319V512zm-256.599-1.869h254.729v-383.01l-84.226-84.225H120.459v467.235z"/><path fill="#A2D8CB" d="M347.057 402.771h-27.385a1.867 1.867 0 1 1 0-3.736h27.385a1.867 1.867 0 1 1 0 3.736z"/><path fill="#F7941E" d="M324.742 453.913h22.315"/><path fill="#F15A29" d="M347.057 455.782h-22.314a1.868 1.868 0 1 1 0-3.737h22.314a1.868 1.868 0 1 1 0 3.737z"/><path fill="#8BD7F8" d="M207.51 373.941h-58.97a1.869 1.869 0 1 1 0-3.738h58.97a1.869 1.869 0 1 1 0 3.738zm50.765-.102H217.16a1.869 1.869 0 1 1 0-3.737h41.115a1.868 1.868 0 1 1 0 3.737zm88.782 0h-37.013a1.868 1.868 0 1 1 0-3.737h37.013a1.868 1.868 0 1 1 0 3.737zm-47.148 0h-31.422a1.868 1.868 0 1 1 0-3.737h31.422a1.868 1.868 0 1 1 0 3.737z"/><path fill="#A2D8CB" d="M240.358 402.871H148.54a1.868 1.868 0 1 1 0-3.737h91.818a1.869 1.869 0 1 1 0 3.737zm68.506-.1h-56.48a1.868 1.868 0 1 1 0-3.736h56.48a1.867 1.867 0 1 1 0 3.736z"/><path fill="#485A93" d="M194.053 347.126H148.54a1.869 1.869 0 1 1 0-3.737h45.513a1.868 1.868 0 1 1 0 3.737zm90.862-.097H203.7a1.869 1.869 0 1 1 0-3.737h81.215a1.868 1.868 0 1 1 0 3.737zm62.131 0h-52.951a1.868 1.868 0 1 1 0-3.737h52.951c1.033 0 1.868.836 1.868 1.868a1.867 1.867 0 0 1-1.868 1.869z"/><path fill="#F7941E" d="M148.541 454.016h58.969"/><path fill="#F15A29" d="M207.51 455.885h-58.97a1.87 1.87 0 0 1 0-3.738h58.97a1.869 1.869 0 1 1 0 3.738z"/><path fill="#F7941E" d="M217.16 453.913h51.327"/><path fill="#F15A29" d="M268.487 455.782H217.16a1.869 1.869 0 1 1 0-3.737h51.327a1.867 1.867 0 1 1 0 3.737z"/><path fill="#F7941E" d="M278.703 453.913h35.902"/><path fill="#F15A29" d="M314.605 455.782h-35.902a1.868 1.868 0 1 1 0-3.737h35.902a1.867 1.867 0 1 1 0 3.737z"/><path fill="#FFD682" d="M226.336 429.069h-77.795a1.869 1.869 0 1 1 0-3.737h77.795a1.868 1.868 0 1 1 0 3.737zm58.579-.094h-48.929a1.869 1.869 0 1 1 0-3.738h48.929c1.032 0 1.868.836 1.868 1.869s-.836 1.869-1.868 1.869zm62.131 0h-52.951a1.868 1.868 0 1 1 0-3.738h52.951c1.033 0 1.868.836 1.868 1.869s-.835 1.869-1.868 1.869z"/><path fill="#A2D8CB" d="M347.057 268.35h-27.385c-1.032 0-1.868-.836-1.868-1.869s.836-1.869 1.868-1.869h27.385a1.868 1.868 0 1 1 0 3.738z"/><path fill="#F7941E" d="M324.742 319.492h22.315"/><path fill="#F15A29" d="M347.057 321.36h-22.314a1.868 1.868 0 1 1 0-3.737h22.314a1.868 1.868 0 1 1 0 3.737z"/><path fill="#8BD7F8" d="M207.51 239.518h-58.97a1.869 1.869 0 1 1 0-3.738h58.97a1.869 1.869 0 1 1 0 3.738zm50.765-.101H217.16a1.87 1.87 0 0 1 0-3.738h41.115a1.868 1.868 0 0 1 0 3.738zm88.782 0h-37.013a1.869 1.869 0 1 1 0-3.738h37.013a1.869 1.869 0 1 1 0 3.738zm-47.148 0h-31.422a1.868 1.868 0 0 1 0-3.738h31.422a1.868 1.868 0 0 1 0 3.738z"/><path fill="#A2D8CB" d="M240.358 268.447H148.54a1.869 1.869 0 1 1 0-3.736h91.818a1.868 1.868 0 1 1 0 3.736zm68.506-.097h-56.48a1.869 1.869 0 1 1 0-3.738h56.48a1.868 1.868 0 1 1 0 3.738z"/><path fill="#485A93" d="M194.053 212.702H148.54a1.868 1.868 0 1 1 0-3.737h45.513a1.869 1.869 0 1 1 0 3.737zm90.862-.095H203.7a1.869 1.869 0 1 1 0-3.737h81.215a1.868 1.868 0 1 1 0 3.737zm62.131 0h-52.951a1.868 1.868 0 1 1 0-3.737h52.951c1.033 0 1.868.836 1.868 1.868a1.867 1.867 0 0 1-1.868 1.869z"/><path fill="#F7941E" d="M148.541 319.595h58.969"/><path fill="#F15A29" d="M207.51 321.463h-58.97a1.868 1.868 0 1 1 0-3.737h58.97a1.869 1.869 0 1 1 0 3.737z"/><path fill="#F7941E" d="M217.16 319.492h51.327"/><path fill="#F15A29" d="M268.487 321.36H217.16a1.868 1.868 0 1 1 0-3.737h51.327a1.868 1.868 0 1 1 0 3.737z"/><path fill="#F7941E" d="M278.703 319.492h35.902"/><path fill="#F15A29" d="M314.605 321.36h-35.902a1.868 1.868 0 1 1 0-3.737h35.902a1.868 1.868 0 1 1 0 3.737z"/><path fill="#FFD682" d="M226.336 294.646h-77.795a1.868 1.868 0 1 1 0-3.737h77.795a1.869 1.869 0 1 1 0 3.737zm58.579-.095h-48.929a1.868 1.868 0 1 1 0-3.737h48.929a1.868 1.868 0 1 1 0 3.737zm62.131 0h-52.951a1.868 1.868 0 1 1 0-3.737h52.951c1.033 0 1.868.836 1.868 1.869a1.867 1.867 0 0 1-1.868 1.868z"/><g fill="#8BD7F8"><path d="M73.899 469.814c-14.506 0-26.308-11.802-26.308-26.307 0-14.504 11.801-26.306 26.308-26.306 14.504 0 26.304 11.802 26.304 26.306 0 14.506-11.8 26.307-26.304 26.307zm0-50.744c-13.476 0-24.439 10.963-24.439 24.438s10.963 24.438 24.439 24.438c13.474 0 24.435-10.963 24.435-24.438S87.373 419.07 73.899 419.07z"/><path d="M72.964 428.358h1.869v82.317h-1.869z"/><path d="M86.73 444.212l1.328 1.314-13.771 13.92-1.329-1.314zm-3.234-15.854l1.328 1.313L74.3 440.318l-1.328-1.313zm-21.366 9.511l12.487 14.642-1.421 1.212-12.488-14.642z"/></g><path fill="#8BD7F8" d="M35.674 510.131h440.387V512H35.674z"/><path fill="#F15A29" d="M470.255 466.122h-20.26l-.145-.761a21.417 21.417 0 0 0-5.925-11.197 21.463 21.463 0 0 0-11.201-5.93l-.76-.145v-20.262l1.031.108a41.788 41.788 0 0 1 25.171 11.983 41.764 41.764 0 0 1 11.98 25.171l.109 1.033zm-18.726-1.868h16.641a39.921 39.921 0 0 0-11.324-23.013 39.922 39.922 0 0 0-23.012-11.327v16.642a23.321 23.321 0 0 1 11.413 6.287 23.262 23.262 0 0 1 6.282 11.411z"/><path fill="#8BD7F8" d="M428.684 511.103h-.004c-9.561 0-18.893-3.311-26.275-9.32l-.804-.653 14.334-14.337.64.438a21.473 21.473 0 0 0 12.126 3.725c5.75 0 11.155-2.24 15.222-6.306a21.418 21.418 0 0 0 5.929-11.2l.145-.761h20.26l-.107 1.031a41.778 41.778 0 0 1-11.98 25.169c-7.879 7.876-18.351 12.214-29.486 12.214zm-24.289-10.125c6.918 5.331 15.501 8.256 24.285 8.256h.004c10.638 0 20.638-4.143 28.162-11.667a39.925 39.925 0 0 0 11.324-23.01h-16.641a23.275 23.275 0 0 1-6.286 11.413 23.246 23.246 0 0 1-16.543 6.852 23.336 23.336 0 0 1-12.529-3.621l-11.776 11.777z"/><path fill="#A2D8CB" d="M396.958 496.486l-.653-.803c-13.524-16.621-12.279-40.595 2.893-55.764 6.754-6.75 15.694-11.006 25.171-11.983l1.03-.108v20.262l-.759.145a21.453 21.453 0 0 0-11.201 5.93c-7.307 7.307-8.391 18.809-2.579 27.35l.438.638-14.34 14.333zm26.573-66.572a39.922 39.922 0 0 0-23.013 11.327c-14.247 14.245-15.638 36.614-3.409 52.451l11.78-11.776c-5.832-9.208-4.529-21.316 3.228-29.073a23.296 23.296 0 0 1 11.414-6.287v-16.642z"/><path fill="#8BD7F8" d="M226.347 14.601h-8.697c-4.027 0-7.303-3.276-7.303-7.303 0-4.024 3.276-7.298 7.303-7.298h8.697c4.03 0 7.307 3.274 7.307 7.298 0 4.027-3.278 7.303-7.307 7.303zm-8.698-12.732a5.438 5.438 0 0 0-5.435 5.429 5.441 5.441 0 0 0 5.435 5.435h8.697a5.442 5.442 0 0 0 5.438-5.435c0-2.994-2.44-5.429-5.438-5.429h-8.697z"/><path fill="#FFF" d="M363.678 97.373a7.538 7.538 0 0 1-7.54 7.537h-19.64a7.536 7.536 0 0 1 0-15.07h19.64c4.163 0 7.54 3.372 7.54 7.533z"/><path fill="#8BD7F8" d="M356.138 105.844h-19.64c-4.672 0-8.472-3.801-8.472-8.471 0-4.669 3.8-8.468 8.472-8.468h19.64c4.673 0 8.474 3.799 8.474 8.468-.001 4.67-3.801 8.471-8.474 8.471zm-19.64-15.07c-3.642 0-6.604 2.96-6.604 6.599a6.61 6.61 0 0 0 6.604 6.602h19.64c3.642 0 6.605-2.962 6.605-6.602 0-3.639-2.964-6.599-6.605-6.599h-19.64z"/><path fill="#FFF" d="M91.253 364.434a7.533 7.533 0 0 1-7.537 7.536H64.074a7.533 7.533 0 0 1-7.534-7.536 7.533 7.533 0 0 1 7.534-7.533h19.643a7.532 7.532 0 0 1 7.536 7.533z"/><path fill="#8BD7F8" d="M83.717 372.905H64.074c-4.669 0-8.467-3.801-8.467-8.472 0-4.67 3.798-8.468 8.467-8.468h19.643c4.67 0 8.471 3.798 8.471 8.468 0 4.671-3.801 8.472-8.471 8.472zm-19.643-15.07a6.606 6.606 0 0 0-6.599 6.599c0 3.641 2.96 6.603 6.599 6.603h19.643a6.61 6.61 0 0 0 6.603-6.603c0-3.639-2.962-6.599-6.603-6.599H64.074zM198.466 14.601h-35.918c-4.024 0-7.3-3.276-7.3-7.303 0-4.024 3.275-7.298 7.3-7.298h35.918c4.026 0 7.303 3.274 7.303 7.298.001 4.027-3.276 7.303-7.303 7.303zM162.548 1.869a5.436 5.436 0 0 0-5.431 5.429 5.44 5.44 0 0 0 5.431 5.435h35.918a5.441 5.441 0 0 0 5.435-5.435 5.438 5.438 0 0 0-5.435-5.429h-35.918z"/><path fill="#FFF" d="M337.257 43.599h5.357a4.156 4.156 0 0 1 3.84 4.139 4.155 4.155 0 0 1-3.497 4.101h-3.395c-1.839 0-3.704 1.863-3.704 4.163a4.165 4.165 0 0 0 4.165 4.163h38.454c2.3 0 4.161-1.865 4.161-4.163 0-2.299-1.861-4.163-4.621-4.163h-3.773a4.15 4.15 0 0 1-3.493-4.101 4.154 4.154 0 0 1 3.829-4.139h15.357c2.756 0 4.621-1.863 4.621-4.163 0-2.297-1.865-4.161-4.621-4.161h-52.681c-1.836 0-3.701 1.863-3.701 4.161.001 2.299 1.866 4.163 3.702 4.163z"/><path fill="#8BD7F8" d="M378.478 61.098h-38.454a5.103 5.103 0 0 1-5.099-5.097c0-2.715 2.168-5.097 4.638-5.097h3.395c1.422-.241 2.563-1.578 2.563-3.167a3.234 3.234 0 0 0-2.978-3.207l-5.286.002c-2.469 0-4.636-2.381-4.636-5.097 0-2.714 2.167-5.095 4.636-5.095h52.681c3.166 0 5.555 2.191 5.555 5.095 0 2.906-2.389 5.097-5.555 5.097H374.58c-1.592.129-2.895 1.538-2.895 3.205a3.206 3.206 0 0 0 2.706 3.178l3.626-.012c3.166 0 5.555 2.191 5.555 5.097a5.101 5.101 0 0 1-5.094 5.098zm-41.221-24.889c-1.279 0-2.767 1.41-2.767 3.227 0 1.818 1.487 3.228 2.767 3.228h5.357c2.708.205 4.774 2.432 4.774 5.073a5.069 5.069 0 0 1-4.283 5.023l-3.543.012c-1.28 0-2.77 1.41-2.77 3.228a3.233 3.233 0 0 0 3.23 3.229h38.454A3.231 3.231 0 0 0 381.702 56c0-1.871-1.55-3.228-3.686-3.228h-3.773c-2.629-.412-4.428-2.524-4.428-5.035 0-2.635 2.061-4.862 4.69-5.07l15.431-.003c2.136 0 3.687-1.357 3.687-3.228 0-1.87-1.551-3.227-3.687-3.227h-52.679z"/><path fill="#FFF" d="M430.746 55.792a4.37 4.37 0 0 1-4.373 4.371h-34.081a4.373 4.373 0 0 1-4.373-4.371 4.373 4.373 0 0 1 4.373-4.369h34.081a4.371 4.371 0 0 1 4.373 4.369z"/><path fill="#8BD7F8" d="M426.373 61.098h-34.081a5.312 5.312 0 0 1-5.307-5.305 5.311 5.311 0 0 1 5.307-5.303h34.081a5.312 5.312 0 0 1 5.308 5.303 5.313 5.313 0 0 1-5.308 5.305zm-34.081-8.74a3.44 3.44 0 0 0-3.438 3.435 3.441 3.441 0 0 0 3.438 3.437h34.081a3.442 3.442 0 0 0 3.439-3.437 3.442 3.442 0 0 0-3.439-3.435h-34.081z"/><path fill="#FFF" d="M135.441 225.247a5.81 5.81 0 0 1-5.814 5.808H84.326a5.808 5.808 0 0 1 0-11.615h45.301a5.81 5.81 0 0 1 5.814 5.807z"/><path fill="#8BD7F8" d="M129.627 231.99H84.326c-3.717 0-6.741-3.025-6.741-6.743a6.749 6.749 0 0 1 6.741-6.741h45.301c3.721 0 6.749 3.024 6.749 6.741 0 3.718-3.027 6.743-6.749 6.743zm-45.301-11.616a4.878 4.878 0 0 0-4.872 4.873 4.878 4.878 0 0 0 4.872 4.874h45.301a4.882 4.882 0 0 0 4.88-4.874 4.882 4.882 0 0 0-4.88-4.873H84.326z"/><path fill="#FFF" d="M417.129 272.062c0 22.646-18.355 41.005-41.005 41.005-22.645 0-41.006-18.358-41.006-41.005 0-22.648 18.361-41.006 41.006-41.006 22.649-.001 41.005 18.358 41.005 41.006z"/><path fill="#8BD7F8" d="M376.124 314.001c-23.126 0-41.94-18.814-41.94-41.939 0-23.126 18.814-41.94 41.94-41.94 23.124 0 41.939 18.814 41.939 41.94 0 23.125-18.815 41.939-41.939 41.939zm0-82.011c-22.097 0-40.072 17.976-40.072 40.072 0 22.095 17.976 40.07 40.072 40.07 22.095 0 40.07-17.976 40.07-40.07 0-22.096-17.975-40.072-40.07-40.072z"/><path fill="#D7DF23" d="M397.872 292.941c.19.189.3.445.296.727a1.034 1.034 0 0 1-1.048 1.015l-42.023-.073a1.034 1.034 0 0 1-1.015-1.04 1.032 1.032 0 0 1 1.044-1.015l42.027.073c.282.003.536.12.719.313z"/><path fill="#485A93" d="M398.032 289.27l-6.631-22.1c-.332-1.105-1.23-2.605-2.047-3.423l-14.089-14.088a.745.745 0 0 0-1.055 0 .748.748 0 0 0 0 1.058l14.088 14.089c.643.642 1.409 1.919 1.672 2.795l2.843 9.472c-4.431 2.219-6.938 4.723-9.165 9.161l-9.467-2.844c-.876-.259-2.157-1.025-2.8-1.668l-14.091-14.088a.746.746 0 0 0-1.056 0 .75.75 0 0 0 0 1.059l14.088 14.084c.814.817 2.317 1.716 3.428 2.048l22.1 6.628c.74.224 1.416.099 1.851-.332.288-.292.441-.694.441-1.15a2.413 2.413 0 0 0-.11-.701zm-1.382.784c-.022.016-.146.037-.373-.032l-11.175-3.354c2.014-3.934 4.219-6.139 8.143-8.143l3.354 11.176c.044.149.052.256.052.311-.001.024-.008.042-.001.042z"/><path fill="#F7941E" d="M388.372 270.729a.75.75 0 0 1-1.278.529l-13.636-13.544c-.292-.293-.292-.767 0-1.059s.763-.292 1.055 0l13.64 13.548a.736.736 0 0 1 .219.526z"/><path fill="#8BD7F8" d="M383.192 275.863a.748.748 0 0 1-1.278.529L366.41 261.06a.757.757 0 0 1 0-1.059.75.75 0 0 1 1.059 0l15.504 15.337a.725.725 0 0 1 .219.525z"/><path fill="#FFD682" d="M378.054 280.98a.753.753 0 0 1-.215.529.748.748 0 0 1-1.059 0l-10.048-9.96a.75.75 0 0 1 0-1.055.75.75 0 0 1 1.059 0l10.048 9.961a.746.746 0 0 1 .215.525z"/><path fill="#FFF" d="M159.359 115.817c0 22.647-18.355 41.005-41.005 41.005-22.644 0-41.006-18.358-41.006-41.005s18.362-41.005 41.006-41.005c22.65 0 41.005 18.358 41.005 41.005z"/><path fill="#8BD7F8" d="M118.354 157.757c-23.126 0-41.94-18.813-41.94-41.94 0-23.126 18.813-41.939 41.94-41.939 23.125 0 41.939 18.813 41.939 41.939s-18.814 41.94-41.939 41.94zm0-82.011c-22.095 0-40.071 17.976-40.071 40.071s17.976 40.071 40.071 40.071 40.071-17.976 40.071-40.071c-.001-22.095-17.977-40.071-40.071-40.071z"/><path fill="#A2D8CB" d="M108.849 133.873H96.498v-21.41h12.351v21.41zm-8.613-3.738h4.876V116.2h-4.876v13.935z"/><path fill="#485A93" d="M123.948 133.873h-12.351V103.85h12.351v30.023zm-8.613-3.738h4.876v-22.549h-4.876v22.549z"/><path fill="#FFD682" d="M140.212 133.873h-12.348V97.765h12.348v36.108zm-8.61-3.738h4.873v-28.633h-4.873v28.633z"/></svg>