<svg xmlns="http://www.w3.org/2000/svg" width="512" height="512" viewBox="0 0 512 512"><path d="M450.144 328.14h40.209v6.313h-40.209zm45.968 0h15.756v6.313h-15.756z" fill="#D4EEF8"/><g fill="#D4EEF8"><path d="M15.591 154.629h36.704v4.495H15.591z"/><path d="M31.696 138.517h4.479v36.72h-4.479z"/></g><g fill="#FDBA12"><path d="M455.92 134.022h36.696v4.495H455.92z"/><path d="M472.024 117.918h4.487v36.711h-4.487z"/></g><g fill="#D4EEF8"><path d="M402.504 405.408h36.703v4.495h-36.703z"/><path d="M418.608 389.313h4.486v36.703h-4.486z"/></g><path fill="#FDBA12" d="M31.233 286.195c0 8.665-7.026 15.674-15.675 15.674-8.648 0-15.69-7.009-15.69-15.674 0-8.648 7.042-15.658 15.69-15.658 8.65 0 15.675 7.01 15.675 15.658z"/><path fill="#D4EEF8" d="M71.872 229.383c0 5.403-4.389 9.784-9.792 9.784-5.387 0-9.784-4.381-9.784-9.784s4.397-9.784 9.784-9.784c5.402 0 9.792 4.381 9.792 9.784z"/><path fill="#FDBA12" d="M456.48 373.265c0 5.403-4.382 9.784-9.793 9.784-5.387 0-9.784-4.381-9.784-9.784s4.397-9.784 9.784-9.784c5.412-.001 9.793 4.38 9.793 9.784z"/><path fill="#D4EEF8" d="M496.097 363.496c0 2.727-2.215 4.949-4.949 4.949s-4.966-2.223-4.966-4.949c0-2.742 2.231-4.965 4.966-4.965s4.949 2.223 4.949 4.965zM394.521 113.48c0-7.27 5.906-13.176 13.159-13.176 7.277 0 13.184 5.906 13.184 13.176 0 7.269-5.906 13.159-13.184 13.159-7.253 0-13.159-5.89-13.159-13.159zm65.829 89.301c0-3.838 3.116-6.969 6.945-6.969 3.861 0 6.985 3.131 6.985 6.969 0 3.854-3.124 6.953-6.985 6.953a6.946 6.946 0 0 1-6.945-6.953z"/><path fill="#E7E9ED" d="M256.574 424.442c-45.206 0-87.702-17.605-119.667-49.555-31.966-31.966-49.563-74.462-49.563-119.672 0-45.206 17.597-87.702 49.563-119.668 31.965-31.965 74.461-49.563 119.667-49.563 45.207 0 87.703 17.597 119.66 49.563 31.974 31.966 49.571 74.462 49.571 119.668 0 45.21-17.598 87.707-49.571 119.672-31.958 31.95-74.454 49.555-119.66 49.555zm0-329.33c-88.278 0-160.095 71.817-160.095 160.104 0 88.291 71.817 160.091 160.095 160.091 88.287 0 160.104-71.801 160.104-160.091 0-88.287-71.818-160.104-160.104-160.104z"/><path fill="#E7E9ED" d="M256.574 320.481c-35.981 0-65.261-29.289-65.261-65.266 0-35.981 29.28-65.253 65.261-65.253 35.982 0 65.262 29.272 65.262 65.253 0 35.977-29.28 65.266-65.262 65.266zm0-121.392c-30.951 0-56.126 25.175-56.126 56.126 0 30.948 25.175 56.13 56.126 56.13 30.952 0 56.126-25.183 56.126-56.13 0-30.951-25.175-56.126-56.126-56.126z"/><path fill="#485A93" d="M374.911 374.741h-240.56V161.729c0-.552.109-13.614 9.504-22.924 6.085-6.028 14.458-8.726 25.017-8.937l-.081 8.308c-8.012.057-14.636 2.122-19.086 6.531-6.965 6.9-7.046 16.92-7.046 17.021v204.705h223.945V164h8.308v210.741z"/><path fill="#FFF" d="M199.336 163.254c0 2.474-.325 4.875-.925 7.164h222.802c.633-2.288.965-4.689.965-7.164 0-16.146-14.182-29.231-31.682-29.231H168.831c16.851-.001 30.505 13.085 30.505 29.231z"/><path fill="#485A93" d="M424.377 174.571H193.028l1.367-5.208c.523-1.996.787-4.048.787-6.109 0-13.829-11.821-25.078-26.351-25.078v-8.308h221.665c19.764 0 35.836 14.977 35.836 33.386 0 2.811-.373 5.594-1.12 8.271l-.835 3.046zm-221.029-8.307h214.481c.13-.994.195-2 .195-3.01 0-13.829-12.349-25.078-27.528-25.078h-198.81c7.233 6.121 11.805 15.094 11.805 25.078a32.887 32.887 0 0 1-.143 3.01z"/><path fill="#A2D8CB" d="M342.313 274.172h-23.39a3.116 3.116 0 0 1 0-6.231h23.39a3.117 3.117 0 0 1 0 6.231z"/><path fill="#F7941E" d="M323.247 341.072h19.066"/><path fill="#F15A29" d="M342.313 344.188h-19.065a3.116 3.116 0 0 1 0-6.23h19.065a3.116 3.116 0 1 1 0 6.23z"/><path fill="#8BD7F8" d="M214.792 236.093h-42.066a3.116 3.116 0 0 1 0-6.231h42.066a3.117 3.117 0 0 1 3.116 3.116 3.118 3.118 0 0 1-3.116 3.115zm43.372-.13h-26.813a3.117 3.117 0 0 1-3.116-3.115 3.116 3.116 0 0 1 3.116-3.115h26.813a3.115 3.115 0 0 1 0 6.23zm84.149 0h-31.616a3.116 3.116 0 0 1 0-6.23h31.616a3.116 3.116 0 1 1 0 6.23zm-48.582 0h-18.538a3.116 3.116 0 0 1 0-6.23h18.538a3.116 3.116 0 1 1 0 6.23z"/><path fill="#A2D8CB" d="M242.854 274.302h-70.129a3.116 3.116 0 0 1 0-6.231h70.129a3.117 3.117 0 0 1 0 6.231zm58.529-.13h-39.949a3.116 3.116 0 0 1 0-6.231h39.949a3.116 3.116 0 0 1 0 6.231z"/><path fill="#485A93" d="M203.304 200.679h-30.579a3.116 3.116 0 0 1 0-6.231h30.579a3.116 3.116 0 0 1 0 6.231zm77.617-.121h-61.075a3.117 3.117 0 0 1-3.116-3.115 3.117 3.117 0 0 1 3.116-3.116h61.075a3.117 3.117 0 0 1 0 6.231zm61.384 0h-45.23a3.116 3.116 0 0 1 0-6.231h45.23a3.116 3.116 0 0 1 0 6.231z"/><path fill="#F7941E" d="M172.725 341.202h42.067"/><path fill="#F15A29" d="M214.792 344.317h-42.066a3.116 3.116 0 0 1 0-6.231h42.066a3.117 3.117 0 0 1 3.116 3.116 3.117 3.117 0 0 1-3.116 3.115z"/><path fill="#F7941E" d="M231.351 341.072h35.535"/><path fill="#F15A29" d="M266.886 344.188h-35.535a3.116 3.116 0 0 1 0-6.23h35.535a3.115 3.115 0 0 1 0 6.23z"/><path fill="#F7941E" d="M283.915 341.072h22.368"/><path fill="#F15A29" d="M306.283 344.188h-22.368a3.116 3.116 0 0 1 0-6.23h22.368a3.115 3.115 0 0 1 0 6.23z"/><path fill="#FFD682" d="M230.872 308.896h-58.146a3.116 3.116 0 0 1 0-6.23h58.146c1.72 0 3.116 1.396 3.116 3.115s-1.396 3.115-3.116 3.115zm50.049-.114h-33.49a3.117 3.117 0 0 1 0-6.231h33.49a3.117 3.117 0 0 1 0 6.231zm61.384 0h-45.23a3.116 3.116 0 0 1 0-6.231h45.23a3.116 3.116 0 0 1 0 6.231z"/></svg>