<svg xmlns="http://www.w3.org/2000/svg" width="512" height="512" viewBox="0 0 512 512"><path d="M450.41 322.053h40.209v6.313H450.41zm45.969 0h15.756v6.313h-15.756z" fill="#D4EEF8"/><g fill="#D4EEF8"><path d="M15.858 148.547h36.704v4.495H15.858z"/><path d="M31.962 132.434h4.479v36.72h-4.479z"/></g><g fill="#FDBA12"><path d="M456.187 127.939h36.696v4.495h-36.696z"/><path d="M472.291 111.827h4.487v36.72h-4.487z"/></g><g fill="#D4EEF8"><path d="M402.771 399.322h36.703v4.494h-36.703z"/><path d="M418.875 383.226h4.486v36.703h-4.486z"/></g><path fill="#FDBA12" d="M31.5 280.108c0 8.665-7.026 15.675-15.675 15.675-8.648 0-15.69-7.01-15.69-15.675 0-8.648 7.042-15.658 15.69-15.658 8.649 0 15.675 7.01 15.675 15.658z"/><path fill="#D4EEF8" d="M72.138 223.301c0 5.403-4.389 9.784-9.792 9.784-5.387 0-9.784-4.381-9.784-9.784s4.397-9.785 9.784-9.785c5.403 0 9.792 4.381 9.792 9.785z"/><path fill="#FDBA12" d="M456.747 367.178c0 5.403-4.382 9.784-9.793 9.784-5.387 0-9.784-4.381-9.784-9.784s4.397-9.784 9.784-9.784c5.411 0 9.793 4.38 9.793 9.784z"/><path fill="#D4EEF8" d="M496.363 357.41c0 2.726-2.215 4.948-4.949 4.948s-4.965-2.223-4.965-4.948c0-2.742 2.23-4.966 4.965-4.966s4.949 2.224 4.949 4.966zM394.787 107.397c0-7.27 5.906-13.176 13.159-13.176 7.277 0 13.185 5.906 13.185 13.176 0 7.269-5.907 13.159-13.185 13.159-7.253.001-13.159-5.889-13.159-13.159zm65.83 89.293c0-3.83 3.115-6.961 6.944-6.961 3.862 0 6.985 3.132 6.985 6.961 0 3.862-3.123 6.961-6.985 6.961a6.945 6.945 0 0 1-6.944-6.961z"/><path fill="#E7E9ED" d="M272.62 425.827c-45.206 0-87.702-17.605-119.667-49.555-31.965-31.965-49.563-74.462-49.563-119.667 0-45.206 17.598-87.703 49.563-119.668s74.462-49.571 119.667-49.571c45.206 0 87.703 17.605 119.66 49.571 31.974 31.965 49.571 74.462 49.571 119.668s-17.598 87.703-49.571 119.667c-31.957 31.95-74.454 49.555-119.66 49.555zm0-329.326c-88.278 0-160.095 71.817-160.095 160.104s71.817 160.087 160.095 160.087c88.287 0 160.104-71.801 160.104-160.087S360.907 96.501 272.62 96.501z"/><g fill="#8BD7F8"><path d="M271.428 285.747c-16.534 0-40.208-28.173-40.208-47.851 0-28.031 18.039-50.836 40.208-50.836 22.173 0 40.209 22.806 40.209 50.836 0 19.228-24.048 47.851-40.209 47.851zm0-90.38c-17.589 0-31.9 19.078-31.9 42.529 0 16.295 20.636 39.543 31.9 39.543 10.709 0 31.9-24.031 31.9-39.543 0-23.451-14.311-42.529-31.9-42.529z"/><path d="M205.789 333.411l-7.504-3.569 9.387-19.747c6.641-13.971 26.221-18.393 37.3-19.788 2.105-.665 6.369-9.16 8.717-17.476l7.991 2.255c-1.89 6.702-7.212 22.409-15.674 23.464-7.561.949-25.706 4.324-30.83 15.114l-9.387 19.747zm133.675 0l-9.379-19.747c-5.135-10.79-23.284-14.165-30.846-15.114-8.421-1.047-14.278-17.752-16.412-24.883l7.967-2.378c2.734 9.152 7.302 18.223 9.581 19.034 10.985 1.379 30.563 5.801 37.207 19.771l9.379 19.747-7.497 3.57z"/></g><g fill="#485A93"><path d="M272.629 365.085c-60.775 0-110.216-49.441-110.216-110.216 0-60.767 49.441-110.208 110.216-110.208 60.767 0 110.199 49.441 110.199 110.208 0 60.775-49.432 110.216-110.199 110.216zm0-212.117c-56.191 0-101.909 45.713-101.909 101.9 0 56.191 45.717 101.909 101.909 101.909 56.183 0 101.892-45.718 101.892-101.909 0-56.186-45.709-101.9-101.892-101.9z"/><path d="M370.343 366.513a4.147 4.147 0 0 1-3.067-1.347l-26.465-28.939a4.164 4.164 0 0 1 .26-5.874 4.156 4.156 0 0 1 5.874.26l26.465 28.939a4.163 4.163 0 0 1-.26 5.874 4.15 4.15 0 0 1-2.807 1.087z"/></g><path fill="#FBB040" d="M370.343 194.248l6.262 12.689 13.996 2.028-10.125 9.873 2.385 13.939-12.518-6.58-12.511 6.58 2.386-13.939-10.126-9.873 13.995-2.028z"/><path fill="#FFF" d="M353.694 238.472l3.173-18.546-13.468-13.139 18.619-2.698 8.324-16.883 8.332 16.883 18.619 2.698-13.468 13.139 3.173 18.542-16.656-8.75-16.648 8.754zm16.649-15.796l8.381 4.41-1.599-9.334 6.782-6.608-9.37-1.359-4.194-8.494-4.187 8.494-9.371 1.359 6.783 6.608-1.599 9.33 8.374-4.406z"/><path fill="#8BD7F8" d="M271.428 122.123l8.673 17.581 19.39 2.807-14.027 13.678 3.302 19.31-17.338-9.111-17.33 9.111 3.302-19.31-14.027-13.678 19.39-2.807z"/><path fill="#FFF" d="M249.965 181.19l4.089-23.914-17.378-16.944 24.019-3.477 10.733-21.78 10.742 21.78 24.015 3.477-17.37 16.944 4.089 23.914-21.476-11.281-21.463 11.281zm21.463-18.324l13.2 6.941-2.515-14.705 10.685-10.413-14.766-2.138-6.604-13.382-6.596 13.382-14.762 2.138 10.677 10.413-2.515 14.705 13.196-6.941z"/><path fill="#8DC63F" d="M173.203 194.256l6.263 12.689 13.995 2.028-10.125 9.874 2.385 13.938-12.518-6.58-12.511 6.58 2.386-13.938-10.125-9.874 13.995-2.028z"/><path fill="#FFF" d="M156.559 238.48l3.172-18.547-13.476-13.139 18.624-2.697 8.324-16.883 8.332 16.883 18.624 2.697-13.476 13.139 3.172 18.542-16.652-8.75-16.644 8.755zm16.644-15.796l8.385 4.41-1.599-9.334 6.774-6.608-9.366-1.359-4.194-8.495-4.187 8.495-9.367 1.359 6.774 6.608-1.598 9.33 8.378-4.406z"/></svg>