<svg xmlns="http://www.w3.org/2000/svg" width="512" height="512" viewBox="0 0 512 512"><path fill="#8BD7F8" d="M117.67 367.97v-44.122H78.823V95.09h313.739v228.758H170.488L117.67 367.97zM80.8 321.871h38.847v41.869l50.125-41.869h220.812V97.067H80.8v224.804z"/><path fill="#8BD7F8" d="M414.317 511.941l-61.584-86.153H189.461V323.606h1.977v100.206h162.311l.298.413 58.293 81.548v-81.961h32.435V149.811h-53.203v-1.978h55.181v277.955h-32.436z"/><path fill="#A2D8CB" d="M353.24 215.33h-32.966a1.977 1.977 0 1 1 0-3.955h32.966a1.977 1.977 0 1 1 0 3.955z"/><path fill="#F7941E" d="M326.379 277.175h26.861"/><path fill="#F15A29" d="M353.24 279.151h-26.861a1.978 1.978 0 0 1 0-3.956h26.861a1.978 1.978 0 1 1 0 3.956z"/><path fill="#8BD7F8" d="M185.239 180.621H114.25a1.978 1.978 0 1 1 0-3.956h70.989a1.978 1.978 0 1 1 0 3.956zm61.121-.121h-49.499a1.978 1.978 0 1 1 0-3.956h49.499a1.978 1.978 0 1 1 0 3.956zm106.88 0h-44.555a1.977 1.977 0 1 1 0-3.956h44.555a1.977 1.977 0 1 1 0 3.956zm-56.757 0h-37.831a1.977 1.977 0 0 1 0-3.956h37.831a1.977 1.977 0 1 1 0 3.956z"/><path fill="#A2D8CB" d="M224.793 215.45H114.25a1.978 1.978 0 1 1 0-3.955h110.543a1.978 1.978 0 1 1 0 3.955zm82.469-.12H239.27a1.978 1.978 0 1 1 0-3.955h67.992a1.977 1.977 0 1 1 0 3.955z"/><path fill="#F7941E" d="M114.25 277.296h70.989"/><path fill="#F15A29" d="M185.239 279.273H114.25a1.978 1.978 0 1 1 0-3.956h70.989a1.978 1.978 0 1 1 0 3.956z"/><path fill="#F7941E" d="M196.861 277.175h61.791"/><path fill="#F15A29" d="M258.652 279.151h-61.791a1.977 1.977 0 1 1 0-3.956h61.791a1.978 1.978 0 0 1 0 3.956z"/><path fill="#F7941E" d="M270.952 277.175h43.221"/><path fill="#F15A29" d="M314.173 279.151h-43.221a1.978 1.978 0 0 1 0-3.956h43.221a1.979 1.979 0 1 1 0 3.956z"/><path fill="#FFD682" d="M207.908 246.991H114.25a1.979 1.979 0 0 1 0-3.956h93.658a1.979 1.979 0 0 1 0 3.956zm70.522-.111h-58.908a1.979 1.979 0 0 1 0-3.956h58.908a1.977 1.977 0 0 1 0 3.956zm74.799 0h-63.744a1.978 1.978 0 1 1 0-3.956h63.744a1.977 1.977 0 0 1 0 3.956z"/><path fill="#FFF" d="M294.555 96.079c0 33.244-26.946 60.19-60.183 60.19-33.245 0-60.192-26.947-60.192-60.19 0-33.241 26.947-60.188 60.192-60.188 33.236 0 60.183 26.946 60.183 60.188z"/><path fill="#8BD7F8" d="M234.372 157.258c-33.735 0-61.181-27.445-61.181-61.179 0-33.732 27.446-61.176 61.181-61.176 33.729 0 61.171 27.444 61.171 61.176 0 33.734-27.441 61.179-61.171 61.179zm0-120.378c-32.645 0-59.204 26.556-59.204 59.199 0 32.645 26.559 59.202 59.204 59.202 32.641 0 59.194-26.557 59.194-59.202 0-32.643-26.553-59.199-59.194-59.199z"/><path fill="#19335E" d="M250.49 126.515l-1.089 4.441c-3.248 1.278-5.846 2.258-7.789 2.932-1.935.674-4.188 1.008-6.751 1.008-3.941 0-7.004-.963-9.187-2.882-2.184-1.919-3.277-4.364-3.277-7.319 0-1.149.079-2.325.245-3.524.165-1.198.427-2.555.788-4.066l4.063-14.392c.37-1.381.672-2.684.923-3.915.247-1.236.371-2.362.371-3.38 0-1.84-.382-3.121-1.143-3.845-.759-.72-2.2-1.081-4.345-1.081-1.053 0-2.138.161-3.239.488a46.286 46.286 0 0 0-2.839.938l1.08-4.435a105.21 105.21 0 0 1 7.647-2.784c2.438-.772 4.741-1.161 6.908-1.161 3.924 0 6.938.945 9.054 2.836 2.124 1.887 3.188 4.343 3.188 7.367 0 .629-.074 1.726-.221 3.304-.15 1.577-.421 3.021-.809 4.337l-4.067 14.344a38.908 38.908 0 0 0-.879 3.942c-.268 1.479-.401 2.596-.401 3.352 0 1.902.431 3.201 1.28 3.894.857.693 2.331 1.034 4.434 1.034.985 0 2.1-.175 3.339-.517 1.253-.344 2.155-.652 2.716-.916zm1.029-60.179c0 2.5-.941 4.629-2.825 6.383-1.891 1.759-4.175 2.634-6.834 2.634-2.661 0-4.942-.875-6.85-2.634-1.902-1.754-2.858-3.883-2.858-6.383 0-2.496.956-4.629 2.858-6.407 1.908-1.773 4.189-2.659 6.85-2.659 2.659 0 4.943.885 6.834 2.659 1.884 1.778 2.825 3.911 2.825 6.407z"/><path fill="#FFF" d="M430.618 212.667a31.635 31.635 0 0 1-6.608 19.395c-1.38 1.792 3.671 10.917 1.943 12.376-1.383 1.165-9.484-5.27-11.056-4.35a31.618 31.618 0 0 1-16.047 4.35c-17.552 0-31.772-14.227-31.772-31.771 0-17.546 14.221-31.771 31.772-31.771 17.547 0 31.768 14.225 31.768 31.771z"/><path fill="#8BD7F8" d="M425.475 245.569c-1.202 0-2.915-.917-5.598-2.427-1.614-.909-3.827-2.155-4.58-2.155-4.899 2.889-10.621 4.44-16.446 4.44-18.066 0-32.762-14.696-32.762-32.759 0-18.064 14.695-32.76 32.762-32.76 18.063 0 32.757 14.696 32.757 32.76 0 7.311-2.356 14.226-6.815 19.999-.305.599.628 3.461 1.185 5.171 1.123 3.451 2.012 6.177.613 7.356-.296.248-.671.375-1.116.375zm0-1.974v.985l.021-.99a.08.08 0 0 0-.021.005zm-10.178-4.585c1.186 0 2.889.909 5.55 2.409 1.549.873 3.642 2.05 4.504 2.164.171-.756-.715-3.475-1.254-5.133-1.153-3.538-1.812-5.77-.871-6.991 4.19-5.424 6.404-11.921 6.404-18.791 0-16.974-13.808-30.783-30.779-30.783-16.975 0-30.784 13.809-30.784 30.783 0 16.973 13.81 30.782 30.784 30.782 5.473 0 10.85-1.457 15.546-4.213a1.74 1.74 0 0 1 .9-.227z"/><path fill="#FFF" d="M60.487 96.01a31.585 31.585 0 0 0 6.612 19.396c1.379 1.792-3.669 10.917-1.947 12.374 1.38 1.169 9.488-5.267 11.052-4.347a31.64 31.64 0 0 0 16.053 4.347c17.547 0 31.771-14.225 31.771-31.77s-14.225-31.77-31.771-31.77c-17.546.001-31.77 14.225-31.77 31.77z"/><path fill="#8BD7F8" d="M65.633 128.911c-.448 0-.824-.126-1.119-.375-1.393-1.178-.505-3.902.617-7.35.557-1.71 1.49-4.576 1.173-5.192-4.448-5.748-6.806-12.665-6.806-19.983 0-18.063 14.696-32.758 32.76-32.758s32.76 14.695 32.76 32.758-14.696 32.759-32.76 32.759a32.765 32.765 0 0 1-16.554-4.483c-.649.045-2.857 1.289-4.471 2.197-2.683 1.51-4.4 2.427-5.6 2.427zm26.625-63.682c-16.974 0-30.783 13.808-30.783 30.781 0 6.877 2.215 13.375 6.406 18.791.941 1.225.283 3.457-.87 6.997-.53 1.628-1.395 4.28-1.23 5.125.877-.132 2.947-1.298 4.482-2.162 3.429-1.929 5.303-2.851 6.442-2.179a30.78 30.78 0 0 0 15.552 4.211c16.974 0 30.783-13.809 30.783-30.782.001-16.974-13.809-30.782-30.782-30.782z"/><path fill="#97D0A2" d="M399.471 225.975c0 1.208-.455 2.245-1.367 3.11-.919.868-1.982 1.298-3.206 1.298-1.239 0-2.317-.43-3.232-1.298-.911-.865-1.367-1.902-1.367-3.11 0-1.206.456-2.249 1.367-3.135.915-.881 1.993-1.32 3.232-1.32 1.224 0 2.287.438 3.206 1.32.912.886 1.367 1.929 1.367 3.135zm2.935-30.884c2.933 0 5.388.772 7.351 2.321 1.962 1.55 2.942 3.618 2.942 6.208 0 3.561-1.371 6.46-4.102 8.699-2.734 2.241-6.361 3.52-10.875 3.836l-.688 3.243h-2.042l1.833-9.268c2.784-.207 5.021-.99 6.725-2.348 1.699-1.359 2.545-3.304 2.545-5.829 0-1.54-.407-2.73-1.227-3.574-.818-.842-1.958-1.265-3.416-1.265a5.74 5.74 0 0 0-1.742.264 7.52 7.52 0 0 0-1.646.761c.159.512.323 1.112.489 1.813.168.697.251 1.349.251 1.954 0 1.127-.369 2.02-1.107 2.681-.738.656-1.735.986-2.992.986-1.144 0-2.064-.337-2.764-1.024-.695-.68-1.047-1.546-1.047-2.596 0-1.906 1.124-3.528 3.368-4.861 2.255-1.335 4.964-2.001 8.144-2.001z"/><path fill="#F15D62" d="M85.653 107.841l.94-6.478h-2.968v-3.329h3.515l.576-4.088h-3.038v-3.332h3.547l.938-6.295h3.185l-.906 6.295h3.332l.902-6.295h3.223l-.906 6.295h2.896v3.332h-3.441l-.537 4.088h2.962v3.329h-3.545l-.902 6.478h-3.258l.941-6.478h-3.293l-.908 6.478h-3.255zm8.036-9.806l.543-4.088h-3.293l-.582 4.088h3.332z"/><path fill="#8BD7F8" d="M381.824 49.229h-60.245c-3.576 0-6.274-2.471-6.274-5.747 0-3.278 2.698-5.75 6.274-5.75h17.563c1.867-.15 3.391-1.797 3.391-3.744a3.746 3.746 0 0 0-3.165-3.713l-4.156.013c-3.578 0-6.276-2.472-6.276-5.75a5.756 5.756 0 0 1 5.75-5.749h67.168a5.755 5.755 0 0 1 5.745 5.749c0 3.063-2.439 5.75-5.221 5.75h-27.073c-1.676.284-3.008 1.845-3.008 3.701a3.776 3.776 0 0 0 3.478 3.747l6.051-.003c2.781 0 5.222 2.687 5.222 5.75-.002 3.06-2.443 5.746-5.224 5.746zm-47.139-28.462a3.774 3.774 0 0 0-3.771 3.771c0 2.186 1.808 3.772 4.298 3.772h4.314c2.955.464 4.985 2.848 4.985 5.678 0 2.972-2.323 5.483-5.292 5.718l-17.64.003c-2.489 0-4.296 1.586-4.296 3.772 0 2.185 1.807 3.77 4.296 3.77h60.245c1.5 0 3.244-1.646 3.244-3.77s-1.744-3.772-3.244-3.772h-6.126c-3.05-.229-5.381-2.74-5.381-5.721a5.72 5.72 0 0 1 4.829-5.666l27.23-.013c1.499 0 3.242-1.647 3.242-3.772a3.772 3.772 0 0 0-3.767-3.771h-67.166z"/><path fill="#8BD7F8" d="M435.28 49.227h-38.977a5.997 5.997 0 0 1-5.991-5.988c0-3.3 2.688-5.985 5.991-5.985h38.977a5.993 5.993 0 0 1 5.989 5.985 5.994 5.994 0 0 1-5.989 5.988zm-38.976-9.995a4.015 4.015 0 0 0-4.013 4.007c0 2.211 1.8 4.01 4.013 4.01h38.977a4.016 4.016 0 0 0 4.011-4.01c0-2.209-1.8-4.007-4.011-4.007h-38.977zm-288.89-4.959H61.29a5.993 5.993 0 0 1-5.987-5.987c0-3.3 2.685-5.985 5.987-5.985h46.124c3.303 0 5.991 2.685 5.991 5.985a5.996 5.996 0 0 1-5.991 5.987zM61.29 24.279a4.013 4.013 0 0 0-4.009 4.007 4.014 4.014 0 0 0 4.009 4.009h46.124a4.015 4.015 0 0 0 4.013-4.009c0-2.209-1.8-4.007-4.013-4.007H61.29z"/><path fill="#FFF" d="M202.241 73.479a5 5 0 0 1-5.001 4.999h-46.122c-2.758 0-5-2.237-5-4.999a5.001 5.001 0 0 1 5-4.996h46.122a5 5 0 0 1 5.001 4.996z"/><path fill="#8BD7F8" d="M197.24 79.467h-46.122a5.995 5.995 0 0 1-5.988-5.987c0-3.3 2.686-5.985 5.988-5.985h46.122c3.303 0 5.99 2.685 5.99 5.985 0 3.3-2.687 5.987-5.99 5.987zm-46.122-9.995a4.014 4.014 0 0 0-4.011 4.007 4.015 4.015 0 0 0 4.011 4.01h46.122a4.016 4.016 0 0 0 4.013-4.01c0-2.209-1.8-4.007-4.013-4.007h-46.122zM99.112 360.967H68.146a5.997 5.997 0 0 1-5.989-5.99c0-3.3 2.687-5.984 5.989-5.984h30.966c3.303 0 5.99 2.685 5.99 5.984a5.997 5.997 0 0 1-5.99 5.99zm-30.966-9.997a4.014 4.014 0 0 0-4.011 4.007 4.016 4.016 0 0 0 4.011 4.013h30.966a4.017 4.017 0 0 0 4.013-4.013c0-2.209-1.8-4.007-4.013-4.007H68.146zM243.238 11.913h-30.966a5.993 5.993 0 0 1-5.986-5.986 5.992 5.992 0 0 1 5.986-5.986h30.966a5.993 5.993 0 0 1 5.988 5.986 5.993 5.993 0 0 1-5.988 5.986zm-30.966-9.994c-2.21 0-4.009 1.798-4.009 4.008s1.799 4.008 4.009 4.008h30.966c2.212 0 4.011-1.798 4.011-4.008s-1.799-4.008-4.011-4.008h-30.966zm-71.784 44.956h-14.489a5.996 5.996 0 0 1-5.989-5.987c0-3.3 2.687-5.985 5.989-5.985h14.489a5.993 5.993 0 0 1 5.989 5.985c0 3.3-2.686 5.987-5.989 5.987zm-14.489-9.995a4.014 4.014 0 0 0-4.011 4.007 4.015 4.015 0 0 0 4.011 4.01h14.489a4.014 4.014 0 0 0 4.011-4.01 4.013 4.013 0 0 0-4.011-4.007h-14.489zm295.236 85.269h-14.49a5.994 5.994 0 0 1-5.987-5.988c0-3.3 2.686-5.984 5.987-5.984h14.49a5.992 5.992 0 0 1 5.988 5.984 5.994 5.994 0 0 1-5.988 5.988zm-14.49-9.994a4.014 4.014 0 0 0-4.011 4.007c0 2.211 1.8 4.01 4.011 4.01h14.49a4.016 4.016 0 0 0 4.011-4.01c0-2.209-1.8-4.007-4.011-4.007h-14.49z"/><path fill="#FFD682" d="M414.001 348.627h-26.125a1.977 1.977 0 1 1 0-3.956h26.125c1.093 0 1.977.885 1.977 1.978s-.884 1.978-1.977 1.978zm-101.797.122h-87.607a1.978 1.978 0 1 1 0-3.956h87.607c1.093 0 1.977.884 1.977 1.978a1.976 1.976 0 0 1-1.977 1.978zm65.359-.122h-53.885a1.977 1.977 0 1 1 0-3.956h53.885a1.978 1.978 0 1 1 0 3.956z"/><path fill="#F7941E" d="M224.597 378.309h74.225"/><path fill="#F15A29" d="M298.822 380.287h-74.226a1.978 1.978 0 0 1 0-3.956h74.226a1.977 1.977 0 1 1 0 3.956z"/><path fill="#F7941E" d="M308.03 378.201h46.68"/><path fill="#F15A29" d="M354.71 380.179h-46.68a1.977 1.977 0 1 1 0-3.956h46.68a1.977 1.977 0 1 1 0 3.956z"/><path fill="#F7941E" d="M363.47 378.201h50.523"/><path fill="#F15A29" d="M413.993 380.179H363.47c-1.093 0-1.977-.885-1.977-1.978s.884-1.978 1.977-1.978h50.523a1.977 1.977 0 1 1 0 3.956z"/><g fill="#8BD7F8"><path d="M113.512 508.456a35.198 35.198 0 0 1-1.311-9.433c0-19.058 15.214-34.564 33.915-34.564 18.703 0 33.918 15.507 33.918 34.564 0 3.127-.442 6.298-1.311 9.433l-1.056-.293a34.15 34.15 0 0 0 1.272-9.14c0-18.453-14.725-33.467-32.824-33.467-18.097 0-32.82 15.014-32.82 33.467 0 3.03.425 6.106 1.271 9.14l-1.054.293z"/><path d="M141.61 508.855l-1.363-.132c.042-.457.94-11.235-10.411-15.502l.481-1.28c12.352 4.644 11.305 16.793 11.293 16.914zm6.352.002c-.014-.123-1.333-12.3 14.041-16.916l.396 1.309c-14.238 4.277-13.132 14.985-13.078 15.439l-1.359.168zm-3.211-20.147h1.367v20.146h-1.367z"/></g><g fill="#8BD7F8"><path d="M65.952 465.204c-15.35 0-27.837-12.489-27.837-27.839 0-15.348 12.487-27.837 27.837-27.837s27.838 12.489 27.838 27.837c0 15.35-12.488 27.839-27.838 27.839zm0-53.698c-14.26 0-25.86 11.601-25.86 25.859 0 14.261 11.601 25.86 25.86 25.86s25.86-11.6 25.86-25.86c0-14.259-11.601-25.859-25.86-25.859z"/><path d="M64.963 421.334h1.978v87.11h-1.978z"/><path d="M79.54 438.078l1.407 1.391-14.57 14.734-1.406-1.39zm-3.431-16.742l1.406 1.391-11.14 11.265-1.406-1.39zm-22.627 10.052l13.212 15.497-1.505 1.282-13.211-15.496z"/></g><path fill="#8BD7F8" d="M28.817 507.868h454.807v1.979H28.817z"/></svg>