<svg xmlns="http://www.w3.org/2000/svg" width="512" height="512" viewBox="0 0 512 512"><path d="M450.015 328.126h40.209v6.312h-40.209zm45.968 0h15.756v6.312h-15.756z" fill="#D4EEF8"/><g fill="#D4EEF8"><path d="M15.462 154.62h36.704v4.495H15.462z"/><path d="M31.567 138.507h4.479v36.72h-4.479z"/></g><g fill="#FDBA12"><path d="M455.792 134.013h36.695v4.495h-36.695z"/><path d="M471.896 117.9h4.486v36.72h-4.486z"/></g><g fill="#D4EEF8"><path d="M402.375 405.395h36.703v4.495h-36.703z"/><path d="M418.479 389.299h4.486v36.703h-4.486z"/></g><path fill="#FDBA12" d="M31.104 286.182c0 8.664-7.026 15.674-15.674 15.674-8.649 0-15.691-7.01-15.691-15.674 0-8.648 7.042-15.658 15.691-15.658 8.649-.001 15.674 7.009 15.674 15.658z"/><path fill="#D4EEF8" d="M71.743 229.374c0 5.403-4.389 9.784-9.792 9.784-5.387 0-9.784-4.381-9.784-9.784s4.397-9.784 9.784-9.784c5.403-.001 9.792 4.38 9.792 9.784z"/><path fill="#FDBA12" d="M456.352 373.251c0 5.403-4.381 9.784-9.793 9.784-5.387 0-9.784-4.381-9.784-9.784s4.397-9.784 9.784-9.784c5.412 0 9.793 4.381 9.793 9.784z"/><path fill="#D4EEF8" d="M495.968 363.482c0 2.727-2.215 4.949-4.949 4.949s-4.965-2.223-4.965-4.949c0-2.742 2.23-4.965 4.965-4.965s4.949 2.223 4.949 4.965zM394.392 113.47c0-7.27 5.906-13.176 13.159-13.176 7.278 0 13.185 5.906 13.185 13.176 0 7.269-5.906 13.159-13.185 13.159-7.253 0-13.159-5.89-13.159-13.159zm65.83 89.293c0-3.83 3.115-6.961 6.944-6.961 3.862 0 6.985 3.131 6.985 6.961 0 3.862-3.123 6.961-6.985 6.961a6.945 6.945 0 0 1-6.944-6.961z"/><path fill="#E7E9ED" d="M264.753 424.428c-45.206 0-87.702-17.605-119.668-49.555-31.965-31.965-49.563-74.461-49.563-119.667s17.597-87.702 49.563-119.668c31.966-31.965 74.462-49.571 119.668-49.571s87.702 17.605 119.66 49.571c31.974 31.966 49.57 74.462 49.57 119.668 0 45.207-17.597 87.703-49.57 119.667-31.958 31.949-74.454 49.555-119.66 49.555zm0-329.326c-88.278 0-160.095 71.817-160.095 160.104s71.817 160.087 160.095 160.087c88.286 0 160.104-71.801 160.104-160.087S353.039 95.102 264.753 95.102z"/><path fill="#485A93" d="M365.307 362.672c-3.651 0-8.527-2.597-16.121-6.872-3.545-1.996-9.338-5.258-11.528-5.695-13.833 7.967-29.604 12.178-45.66 12.178-50.529 0-91.638-41.109-91.638-91.638 0-50.528 41.109-91.637 91.638-91.637 50.528 0 91.637 41.109 91.637 91.637 0 20.453-6.596 39.803-19.065 55.948-.252 1.436 2.093 8.632 3.488 12.924 3.262 10.012 5.833 17.914 1.25 21.784-.74.624-2.038 1.371-4.001 1.371zm-73.31-175.357c-45.949 0-83.33 37.381-83.33 83.329 0 45.944 37.381 83.33 83.33 83.33 14.822 0 29.377-3.943 42.099-11.407 3.756-2.207 9.216.397 19.171 5.995 2.937 1.655 7.407 4.179 10.149 5.266-.414-3.002-2.134-8.292-3.262-11.739-3.318-10.19-5.192-16.641-2.158-20.575 11.334-14.677 17.33-32.266 17.33-50.869 0-45.949-37.385-83.33-83.329-83.33z"/><path fill="#97D0A2" d="M301.83 319.461c0 3.326-1.266 6.183-3.773 8.56-2.522 2.394-5.46 3.578-8.826 3.578-3.416 0-6.377-1.185-8.9-3.578-2.515-2.377-3.765-5.233-3.765-8.56s1.25-6.198 3.765-8.632c2.523-2.426 5.484-3.635 8.9-3.635 3.366 0 6.304 1.209 8.826 3.635 2.507 2.434 3.773 5.306 3.773 8.632zm8.072-85.041c8.089 0 14.839 2.125 20.242 6.393s8.104 9.963 8.104 17.094c0 9.801-3.772 17.784-11.301 23.95-7.529 6.174-17.509 9.694-29.938 10.563l-1.898 8.933h-5.623l5.055-25.523c7.659-.568 13.825-2.726 18.506-6.466 4.682-3.74 7.019-9.095 7.019-16.048 0-4.243-1.128-7.521-3.375-9.841-2.256-2.32-5.396-3.48-9.42-3.48a15.93 15.93 0 0 0-4.786.722 20.558 20.558 0 0 0-4.536 2.101 73.2 73.2 0 0 1 1.348 4.99c.462 1.923.689 3.716.689 5.379 0 3.107-1.015 5.565-3.051 7.383-2.028 1.81-4.778 2.718-8.234 2.718-3.148 0-5.688-.933-7.61-2.823-1.923-1.874-2.889-4.259-2.889-7.147 0-5.25 3.1-9.711 9.281-13.387 6.2-3.678 13.663-5.511 22.417-5.511z"/><path fill="#FFF" d="M215.288 305.539c-18.247 0-35.048-6.158-48.451-16.51-4.471-3.448-27.26 9.159-30.895 4.852-2.92-3.456 13.151-23.683 10.855-27.601-6.904-11.772-10.855-25.467-10.855-40.087 0-43.827 35.52-79.346 79.346-79.346 43.819 0 79.346 35.519 79.346 79.346 0 43.819-35.528 79.346-79.346 79.346z"/><path fill="#8BD7F8" d="M215.288 309.693c-18.64 0-36.273-6.012-50.991-17.379-2.26.26-7.099 1.842-11.366 3.229-9.095 2.953-16.908 4.868-20.165 1.014-3.347-3.959-.049-9.824 4.945-18.692 1.756-3.107 4.604-8.17 5.091-10.198-7.208-12.575-11.014-26.895-11.014-41.474 0-46.042 37.458-83.5 83.5-83.5s83.5 37.458 83.5 83.5-37.459 83.5-83.5 83.5zm-50.861-25.426c2.02 0 3.683.495 4.945 1.477 13.253 10.23 29.13 15.642 45.916 15.642 41.462 0 75.192-33.733 75.192-75.191 0-41.462-33.73-75.192-75.192-75.192s-75.192 33.73-75.192 75.192c0 13.378 3.558 26.513 10.283 37.985 2.231 3.805-.329 8.705-5.428 17.768-1.363 2.418-3.375 5.987-4.458 8.454 2.835-.471 6.523-1.672 9.865-2.759 5.327-1.738 10.361-3.376 14.069-3.376z"/><path fill="#FDBA12" d="M224.09 249.461l-1.071 4.381c-3.213 1.266-5.777 2.231-7.691 2.896-1.915.666-4.138.999-6.669.999-3.895 0-6.92-.95-9.079-2.848s-3.237-4.308-3.237-7.229c0-1.136.082-2.296.244-3.481.162-1.184.422-2.523.779-4.016l4.016-14.214c.365-1.363.665-2.653.909-3.87.243-1.217.365-2.329.365-3.334 0-1.817-.373-3.083-1.127-3.797-.747-.714-2.174-1.071-4.292-1.071-1.039 0-2.109.163-3.196.487a44.504 44.504 0 0 0-2.807.925l1.071-4.381a102.69 102.69 0 0 1 7.553-2.75c2.41-.763 4.681-1.144 6.823-1.144 3.87 0 6.847.933 8.94 2.799 2.102 1.866 3.148 4.292 3.148 7.277 0 .617-.073 1.704-.219 3.262-.146 1.558-.414 2.985-.803 4.284l-4.008 14.165a39.331 39.331 0 0 0-.876 3.895c-.26 1.46-.39 2.563-.39 3.31 0 1.882.422 3.164 1.266 3.846.844.681 2.296 1.022 4.373 1.022.974 0 2.077-.17 3.302-.511 1.232-.342 2.125-.642 2.676-.902zm1.022-59.436c0 2.466-.933 4.567-2.799 6.304s-4.113 2.604-6.742 2.604c-2.628 0-4.884-.868-6.766-2.604s-2.823-3.837-2.823-6.304.941-4.576 2.823-6.329 4.138-2.628 6.766-2.628c2.629 0 4.876.876 6.742 2.628s2.799 3.863 2.799 6.329z"/></svg>