<svg xmlns="http://www.w3.org/2000/svg" width="512" height="512" viewBox="0 0 512 512"><path d="M450.275 328.142h40.209v6.312h-40.209zm45.969 0H512v6.312h-15.756z" fill="#D4EEF8"/><g fill="#D4EEF8"><path d="M15.723 154.635h36.704v4.495H15.723z"/><path d="M31.828 138.522h4.479v36.72h-4.479z"/></g><g fill="#FDBA12"><path d="M456.052 134.028h36.696v4.495h-36.696z"/><path d="M472.156 117.916h4.487v36.72h-4.487z"/></g><g fill="#D4EEF8"><path d="M402.636 405.41h36.703v4.495h-36.703z"/><path d="M418.74 389.314h4.486v36.703h-4.486z"/></g><path fill="#FDBA12" d="M31.365 286.197c0 8.664-7.026 15.674-15.674 15.674-8.649 0-15.691-7.01-15.691-15.674 0-8.648 7.042-15.658 15.691-15.658 8.648 0 15.674 7.01 15.674 15.658z"/><path fill="#D4EEF8" d="M72.003 229.389c0 5.403-4.389 9.784-9.792 9.784-5.387 0-9.784-4.381-9.784-9.784s4.397-9.785 9.784-9.785c5.403 0 9.792 4.382 9.792 9.785z"/><path fill="#FDBA12" d="M456.612 373.267c0 5.403-4.382 9.784-9.793 9.784-5.387 0-9.784-4.381-9.784-9.784s4.397-9.784 9.784-9.784c5.411-.001 9.793 4.38 9.793 9.784z"/><path fill="#D4EEF8" d="M496.229 363.498c0 2.727-2.215 4.949-4.949 4.949s-4.965-2.223-4.965-4.949c0-2.742 2.23-4.965 4.965-4.965s4.949 2.223 4.949 4.965zM394.652 113.486c0-7.27 5.906-13.176 13.159-13.176 7.277 0 13.185 5.906 13.185 13.176 0 7.269-5.907 13.159-13.185 13.159-7.252 0-13.159-5.89-13.159-13.159zm65.83 89.292c0-3.83 3.115-6.961 6.944-6.961 3.862 0 6.985 3.131 6.985 6.961 0 3.862-3.123 6.961-6.985 6.961a6.946 6.946 0 0 1-6.944-6.961z"/><path fill="#E7E9ED" d="M265.014 424.443c-45.206 0-87.702-17.605-119.668-49.555-31.965-31.965-49.563-74.462-49.563-119.667 0-45.206 17.597-87.703 49.563-119.668 31.966-31.965 74.462-49.571 119.668-49.571s87.702 17.605 119.66 49.571c31.974 31.965 49.57 74.462 49.57 119.668s-17.597 87.703-49.57 119.667c-31.958 31.95-74.454 49.555-119.66 49.555zm0-329.325c-88.278 0-160.095 71.817-160.095 160.104s71.817 160.087 160.095 160.087c88.286 0 160.104-71.801 160.104-160.087S353.3 95.118 265.014 95.118z"/><path fill="#FFF" d="M407.69 316.224c0 22.611-18.319 40.938-40.938 40.938h-203.46c-22.619 0-40.955-18.327-40.955-40.938V193.245c0-22.611 18.336-40.93 40.955-40.93h203.46c22.619 0 40.938 18.319 40.938 40.93v122.979z"/><path fill="#485A93" d="M366.752 361.315h-203.46c-24.875 0-45.109-20.226-45.109-45.092V193.245c0-24.858 20.234-45.084 45.109-45.084h203.46c24.866 0 45.092 20.226 45.092 45.084v122.979c0 24.866-20.226 45.091-45.092 45.091zm-203.46-204.846c-20.291 0-36.801 16.498-36.801 36.776v122.979c0 20.282 16.51 36.784 36.801 36.784h203.46c20.282 0 36.784-16.502 36.784-36.784V193.245c0-20.278-16.502-36.776-36.784-36.776h-203.46z"/><path fill="#A2D8CB" d="M331.46 319.801a4.15 4.15 0 0 1-4.154-4.153V195.809c0-2.296 1.858-4.154 4.154-4.154s4.153 1.858 4.153 4.154v119.838a4.15 4.15 0 0 1-4.153 4.154z"/><path fill="#FFD682" d="M347.938 199.963h-36.241c-2.296 0-4.154-1.858-4.154-4.154s1.858-4.154 4.154-4.154h36.241c2.296 0 4.153 1.858 4.153 4.154s-1.858 4.154-4.153 4.154z"/><path fill="#F7941E" d="M311.696 315.501h36.242"/><path fill="#F15A29" d="M347.938 319.655h-36.241c-2.296 0-4.154-1.858-4.154-4.154s1.858-4.153 4.154-4.153h36.241c2.296 0 4.153 1.857 4.153 4.153s-1.858 4.154-4.153 4.154z"/><text transform="translate(165.705 315.498)" fill="#19335E" font-family="'TimesNewRomanPSMT'" font-size="178.952">A</text></svg>