<svg xmlns="http://www.w3.org/2000/svg" width="512" height="512" viewBox="0 0 512 512"><path d="M450.275 328.142h40.209v6.312h-40.209zm45.969 0H512v6.312h-15.756z" fill="#D4EEF8"/><g fill="#D4EEF8"><path d="M15.723 154.635h36.704v4.495H15.723z"/><path d="M31.828 138.522h4.479v36.72h-4.479z"/></g><g fill="#FDBA12"><path d="M456.052 134.028h36.696v4.495h-36.696z"/><path d="M472.156 117.916h4.487v36.72h-4.487z"/></g><g fill="#D4EEF8"><path d="M402.636 405.41h36.703v4.495h-36.703z"/><path d="M418.74 389.314h4.486v36.703h-4.486z"/></g><path fill="#FDBA12" d="M31.365 286.197c0 8.664-7.026 15.674-15.674 15.674-8.649 0-15.691-7.01-15.691-15.674 0-8.648 7.042-15.658 15.691-15.658 8.648 0 15.674 7.01 15.674 15.658z"/><path fill="#D4EEF8" d="M72.003 229.389c0 5.403-4.389 9.784-9.792 9.784-5.387 0-9.784-4.381-9.784-9.784s4.397-9.785 9.784-9.785c5.403 0 9.792 4.382 9.792 9.785z"/><path fill="#FDBA12" d="M456.612 373.267c0 5.403-4.382 9.784-9.793 9.784-5.387 0-9.784-4.381-9.784-9.784s4.397-9.784 9.784-9.784c5.411-.001 9.793 4.38 9.793 9.784z"/><path fill="#D4EEF8" d="M496.229 363.498c0 2.727-2.215 4.949-4.949 4.949s-4.965-2.223-4.965-4.949c0-2.742 2.23-4.965 4.965-4.965s4.949 2.223 4.949 4.965zM394.652 113.486c0-7.27 5.906-13.176 13.159-13.176 7.277 0 13.185 5.906 13.185 13.176 0 7.269-5.907 13.159-13.185 13.159-7.252 0-13.159-5.89-13.159-13.159zm65.83 89.292c0-3.83 3.115-6.961 6.944-6.961 3.862 0 6.985 3.131 6.985 6.961 0 3.862-3.123 6.961-6.985 6.961a6.946 6.946 0 0 1-6.944-6.961z"/><path fill="#E7E9ED" d="M265.014 424.443c-45.206 0-87.702-17.605-119.668-49.555-31.965-31.965-49.563-74.462-49.563-119.667 0-45.206 17.597-87.703 49.563-119.668 31.966-31.965 74.462-49.571 119.668-49.571s87.702 17.605 119.66 49.571c31.974 31.965 49.57 74.462 49.57 119.668s-17.597 87.703-49.57 119.667c-31.958 31.95-74.454 49.555-119.66 49.555zm0-329.325c-88.278 0-160.095 71.817-160.095 160.104s71.817 160.087 160.095 160.087c88.286 0 160.104-71.801 160.104-160.087S353.3 95.118 265.014 95.118z"/><path fill="#A2D8CB" d="M203.066 236.188a4.148 4.148 0 0 1-3.655-2.174 4.15 4.15 0 0 1 1.671-5.63l86.234-46.731a4.161 4.161 0 0 1 5.631 1.671 4.147 4.147 0 0 1-1.672 5.63l-86.233 46.731a4.146 4.146 0 0 1-1.976.503z"/><path fill="#FFF" d="M200.117 276.137l87.305 48.865"/><path fill="#8BD7F8" d="M285.394 328.628l-87.305-48.864 4.057-7.254 87.304 48.865z"/><path fill="#485A93" d="M317.676 209.309c-18.969 0-34.408-15.439-34.408-34.416 0-18.972 15.439-34.408 34.408-34.408 18.977 0 34.415 15.436 34.415 34.408 0 18.977-15.439 34.416-34.415 34.416zm0-60.515c-14.393 0-26.1 11.707-26.1 26.1 0 14.396 11.707 26.108 26.1 26.108s26.107-11.711 26.107-26.108c0-14.393-11.715-26.1-26.107-26.1z"/><path fill="#F15A29" d="M317.676 369.94c-18.969 0-34.408-15.439-34.408-34.416s15.439-34.416 34.408-34.416c18.977 0 34.415 15.439 34.415 34.416s-15.439 34.416-34.415 34.416zm0-60.524c-14.393 0-26.1 11.716-26.1 26.108s11.707 26.107 26.1 26.107 26.107-11.715 26.107-26.107-11.715-26.108-26.107-26.108z"/><path fill="#FFD682" d="M180.995 287.113c-18.973 0-34.408-15.438-34.408-34.423 0-18.973 15.435-34.408 34.408-34.408 18.977 0 34.416 15.435 34.416 34.408-.001 18.985-15.44 34.423-34.416 34.423zm0-60.523c-14.393 0-26.1 11.707-26.1 26.1 0 14.401 11.707 26.116 26.1 26.116 14.396 0 26.108-11.715 26.108-26.116 0-14.393-11.712-26.1-26.108-26.1z"/></svg>