<svg xmlns="http://www.w3.org/2000/svg" width="512" height="512" viewBox="0 0 512 512"><path d="M450.561 328.876h40.209v6.312h-40.209zm45.968 0h15.756v6.312h-15.756z" fill="#D4EEF8"/><g fill="#D4EEF8"><path d="M16.008 155.37h36.704v4.495H16.008z"/><path d="M32.113 139.257h4.479v36.72h-4.479z"/></g><g fill="#FDBA12"><path d="M456.338 134.762h36.695v4.495h-36.695z"/><path d="M472.442 118.65h4.486v36.72h-4.486z"/></g><g fill="#D4EEF8"><path d="M402.921 406.145h36.704v4.495h-36.704z"/><path d="M419.025 390.049h4.486v36.703h-4.486z"/></g><path fill="#FDBA12" d="M31.65 286.932c0 8.664-7.026 15.674-15.674 15.674S.285 295.596.285 286.932c0-8.649 7.042-15.658 15.691-15.658s15.674 7.008 15.674 15.658z"/><path fill="#D4EEF8" d="M72.289 230.124c0 5.403-4.39 9.784-9.792 9.784-5.387 0-9.785-4.381-9.785-9.784s4.397-9.785 9.785-9.785c5.402 0 9.792 4.381 9.792 9.785z"/><path fill="#FDBA12" d="M456.897 374.001c0 5.403-4.381 9.784-9.793 9.784-5.387 0-9.784-4.381-9.784-9.784s4.397-9.784 9.784-9.784c5.413 0 9.793 4.381 9.793 9.784z"/><path fill="#D4EEF8" d="M496.514 364.232c0 2.727-2.215 4.949-4.949 4.949s-4.965-2.223-4.965-4.949c0-2.742 2.23-4.965 4.965-4.965s4.949 2.223 4.949 4.965zM394.938 114.22c0-7.27 5.906-13.176 13.16-13.176 7.277 0 13.184 5.906 13.184 13.176 0 7.269-5.906 13.159-13.184 13.159-7.254 0-13.16-5.89-13.16-13.159zm65.83 89.293c0-3.83 3.115-6.961 6.944-6.961 3.862 0 6.985 3.131 6.985 6.961 0 3.862-3.123 6.961-6.985 6.961a6.945 6.945 0 0 1-6.944-6.961z"/><path fill="#E7E9ED" d="M265.299 425.178c-45.206 0-87.702-17.605-119.668-49.555-31.965-31.965-49.563-74.462-49.563-119.667 0-45.206 17.597-87.703 49.563-119.668 31.966-31.965 74.462-49.571 119.668-49.571s87.702 17.605 119.66 49.571c31.974 31.965 49.57 74.462 49.57 119.668s-17.597 87.703-49.57 119.667c-31.958 31.949-74.454 49.555-119.66 49.555zm0-329.326c-88.278 0-160.095 71.817-160.095 160.104s71.817 160.087 160.095 160.087c88.286 0 160.104-71.801 160.104-160.087S353.585 95.852 265.299 95.852z"/><path fill="#8BD7F8" d="M362.161 363.421c-3.651 0-8.527-2.596-16.121-6.871-3.545-1.996-9.338-5.258-11.528-5.695-13.833 7.967-29.604 12.178-45.66 12.178-50.529 0-91.638-41.109-91.638-91.638s41.109-91.637 91.638-91.637c50.527 0 91.637 41.109 91.637 91.637 0 20.453-6.596 39.803-19.065 55.948-.252 1.436 2.093 8.632 3.488 12.924 3.262 10.012 5.833 17.914 1.25 21.783-.74.625-2.038 1.371-4.001 1.371zm-73.309-175.356c-45.949 0-83.33 37.381-83.33 83.329 0 45.944 37.381 83.329 83.33 83.329 14.822 0 29.377-3.942 42.099-11.406 3.756-2.207 9.216.397 19.171 5.995 2.937 1.655 7.407 4.179 10.149 5.266-.414-3.002-2.134-8.292-3.262-11.739-3.318-10.19-5.192-16.641-2.158-20.575 11.334-14.677 17.33-32.266 17.33-50.869 0-45.949-37.385-83.33-83.329-83.33z"/><path fill="#FFF" d="M297.289 231.981l13.508 27.373 30.213 4.39-21.864 21.313 5.167 30.084-27.024-14.206-27.025 14.206 5.168-30.084-21.865-21.313 30.213-4.39z"/><path fill="#FFD682" d="M329.83 322.734l-32.541-17.11-32.542 17.11 6.223-36.225-26.331-25.67 36.383-5.282 16.267-32.963 16.267 32.963 36.379 5.282-26.327 25.67 6.222 36.225zm-32.541-26.489l21.508 11.302-4.113-23.942 17.402-16.956-24.047-3.497-10.75-21.783-10.75 21.783-24.047 3.497 17.402 16.956-4.113 23.942 21.508-11.302z"/><path fill="#FFF" d="M212.142 306.289c-18.247 0-35.048-6.158-48.451-16.51-4.471-3.448-27.26 9.159-30.895 4.852-2.92-3.456 13.151-23.683 10.855-27.601-6.904-11.772-10.855-25.467-10.855-40.087 0-43.827 35.52-79.346 79.346-79.346 43.819 0 79.346 35.519 79.346 79.346 0 43.819-35.527 79.346-79.346 79.346z"/><path fill="#485A93" d="M212.142 310.443c-18.64 0-36.273-6.013-50.991-17.379-2.259.26-7.099 1.842-11.366 3.229-9.103 2.944-16.908 4.867-20.165 1.014-3.347-3.959-.049-9.825 4.945-18.692 1.756-3.107 4.604-8.17 5.091-10.198-7.208-12.575-11.014-26.895-11.014-41.474 0-46.042 37.458-83.5 83.5-83.5s83.5 37.458 83.5 83.5c0 46.041-37.458 83.5-83.5 83.5zm-50.861-25.426c2.02 0 3.683.495 4.945 1.477 13.253 10.23 29.13 15.642 45.916 15.642 41.462 0 75.192-33.733 75.192-75.191 0-41.462-33.73-75.192-75.192-75.192s-75.192 33.73-75.192 75.192c0 13.378 3.558 26.513 10.283 37.985 2.231 3.805-.329 8.705-5.428 17.768-1.363 2.418-3.375 5.987-4.458 8.454 2.835-.471 6.523-1.672 9.865-2.759 5.328-1.738 10.361-3.376 14.069-3.376z"/><path fill="#F15A29" d="M232.481 259.939h-10.255c-5.687 0-12.474-.527-18.62-1.448l-.848-.143a7.082 7.082 0 0 1-4.466 1.591h-18.806c-3.922 0-7.115-3.185-7.115-7.1v-41.044c0-3.915 3.193-7.099 7.115-7.099h18.806a7.09 7.09 0 0 1 2.012.292c1.367-1.355 2.665-2.945 4.012-4.592l.738-.909a30.38 30.38 0 0 0 1.59-2.47c.377-.641 1.071-2.012 1.83-3.497l.414-.815c1.185-2.337 2.324-4.552 2.811-5.326 1.031-1.651 4.154-6.633 10.527-6.633 7.663 0 12.234 5.217 12.234 13.955-.142 4.434-.925 8.973-2.288 13.419h.292l3.424-.008c11.557 0 15.674 6.758 15.674 13.086.057 2.247-.653 4.458-2.028 6.377.548 3.14-.044 6.081-1.708 8.502.568 3.124.017 6-1.606 8.413.077.401.109.783.142 1.266l.057.982c.004 3.659-1.262 6.863-3.659 9.265-2.534 2.541-6.181 3.936-10.279 3.936zm-34.127-10.803l5.063.901.807 4.344.617-4.109c5.756.864 12.092 1.359 17.386 1.359h10.255c1.874 0 3.436-.532 4.397-1.497.819-.819 1.237-1.955 1.233-3.379l-.073-.876-1.136-2.706 1.85-2.665c.499-.458 1.538-1.408.588-4.089l-.925-2.608 2.049-1.858c.499-.451 1.538-1.392.58-4.069l-.933-2.621 2.069-1.862c.73-.661 1.095-1.367 1.075-2.102 0-1.282 0-4.88-7.359-4.88l-3.423.008c-2.377 0-4.446-.037-6.438-.154l-5.898-.349 2.328-5.432c2.243-5.245 3.521-10.75 3.691-15.926-.004-5.513-2.369-5.513-3.931-5.513-1.095 0-2.061.454-3.48 2.726-.418.673-1.404 2.628-2.454 4.693l-.418.819c-.856 1.679-1.647 3.225-2.061 3.923a36.513 36.513 0 0 1-2.199 3.367l-.848 1.046c-2.251 2.759-4.564 5.59-7.586 7.825l-3.44 2.543-2.081-2.994h-16.98v38.626h16.766l.909-2.491z"/></svg>