<svg xmlns="http://www.w3.org/2000/svg" width="512" height="512" viewBox="0 0 512 512"><path d="M450.44 328.876h40.209v6.312H450.44zm45.969 0h15.756v6.312h-15.756z" fill="#D4EEF8"/><g fill="#D4EEF8"><path d="M15.888 155.37h36.704v4.495H15.888z"/><path d="M31.993 139.257h4.479v36.72h-4.479z"/></g><g fill="#FDBA12"><path d="M456.217 134.762h36.696v4.495h-36.696z"/><path d="M472.321 118.65h4.487v36.72h-4.487z"/></g><g fill="#D4EEF8"><path d="M402.801 406.145h36.703v4.495h-36.703z"/><path d="M418.905 390.049h4.486v36.703h-4.486z"/></g><path fill="#FDBA12" d="M31.53 286.932c0 8.664-7.026 15.674-15.674 15.674-8.649 0-15.691-7.01-15.691-15.674 0-8.649 7.042-15.658 15.691-15.658 8.648-.001 15.674 7.008 15.674 15.658z"/><path fill="#D4EEF8" d="M72.168 230.124c0 5.403-4.389 9.784-9.792 9.784-5.387 0-9.784-4.381-9.784-9.784s4.397-9.785 9.784-9.785c5.403 0 9.792 4.381 9.792 9.785z"/><path fill="#FDBA12" d="M456.777 374.001c0 5.403-4.381 9.784-9.793 9.784-5.387 0-9.784-4.381-9.784-9.784s4.397-9.784 9.784-9.784c5.412 0 9.793 4.381 9.793 9.784z"/><path fill="#D4EEF8" d="M496.394 364.232c0 2.727-2.215 4.949-4.949 4.949s-4.965-2.223-4.965-4.949c0-2.742 2.23-4.965 4.965-4.965s4.949 2.223 4.949 4.965zM394.817 114.22c0-7.27 5.906-13.176 13.159-13.176 7.277 0 13.185 5.906 13.185 13.176 0 7.269-5.907 13.159-13.185 13.159-7.252 0-13.159-5.89-13.159-13.159zm65.83 89.293c0-3.83 3.115-6.961 6.944-6.961 3.862 0 6.985 3.131 6.985 6.961 0 3.862-3.123 6.961-6.985 6.961a6.946 6.946 0 0 1-6.944-6.961z"/><path fill="#E7E9ED" d="M265.179 425.178c-45.206 0-87.702-17.605-119.668-49.555-31.965-31.965-49.563-74.462-49.563-119.667 0-45.206 17.597-87.703 49.563-119.668 31.966-31.965 74.462-49.571 119.668-49.571s87.702 17.605 119.66 49.571c31.974 31.965 49.57 74.462 49.57 119.668s-17.597 87.703-49.57 119.667c-31.958 31.949-74.454 49.555-119.66 49.555zm0-329.326c-88.278 0-160.095 71.817-160.095 160.104S176.9 416.043 265.179 416.043c88.286 0 160.104-71.801 160.104-160.087S353.465 95.852 265.179 95.852z"/><g fill="#8BD7F8"><path d="M263.986 286.826c-16.535 0-40.208-28.173-40.208-47.852 0-28.03 18.039-50.836 40.208-50.836 22.173 0 40.208 22.806 40.208 50.836 0 19.229-24.047 47.852-40.208 47.852zm0-90.38c-17.589 0-31.901 19.078-31.901 42.528 0 16.295 20.636 39.543 31.901 39.543 10.709 0 31.9-24.031 31.9-39.543.001-23.45-14.311-42.528-31.9-42.528z"/><path d="M198.347 334.49l-7.504-3.57 9.387-19.747c6.641-13.971 26.221-18.393 37.3-19.787 2.105-.666 6.369-9.16 8.718-17.476l7.991 2.255c-1.891 6.701-7.212 22.408-15.674 23.463-7.562.949-25.707 4.324-30.83 15.115l-9.388 19.747zm133.675 0l-9.379-19.747c-5.136-10.791-23.284-14.166-30.846-15.115-8.422-1.046-14.279-17.751-16.413-24.883l7.967-2.377c2.734 9.151 7.302 18.222 9.582 19.033 10.985 1.379 30.562 5.801 37.206 19.771l9.379 19.747-7.496 3.571z"/></g><path fill="#485A93" d="M265.187 366.163c-60.775 0-110.216-49.44-110.216-110.216 0-60.767 49.441-110.208 110.216-110.208 60.768 0 110.2 49.441 110.2 110.208 0 60.776-49.433 110.216-110.2 110.216zm0-212.116c-56.191 0-101.908 45.713-101.908 101.9 0 56.191 45.717 101.908 101.908 101.908 56.184 0 101.893-45.717 101.893-101.908-.001-56.187-45.71-101.9-101.893-101.9z"/><path fill="#FFF" d="M432.04 200.479c0 35.048-28.42 63.469-63.469 63.469-35.048 0-63.468-28.42-63.468-63.469s28.42-63.469 63.468-63.469c35.049 0 63.469 28.42 63.469 63.469z"/><path fill="#FFD682" d="M368.571 272.255c-39.575 0-71.776-32.197-71.776-71.776 0-39.58 32.201-71.777 71.776-71.777 39.576 0 71.776 32.197 71.776 71.777.001 39.579-32.2 71.776-71.776 71.776zm0-126.938c-30.415 0-55.16 24.745-55.16 55.161s24.745 55.161 55.16 55.161c30.416 0 55.161-24.745 55.161-55.161 0-30.415-24.745-55.161-55.161-55.161z"/><path fill="#F7941E" d="M368.458 235.324s47.421-28.428 36.014-51.234c-12.08-24.153-36.014-5.517-36.014-5.517s-23.69-18.636-35.771 5.517c-11.398 22.806 35.771 51.234 35.771 51.234z"/></svg>