<svg xmlns="http://www.w3.org/2000/svg" width="512" height="512" viewBox="0 0 512 512"><path d="M450.548 328.876h40.209v6.312h-40.209zm45.969 0h15.756v6.312h-15.756z" fill="#D4EEF8"/><g fill="#D4EEF8"><path d="M15.996 155.37H52.7v4.495H15.996z"/><path d="M32.1 139.257h4.479v36.72H32.1z"/></g><g fill="#FDBA12"><path d="M456.325 134.762h36.695v4.495h-36.695z"/><path d="M472.43 118.65h4.486v36.72h-4.486z"/></g><g fill="#D4EEF8"><path d="M402.908 406.145h36.704v4.495h-36.704z"/><path d="M419.013 390.049h4.486v36.703h-4.486z"/></g><path fill="#FDBA12" d="M31.638 286.932c0 8.664-7.026 15.674-15.674 15.674S.273 295.596.273 286.932c0-8.649 7.042-15.658 15.691-15.658s15.674 7.008 15.674 15.658z"/><path fill="#D4EEF8" d="M72.276 230.124c0 5.403-4.39 9.784-9.792 9.784-5.387 0-9.785-4.381-9.785-9.784s4.397-9.785 9.785-9.785c5.403 0 9.792 4.381 9.792 9.785z"/><path fill="#FDBA12" d="M456.885 374.001c0 5.403-4.381 9.784-9.793 9.784-5.387 0-9.784-4.381-9.784-9.784s4.397-9.784 9.784-9.784c5.412 0 9.793 4.381 9.793 9.784z"/><path fill="#D4EEF8" d="M496.501 364.232c0 2.727-2.215 4.949-4.949 4.949s-4.965-2.223-4.965-4.949c0-2.742 2.23-4.965 4.965-4.965s4.949 2.223 4.949 4.965zM394.925 114.22c0-7.27 5.906-13.176 13.159-13.176 7.278 0 13.185 5.906 13.185 13.176 0 7.269-5.906 13.159-13.185 13.159-7.253 0-13.159-5.89-13.159-13.159zm65.83 89.293c0-3.83 3.115-6.961 6.944-6.961 3.862 0 6.985 3.131 6.985 6.961 0 3.862-3.123 6.961-6.985 6.961a6.945 6.945 0 0 1-6.944-6.961z"/><path fill="#485A93" d="M322.727 244.833h-94.825a8.308 8.308 0 0 1 0-16.616h54.715l-22.636-22.635a8.304 8.304 0 0 1 0-11.748 8.304 8.304 0 0 1 11.747 0l50.999 50.999z"/><path fill="#FFD682" d="M275.038 320.495a8.284 8.284 0 0 1-5.874-2.434l-50.999-50.999h94.826c4.592 0 8.308 3.716 8.308 8.308s-3.716 8.308-8.308 8.308h-54.715l22.636 22.636a8.305 8.305 0 0 1 0 11.748 8.283 8.283 0 0 1-5.874 2.433z"/><path fill="#8BD7F8" d="M164.644 297.008c-22.64 0-41.061-18.417-41.061-41.061 0-22.64 18.421-41.06 41.061-41.06s41.06 18.42 41.06 41.06c0 22.644-18.421 41.061-41.06 41.061zm0-65.506c-13.48 0-24.445 10.965-24.445 24.445 0 13.476 10.965 24.444 24.445 24.444s24.445-10.969 24.445-24.444c-.001-13.48-10.965-24.445-24.445-24.445z"/><path fill="#A2D8CB" d="M371.34 297.008c-22.644 0-41.06-18.417-41.06-41.061 0-22.64 18.416-41.06 41.06-41.06 22.645 0 41.061 18.42 41.061 41.06-.001 22.644-18.417 41.061-41.061 41.061zm0-65.506c-13.476 0-24.444 10.965-24.444 24.445 0 13.476 10.969 24.444 24.444 24.444 13.477 0 24.445-10.969 24.445-24.444 0-13.48-10.969-24.445-24.445-24.445zm-67.338 188.102a8.296 8.296 0 0 1-7.991-6.077 87.216 87.216 0 0 1-3.197-23.479c0-48.144 39.17-87.313 87.321-87.313 11.788 0 23.228 2.313 33.985 6.864 4.228 1.784 6.199 6.66 4.414 10.888-1.785 4.243-6.686 6.198-10.888 4.413-8.705-3.684-17.963-5.55-27.512-5.55-38.983 0-70.705 31.715-70.705 70.698 0 6.466.868 12.867 2.58 19.017 1.232 4.422-1.347 9.006-5.769 10.23-.746.212-1.5.309-2.238.309z"/><path fill="#8BD7F8" d="M239.844 422.655a8.26 8.26 0 0 1-2.556-.406 8.307 8.307 0 0 1-5.351-10.458 70.49 70.49 0 0 0 3.412-21.742c0-38.983-31.714-70.698-70.698-70.698-14.173 0-27.84 4.171-39.522 12.064a8.31 8.31 0 0 1-11.537-2.23c-2.567-3.798-1.57-8.966 2.231-11.529 14.445-9.76 31.329-14.92 48.828-14.92 48.143 0 87.313 39.17 87.313 87.313a87.211 87.211 0 0 1-4.214 26.854 8.318 8.318 0 0 1-7.906 5.752z"/><path fill="#F15A29" d="M159.208 205.362a8.243 8.243 0 0 1-4.02-1.042c-4.012-2.227-5.464-7.282-3.237-11.293 22.842-41.19 66.271-66.774 113.335-66.774 45.319 0 86.575 23.061 110.37 61.691 2.401 3.907 1.193 9.026-2.718 11.432-3.91 2.401-9.029 1.18-11.432-2.718-20.745-33.682-56.718-53.79-96.221-53.79-41.028 0-78.887 22.307-98.805 58.215a8.3 8.3 0 0 1-7.272 4.279z"/><path fill="#E7E9ED" d="M265.286 425.178c-45.206 0-87.702-17.605-119.668-49.555-31.965-31.965-49.563-74.462-49.563-119.667 0-45.206 17.597-87.703 49.563-119.668 31.966-31.965 74.462-49.571 119.668-49.571s87.702 17.605 119.66 49.571c31.974 31.965 49.57 74.462 49.57 119.668s-17.597 87.703-49.57 119.667c-31.958 31.949-74.454 49.555-119.66 49.555zm0-329.326c-88.278 0-160.095 71.817-160.095 160.104s71.817 160.087 160.095 160.087c88.286 0 160.104-71.801 160.104-160.087S353.572 95.852 265.286 95.852z"/></svg>