<svg xmlns="http://www.w3.org/2000/svg" width="512" height="92" viewBox="0 0 512 92"><g fill="#FFF"><path d="M350.277 92h-82.246V10.562h55.107l27.139 27.139V92zm-81.366-.881h80.486V38.065l-26.623-26.623h-53.863v79.677zm-130.785.33a13.187 13.187 0 0 1-.491-3.532c0-7.141 5.699-12.948 12.705-12.948 7.005 0 12.705 5.808 12.705 12.948 0 1.17-.165 2.358-.491 3.532l-.396-.11c.316-1.138.476-2.288.476-3.422 0-6.913-5.515-12.537-12.294-12.537s-12.294 5.624-12.294 12.537c0 1.135.161 2.286.476 3.422l-.396.11z"/><path d="M148.652 91.599l-.511-.05c.016-.17.353-4.207-3.901-5.807l.182-.48c4.627 1.741 4.234 6.292 4.23 6.337zm2.381.001c-.007-.046-.5-4.607 5.257-6.338l.149.492c-5.333 1.602-4.918 5.613-4.898 5.784l-.508.062zm-1.205-7.547h.514v7.546h-.514zm351.834-19.097c-5.547 0-10.059-4.512-10.059-10.059s4.512-10.059 10.059-10.059 10.059 4.512 10.059 10.059-4.512 10.059-10.059 10.059zm0-19.658c-5.293 0-9.598 4.307-9.598 9.599s4.305 9.598 9.598 9.598 9.598-4.306 9.598-9.598-4.305-9.599-9.598-9.599z"/><path d="M501.294 49.109h.461v42.546h-.461z"/><path d="M506.748 55.866l.326.324-5.468 5.5-.326-.324zm-1.223-6.06l.326.323-4.22 4.258-.326-.323zm-8.575 3.604l4.706 5.539-.351.298-4.706-5.538zM171.912 64.253c-7.705 0-13.973-6.269-13.973-13.973 0-7.705 6.268-13.973 13.973-13.973 7.704 0 13.972 6.268 13.972 13.973 0 7.704-6.268 13.973-13.972 13.973zm0-27.306c-7.353 0-13.333 5.982-13.333 13.333s5.981 13.333 13.333 13.333 13.333-5.981 13.333-13.333-5.98-13.333-13.333-13.333z"/><path d="M171.4 42.241h.641v49.414h-.641z"/><path d="M178.984 51.608l.455.45-7.576 7.657-.455-.45zm-1.72-8.395l.455.45-5.856 5.92-.455-.45zm-11.862 5.025l6.539 7.694-.488.414-6.539-7.694zM88.979 91.993H68.832V26.254h20.147v65.739zm-19.415-.733h18.68V26.987h-18.68V91.26zm-11.911.733H37.508V49.115h20.145v42.878zM38.24 91.26h18.68V49.848H38.24V91.26zm82.063.733h-20.145V9.829h20.145v82.164zm-19.412-.916h18.68V10.745h-18.68v80.332zM14.413 76.181c-8.101 0-14.692-6.591-14.692-14.692s6.591-14.692 14.692-14.692c8.102 0 14.693 6.591 14.693 14.692s-6.591 14.692-14.693 14.692zm0-28.712c-7.731 0-14.02 6.289-14.02 14.02S6.682 75.51 14.413 75.51s14.021-6.289 14.021-14.021c0-7.731-6.289-14.02-14.021-14.02z"/><path d="M13.876 53.036h.672V90.96h-.672z"/><path d="M21.853 62.882l.477.472-7.964 8.056-.478-.473zm-1.803-8.823l.478.473-6.163 6.22-.478-.473zM7.559 59.342l6.875 8.09-.512.436-6.876-8.09zm270.039-11.297h62.949v.88h-62.949zm0 10.284h62.949v.881h-62.949zm0 10.472h62.949v.881h-62.949zm0 10.285h62.949v.881h-62.949zm72.24-40.897h-27.321V11.002h.879v26.307h26.442zm-92.35 18.62h-15.026l-.068-.358a16.74 16.74 0 0 0-4.627-8.745 16.766 16.766 0 0 0-8.75-4.632l-.357-.068V27.98l.485.05a31.817 31.817 0 0 1 19.169 9.126 31.829 31.829 0 0 1 9.124 19.167l.05.486zm-14.3-.88h13.32a30.937 30.937 0 0 0-8.816-18.149 30.943 30.943 0 0 0-18.152-8.819V42.28a17.643 17.643 0 0 1 8.85 4.803 17.62 17.62 0 0 1 4.798 8.846zm-17.324 35.43h-.002c-7.28 0-14.388-2.52-20.012-7.095l-.378-.308 10.632-10.634.301.206a16.776 16.776 0 0 0 9.469 2.908c4.491 0 8.713-1.749 11.889-4.925a16.744 16.744 0 0 0 4.632-8.747l.068-.358h15.026l-.051.485a31.816 31.816 0 0 1-9.125 19.167c-5.997 5.999-13.969 9.301-22.449 9.301zm-19.077-7.472a30.934 30.934 0 0 0 19.075 6.593h.002c8.245 0 15.996-3.211 21.826-9.043 4.881-4.881 8-11.31 8.818-18.148h-13.32a17.63 17.63 0 0 1-4.802 8.848 17.58 17.58 0 0 1-12.512 5.182c-3.453 0-6.785-.987-9.66-2.858l-9.427 9.426zm-5.274-3.891l-.308-.378c-10.295-12.655-9.348-30.91 2.204-42.461a31.808 31.808 0 0 1 19.169-9.126l.486-.05v15.024l-.358.068a16.751 16.751 0 0 0-8.75 4.632c-5.707 5.707-6.554 14.69-2.014 21.359l.205.302-10.634 10.63zm20.671-51.036a30.94 30.94 0 0 0-18.152 8.819c-11.116 11.116-12.134 28.615-2.449 40.902l9.428-9.426c-4.548-6.985-3.597-16.254 2.322-22.173a17.626 17.626 0 0 1 8.851-4.803V28.96zm148.567 49.657c-4.569 0-8.288-3.719-8.288-8.288 0-4.571 3.719-8.29 8.288-8.29 4.572 0 8.29 3.719 8.29 8.29 0 4.569-3.718 8.288-8.29 8.288zm0-15.918c-4.206 0-7.627 3.423-7.627 7.63 0 4.206 3.421 7.628 7.627 7.628 4.207 0 7.63-3.422 7.63-7.628 0-4.207-3.423-7.63-7.63-7.63z"/><path d="M370.423 65.575h.66v25.822h-.66z"/><path d="M374.733 70.533l.47.464-4.317 4.37-.47-.463zm-1.016-4.962l.47.464-3.301 3.342-.47-.464zm-6.613 2.973l3.69 4.404-.507.425-3.69-4.404zM430.42 91.88h-36.873V10.562h36.873V91.88zM394.428 91h35.111V11.442h-35.111V91z"/><path d="M404.559 40.167h-4.834v-4.835h4.834v4.835zm-3.954-.881h3.072v-3.073h-3.072v3.073zm17.167.881h-4.835v-4.835h4.835v4.835zm-3.954-.881h3.073v-3.073h-3.073v3.073zm-2.79.881h-4.833v-4.835h4.833v4.835zm-3.953-.881h3.073v-3.073h-3.073v3.073zm17.167.881h-4.835v-4.835h4.835v4.835zm-3.954-.881h3.074v-3.073h-3.074v3.073zm-15.729 9.287h-4.834v-4.834h4.834v4.834zm-3.954-.881h3.072v-3.073h-3.072v3.073zm17.167.881h-4.835v-4.834h4.835v4.834zm-3.954-.881h3.073v-3.073h-3.073v3.073zm-2.79.881h-4.833v-4.834h4.833v4.834zm-3.953-.881h3.073v-3.073h-3.073v3.073zm17.167.881h-4.835v-4.834h4.835v4.834zm-3.954-.881h3.074v-3.073h-3.074v3.073zm-15.729-25.153h-4.834v-4.834h4.834v4.834zm-3.954-.88h3.072v-3.074h-3.072v3.074zm17.167.88h-4.835v-4.834h4.835v4.834zm-3.954-.88h3.073v-3.074h-3.073v3.074zm-2.79.88h-4.833v-4.834h4.833v4.834zm-3.953-.88h3.073v-3.074h-3.073v3.074zm17.167.88h-4.835v-4.834h4.835v4.834zm-3.954-.88h3.074v-3.074h-3.074v3.074zm-15.729 9.287h-4.834v-4.835h4.834v4.835zm-3.954-.881h3.072v-3.073h-3.072v3.073zm17.167.881h-4.835v-4.835h4.835v4.835zm-3.954-.881h3.073v-3.073h-3.073v3.073zm-2.79.881h-4.833v-4.835h4.833v4.835zm-3.953-.881h3.073v-3.073h-3.073v3.073zm17.167.881h-4.835v-4.835h4.835v4.835zm-3.954-.881h3.074v-3.073h-3.074v3.073zm-15.729 27.628h-4.834v-4.835h4.834v4.835zm-3.954-.88h3.072V53.74h-3.072v3.073zm17.167.88h-4.835v-4.835h4.835v4.835zm-3.954-.88h3.073V53.74h-3.073v3.073zm-2.79.88h-4.833v-4.835h4.833v4.835zm-3.953-.88h3.073V53.74h-3.073v3.073zm17.167.88h-4.835v-4.835h4.835v4.835zm-3.954-.88h3.074V53.74h-3.074v3.073zm-15.729 10.079h-4.834v-4.834h4.834v4.834zm-3.954-.88h3.072v-3.074h-3.072v3.074zm17.167.88h-4.835v-4.834h4.835v4.834zm-3.954-.88h3.073v-3.074h-3.073v3.074zm-2.79.88h-4.833v-4.834h4.833v4.834zm-3.953-.88h3.073v-3.074h-3.073v3.074zm17.167.88h-4.835v-4.834h4.835v4.834zm-3.954-.88h3.074v-3.074h-3.074v3.074zm-15.729 9.377h-4.834v-4.834h4.834v4.834zm-3.954-.88h3.072v-3.074h-3.072v3.074zm17.167.88h-4.835v-4.834h4.835v4.834zm-3.954-.88h3.073v-3.074h-3.073v3.074zm-2.79.88h-4.833v-4.834h4.833v4.834zm-3.953-.88h3.073v-3.074h-3.073v3.074zm17.167.88h-4.835v-4.834h4.835v4.834zm-3.954-.88h3.074v-3.074h-3.074v3.074zm-2.363 17.371h-11.881V79.473h11.881V91.88zM406.924 91h10.12V80.354h-10.12V91zm5.059-80.438V.149m-.44 0h.881v11.293h-.881zm95.694 31.258h-24.59a3.047 3.047 0 0 1-3.044-3.043 3.047 3.047 0 0 1 3.044-3.044h24.59a3.047 3.047 0 0 1 3.044 3.044 3.047 3.047 0 0 1-3.044 3.043zm-24.59-5.427c-1.313 0-2.384 1.07-2.384 2.384s1.07 2.382 2.384 2.382h24.59c1.313 0 2.384-1.068 2.384-2.382s-1.07-2.384-2.384-2.384h-24.59zM39.815 24.426H15.226a3.046 3.046 0 0 1-3.044-3.042 3.048 3.048 0 0 1 3.044-3.044h24.589a3.047 3.047 0 0 1 3.044 3.044 3.046 3.046 0 0 1-3.044 3.042zM15.226 19a2.387 2.387 0 0 0-2.384 2.384 2.386 2.386 0 0 0 2.384 2.382h24.589a2.386 2.386 0 0 0 2.384-2.382A2.387 2.387 0 0 0 39.815 19H15.226zM146.39 42.795h-12.95a3.046 3.046 0 0 1-3.044-3.042 3.047 3.047 0 0 1 3.044-3.044h12.95a3.047 3.047 0 0 1 3.044 3.044 3.046 3.046 0 0 1-3.044 3.042zm-12.95-5.426a2.387 2.387 0 0 0-2.384 2.384 2.386 2.386 0 0 0 2.384 2.382h12.95a2.386 2.386 0 0 0 2.384-2.382 2.387 2.387 0 0 0-2.384-2.384h-12.95zm340.353-5.963h-28.366c-1.607 0-2.819-1.105-2.819-2.57 0-1.466 1.212-2.572 2.819-2.572h8.271c.959-.077 1.73-.912 1.73-1.899 0-.94-.674-1.731-1.602-1.881l-1.98.004c-1.607 0-2.819-1.106-2.819-2.572a2.574 2.574 0 0 1 2.571-2.571h20.706a2.574 2.574 0 0 1 2.572 2.571c0 1.37-1.087 2.572-2.325 2.572h-1.828c-.877.146-1.551.937-1.551 1.877 0 .99.773 1.824 1.762 1.9l2.859-.001c1.237 0 2.323 1.202 2.323 2.572 0 1.369-1.086 2.57-2.323 2.57zm-22.195-13.401a1.913 1.913 0 0 0-1.911 1.911c0 1.107.908 1.912 2.159 1.912h2.032c1.303.207 2.21 1.272 2.21 2.538a2.58 2.58 0 0 1-2.364 2.559h-8.297c-1.251 0-2.158.804-2.158 1.912 0 1.106.907 1.91 2.158 1.91h28.366c.785 0 1.663-.817 1.663-1.91 0-1.095-.878-1.912-1.663-1.912h-2.885c-1.355-.103-2.397-1.227-2.397-2.559 0-1.266.908-2.332 2.159-2.533l1.881-.004c.786 0 1.665-.817 1.665-1.912a1.914 1.914 0 0 0-1.912-1.911h-20.706zm-274.122 5.711H149.11c-1.607 0-2.819-1.105-2.819-2.571 0-1.466 1.211-2.572 2.819-2.572h8.271c.958-.077 1.73-.912 1.73-1.899 0-.94-.674-1.731-1.602-1.881l-1.98.004c-1.607 0-2.819-1.105-2.819-2.572a2.575 2.575 0 0 1 2.571-2.571h20.706a2.575 2.575 0 0 1 2.573 2.571c0 1.37-1.087 2.572-2.325 2.572h-1.829c-.876.146-1.551.937-1.551 1.877 0 .989.774 1.824 1.763 1.9l2.859-.001c1.238 0 2.323 1.202 2.323 2.572-.001 1.37-1.086 2.571-2.324 2.571zm-22.195-13.402a1.913 1.913 0 0 0-1.911 1.911c0 1.107.907 1.912 2.158 1.912h2.033c1.303.207 2.21 1.272 2.21 2.538a2.58 2.58 0 0 1-2.365 2.559h-8.297c-1.251 0-2.159.804-2.159 1.912 0 1.107.908 1.91 2.159 1.91h28.366c.785 0 1.663-.817 1.663-1.91 0-1.094-.878-1.912-1.663-1.912h-2.884c-1.356-.103-2.397-1.227-2.397-2.559 0-1.266.908-2.332 2.159-2.533l1.881-.004c.786 0 1.665-.817 1.665-1.912a1.914 1.914 0 0 0-1.913-1.911h-20.705zm310.433 80.61h-1.95a1.693 1.693 0 0 1-1.671-1.416l-.226-1.353a8.96 8.96 0 0 1-1.136-.467l-1.134.808a1.728 1.728 0 0 1-2.179-.181l-1.376-1.379a1.685 1.685 0 0 1-.182-2.184l.79-1.099a9.32 9.32 0 0 1-.497-1.181l-1.374-.235a1.69 1.69 0 0 1-1.414-1.672v-1.944c0-.831.596-1.535 1.416-1.672l1.332-.226c.131-.406.293-.804.483-1.187l-.809-1.137a1.696 1.696 0 0 1 .183-2.183l1.383-1.375c.552-.565 1.539-.646 2.185-.18l1.104.793a8.73 8.73 0 0 1 1.179-.498l.233-1.372a1.696 1.696 0 0 1 1.674-1.413h1.943c.83 0 1.534.595 1.675 1.412l.225 1.335a9 9 0 0 1 1.239.51l1.118-.797a1.71 1.71 0 0 1 2.178.184l1.375 1.374c.592.585.67 1.504.186 2.185l-.797 1.116c.19.382.354.777.488 1.182l1.353.229c.826.14 1.417.846 1.405 1.678v1.94a1.69 1.69 0 0 1-1.415 1.671l-1.353.226a8.796 8.796 0 0 1-.489 1.184l.798 1.12a1.69 1.69 0 0 1-.185 2.183l-1.374 1.377a1.734 1.734 0 0 1-2.185.183l-1.112-.798c-.383.19-.78.354-1.186.489l-.229 1.353a1.693 1.693 0 0 1-1.672 1.417zm-5.036-4.008l.18.095c.438.23.909.425 1.399.575l.195.061.292 1.752c.084.5.514.865 1.02.865h1.95c.506 0 .937-.365 1.021-.866l.298-1.752.194-.06a8.27 8.27 0 0 0 1.448-.598l.181-.095 1.442 1.032c.396.284.977.24 1.334-.112l1.373-1.376a1.03 1.03 0 0 0 .112-1.332l-1.03-1.449.094-.18c.254-.484.454-.972.598-1.446l.059-.196 1.755-.293c.5-.083.863-.513.863-1.02v-1.944a1.017 1.017 0 0 0-.854-1.022l-1.752-.297-.06-.194a8.36 8.36 0 0 0-.598-1.446l-.096-.18 1.033-1.445a1.03 1.03 0 0 0-.113-1.332l-1.377-1.376a1.036 1.036 0 0 0-1.326-.113l-1.45 1.032-.181-.096a8.185 8.185 0 0 0-1.499-.616l-.196-.059-.293-1.735a1.034 1.034 0 0 0-1.022-.863h-1.943c-.507 0-.938.363-1.022.864l-.301 1.77-.193.06a7.969 7.969 0 0 0-1.438.607l-.183.1-1.438-1.034c-.392-.284-.993-.235-1.33.108l-1.384 1.378a1.035 1.035 0 0 0-.112 1.333l1.043 1.464-.095.18a8.01 8.01 0 0 0-.59 1.446l-.059.197-1.735.296a1.03 1.03 0 0 0-.864 1.02v1.944c0 .508.362.937.863 1.021l1.771.303.06.191c.159.503.363.988.608 1.443l.098.182-1.028 1.432c-.296.415-.249.975.11 1.331l1.375 1.377c.359.353.922.402 1.331.112l1.462-1.044z"/><path d="M464.742 84.646a5.104 5.104 0 0 1-5.098-5.1 5.102 5.102 0 0 1 5.098-5.094 5.1 5.1 0 0 1 5.096 5.094c0 2.812-2.286 5.1-5.096 5.1zm0-9.533a4.44 4.44 0 0 0-4.438 4.433 4.443 4.443 0 0 0 4.438 4.439 4.443 4.443 0 0 0 4.436-4.439 4.44 4.44 0 0 0-4.436-4.433zM358.848 13.622c-.174-2.966-2.619-5.337-5.566-5.337-1.79 0-3.522.877-4.596 2.31-.025-.013-.051-.022-.075-.036a3.644 3.644 0 0 0-.313-.128 2.772 2.772 0 0 0-.203-.063c-.038-.01-.077-.021-.114-.029a2.432 2.432 0 0 0-.226-.042c-.033-.004-.066-.011-.102-.015a2.97 2.97 0 0 0-3.296 2.947c0 .042.002.083.004.125-1.37.747-2.312 2.312-2.312 3.879a4.236 4.236 0 0 0 4.232 4.232h1.699a.33.33 0 0 0 0-.659h-1.699a3.577 3.577 0 0 1-3.573-3.573c0-1.369.891-2.791 2.12-3.379l.188-.09v-.207c0-.041.002-.082.005-.124l.002-.058-.005-.061-.002-.086a2.309 2.309 0 0 1 2.608-2.285c.026.001.052.007.077.011.088.014.175.033.26.058l.035.008a2.034 2.034 0 0 1 .343.14 2.301 2.301 0 0 1 1.29 2.068c0 .182.146.329.329.329a.328.328 0 0 0 .329-.329 2.96 2.96 0 0 0-1.054-2.265c.943-1.236 2.499-2.02 4.048-2.02 2.551 0 4.672 2.021 4.892 4.577a6.203 6.203 0 0 0-1.345.042.33.33 0 0 0 .049.654c.017 0 .033 0 .051-.002.731-.111 1.496-.008 1.543-.002 1.535.292 2.691 1.706 2.691 3.291a3.308 3.308 0 0 1-3.305 3.304h-1.309a.329.329 0 1 0 0 .659h1.309a3.969 3.969 0 0 0 3.964-3.963c0-1.809-1.259-3.431-2.973-3.881z"/><path d="M352.497 16.29a.333.333 0 0 0-.359-.072.35.35 0 0 0-.105.072l-2.308 2.307a.33.33 0 1 0 .466.465l1.743-1.744v5.794a.33.33 0 1 0 .659 0v-5.794l1.745 1.744a.326.326 0 0 0 .465 0 .33.33 0 0 0 0-.465l-2.306-2.307z"/></g></svg>