<svg xmlns="http://www.w3.org/2000/svg" width="512" height="512" viewBox="0 0 512 512"><path d="M450.324 328.233h40.209v6.312h-40.209zm45.969 0h15.756v6.312h-15.756z" fill="#D4EEF8"/><g fill="#D4EEF8"><path d="M15.772 154.727h36.704v4.495H15.772z"/><path d="M31.876 138.614h4.478v36.72h-4.478z"/></g><g fill="#FDBA12"><path d="M456.101 134.12h36.696v4.495h-36.696z"/><path d="M472.205 118.007h4.487v36.72h-4.487z"/></g><g fill="#D4EEF8"><path d="M402.685 405.502h36.703v4.495h-36.703z"/><path d="M418.789 389.406h4.486v36.703h-4.486z"/></g><path fill="#FDBA12" d="M31.414 286.289c0 8.664-7.026 15.674-15.675 15.674-8.648 0-15.69-7.01-15.69-15.674 0-8.649 7.042-15.658 15.69-15.658 8.649 0 15.675 7.009 15.675 15.658z"/><path fill="#D4EEF8" d="M72.052 229.481c0 5.403-4.389 9.784-9.792 9.784-5.387 0-9.784-4.381-9.784-9.784s4.397-9.785 9.784-9.785c5.403 0 9.792 4.382 9.792 9.785z"/><path fill="#FDBA12" d="M456.661 373.358c0 5.403-4.382 9.784-9.793 9.784-5.387 0-9.784-4.381-9.784-9.784s4.397-9.784 9.784-9.784c5.411 0 9.793 4.381 9.793 9.784z"/><path fill="#D4EEF8" d="M496.277 363.59c0 2.727-2.215 4.949-4.949 4.949s-4.966-2.223-4.966-4.949c0-2.742 2.231-4.965 4.966-4.965s4.949 2.223 4.949 4.965zM394.701 113.578c0-7.27 5.906-13.176 13.159-13.176 7.277 0 13.184 5.906 13.184 13.176 0 7.269-5.906 13.159-13.184 13.159-7.253 0-13.159-5.89-13.159-13.159zm65.829 89.292c0-3.83 3.116-6.961 6.945-6.961 3.861 0 6.985 3.131 6.985 6.961 0 3.862-3.124 6.961-6.985 6.961a6.946 6.946 0 0 1-6.945-6.961z"/><path fill="#E7E9ED" d="M265.063 424.535c-45.206 0-87.703-17.605-119.668-49.555-31.966-31.965-49.563-74.462-49.563-119.667 0-45.206 17.597-87.703 49.563-119.668 31.965-31.965 74.462-49.571 119.668-49.571s87.702 17.605 119.659 49.571c31.974 31.965 49.571 74.462 49.571 119.668s-17.598 87.703-49.571 119.667c-31.957 31.95-74.453 49.555-119.659 49.555zm0-329.326c-88.278 0-160.096 71.817-160.096 160.104S176.784 415.4 265.063 415.4c88.286 0 160.104-71.801 160.104-160.087S353.349 95.209 265.063 95.209z"/><path fill="#A2D8CB" d="M265.063 284.414c-11.452 0-20.77-9.321-20.77-20.777 0-11.456 9.318-20.777 20.77-20.777 11.455 0 20.777 9.322 20.777 20.777 0 11.456-9.322 20.777-20.777 20.777zm-12.462-20.777c0 6.88 5.59 12.47 12.462 12.47s12.47-5.59 12.47-12.47c0 6.872-5.598 12.462-12.47 12.462s-12.462-5.59-12.462-12.462zm12.462-4.162a4.161 4.161 0 0 0-4.154 4.162 4.16 4.16 0 0 0 4.154 4.154 4.164 4.164 0 0 0 4.162-4.154 4.166 4.166 0 0 0-4.162-4.162zm0-8.308c6.872 0 12.47 5.594 12.47 12.47-.001-6.876-5.598-12.47-12.47-12.47s-12.462 5.594-12.462 12.47c0-6.876 5.589-12.47 12.462-12.47z"/><path fill="#FFF" d="M265.063 138.971c-68.734 0-124.666 55.924-124.666 124.666 0 43.9 23.528 85.058 61.399 107.409a4.16 4.16 0 0 0 2.109.584 4.159 4.159 0 0 0 2.11-7.739c-35.341-20.867-57.311-59.274-57.311-100.254 0-64.15 52.2-116.35 116.358-116.35s116.357 52.2 116.357 116.35c0 40.979-21.954 79.387-57.311 100.254a4.166 4.166 0 0 0-1.469 5.695c1.16 1.979 3.708 2.628 5.688 1.468 37.88-22.359 61.408-63.517 61.408-107.417.001-68.742-55.922-124.666-124.672-124.666z"/><path fill="#485A93" d="M203.906 375.784a8.329 8.329 0 0 1-4.207-1.152c-39.146-23.106-63.456-65.635-63.456-110.995 0-71.03 57.789-128.819 128.819-128.819 71.038 0 128.827 57.79 128.827 128.819 0 45.36-24.314 87.889-63.452 110.995a8.345 8.345 0 0 1-4.219 1.152 8.342 8.342 0 0 1-7.164-4.098c-2.32-3.942-.998-9.046 2.945-11.374 34.091-20.121 55.267-57.165 55.267-96.676 0-61.866-50.334-112.195-112.204-112.195-61.871 0-112.204 50.329-112.204 112.195 0 39.503 21.179 76.547 55.271 96.676a8.24 8.24 0 0 1 3.825 5.095 8.246 8.246 0 0 1-.896 6.296 8.342 8.342 0 0 1-7.152 4.081zm0-8.307v4.153l.004-4.162v.009h-.004zm61.157-224.344c66.454 0 120.512 54.058 120.512 120.503 0 42.439-22.741 82.227-59.355 103.831 36.614-21.604 59.363-61.392 59.363-103.831 0-66.45-54.065-120.511-120.52-120.511-66.45 0-120.512 54.061-120.512 120.511 0-66.445 54.061-120.503 120.512-120.503zM144.551 263.637c0 32.672 13.48 63.769 36.395 86.218-22.915-22.458-36.395-53.555-36.395-86.218z"/><path fill="#F15A29" d="M233.47 325.597a8.388 8.388 0 0 1-4.235-1.16c-21.479-12.705-34.821-36.006-34.821-60.8 0-38.951 31.694-70.641 70.649-70.641 38.959 0 70.648 31.69 70.648 70.641 0 24.794-13.346 48.086-34.821 60.791-3.756 2.239-9.144.893-11.383-2.912a8.225 8.225 0 0 1-.9-6.296 8.25 8.25 0 0 1 3.829-5.095c16.445-9.728 26.66-27.544 26.66-46.488 0-29.791-24.242-54.025-54.033-54.025-29.792 0-54.025 24.234-54.025 54.025 0 18.944 10.214 36.761 26.659 46.488 3.943 2.328 5.257 7.439 2.929 11.383a8.361 8.361 0 0 1-7.156 4.089zm31.593-124.293c-34.375 0-62.341 27.961-62.341 62.333 0 21.873 11.78 42.432 30.744 53.644l.004 4.162v-4.153l3.091 2.774-3.087-2.783c-18.968-11.229-30.745-31.778-30.745-53.644 0-34.371 27.962-62.333 62.334-62.333zm62.34 62.333c0 21.865-11.78 42.424-30.74 53.644 18.96-11.22 30.74-31.771 30.74-53.644z"/><g fill="#8BD7F8"><path d="M264.219 376.66c-12.697 0-30.189-20.615-30.189-35.576 0-20.777 13.541-37.677 30.189-37.677 16.647 0 30.196 16.899 30.196 37.677 0 14.628-17.783 35.576-30.196 35.576zm0-63.631c-11.342 0-20.575 12.583-20.575 28.055 0 10.183 13.67 25.954 20.575 25.954 6.125 0 20.574-15.358 20.574-25.954 0-15.472-9.232-28.055-20.574-28.055z"/><path d="M219.718 409.137l-8.697-4.138 6.612-13.897c4.949-10.441 18.984-13.833 27.244-14.928 1.371-1.25 3.708-6.313 5.038-11.01l9.257 2.612c-1.784 6.312-5.792 17.021-12.615 17.881-10.442 1.314-18.011 4.893-20.234 9.574l-6.605 13.906zm90.696 0l-6.611-13.897c-2.224-4.689-9.793-8.268-20.234-9.582-6.434-.803-10.693-10.692-13.135-18.847l9.225-2.75c1.558 5.192 4.161 10.766 5.638 12.121 8.275 1.104 22.255 4.494 27.195 14.928l6.612 13.89-8.69 4.137z"/></g></svg>