<svg xmlns="http://www.w3.org/2000/svg" width="512" height="512" viewBox="0 0 512 512"><path fill="#FFF" d="M333.836 167.812l-10.481-1.428a57.273 57.273 0 0 0-4.527-9.946l5.857-8.819c2.475-3.756 1.898-8.738-1.412-11.789l-9.564-8.94c-1.793-1.663-4.13-2.572-6.563-2.483a9.163 9.163 0 0 0-5.266 1.898l-8.405 6.442a57.788 57.788 0 0 0-10.637-3.959l-2.085-10.247a9.159 9.159 0 0 0-9.321-7.334l-13.079.446a9.164 9.164 0 0 0-8.794 7.951l-1.436 10.628a55.378 55.378 0 0 0-9.931 4.6l-8.754-5.849a8.978 8.978 0 0 0-5.387-1.518c-2.434.082-4.754 1.112-6.393 2.905l-8.965 9.557a9.201 9.201 0 0 0-.592 11.853l6.515 8.527a55.892 55.892 0 0 0-3.789 10.279l-10.239 2.102a9.16 9.16 0 0 0-7.358 9.306l.446 13.062a9.165 9.165 0 0 0 7.983 8.794l10.62 1.444a58.06 58.06 0 0 0 4.592 9.946l-5.825 8.714c-2.483 3.748-1.907 8.729 1.395 11.78l9.541 8.941c1.826 1.663 4.138 2.547 6.604 2.466a8.972 8.972 0 0 0 5.233-1.882l8.519-6.507a58.41 58.41 0 0 0 9.93 3.684l2.093 10.369c.909 4.43 4.827 7.521 9.313 7.366l13.104-.446a9.187 9.187 0 0 0 8.802-7.991l1.412-10.482a57.918 57.918 0 0 0 9.979-4.519l8.794 5.85a9.283 9.283 0 0 0 5.396 1.517c2.467-.081 4.722-1.12 6.401-2.913l8.924-9.573a9.192 9.192 0 0 0 .601-11.854l-6.441-8.413c1.59-3.318 2.921-6.758 3.821-10.255l10.376-2.102a9.166 9.166 0 0 0 7.351-9.322l-.446-13.07c-.091-4.486-3.45-8.194-7.912-8.786z"/><path fill="#485A93" d="M263.354 264.333c-6.3 0-11.792-4.499-13.062-10.693l-1.598-7.926a62.034 62.034 0 0 1-5.809-2.154l-6.543 5.002a13.099 13.099 0 0 1-7.614 2.73h-.037c-3.78 0-6.997-1.262-9.508-3.545l-9.582-8.981c-4.791-4.421-5.646-11.626-2.02-17.102l4.43-6.625a61.42 61.42 0 0 1-2.75-5.963l-8.162-1.107a13.302 13.302 0 0 1-11.573-12.77l-.446-13.062a13.272 13.272 0 0 1 10.693-13.521l7.748-1.59a60.517 60.517 0 0 1 2.28-6.178l-5.001-6.543a13.313 13.313 0 0 1 .86-17.216l8.969-9.562c2.329-2.543 5.724-4.093 9.286-4.21 3.018-.158 5.679.762 7.845 2.223l6.625 4.426a59.677 59.677 0 0 1 5.955-2.754l1.103-8.162a13.308 13.308 0 0 1 12.77-11.545l13.082-.446h.017c6.767 0 12.251 4.479 13.517 10.652l1.582 7.781c2.223.689 4.405 1.5 6.531 2.434l6.417-4.917a13.25 13.25 0 0 1 7.65-2.75c3.554.166 7.026 1.266 9.525 3.586l9.581 8.953c4.787 4.414 5.655 11.618 2.045 17.106l-4.479 6.742a62.15 62.15 0 0 1 2.71 5.959l8.007 1.091c6.531.868 11.375 6.259 11.505 12.823l.446 13.009a13.315 13.315 0 0 1-10.677 13.533l-7.902 1.603a63.691 63.691 0 0 1-2.304 6.142l4.924 6.43a13.293 13.293 0 0 1-.876 17.22l-8.908 9.565c-2.45 2.616-5.752 4.117-9.306 4.231h-.049c-3.05 0-5.581-.763-7.764-2.199l-6.726-4.47a62.414 62.414 0 0 1-5.988 2.706l-1.078 8.003a13.325 13.325 0 0 1-12.771 11.59l-13.57.451zm-21.516-30.428l2.296 1.103a54.402 54.402 0 0 0 9.221 3.42l2.479.669 2.601 12.883c.486 2.373 2.511 4.041 4.92 4.041v4.153l.179-4.153 13.106-.446a5.047 5.047 0 0 0 4.827-4.394l1.753-13.025 2.418-.832a53.862 53.862 0 0 0 9.265-4.194l2.231-1.282 10.937 7.273a5.094 5.094 0 0 0 2.782.828c1.525-.044 2.742-.6 3.676-1.602l8.916-9.565a5.007 5.007 0 0 0 .341-6.503l-7.983-10.429 1.096-2.3c1.582-3.286 2.774-6.482 3.545-9.493l.649-2.519 12.924-2.621a5.014 5.014 0 0 0 4.024-5.107l-.446-13.07c-.049-2.486-1.858-4.486-4.3-4.811l-13.03-1.772-.835-2.414a52.649 52.649 0 0 0-4.195-9.225l-1.289-2.231 7.285-10.969a4.998 4.998 0 0 0-.771-6.434l-9.59-8.961a4.993 4.993 0 0 0-3.399-1.367c-1.217.037-2.215.397-3.066 1.047l-10.442 8.003-2.312-1.128a53.381 53.381 0 0 0-9.874-3.675l-2.49-.657-2.604-12.778c-.479-2.361-2.507-4.012-4.925-4.012l-13.261.446a5.024 5.024 0 0 0-4.819 4.356l-1.777 13.155-2.41.84a51.05 51.05 0 0 0-9.184 4.251l-2.248 1.331-10.928-7.302a4.854 4.854 0 0 0-2.722-.823c-1.558.049-2.819.617-3.683 1.562l-9.001 9.598a5.016 5.016 0 0 0-.32 6.49l8.068 10.559-1.12 2.3a52.01 52.01 0 0 0-3.505 9.517l-.653 2.499-12.77 2.62a5.003 5.003 0 0 0-4.044 5.095l.446 13.062a5.026 5.026 0 0 0 4.377 4.819l13.155 1.789.839 2.397a53.905 53.905 0 0 0 4.264 9.233l1.306 2.243-7.269 10.868a4.98 4.98 0 0 0 .762 6.421l9.562 8.961a5.09 5.09 0 0 0 3.452 1.347c1.225-.037 2.178-.377 3.002-1.018l10.561-8.067z"/><path d="M450.112 328.483h40.209v6.312h-40.209zm45.969 0h15.756v6.312h-15.756z" fill="#D4EEF8"/><g fill="#D4EEF8"><path d="M15.56 154.977h36.704v4.495H15.56z"/><path d="M31.665 138.864h4.479v36.72h-4.479z"/></g><g fill="#FDBA12"><path d="M455.89 134.37h36.695v4.495H455.89z"/><path d="M471.994 118.257h4.486v36.72h-4.486z"/></g><g fill="#D4EEF8"><path d="M402.473 405.752h36.704v4.495h-36.704z"/><path d="M418.577 389.656h4.486v36.703h-4.486z"/></g><path fill="#FDBA12" d="M31.202 286.539c0 8.664-7.026 15.674-15.674 15.674s-15.691-7.01-15.691-15.674c0-8.649 7.042-15.658 15.691-15.658s15.674 7.009 15.674 15.658z"/><path fill="#D4EEF8" d="M71.84 229.731c0 5.403-4.389 9.784-9.792 9.784-5.387 0-9.784-4.381-9.784-9.784s4.397-9.785 9.784-9.785c5.403 0 9.792 4.382 9.792 9.785z"/><path fill="#FDBA12" d="M456.449 373.608c0 5.403-4.381 9.784-9.793 9.784-5.387 0-9.784-4.381-9.784-9.784s4.397-9.784 9.784-9.784c5.412 0 9.793 4.381 9.793 9.784z"/><path fill="#D4EEF8" d="M496.065 363.84c0 2.727-2.215 4.949-4.949 4.949s-4.965-2.223-4.965-4.949c0-2.742 2.23-4.965 4.965-4.965s4.949 2.223 4.949 4.965zM394.489 113.828c0-7.27 5.906-13.176 13.159-13.176 7.278 0 13.185 5.906 13.185 13.176 0 7.269-5.906 13.159-13.185 13.159-7.252 0-13.159-5.89-13.159-13.159zm65.83 89.292c0-3.83 3.115-6.961 6.944-6.961 3.862 0 6.985 3.131 6.985 6.961 0 3.862-3.123 6.961-6.985 6.961a6.946 6.946 0 0 1-6.944-6.961z"/><path fill="#E7E9ED" d="M264.851 424.785c-45.206 0-87.702-17.605-119.668-49.555-31.965-31.965-49.563-74.462-49.563-119.667 0-45.206 17.597-87.703 49.563-119.668 31.966-31.965 74.462-49.571 119.668-49.571s87.702 17.605 119.66 49.571c31.974 31.965 49.57 74.462 49.57 119.668s-17.597 87.703-49.57 119.667c-31.958 31.95-74.454 49.555-119.66 49.555zm0-329.326c-88.278 0-160.095 71.817-160.095 160.104S176.572 415.65 264.851 415.65c88.286 0 160.104-71.801 160.104-160.087S353.137 95.459 264.851 95.459z"/><path fill="#FFF" d="M201.074 161.638l13.362 23.958 7.708 12.81-.755 18.969-16.648 19.804-18.246-21.176-14.036-33.717 18.831-18.401zm129.428-2.978l-13.362 23.958-7.708 12.811v11.285l19.074 33.856 16.575-27.544 14.035-33.718-18.83-18.4z"/><path fill="#FFD682" d="M171.867 250.29c-16.453 0-39.113-26.7-39.113-46.083 0-26.911 17.549-48.8 39.113-48.8s39.105 21.889 39.105 48.8c0 18.952-23.025 46.083-39.105 46.083zm0-82.421c-14.693 0-26.651 16.299-26.651 36.338 0 13.192 17.703 33.621 26.651 33.621 7.935 0 26.643-19.893 26.643-33.621 0-20.039-11.95-36.338-26.643-36.338z"/><path fill="#FFD682" d="M234.354 297.979l-11.212-23.634c-2.888-6.061-12.688-10.701-26.229-12.405-8.6-1.07-14.279-13.735-16.899-21.191l-2.061-5.874 11.748-4.138 2.069 5.874c2.036 5.769 5.598 12.153 7.318 13.135 9.979 1.16 28.745 5.46 35.308 19.252l11.221 23.642-11.263 5.339z"/><path fill="#F15A29" d="M356.406 250.29c-16.444 0-39.104-26.7-39.104-46.083 0-26.911 17.54-48.8 39.104-48.8 21.557 0 39.098 21.889 39.098 48.8 0 18.952-23.018 46.083-39.098 46.083zm0-82.421c-14.692 0-26.643 16.299-26.643 36.338 0 13.192 17.702 33.621 26.643 33.621 7.935 0 26.636-19.893 26.636-33.621 0-20.039-11.95-36.338-26.636-36.338z"/><path fill="#F15A29" d="M296.086 297.979l-11.253-5.347 11.229-23.634c6.548-13.792 25.313-18.092 35.917-19.422.884-.714 3.529-6.069 4.778-10.653l1.646-6.012 12.024 3.294-1.647 6.012c-1.517 5.549-6.044 18.579-15.253 19.723-13.524 1.704-23.324 6.337-26.205 12.405l-11.236 23.634z"/><g fill="#8BD7F8"><path d="M264.129 362.461c-16.445 0-39.105-26.7-39.105-46.082 0-26.911 17.541-48.801 39.105-48.801 21.564 0 39.113 21.89 39.113 48.801 0 18.952-23.033 46.082-39.113 46.082zm0-82.421c-14.693 0-26.644 16.299-26.644 36.339 0 13.191 17.703 33.62 26.644 33.62 7.935 0 26.651-19.894 26.651-33.62 0-20.04-11.959-36.339-26.651-36.339z"/><path d="M206.485 404.527l-11.261-5.354 8.56-18.003c6.417-13.524 24.59-17.922 35.292-19.342 1.777-1.614 4.803-8.17 6.531-14.263l11.991 3.391c-2.313 8.179-7.505 22.052-16.348 23.155-13.524 1.703-23.325 6.345-26.205 12.404l-8.56 18.012zm117.478 0l-8.56-18.003c-2.88-6.068-12.681-10.71-26.214-12.413-8.332-1.039-13.849-13.841-17.005-24.404l11.942-3.569c2.021 6.733 5.396 13.946 7.302 15.698 10.718 1.437 28.826 5.833 35.235 19.342l8.56 17.995-11.26 5.354z"/></g><path fill="#D4EEF8" d="M242.743 188.93c0-13.784 11.196-24.98 24.948-24.98 13.8 0 24.996 11.196 24.996 24.98s-11.196 24.948-24.996 24.948c-13.753 0-24.948-11.164-24.948-24.948z"/><path fill="#F15A29" d="M383.731 249.794c-1.622-1.039-4.714-7.293-6.36-12.875l-1.769-5.971-11.942 3.513 1.752 5.971c2.223 7.562 7.262 20.413 16.04 21.507 13.54 1.704 23.349 6.345 26.229 12.405l11.212 23.634.203-.098a159.69 159.69 0 0 0 4.104-19.901l-4.267-8.981c-6.554-13.792-25.32-18.092-35.202-19.204z"/><path fill="#FFD682" d="M122.783 274.345c2.88-6.061 12.681-10.701 26.205-12.405 9.07-1.127 13.971-14.043 15.65-19.544l1.826-5.947-11.902-3.659-1.833 5.947c-1.477 4.787-4.3 10.125-5.29 10.839-10.604 1.331-29.369 5.63-35.917 19.422l-4.827 10.157a157.613 157.613 0 0 0 3.821 18.336l1.03.487 11.237-23.633z"/></svg>