<svg xmlns="http://www.w3.org/2000/svg" width="512" height="512" viewBox="0 0 512 512"><path fill="#8AD7F8" d="M245.07 442.799c-96.515 0-175.032-78.525-175.032-175.04 0-96.509 78.517-175.032 175.032-175.032 96.511 0 175.036 78.523 175.036 175.032-.001 96.514-78.525 175.04-175.036 175.04zm0-336.255c-88.897 0-161.215 72.321-161.215 161.215 0 88.897 72.317 161.223 161.215 161.223 88.894 0 161.219-72.325 161.219-161.223 0-88.894-72.325-161.215-161.219-161.215z"/><path d="M455.011 235.813h37.017v5.812h-37.017zm42.315 0h14.514v5.812h-14.514zM.301 360.165h37.021v5.813H.301zm42.315 0H57.13v5.813H42.616z" fill="#F1F2F2"/><path d="M97.191 60.399h37.017v5.814H97.191zm42.315 0h14.514v5.814h-14.514z" fill="#FFDE17"/><g fill="#F1F2F2"><path d="M25.771 131.901h33.797v4.143H25.771z"/><path d="M40.594 117.074h4.133v33.805h-4.133z"/></g><g fill="#F1F2F2"><path d="M431.237 112.929h33.796v4.139h-33.796z"/><path d="M446.061 98.101h4.133v33.801h-4.133z"/></g><g fill="#F1F2F2"><path d="M473.523 303.74h23.705v2.901h-23.705z"/><path d="M483.917 293.334h2.902v23.709h-2.902z"/></g><g fill="#F1F2F2"><path d="M287.911 36.222h23.7v2.904h-23.7z"/><path d="M298.309 25.818h2.901v23.709h-2.901z"/></g><path fill="#F1F2F2" d="M28.722 224.202c0 7.979-6.477 14.427-14.437 14.427S-.16 232.181-.16 224.202c0-7.972 6.485-14.43 14.445-14.43s14.437 6.458 14.437 14.43z"/><path fill="#8DC63F" d="M62.518 184.665c0 4.977-4.039 9.007-9.016 9.007-4.96 0-9.012-4.031-9.012-9.007 0-4.979 4.052-9.006 9.012-9.006 4.977 0 9.016 4.028 9.016 9.006z"/><path fill="#F1F2F2" d="M460.836 277.369c0 4.977-4.039 9.008-9.004 9.008-4.969 0-9.016-4.031-9.016-9.008 0-4.98 4.047-9.008 9.016-9.008 4.965 0 9.004 4.028 9.004 9.008z"/><path fill="#8DC63F" d="M497.314 268.37a4.562 4.562 0 0 1-4.557 4.557 4.568 4.568 0 0 1-4.565-4.557 4.569 4.569 0 0 1 4.565-4.569 4.562 4.562 0 0 1 4.557 4.569zM374.701 94.017c0-6.698 5.434-12.134 12.122-12.134 6.704 0 12.133 5.436 12.133 12.134 0 6.695-5.429 12.116-12.133 12.116-6.688-.001-12.122-5.422-12.122-12.116z"/><path fill="#F1F2F2" d="M189.924 40.976c0-6.694 5.437-12.134 12.122-12.134 6.708 0 12.133 5.439 12.133 12.134s-5.425 12.117-12.133 12.117c-6.685 0-12.122-5.423-12.122-12.117z"/><path fill="#FFDE17" d="M445.413 164.53c0-3.542 2.873-6.421 6.407-6.421a6.42 6.42 0 0 1 6.419 6.421c0 3.54-2.869 6.403-6.419 6.403a6.405 6.405 0 0 1-6.407-6.403z"/><path fill="#F7941E" d="M218.997 22.439c0-3.54 2.874-6.419 6.411-6.419a6.422 6.422 0 0 1 6.419 6.419c0 3.542-2.874 6.403-6.419 6.403a6.406 6.406 0 0 1-6.411-6.403z"/><path fill="#F1F2F2" d="M238.655 53.102c0-3.54 2.877-6.419 6.407-6.419a6.42 6.42 0 0 1 6.419 6.419c0 3.542-2.87 6.403-6.419 6.403a6.407 6.407 0 0 1-6.407-6.403z"/><path fill="#FFDE17" d="M25.771 274.011l2.951 9.411 9.415 2.955-9.415 2.951-2.951 9.415-2.947-9.415-9.415-2.951 9.056-2.955z"/><path fill="#F7941E" d="M455.011 350.71l2.947 9.406 9.415 2.955-9.415 2.951-2.947 9.412-2.95-9.412-9.415-2.951 9.06-2.955z"/><path fill="#F1F2F2" d="M163.929 7.189l3.631 11.603 11.608 3.639-11.608 3.64-3.631 11.602-3.64-11.602-11.608-3.64 11.172-3.639z"/><path d="M261.039 474.509h-76.617l-.534-.363c-15.223-10.401-29.089-.163-29.228-.061l-.561.424H83.917c-1.154 0-2.087-.934-2.087-2.087s.933-2.087 2.087-2.087h68.842c3.098-2.025 17.418-10.193 32.941 0h75.339a2.087 2.087 0 1 1 0 4.174zm56.544 0h-46.697c-1.153 0-2.086-.934-2.086-2.087s.933-2.087 2.086-2.087h46.697a2.087 2.087 0 1 1 0 4.174zm110.577 0h-75.591a2.087 2.087 0 1 1 0-4.174h75.591c1.153 0 2.086.934 2.086 2.087s-.933 2.087-2.086 2.087zm-87.019 0h-15.777a2.087 2.087 0 1 1 0-4.174h15.777c1.154 0 2.087.934 2.087 2.087s-.933 2.087-2.087 2.087zm-121.675 31.66h-79.959a2.086 2.086 0 1 1 0-4.173h79.959a2.086 2.086 0 1 1 0 4.173zm159.409 0H263.574a2.086 2.086 0 1 1 0-4.173h115.301a2.086 2.086 0 1 1 0 4.173zm-131.29 0h-15.778a2.086 2.086 0 1 1 0-4.173h15.778c1.153 0 2.086.933 2.086 2.087a2.085 2.085 0 0 1-2.086 2.086z" fill="#D4EEF8"/><path fill="#5D84C3" d="M255.149 385.102h-20.285a20.465 20.465 0 0 1-20.22-17.082l-2.064-12.451a95.233 95.233 0 0 1-9.048-3.714l-10.46 7.438c-3.397 2.471-7.506 3.799-11.828 3.799-5.429 0-10.571-2.127-14.479-5.995l-14.338-14.347c-7.117-7.035-8.054-18.138-2.199-26.371l7.255-10.079a97.227 97.227 0 0 1-4.01-9.533l-12.651-2.156c-9.902-1.688-17.09-10.189-17.09-20.217V254.15a20.397 20.397 0 0 1 17.116-20.184l12.185-2.07a93.457 93.457 0 0 1 3.913-9.601l-7.447-10.45a20.447 20.447 0 0 1 2.215-26.377l14.365-14.331c3.801-3.85 8.953-5.989 14.473-5.989 4.345 0 8.472 1.323 11.936 3.825l10.112 7.275a92.83 92.83 0 0 1 9.519-4.023l2.16-12.647c1.689-9.896 10.188-17.078 20.204-17.078h20.249a20.455 20.455 0 0 1 20.204 17.082l2.054 12.217a95.76 95.76 0 0 1 10.149 4.171l10.271-7.328a20.351 20.351 0 0 1 11.869-3.805c5.445 0 10.585 2.14 14.469 6.026l14.318 14.314c7.125 7.055 8.07 18.155 2.226 26.376l-7.332 10.257a96.439 96.439 0 0 1 3.945 9.552l12.439 2.107c9.974 1.686 17.118 10.218 16.983 20.29v20.161a20.445 20.445 0 0 1-17.081 20.208l-12.428 2.07a95.998 95.998 0 0 1-3.957 9.538l7.332 10.308a20.464 20.464 0 0 1-2.217 26.374l-14.327 14.318c-3.88 3.881-9.02 6.021-14.469 6.021-4.3 0-8.413-1.313-11.901-3.795l-10.247-7.332a97.637 97.637 0 0 1-9.558 3.945l-2.111 12.439a20.438 20.438 0 0 1-20.214 17.088zm-52.679-47.855l3.405 1.789c4.402 2.315 9.15 4.264 14.11 5.8l3.695 1.142 3.312 19.968a7.966 7.966 0 0 0 7.873 6.635h20.285a7.95 7.95 0 0 0 7.866-6.651l3.387-19.963 3.689-1.134a86.054 86.054 0 0 0 14.611-6.032l3.416-1.793 16.434 11.767c3 2.136 7.532 1.826 10.242-.889l14.322-14.318a7.972 7.972 0 0 0 .868-10.271l-11.738-16.495 1.781-3.403c2.572-4.915 4.598-9.811 6.024-14.555l1.125-3.729 19.991-3.33a7.958 7.958 0 0 0 6.636-7.862v-20.244c.053-3.939-2.702-7.21-6.554-7.86l-19.964-3.385-1.133-3.689a83.747 83.747 0 0 0-6.02-14.557l-1.822-3.424 11.783-16.476c2.262-3.184 1.903-7.492-.864-10.23l-14.343-14.339c-2.719-2.723-7.124-3.081-10.214-.876l-16.482 11.758-3.416-1.801c-4.932-2.603-10.014-4.689-15.113-6.201l-3.745-1.111-3.33-19.817a7.96 7.96 0 0 0-7.858-6.647H234.48c-3.896 0-7.202 2.802-7.862 6.664l-3.438 20.13-3.67 1.137a80.586 80.586 0 0 0-14.476 6.12l-3.45 1.871-16.421-11.814c-3.006-2.17-7.591-1.816-10.21.838l-14.392 14.359a7.954 7.954 0 0 0-.864 10.257l11.867 16.654-1.801 3.414a81.074 81.074 0 0 0-5.942 14.573l-1.115 3.728-19.786 3.365c-3.876.642-6.67 3.935-6.67 7.833v20.244c0 3.905 2.806 7.215 6.674 7.875l20.104 3.424 1.149 3.651a84.245 84.245 0 0 0 6.13 14.547l1.853 3.444-11.749 16.327c-2.26 3.18-1.914 7.483.844 10.21l14.341 14.348c2.741 2.71 7.192 3.072 10.165.908l16.709-11.884z"/><path fill="#8AD7F8" d="M261.528 304.372v4.227c0 3.366-2.479 6.162-5.698 6.644l-1.027 3.839a4.792 4.792 0 0 1-4.626 3.546h-10.336c-2.172 0-4.039-1.459-4.61-3.546l-1.019-3.839a6.738 6.738 0 0 1-5.706-6.677v-4.227c0-2.262 1.81-4.08 4.072-4.08h24.863c2.269.033 4.087 1.85 4.087 4.113z"/><path fill="#8AD7F8" d="M280.677 261.181c0 9.614-3.819 18.341-10.007 24.744a32.622 32.622 0 0 0-8.755 17.75 5.917 5.917 0 0 1-5.84 4.973h-22.124c-2.89 0-5.396-2.087-5.812-4.948-1.035-6.64-4.101-12.949-8.812-17.804-6.073-6.313-9.855-14.889-9.945-24.332a35.557 35.557 0 0 1 35.415-36.034c19.805-.15 35.88 15.872 35.88 35.651z"/><path fill="#C49A6C" d="M245.021 213.823a4.021 4.021 0 0 0 4.027-4.021V195.72a4.02 4.02 0 0 0-4.027-4.021 4.003 4.003 0 0 0-4.019 4.021v14.082a4.025 4.025 0 0 0 4.019 4.021z"/><path fill="#8DC63F" d="M197.701 261.147a4.018 4.018 0 0 0-4.015-4.022H179.6a4.027 4.027 0 0 0-4.019 4.022 4.024 4.024 0 0 0 4.019 4.019h14.086a3.995 3.995 0 0 0 4.015-4.019z"/><path fill="#A2D8CB" d="M310.442 257.125h-14.078a4.02 4.02 0 0 0 0 8.041h14.078a4.022 4.022 0 0 0 4.034-4.019 4.029 4.029 0 0 0-4.034-4.022z"/><path fill="#F15D62" d="M205.897 294.618l-9.974 9.974a3.994 3.994 0 0 0 0 5.693c.766.767 1.81 1.158 2.82 1.158s2.063-.392 2.837-1.158l9.978-9.978a4.026 4.026 0 0 0 0-5.689c-1.548-1.573-4.116-1.573-5.661 0z"/><path fill="#8BD7F8" d="M281.332 228.863a3.979 3.979 0 0 0 2.821-1.162l9.981-9.974a4.006 4.006 0 0 0 0-5.69 3.998 3.998 0 0 0-5.682 0l-9.981 9.978a3.985 3.985 0 0 0 0 5.686 4.067 4.067 0 0 0 2.861 1.162z"/><path fill="#5D84C3" d="M205.897 227.673c.77.774 1.81 1.16 2.829 1.16a4.016 4.016 0 0 0 2.833-1.16 4.025 4.025 0 0 0 0-5.688l-9.978-9.978a4.007 4.007 0 0 0-5.682 0 3.992 3.992 0 0 0 0 5.692l9.998 9.974z"/><path fill="#FFDE17" d="M284.153 294.618a4.01 4.01 0 0 0-5.682 0 3.989 3.989 0 0 0 0 5.689l9.981 9.978a3.997 3.997 0 0 0 2.82 1.158 4.03 4.03 0 0 0 2.828-1.158 4.022 4.022 0 0 0 0-5.693l-9.947-9.974z"/><path fill="#FFF" d="M245.017 304.938a2.088 2.088 0 0 1-2.087-2.087v-22.018c0-1.158.933-2.087 2.087-2.087 1.153 0 2.087.929 2.087 2.087v22.018c0 1.15-.934 2.087-2.087 2.087z"/><path fill="#FFF" d="M245.07 282.04c-6.933 0-12.574-5.641-12.574-12.578 0-6.929 5.641-12.571 12.574-12.571s12.574 5.643 12.574 12.571c0 6.937-5.641 12.578-12.574 12.578zm0-20.974c-4.63 0-8.4 3.766-8.4 8.396 0 4.635 3.77 8.404 8.4 8.404 4.63 0 8.4-3.77 8.4-8.404 0-4.63-3.77-8.396-8.4-8.396z"/></svg>