<svg xmlns="http://www.w3.org/2000/svg" width="512" height="512" viewBox="0 0 512 512"><path fill="#8AD7F8" d="M245.51 438.837c-96.511 0-175.028-78.524-175.028-175.036 0-96.511 78.517-175.034 175.028-175.034 96.515 0 175.04 78.522 175.04 175.034 0 96.512-78.525 175.036-175.04 175.036zm0-336.253c-88.894 0-161.211 72.321-161.211 161.217 0 88.897 72.317 161.219 161.211 161.219 88.898 0 161.223-72.321 161.223-161.219 0-88.896-72.325-161.217-161.223-161.217z"/><path d="M455.46 235.813h37.017v5.812H455.46zm42.314 0h14.515v5.812h-14.515zM.753 360.165H37.77v5.813H.753zm42.311 0h14.514v5.813H43.064zM97.64 60.399h37.017v5.814H97.64zm42.311 0h14.518v5.814h-14.518z" fill="#F1F2F2"/><g fill="#FFDE17"><path d="M26.219 131.901h33.797v4.143H26.219z"/><path d="M41.043 117.074h4.133v33.805h-4.133z"/></g><g fill="#F1F2F2"><path d="M431.686 112.929h33.797v4.139h-33.797z"/><path d="M446.509 98.101h4.133v33.801h-4.133z"/></g><g fill="#F1F2F2"><path d="M473.972 303.74h23.705v2.901h-23.705z"/><path d="M484.365 293.334h2.902v23.709h-2.902z"/></g><g fill="#8DC63F"><path d="M288.359 36.222h23.701v2.904h-23.701z"/><path d="M298.757 25.818h2.897v23.709h-2.897z"/></g><path fill="#F1F2F2" d="M29.17 224.202c0 7.979-6.477 14.427-14.437 14.427S.288 232.181.288 224.202c0-7.972 6.485-14.43 14.445-14.43s14.437 6.458 14.437 14.43z"/><path fill="#F7941E" d="M62.966 184.665c0 4.977-4.039 9.007-9.016 9.007-4.96 0-9.011-4.031-9.011-9.007 0-4.979 4.051-9.006 9.011-9.006 4.977 0 9.016 4.028 9.016 9.006z"/><path fill="#F1F2F2" d="M461.284 277.369c0 4.977-4.039 9.008-9.004 9.008-4.969 0-9.016-4.031-9.016-9.008 0-4.98 4.047-9.008 9.016-9.008 4.965 0 9.004 4.028 9.004 9.008z"/><path fill="#8DC63F" d="M497.763 268.37a4.561 4.561 0 0 1-4.553 4.557c-2.52 0-4.569-2.046-4.569-4.557a4.57 4.57 0 0 1 4.569-4.569 4.561 4.561 0 0 1 4.553 4.569z"/><path fill="#F1F2F2" d="M375.149 94.017c0-6.698 5.434-12.134 12.122-12.134 6.708 0 12.134 5.436 12.134 12.134 0 6.695-5.426 12.116-12.134 12.116-6.688-.001-12.122-5.422-12.122-12.116zM190.373 40.976c0-6.694 5.437-12.134 12.122-12.134 6.708 0 12.133 5.439 12.133 12.134s-5.425 12.117-12.133 12.117c-6.685 0-12.122-5.423-12.122-12.117z"/><path fill="#FFDE17" d="M445.861 164.53c0-3.542 2.873-6.421 6.407-6.421a6.42 6.42 0 0 1 6.419 6.421c0 3.54-2.869 6.403-6.419 6.403a6.405 6.405 0 0 1-6.407-6.403zM219.445 22.439c0-3.54 2.874-6.419 6.411-6.419a6.422 6.422 0 0 1 6.419 6.419c0 3.542-2.874 6.403-6.419 6.403a6.406 6.406 0 0 1-6.411-6.403z"/><path fill="#F1F2F2" d="M239.103 53.102c0-3.54 2.877-6.419 6.407-6.419a6.42 6.42 0 0 1 6.419 6.419c0 3.542-2.87 6.403-6.419 6.403a6.407 6.407 0 0 1-6.407-6.403zM26.219 274.011l2.951 9.411 9.415 2.955-9.415 2.951-2.951 9.415-2.947-9.415-9.415-2.951 9.057-2.955zM455.46 350.71l2.946 9.406 9.419 2.955-9.419 2.951-2.946 9.412-2.951-9.412-9.415-2.951 9.06-2.955zM164.373 7.189l3.635 11.603 11.608 3.639-11.608 3.64-3.635 11.602-3.636-11.602-11.608-3.64 11.172-3.639z"/><path d="M261.487 474.509H184.87l-.534-.363c-15.221-10.401-29.087-.163-29.228-.061l-.56.424H84.365c-1.154 0-2.087-.934-2.087-2.087s.933-2.087 2.087-2.087h68.842c3.098-2.025 17.414-10.193 32.941 0h75.339a2.087 2.087 0 1 1 0 4.174zm56.544 0h-46.696c-1.154 0-2.087-.934-2.087-2.087s.933-2.087 2.087-2.087h46.696a2.087 2.087 0 1 1 0 4.174zm110.577 0h-75.591a2.087 2.087 0 1 1 0-4.174h75.591a2.087 2.087 0 1 1 0 4.174zm-87.018 0h-15.778a2.087 2.087 0 1 1 0-4.174h15.778c1.153 0 2.086.934 2.086 2.087s-.933 2.087-2.086 2.087zm-121.676 31.66h-79.963a2.085 2.085 0 0 1-2.087-2.086c0-1.154.933-2.087 2.087-2.087h79.963a2.086 2.086 0 1 1 0 4.173zm159.409 0H264.022a2.086 2.086 0 1 1 0-4.173h115.301a2.086 2.086 0 1 1 0 4.173zm-131.29 0h-15.778a2.085 2.085 0 0 1-2.086-2.086c0-1.154.933-2.087 2.086-2.087h15.778a2.086 2.086 0 1 1 0 4.173z" fill="#D4EEF8"/><path d="M272.235 183.733h-35.431a4.174 4.174 0 0 1 0-8.347h35.431a4.173 4.173 0 1 1 0 8.347zm47.944 0h-19.987a4.173 4.173 0 1 1 0-8.347h19.987a4.172 4.172 0 0 1 4.174 4.174 4.172 4.172 0 0 1-4.174 4.173zm-30.601 0h-7.965a4.172 4.172 0 0 1-4.173-4.173 4.172 4.172 0 0 1 4.173-4.174h7.965a4.173 4.173 0 1 1 0 8.347z" fill="#8BD7F8"/><path d="M301.296 201.865h-64.492a4.174 4.174 0 0 1 0-8.347h64.492a4.173 4.173 0 1 1 0 8.347zm23.643 0h-13.548a4.173 4.173 0 1 1 0-8.347h13.548a4.173 4.173 0 1 1 0 8.347z" fill="#A2D8CB"/><path d="M271.652 164.537h-34.848a4.174 4.174 0 0 1 0-8.347h34.848a4.173 4.173 0 1 1 0 8.347zm38.697 0h-28.597a4.172 4.172 0 0 1-4.173-4.174 4.171 4.171 0 0 1 4.173-4.173h28.597a4.173 4.173 0 1 1 0 8.347z" fill="#FFD682"/><path fill="#FFF" d="M290.507 362.203c0 23.461-19.014 42.479-42.474 42.479-23.452 0-42.47-19.018-42.47-42.479 0-23.452 19.018-42.47 42.47-42.47 23.46 0 42.474 19.018 42.474 42.47z"/><path fill="#A2D8CB" d="M248.033 408.855c-25.719 0-46.644-20.93-46.644-46.652 0-25.718 20.925-46.644 46.644-46.644 25.723 0 46.647 20.926 46.647 46.644.001 25.723-20.924 46.652-46.647 46.652zm0-84.948c-21.117 0-38.296 17.18-38.296 38.296 0 21.121 17.179 38.305 38.296 38.305 21.121 0 38.301-17.184 38.301-38.305 0-21.116-17.18-38.296-38.301-38.296z"/><path fill="#FFD682" d="M245.384 382.632v-4.757c-3.354-.15-6.607-1.101-8.51-2.152l1.504-5.856c2.103 1.149 5.054 2.2 8.311 2.2 2.902 0 4.854-1.148 4.854-3.102 0-1.903-1.602-3.102-5.356-4.356-5.355-1.802-9.011-4.305-9.011-9.158 0-4.455 3.105-7.907 8.461-8.91v-4.757h4.903v4.406c3.306.102 5.556.852 7.308 1.65l-1.5 5.657c-1.251-.599-3.603-1.752-7.21-1.752-3.252 0-4.304 1.451-4.304 2.853 0 1.606 1.752 2.707 6.057 4.256 5.959 2.103 8.311 4.858 8.311 9.41 0 4.455-3.106 8.262-8.861 9.212v5.156h-4.957z"/><path fill="#8BD7F8" d="M158.96 362.893c-17.177 0-31.151-13.977-31.151-31.156 0-17.175 13.974-31.151 31.151-31.151 17.18 0 31.156 13.977 31.156 31.151 0 17.179-13.976 31.156-31.156 31.156zm0-53.96c-12.574 0-22.804 10.23-22.804 22.804 0 12.578 10.23 22.809 22.804 22.809 12.576 0 22.809-10.23 22.809-22.809 0-12.574-10.233-22.804-22.809-22.804z"/><path fill="#FFD682" d="M157.277 344.71v-3.016c-2.132-.099-4.194-.701-5.404-1.37l.954-3.721c1.337.729 3.211 1.397 5.278 1.397 1.846 0 3.085-.729 3.085-1.973 0-1.206-1.015-1.964-3.403-2.764-3.399-1.145-5.722-2.734-5.722-5.819 0-2.829 1.973-5.021 5.376-5.658v-3.023h3.114v2.8c2.099.065 3.53.542 4.643 1.048l-.954 3.595c-.794-.384-2.291-1.113-4.581-1.113-2.063 0-2.73.926-2.73 1.814 0 1.019 1.112 1.716 3.847 2.702 3.783 1.332 5.278 3.085 5.278 5.979 0 2.829-1.973 5.246-5.629 5.85v3.272h-3.152z"/><g fill="#FFD682"><path d="M333.698 339.285c-17.175 0-31.151-13.976-31.151-31.155 0-17.176 13.977-31.151 31.151-31.151 17.18 0 31.156 13.976 31.156 31.151 0 17.18-13.976 31.155-31.156 31.155zm0-53.96c-12.573 0-22.804 10.23-22.804 22.805 0 12.577 10.23 22.808 22.804 22.808 12.578 0 22.809-10.23 22.809-22.808 0-12.574-10.231-22.805-22.809-22.805z"/><path d="M332.016 321.103v-3.016c-2.132-.098-4.194-.701-5.405-1.37l.954-3.721c1.337.729 3.212 1.398 5.278 1.398 1.847 0 3.085-.73 3.085-1.973 0-1.207-1.015-1.965-3.403-2.764-3.398-1.146-5.722-2.735-5.722-5.82 0-2.829 1.973-5.021 5.376-5.657v-3.024h3.113v2.8c2.1.065 3.53.542 4.643 1.048l-.954 3.595c-.795-.383-2.29-1.112-4.581-1.112-2.063 0-2.73.925-2.73 1.813 0 1.019 1.112 1.716 3.848 2.702 3.782 1.333 5.278 3.085 5.278 5.979 0 2.828-1.973 5.245-5.629 5.849v3.272h-3.151z"/></g><path fill="#5D84C3" d="M184.132 211.647c-17.177 0-31.151-13.976-31.151-31.156 0-17.177 13.974-31.151 31.151-31.151 17.18 0 31.156 13.974 31.156 31.151 0 17.18-13.976 31.156-31.156 31.156zm0-53.96c-12.574 0-22.804 10.23-22.804 22.804 0 12.576 10.23 22.808 22.804 22.808 12.576 0 22.809-10.232 22.809-22.808 0-12.574-10.233-22.804-22.809-22.804z"/><path fill="#FFD682" d="M182.449 193.467v-3.021c-2.132-.096-4.194-.699-5.405-1.367l.954-3.721c1.336.731 3.211 1.4 5.278 1.4 1.847 0 3.085-.731 3.085-1.973 0-1.207-1.015-1.969-3.403-2.766-3.399-1.145-5.722-2.735-5.722-5.818 0-2.831 1.973-5.023 5.376-5.662v-3.02h3.114v2.798c2.099.065 3.53.542 4.643 1.05l-.954 3.595c-.794-.383-2.291-1.115-4.581-1.115-2.063 0-2.731.923-2.731 1.814 0 1.017 1.113 1.716 3.848 2.702 3.782 1.335 5.278 3.083 5.278 5.977 0 2.831-1.973 5.248-5.629 5.851v3.275h-3.151z"/><path fill="#5D84C3" d="M208.628 295.515l41.908-52.421 63.004 27.917 55.993-48.842a8.343 8.343 0 0 0 .803-11.777c-3.028-3.473-8.294-3.833-11.774-.805l-47.981 41.853-65.05-28.822-42.176 52.755-62.421-25.253L76.4 308.899a174.943 174.943 0 0 0 5.666 17.421l62.339-56.785 64.223 25.98z"/><path fill="#5D84C3" d="M333.703 210.807l48.021-8.115-16.98 45.641z"/></svg>