<svg xmlns="http://www.w3.org/2000/svg" width="512" height="512" viewBox="0 0 512 512"><path d="M451.049 291.698h39.806v6.249h-39.806zm45.509 0h15.598v6.249h-15.598z" fill="#D4EEF8"/><g fill="#D4EEF8"><path d="M15.721 149.061h36.336v4.45H15.721z"/><path d="M31.664 133.109h4.434v36.352h-4.434z"/></g><g fill="#FDBA12"><path d="M451.644 128.66h36.328v4.45h-36.328z"/><path d="M467.586 112.716h4.442v36.344h-4.442z"/></g><g fill="#D4EEF8"><path d="M398.761 397.326h36.337v4.449h-36.337z"/><path d="M414.704 381.391h4.442v36.336h-4.442z"/></g><path fill="#FDBA12" d="M31.207 279.313c0 8.578-6.956 15.51-15.518 15.51S.155 287.891.155 279.313c0-8.57 6.972-15.51 15.534-15.51s15.518 6.94 15.518 15.51z"/><path fill="#D4EEF8" d="M71.438 223.066c0 5.349-4.345 9.686-9.694 9.686-5.333 0-9.687-4.337-9.687-9.686 0-5.35 4.354-9.687 9.687-9.687 5.349.001 9.694 4.338 9.694 9.687z"/><path fill="#FDBA12" d="M452.197 365.504c0 5.349-4.337 9.686-9.694 9.686-5.333 0-9.687-4.337-9.687-9.686 0-5.35 4.354-9.679 9.687-9.679 5.357 0 9.694 4.329 9.694 9.679z"/><path fill="#D4EEF8" d="M491.417 355.833c0 2.699-2.192 4.899-4.899 4.899s-4.916-2.2-4.916-4.899c0-2.715 2.209-4.915 4.916-4.915s4.899 2.2 4.899 4.915zm-100.56-247.51c0-7.197 5.848-13.044 13.028-13.044 7.204 0 13.052 5.847 13.052 13.044s-5.848 13.028-13.052 13.028c-7.18 0-13.028-5.831-13.028-13.028zm65.171 88.406c0-3.799 3.084-6.899 6.875-6.899 3.823 0 6.916 3.101 6.916 6.899 0 3.815-3.093 6.883-6.916 6.883a6.873 6.873 0 0 1-6.875-6.883z"/><path fill="#FFF" d="M372.513 369.311c0 8.643-22.425 15.646-50.087 15.646-27.669 0-50.095-7.004-50.095-15.646s22.426-15.654 50.095-15.654c27.662-.001 50.087 7.011 50.087 15.654z"/><path fill="#8BD7F8" d="M322.426 389.069c-26.111 0-54.207-6.185-54.207-19.759 0-13.582 28.096-19.767 54.207-19.767 26.104 0 54.199 6.185 54.199 19.767 0 13.575-28.095 19.759-54.199 19.759zm0-31.3c-30.336 0-45.982 8.088-45.982 11.542 0 3.445 15.646 11.534 45.982 11.534 30.337 0 45.975-8.089 45.975-11.534-.001-3.455-15.638-11.542-45.975-11.542zm-65.789-64.472H106.658l33.987-68.423-33.987-68.424h149.979v136.847zM126.561 280.96H244.3V168.787H126.561l27.858 56.087-27.858 56.086z"/><path fill="#FFF" d="M216.976 136.748h97.925v124.51h-97.925z"/><path fill="#8BD7F8" d="M321.069 267.426H210.807V130.579h110.262v136.847zm-97.925-12.337h85.587V142.916h-85.587v112.173z"/><path fill="#19335E" d="M327.141 375.583l-16.353-50.978V121.744h32.706l-.201 204.13-16.152 49.709zm-8.128-51.629l8.128 25.012 8.129-25.012V129.969h-16.257v193.985z"/><path fill="#FFF" d="M199.972 358.436l-82.527 28.706"/><path fill="#8BD7F8" d="M117.445 391.254a4.106 4.106 0 0 1-3.883-2.764 4.11 4.11 0 0 1 2.534-5.236l82.528-28.706c2.132-.723 4.49.386 5.232 2.538a4.111 4.111 0 0 1-2.534 5.237l-82.528 28.705a4.116 4.116 0 0 1-1.349.226z"/><path fill="#FFF" d="M117.557 360.219l82.295 25.139"/><path fill="#8BD7F8" d="M199.852 389.471c-.397 0-.799-.057-1.201-.177l-82.294-25.14a4.116 4.116 0 0 1-2.731-5.141c.659-2.169 2.944-3.382 5.132-2.73l82.295 25.14a4.115 4.115 0 0 1-1.201 8.048z"/></svg>