<svg xmlns="http://www.w3.org/2000/svg" width="512" height="512" viewBox="0 0 512 512"><path d="M450.609 328.063h40.209v6.313h-40.209zm45.969 0h15.756v6.313h-15.756z" fill="#D4EEF8"/><g fill="#D4EEF8"><path d="M16.057 154.557h36.704v4.495H16.057z"/><path d="M32.162 138.444h4.479v36.72h-4.479z"/></g><g fill="#FDBA12"><path d="M456.387 133.949h36.695v4.495h-36.695z"/><path d="M472.49 117.845h4.487v36.712h-4.487z"/></g><g fill="#D4EEF8"><path d="M402.97 405.332h36.703v4.494H402.97z"/><path d="M419.074 389.235h4.486v36.703h-4.486z"/></g><path fill="#FDBA12" d="M31.699 286.126c0 8.665-7.026 15.667-15.674 15.667-8.649 0-15.691-7.002-15.691-15.667 0-8.656 7.042-15.666 15.691-15.666 8.648 0 15.674 7.01 15.674 15.666z"/><path fill="#D4EEF8" d="M72.337 229.311c0 5.403-4.389 9.784-9.792 9.784-5.387 0-9.784-4.381-9.784-9.784 0-5.403 4.397-9.785 9.784-9.785 5.403 0 9.792 4.381 9.792 9.785z"/><path fill="#FDBA12" d="M456.946 373.188c0 5.403-4.381 9.784-9.793 9.784-5.387 0-9.784-4.381-9.784-9.784s4.397-9.776 9.784-9.776c5.412-.001 9.793 4.372 9.793 9.776z"/><path fill="#D4EEF8" d="M496.563 363.42c0 2.726-2.215 4.948-4.949 4.948s-4.965-2.223-4.965-4.948c0-2.743 2.23-4.966 4.965-4.966s4.949 2.223 4.949 4.966zM394.986 113.407c0-7.269 5.906-13.175 13.159-13.175 7.277 0 13.185 5.906 13.185 13.175 0 7.27-5.907 13.16-13.185 13.16-7.252-.001-13.159-5.891-13.159-13.16zm65.83 89.301c0-3.837 3.115-6.969 6.944-6.969 3.862 0 6.985 3.132 6.985 6.969 0 3.854-3.123 6.953-6.985 6.953a6.945 6.945 0 0 1-6.944-6.953z"/><path fill="#E7E9ED" d="M257.04 424.373c-45.206 0-87.703-17.605-119.668-49.563-31.966-31.966-49.563-74.462-49.563-119.668s17.597-87.703 49.563-119.668c31.965-31.966 74.462-49.563 119.668-49.563s87.702 17.597 119.659 49.563c31.974 31.965 49.571 74.462 49.571 119.668s-17.598 87.702-49.571 119.668c-31.957 31.958-74.453 49.563-119.659 49.563zm0-329.334c-88.279 0-160.096 71.817-160.096 160.104 0 88.286 71.817 160.095 160.096 160.095 88.286 0 160.104-71.809 160.104-160.095 0-88.287-71.818-160.104-160.104-160.104z"/><path fill="#E7E9ED" d="M257.04 320.404c-35.981 0-65.262-29.28-65.262-65.262s29.28-65.254 65.262-65.254 65.262 29.272 65.262 65.254c0 35.982-29.281 65.262-65.262 65.262zm0-121.388c-30.952 0-56.126 25.175-56.126 56.126 0 30.943 25.175 56.126 56.126 56.126 30.951 0 56.126-25.183 56.126-56.126 0-30.951-25.175-56.126-56.126-56.126z"/><path fill="#F15D62" d="M350.673 341.733V179.748h-27.828v161.985l13.995 19.39z"/><path fill="#8BD7F8" d="M256.825 200.237l-80.299-15.37 1.557-8.162 77.387 14.811 81.889-44.521 3.976 7.302z"/><path fill="#F7941E" d="M191.494 181.687c0 7.837-6.353 14.19-14.189 14.19-7.829 0-14.19-6.353-14.19-14.19s6.361-14.19 14.19-14.19c7.837 0 14.189 6.352 14.189 14.19z"/><path fill="#5D84C3" d="M271.57 193.938c0 7.829-6.353 14.182-14.189 14.182-7.83 0-14.19-6.353-14.19-14.182 0-7.846 6.36-14.19 14.19-14.19 7.837 0 14.189 6.344 14.189 14.19z"/><path fill="#F15D62" d="M350.957 150.646c0 7.837-6.345 14.198-14.19 14.198-7.82 0-14.197-6.36-14.197-14.198 0-7.845 6.377-14.19 14.197-14.19 7.845 0 14.19 6.345 14.19 14.19z"/><path fill="#A2D8CB" d="M191.235 341.733V206.967h-27.828v134.766l14.619 19.39z"/><path fill="#5D84C3" d="M271.295 341.733V220.832h-27.82v120.901l14.806 19.39z"/><path fill="#FFF" d="M170.692 342.082h13.273l-6.312 9.85zm80.06 0h13.273l-6.312 9.85zm79.37 0h13.274l-6.313 9.85z"/></svg>