<svg xmlns="http://www.w3.org/2000/svg" width="512" height="512" viewBox="0 0 512 512"><path d="M450.026 333.128h40.209v6.312h-40.209zm45.969 0h15.756v6.312h-15.756z" fill="#D4EEF8"/><g fill="#D4EEF8"><path d="M15.474 159.622h36.704v4.495H15.474z"/><path d="M31.579 143.509h4.479v36.72h-4.479z"/></g><g fill="#FDBA12"><path d="M455.803 139.014h36.696v4.495h-36.696z"/><path d="M471.907 122.91h4.487v36.712h-4.487z"/></g><g fill="#D4EEF8"><path d="M402.387 410.396h36.703v4.495h-36.703z"/><path d="M418.491 394.3h4.486v36.704h-4.486z"/></g><path fill="#FDBA12" d="M31.116 291.191c0 8.664-7.026 15.666-15.674 15.666-8.649 0-15.691-7.002-15.691-15.666 0-8.657 7.042-15.667 15.691-15.667 8.648 0 15.674 7.01 15.674 15.667z"/><path fill="#D4EEF8" d="M71.754 234.375c0 5.403-4.389 9.784-9.792 9.784-5.387 0-9.784-4.381-9.784-9.784s4.397-9.785 9.784-9.785c5.403.001 9.792 4.382 9.792 9.785z"/><path fill="#FDBA12" d="M456.363 378.253c0 5.403-4.381 9.784-9.793 9.784-5.387 0-9.784-4.381-9.784-9.784s4.397-9.776 9.784-9.776c5.412 0 9.793 4.373 9.793 9.776z"/><path fill="#D4EEF8" d="M495.979 368.484c0 2.726-2.215 4.949-4.949 4.949s-4.965-2.224-4.965-4.949c0-2.742 2.23-4.965 4.965-4.965s4.949 2.223 4.949 4.965zM394.403 118.472c0-7.269 5.906-13.175 13.159-13.175 7.277 0 13.185 5.906 13.185 13.175 0 7.27-5.907 13.16-13.185 13.16-7.252-.001-13.159-5.891-13.159-13.16zm65.83 89.3c0-3.837 3.115-6.969 6.944-6.969 3.862 0 6.985 3.132 6.985 6.969 0 3.854-3.123 6.953-6.985 6.953a6.943 6.943 0 0 1-6.944-6.953z"/><path fill="#E7E9ED" d="M256.457 429.438c-45.206 0-87.703-17.604-119.668-49.563-31.966-31.965-49.563-74.462-49.563-119.668s17.597-87.702 49.563-119.667c31.965-31.966 74.462-49.563 119.668-49.563s87.702 17.597 119.659 49.563c31.974 31.965 49.571 74.462 49.571 119.667 0 45.206-17.598 87.703-49.571 119.668-31.957 31.958-74.453 49.563-119.659 49.563zm0-329.334c-88.279 0-160.096 71.817-160.096 160.103 0 88.287 71.817 160.096 160.096 160.096 88.286 0 160.104-71.809 160.104-160.096 0-88.286-71.818-160.103-160.104-160.103z"/><path fill="#485A93" d="M402.346 376.11H107.233c-15.479 0-29.276-10.035-34.326-24.979l-1.854-5.484h20.814l-.049-188.257c0-10.433 8.498-18.919 18.944-18.919h101.73v8.308h-101.73c-5.764 0-10.636 4.86-10.636 10.612l.296 196.491-17.135.073c5.002 8.47 14.032 13.849 23.946 13.849h295.113c10.174 0 19.293-5.379 24.193-13.849h-16.77l.032-196.564c0-5.752-4.859-10.612-10.611-10.612H298.045v-8.308H399.19c10.434 0 18.919 8.486 18.919 18.919v188.256h20.486l-1.744 5.428c-4.811 14.977-18.676 25.036-34.505 25.036z"/><path fill="#8BD7F8" d="M288.09 320.536h-63.266l.386-181.53 31.248-56.787 31.633 58.288v180.029zm-57.035-6.23h50.804v-173l-25.401-46.164-25.402 46.164v173z"/><path fill="#485A93" d="M243.67 207.643h8.308v106.573h-8.308zm17.971 39.948h8.309v66.625h-8.309z"/><path d="M215.697 305.349V328.9h40.744v59.372s-29.564-24.129-30.302-36.282c0 0-9.703 11.285-10.441 22.222 0 0-9.695-10.604-9.695-33.036s9.694-35.827 9.694-35.827zm81.52 0V328.9h-40.744v59.372s29.556-24.129 30.302-36.282c0 0 9.695 11.285 10.441 22.222 0 0 9.695-10.604 9.695-33.036s-9.694-35.827-9.694-35.827z" fill="#FDBA12"/><path fill="#8BD7F8" d="M269.081 115.235h-25.524a3.116 3.116 0 0 1 0-6.231h25.524a3.116 3.116 0 0 1 0 6.231zm0 31.389h-25.524a3.116 3.116 0 0 1-3.116-3.115 3.116 3.116 0 0 1 3.116-3.115h25.524a3.116 3.116 0 0 1 0 6.23z"/></svg>