<svg xmlns="http://www.w3.org/2000/svg" width="512" height="512" viewBox="0 0 512 512"><path d="M450.275 328.759h40.209v6.312h-40.209zm45.969 0H512v6.312h-15.756z" fill="#D4EEF8"/><g fill="#D4EEF8"><path d="M15.723 155.257h36.704v4.495H15.723z"/><path d="M31.828 139.144h4.479v36.72h-4.479z"/></g><g fill="#FDBA12"><path d="M456.052 134.649h36.696v4.495h-36.696z"/><path d="M472.156 118.537h4.487v36.72h-4.487z"/></g><g fill="#D4EEF8"><path d="M402.636 406.027h36.703v4.495h-36.703z"/><path d="M418.74 389.932h4.486v36.703h-4.486z"/></g><path fill="#FDBA12" d="M31.365 286.814c0 8.664-7.026 15.674-15.674 15.674C7.042 302.488 0 295.479 0 286.814c0-8.648 7.042-15.658 15.691-15.658 8.648 0 15.674 7.01 15.674 15.658z"/><path fill="#D4EEF8" d="M72.003 230.01c0 5.403-4.389 9.785-9.792 9.785-5.387 0-9.784-4.381-9.784-9.785 0-5.403 4.397-9.784 9.784-9.784 5.403 0 9.792 4.381 9.792 9.784z"/><path fill="#FDBA12" d="M456.612 373.884c0 5.403-4.382 9.784-9.793 9.784-5.387 0-9.784-4.381-9.784-9.784s4.397-9.784 9.784-9.784c5.411 0 9.793 4.38 9.793 9.784z"/><path fill="#D4EEF8" d="M496.229 364.115c0 2.727-2.215 4.949-4.949 4.949s-4.965-2.223-4.965-4.949c0-2.742 2.23-4.965 4.965-4.965s4.949 2.223 4.949 4.965zM394.652 114.107c0-7.269 5.906-13.175 13.159-13.175 7.277 0 13.185 5.906 13.185 13.175 0 7.27-5.907 13.16-13.185 13.16-7.252 0-13.159-5.891-13.159-13.16zm65.83 89.292c0-3.829 3.115-6.961 6.944-6.961 3.862 0 6.985 3.132 6.985 6.961 0 3.862-3.123 6.961-6.985 6.961a6.945 6.945 0 0 1-6.944-6.961z"/><path fill="#E7E9ED" d="M265.014 425.061c-45.206 0-87.702-17.604-119.668-49.555-31.965-31.965-49.563-74.461-49.563-119.663 0-45.207 17.597-87.703 49.563-119.668 31.966-31.966 74.462-49.571 119.668-49.571s87.702 17.605 119.66 49.571c31.974 31.965 49.57 74.461 49.57 119.668 0 45.202-17.597 87.698-49.57 119.663-31.958 31.95-74.454 49.555-119.66 49.555zm0-329.322c-88.278 0-160.095 71.817-160.095 160.104 0 88.282 71.817 160.083 160.095 160.083 88.286 0 160.104-71.801 160.104-160.083-.001-88.287-71.818-160.104-160.104-160.104z"/><path fill="#8BD7F8" d="M203.005 260.414h-44.038c-4.588 0-8.308-3.716-8.308-8.304s3.72-8.308 8.308-8.308h44.038c4.588 0 8.308 3.72 8.308 8.308s-3.72 8.304-8.308 8.304zm46.35-.145h-24.591c-4.588 0-8.308-3.716-8.308-8.304s3.72-8.308 8.308-8.308h24.591c4.588 0 8.308 3.72 8.308 8.308s-3.72 8.304-8.308 8.304z"/><path fill="#A2D8CB" d="M215.978 306.65h-57.01c-4.588 0-8.308-3.716-8.308-8.308s3.72-8.308 8.308-8.308h57.01c4.588 0 8.308 3.716 8.308 8.308s-3.72 8.308-8.308 8.308zm41.126-.162h-14.198c-4.588 0-8.308-3.716-8.308-8.308s3.72-8.308 8.308-8.308h14.198c4.588 0 8.308 3.716 8.308 8.308s-3.721 8.308-8.308 8.308z"/><path fill="#485A93" d="M195.963 217.573h-36.996a8.308 8.308 0 0 1 0-16.616h36.996a8.308 8.308 0 0 1 0 16.616zm66.589-.146h-44.983a8.308 8.308 0 0 1 0-16.616h44.983c4.588 0 8.312 3.72 8.312 8.308s-3.724 8.308-8.312 8.308z"/><path fill="#FFD682" d="M229.324 348.514h-70.356a8.305 8.305 0 0 1-8.308-8.308 8.306 8.306 0 0 1 8.308-8.308h70.356a8.306 8.306 0 0 1 8.308 8.308 8.305 8.305 0 0 1-8.308 8.308zm27.195-.146h-7.164c-4.588 0-8.308-3.716-8.308-8.308s3.72-8.308 8.308-8.308h7.164c4.588 0 8.308 3.716 8.308 8.308s-3.72 8.308-8.308 8.308zm107.636 0h-33.231c-4.592 0-8.308-3.716-8.308-8.308s3.716-8.308 8.308-8.308h33.231c4.592 0 8.308 3.716 8.308 8.308s-3.716 8.308-8.308 8.308z"/><path fill="#FFF" d="M326.283 109.105l63.258 18.863-49.433 165.921-48.767 48.038-14.49-66.917z"/><path fill="#485A93" d="M288.874 350.186l-16.308-75.338.301-1.022 50.625-169.888 71.217 21.236-50.926 170.922-54.909 54.09zm-7.739-75.014l12.672 58.495 42.626-41.985 47.94-160.918-55.299-16.49-47.939 160.898z"/><path fill="#A2D8CB" d="M363.834 124.562l5.972 1.777-26.155 87.899-5.971-1.777z"/><path fill="#FFD682" d="M343.888 118.623l5.97 1.769-12.919 43.6-5.97-1.77z"/><path fill="#485A93" d="M313.408 323.323c-.292 0-.593-.041-.893-.13l-28.322-8.462a3.118 3.118 0 0 1-2.094-3.878 3.131 3.131 0 0 1 3.878-2.094l28.323 8.462a3.118 3.118 0 0 1 2.093 3.878 3.125 3.125 0 0 1-2.985 2.224z"/><path fill="#8BD7F8" d="M323.793 289.532c-.39 0-.787-.057-1.185-.171l-28.323-8.445a4.165 4.165 0 0 1-2.799-5.168c.657-2.19 2.986-3.44 5.168-2.799l28.323 8.445a4.164 4.164 0 0 1 2.799 5.168 4.166 4.166 0 0 1-3.983 2.97z"/></svg>