<svg xmlns="http://www.w3.org/2000/svg" width="512" height="144" viewBox="0 0 512 144"><g fill="#8BD7F8"><path d="M331.184 143.394a10.306 10.306 0 0 1-.383-2.753c0-5.563 4.44-10.089 9.899-10.089 5.458 0 9.899 4.525 9.899 10.089 0 .914-.13 1.838-.382 2.753l-.493-.137c.24-.87.365-1.749.365-2.616 0-5.28-4.213-9.576-9.39-9.576s-9.388 4.296-9.388 9.576c0 .869.123 1.749.363 2.616l-.49.137z"/><path d="M339.875 143.277l-.639-.062c.011-.127.248-3.103-2.799-4.281l.23-.596c3.508 1.356 3.209 4.902 3.208 4.939zm1.854 0c-.005-.037-.388-3.598 4.025-4.938l.187.612c-3.903 1.188-3.58 4.218-3.578 4.248l-.634.078zm-1.387-6.06h.639v5.88h-.639z"/></g><g fill="#8BD7F8"><path d="M256.296 143.394a7.04 7.04 0 0 1-.262-1.883c0-3.804 3.037-6.897 6.77-6.897s6.77 3.094 6.77 6.897c0 .626-.089 1.258-.262 1.883l-.337-.093c.165-.596.25-1.196.25-1.79 0-3.61-2.882-6.548-6.421-6.548s-6.419 2.938-6.419 6.548c0 .596.085 1.196.249 1.79l-.338.093z"/><path d="M262.238 143.313l-.436-.041c.009-.087.17-2.122-1.913-2.927l.157-.409c2.399.928 2.194 3.353 2.192 3.377zm1.27 0c-.004-.024-.264-2.46 2.753-3.377l.127.419c-2.67.812-2.448 2.885-2.446 2.905l-.434.053zm-.949-4.143h.437v4.021h-.437z"/></g><path fill="#8BD7F8" d="M1.057 143.04h510.978v.854H1.057z"/><path fill="#8BD7F8" d="M450.813 115.612h.641v28.148h-.641z"/><g fill="#8BD7F8"><path d="M491.304 131.368c-4.431 0-8.036-3.606-8.036-8.037 0-4.434 3.605-8.039 8.036-8.039 4.434 0 8.039 3.605 8.039 8.039 0 4.431-3.606 8.037-8.039 8.037zm0-15.435c-4.078 0-7.396 3.319-7.396 7.398 0 4.078 3.318 7.396 7.396 7.396 4.08 0 7.398-3.318 7.398-7.396 0-4.079-3.318-7.398-7.398-7.398z"/><path d="M491.068 118.721h.64v25.04h-.64z"/><path d="M495.258 123.524l.455.45-4.19 4.234-.454-.45zm-.986-4.812l.455.45-3.203 3.237-.455-.45zm-6.529 2.852l3.798 4.454-.487.415-3.798-4.454z"/></g><circle fill="#FFF" cx="398.72" cy="123.33" r="7.718"/><path fill="#8BD7F8" d="M398.72 131.368c-4.432 0-8.037-3.606-8.037-8.037 0-4.434 3.605-8.039 8.037-8.039 4.433 0 8.038 3.605 8.038 8.039 0 4.431-3.606 8.037-8.038 8.037zm0-15.435c-4.079 0-7.396 3.319-7.396 7.398 0 4.078 3.317 7.396 7.396 7.396s7.398-3.318 7.398-7.396c0-4.079-3.319-7.398-7.398-7.398z"/><path fill="#8BD7F8" d="M398.401 118.721h.64v25.04h-.64z"/><path fill="#8BD7F8" d="M402.61 123.51l.457.451-4.184 4.239-.457-.45zm-.985-4.812l.457.45-3.2 3.243-.457-.45zm-6.477 2.897l3.577 4.271-.49.41-3.577-4.27zm-153.657 9.773c-4.432 0-8.039-3.606-8.039-8.037 0-4.434 3.606-8.039 8.039-8.039 4.432 0 8.037 3.605 8.037 8.039 0 4.431-3.605 8.037-8.037 8.037zm0-15.435c-4.079 0-7.398 3.319-7.398 7.398 0 4.078 3.319 7.396 7.398 7.396s7.396-3.318 7.396-7.396c.001-4.079-3.317-7.398-7.396-7.398z"/><path fill="#8BD7F8" d="M241.171 118.721h.64v25.04h-.64z"/><path fill="#8BD7F8" d="M245.37 123.517l.455.45-4.186 4.236-.456-.45zm-.986-4.812l.456.45-3.202 3.24-.455-.45zm-6.434 2.889l3.58 4.272-.491.412-3.58-4.272z"/><g fill="#8BD7F8"><path d="M218.025 140.394a5.13 5.13 0 0 1-5.124-5.123c0-2.824 2.298-5.122 5.124-5.122s5.123 2.298 5.123 5.122a5.128 5.128 0 0 1-5.123 5.123zm0-9.605a4.488 4.488 0 0 0-4.483 4.481 4.487 4.487 0 0 0 4.483 4.482 4.488 4.488 0 0 0 4.483-4.482 4.488 4.488 0 0 0-4.483-4.481z"/><path d="M217.812 132.34h.64v11.251h-.64z"/><path d="M220.34 135.383l.457.45-2.512 2.545-.456-.45zm-.625-3.062l.456.45-1.886 1.91-.456-.45zm-3.594 1.834l2.108 2.588-.496.404-2.107-2.588z"/></g><path fill="#8BD7F8" d="M294.384 26.547h-31.712c-1.769 0-3.102-1.214-3.102-2.825 0-1.611 1.333-2.827 3.102-2.827h9.246c1.102-.088 1.984-1.042 1.984-2.171 0-1.075-.771-1.98-1.834-2.152l-2.222.004c-1.769 0-3.103-1.215-3.103-2.826a2.83 2.83 0 0 1 2.827-2.826h23.148a2.83 2.83 0 0 1 2.827 2.826c0 1.505-1.192 2.826-2.551 2.826h-2.044c-1.012.167-1.783 1.073-1.783 2.148a2.19 2.19 0 0 0 2.016 2.172l3.199-.001c1.358 0 2.551 1.321 2.551 2.827.002 1.505-1.191 2.825-2.549 2.825zm-24.813-14.983c-1.206 0-2.187.98-2.187 2.186 0 1.266 1.036 2.186 2.462 2.186h2.273c1.426.227 2.423 1.397 2.423 2.789a2.836 2.836 0 0 1-2.6 2.811h-9.271c-1.427 0-2.462.919-2.462 2.187 0 1.266 1.035 2.185 2.462 2.185h31.712c.901 0 1.91-.935 1.91-2.185 0-1.251-1.009-2.187-1.91-2.187h-3.224c-1.486-.112-2.632-1.347-2.632-2.812 0-1.392.998-2.563 2.373-2.784l2.095-.004c.902 0 1.91-.935 1.91-2.186 0-1.205-.98-2.186-2.187-2.186h-23.147zm38.663 14.983h-6.203a2.955 2.955 0 0 1-2.952-2.952 2.955 2.955 0 0 1 2.952-2.951h6.203a2.955 2.955 0 0 1 2.952 2.951 2.954 2.954 0 0 1-2.952 2.952zm-6.203-5.262a2.314 2.314 0 0 0-2.312 2.31 2.315 2.315 0 0 0 2.312 2.312h6.203a2.315 2.315 0 0 0 2.312-2.312 2.313 2.313 0 0 0-2.312-2.31h-6.203zm-123.465-4.313h-6.206a2.954 2.954 0 0 1-2.95-2.952 2.953 2.953 0 0 1 2.95-2.95h6.206a2.955 2.955 0 0 1 2.952 2.95 2.956 2.956 0 0 1-2.952 2.952zm-6.206-5.262a2.313 2.313 0 0 0-2.31 2.31 2.313 2.313 0 0 0 2.31 2.312h6.206a2.315 2.315 0 0 0 2.312-2.312 2.314 2.314 0 0 0-2.312-2.31h-6.206zm260.553 11.175h-23.844a2.955 2.955 0 0 1-2.951-2.952 2.954 2.954 0 0 1 2.951-2.95h23.844a2.954 2.954 0 0 1 2.952 2.95 2.955 2.955 0 0 1-2.952 2.952zm-23.844-5.261a2.315 2.315 0 0 0-2.312 2.31 2.316 2.316 0 0 0 2.312 2.312h23.844a2.315 2.315 0 0 0 2.312-2.312 2.313 2.313 0 0 0-2.312-2.31h-23.844zm-195.825-.652h-23.355a2.955 2.955 0 0 1-2.952-2.952 2.954 2.954 0 0 1 2.952-2.95h23.355a2.954 2.954 0 0 1 2.952 2.95 2.956 2.956 0 0 1-2.952 2.952zm-23.355-5.262a2.314 2.314 0 0 0-2.312 2.31 2.314 2.314 0 0 0 2.312 2.312h23.355a2.314 2.314 0 0 0 2.312-2.312 2.314 2.314 0 0 0-2.312-2.31h-23.355zm273.133 18.91h-20.078a2.497 2.497 0 0 1-2.495-2.493c0-1.329 1.054-2.494 2.255-2.494h1.772c.851-.142 1.505-.909 1.505-1.82 0-.959-.751-1.769-1.709-1.842l-2.772.001c-1.2 0-2.253-1.166-2.253-2.494 0-1.328 1.053-2.493 2.253-2.493h27.506c1.559 0 2.733 1.072 2.733 2.493 0 1.422-1.175 2.494-2.733 2.494h-8.02c-.93.075-1.678.884-1.678 1.841a1.84 1.84 0 0 0 1.553 1.824l1.921-.004c1.559 0 2.733 1.072 2.733 2.494a2.495 2.495 0 0 1-2.493 2.493zM441.5 17.625c-.762 0-1.613.792-1.613 1.852 0 1.061.852 1.854 1.613 1.854h2.797c1.314.1 2.324 1.189 2.324 2.482 0 1.228-.88 2.261-2.094 2.457l-1.823.004c-.763 0-1.614.793-1.614 1.854 0 1.021.832 1.853 1.854 1.853h20.078a1.855 1.855 0 0 0 1.853-1.853c0-1.074-.881-1.854-2.093-1.854h-1.972c-1.263-.2-2.143-1.233-2.143-2.46a2.501 2.501 0 0 1 2.293-2.481l8.045-.001c1.213 0 2.094-.779 2.094-1.854 0-1.073-.881-1.852-2.094-1.852H441.5z"/><path fill="#FFF" d="M94.457 120.054H70.376l4.103-13.029 3.559-12.214h8.756l3.558 12.214z"/><path fill="#8BD7F8" d="M95.039 120.48H69.794l4.278-13.584 3.646-12.513h9.396l3.648 12.522 4.277 13.575zm-24.081-.853h22.917l-3.93-12.474-3.471-11.916h-8.115l-3.469 11.907-3.932 12.483z"/><path fill="#FFF" d="M109.781 120.054h-54.73c-3.01 0-5.473 2.462-5.473 5.474v17.786h65.402v-17.786c.274-3.012-2.189-5.474-5.199-5.474z"/><path fill="#8BD7F8" d="M115.408 143.741H49.151v-18.214c0-3.254 2.646-5.9 5.899-5.9h54.73a5.75 5.75 0 0 1 4.244 1.851 5.283 5.283 0 0 1 1.381 4.088l.003 18.175zm-65.403-.854h64.549v-17.359c.117-1.309-.295-2.528-1.16-3.475a4.894 4.894 0 0 0-3.613-1.572h-54.73a5.052 5.052 0 0 0-5.046 5.047v17.359z"/><path fill="#EBEBEC" d="M88.818 103.266c-1.784 1.033-3.461 2.005-5.244 2.779l-1.115.258-1.115-.516c-1.782-.775-3.473-1.808-5.258-2.841l2.268-7.751h8.112l2.352 8.071z"/><path fill="#FFF" d="M16.74 18.735v11.22c0 27.364 16.966 50.898 40.773 60.749 7.663 3.286 16.146 4.927 24.903 4.927 8.757 0 17.241-1.641 24.903-4.927 23.807-9.851 40.773-33.385 40.773-60.749v-11.22H16.74zm120.406 11.22c0 13.135-4.652 25.175-12.587 34.753-10.126 12.041-25.176 19.975-42.143 19.975-16.966 0-32.017-7.661-42.142-19.975-7.662-9.304-12.587-21.618-12.587-34.753v-.273h109.185v.273h.274z"/><path fill="#8BD7F8" d="M82.416 96.058c-8.958 0-17.393-1.669-25.071-4.96-24.924-10.314-41.032-34.314-41.032-61.143V18.308h132.206v11.647c0 26.829-16.108 50.829-41.037 61.144-7.672 3.29-16.107 4.959-25.066 4.959zM17.167 19.162v10.793c0 26.482 15.901 50.173 40.51 60.355 7.575 3.247 15.897 4.894 24.739 4.894s17.164-1.646 24.734-4.893c24.614-10.184 40.515-33.875 40.515-60.356V19.162H17.167zm65.249 65.949c-16.471 0-31.952-7.338-42.472-20.132-8.179-9.933-12.685-22.372-12.685-35.024v-.701h110.039v.273h.274v.427c0 12.897-4.386 25.009-12.685 35.026-10.759 12.794-26.239 20.131-42.471 20.131zM28.114 30.108c.036 12.402 4.468 24.587 12.489 34.329 10.358 12.596 25.598 19.82 41.813 19.82 15.979 0 31.221-7.226 41.816-19.823 8.077-9.749 12.39-21.516 12.485-34.052h-.272v-.273H28.114z"/><path fill="#EBEBEC" d="M42.371 29.245h-4.816l-2.928-10.082h7.744zm85.398 0h-4.816V19.163h7.243z"/><path fill="#8BD7F8" d="M125.105 3.685H39.727c-1.916 0-3.284 1.642-3.284 3.284 0 1.916 1.368 3.558 3.284 3.558h85.379c1.916 0 3.284-1.642 3.284-3.284-.001-1.916-1.369-3.558-3.285-3.558z"/><path fill="#FFF" d="M125.105 10.526V40.08c0 27.364-16.966 52.267-42.689 62.118-25.723-10.125-42.689-34.754-42.689-62.392v-29.28h85.378z"/><path fill="#8BD7F8" d="M82.414 102.656l-.154-.061C56.163 92.323 39.3 67.676 39.3 39.806V10.099h86.233V40.08c0 27.551-17.266 52.675-42.964 62.518l-.155.058zm-42.26-91.703v28.853c0 27.462 16.584 51.755 42.265 61.935 25.285-9.758 42.26-34.515 42.26-61.66V10.953H40.154z"/><path fill="#EBEBEC" d="M40.154 10.664h84.507v10.512l-84.507-6.452z"/><g fill="#FFD682"><path d="M84.071 38.346a.855.855 0 0 1-.811-.588l-.786-2.396-.786 2.396a.854.854 0 0 1-1.623-.533l2.409-7.34 2.409 7.34a.854.854 0 0 1-.812 1.121zm1.508 4.593a.857.857 0 0 1-.812-.588l-.377-1.148a.854.854 0 0 1 1.623-.533l.377 1.148a.855.855 0 0 1-.811 1.121z"/><path d="M92.676 48.955h-5.742l-1.79-5.455a.854.854 0 0 1 1.623-.533l1.404 4.28h4.505a.854.854 0 1 1 0 1.708zm4.767 0h-1.191a.854.854 0 1 1 0-1.708h1.191a.854.854 0 1 1 0 1.708z"/><path d="M99.643 52.004a.855.855 0 0 1-.51-1.54l2.038-1.509h-2.536a.854.854 0 1 1 0-1.708h7.71l-6.196 4.59a.845.845 0 0 1-.506.167zm-3.863 2.861a.853.853 0 0 1-.509-1.54l.965-.715a.854.854 0 0 1 1.017 1.373l-.966.715a.85.85 0 0 1-.507.167z"/><path d="M92.224 63.521a.853.853 0 0 1-.814-.6l-1.709-5.47 4.604-3.411a.853.853 0 1 1 1.016 1.372L91.692 58.1l1.347 4.311a.854.854 0 0 1-.815 1.11zm1.425 4.56a.854.854 0 0 1-.815-.6l-.356-1.14a.854.854 0 1 1 1.631-.51l.356 1.14a.854.854 0 0 1-.816 1.11z"/><path d="M97.13 75.501l-6.221-4.607a.855.855 0 0 1 1.016-1.373l2.013 1.491-.748-2.391a.855.855 0 0 1 1.631-.51l2.309 7.39zm-8.61-6.585a.852.852 0 0 1-.507-.168l-.965-.715a.854.854 0 0 1 1.016-1.372l.965.715a.855.855 0 0 1-.509 1.54z"/><path d="M86.59 67.485a.855.855 0 0 1-.507-.167l-3.609-2.673-3.608 2.673a.854.854 0 1 1-1.017-1.372l4.625-3.426 4.625 3.426a.853.853 0 0 1-.509 1.539zm-12.093 2.861a.855.855 0 0 1-.51-1.54l.965-.715a.854.854 0 0 1 1.016 1.373l-.965.715a.852.852 0 0 1-.506.167z"/><path d="M67.818 75.501l2.308-7.39a.855.855 0 0 1 1.631.51l-.747 2.391 2.013-1.491a.854.854 0 1 1 1.017 1.373l-6.222 4.607zm4.192-9.7a.854.854 0 0 1-.815-1.109l.356-1.14a.856.856 0 0 1 1.631.51l-.356 1.14a.858.858 0 0 1-.816.599z"/><path d="M72.723 63.521a.855.855 0 0 1-.816-1.109l1.347-4.311-3.629-2.688a.854.854 0 0 1 1.017-1.372l4.604 3.411-1.708 5.47a.856.856 0 0 1-.815.599zm-5.487-10.086a.85.85 0 0 1-.507-.168l-.966-.715a.854.854 0 0 1 1.016-1.372l.966.715a.855.855 0 0 1-.509 1.54z"/><path d="M65.305 52.004a.86.86 0 0 1-.508-.167l-6.196-4.59h7.711a.854.854 0 0 1 0 1.708h-2.536l2.038 1.509a.853.853 0 0 1-.509 1.54zm5.774-3.049h-1.191a.854.854 0 1 1 0-1.708h1.191a.854.854 0 1 1 0 1.708z"/><path d="M78.013 48.955h-5.742a.854.854 0 0 1 0-1.708h4.505l1.404-4.28a.854.854 0 1 1 1.623.533l-1.79 5.455zm2.11-8.312a.854.854 0 0 1-.812-1.121l.377-1.148a.854.854 0 1 1 1.623.533l-.377 1.148a.856.856 0 0 1-.811.588z"/></g><path fill="#A2D8CB" d="M67.248 110.591h-7.884a.427.427 0 1 1 0-.854h7.884a.426.426 0 1 1 0 .854z"/><path fill="#8BD7F8" d="M22.198 96.064H6.148a.426.426 0 1 1 0-.854h16.05a.426.426 0 1 1 0 .854zm16.547-.049h-10.23a.426.426 0 1 1 0-.854h10.23a.426.426 0 1 1 0 .854zm13.57 0h-7.073a.426.426 0 1 1 0-.854h7.073a.426.426 0 1 1 0 .854z"/><path fill="#A2D8CB" d="M32.904 110.641H6.148a.426.426 0 1 1 0-.854h26.756a.426.426 0 1 1 0 .854zm19.769-.05H39.992a.427.427 0 1 1 0-.854h12.681a.426.426 0 1 1 0 .854z"/><path fill="#485A93" d="M17.814 82.554H6.148a.427.427 0 1 1 0-.855h11.666a.427.427 0 1 1 0 .855zm16.322-.047h-10.01a.427.427 0 1 1 0-.855h10.009a.427.427 0 0 1 .001.855z"/><path fill="#F7941E" d="M6.148 136.927h16.05"/><path fill="#F15A29" d="M22.198 137.354H6.148a.427.427 0 1 1 0-.855h16.05a.427.427 0 1 1 0 .855z"/><path fill="#F7941E" d="M28.515 136.877h13.558"/><path fill="#F15A29" d="M42.073 137.304H28.515a.426.426 0 1 1 0-.854h13.558a.427.427 0 1 1 0 .854z"/><path fill="#FFD682" d="M28.333 123.842H6.148a.426.426 0 1 1 0-.854h22.185a.426.426 0 1 1 0 .854zm13.74-.047H34.65a.426.426 0 1 1 0-.854h7.423a.427.427 0 1 1 0 .854z"/><path fill="#A2D8CB" d="M158.926 110.591h-8.924a.427.427 0 1 1 0-.854h8.924a.426.426 0 1 1 0 .854z"/><path fill="#F7941E" d="M151.652 136.877h7.274"/><path fill="#F15A29" d="M158.926 137.304h-7.274a.426.426 0 1 1 0-.854h7.274a.427.427 0 1 1 0 .854z"/><path fill="#8BD7F8" d="M126.821 96.015h-19.623a.426.426 0 1 1 0-.854h19.623a.426.426 0 1 1 0 .854zm32.105 0h-12.063a.426.426 0 1 1 0-.854h12.063a.426.426 0 1 1 0 .854zm-18.535 0h-7.073a.426.426 0 1 1 0-.854h7.073a.426.426 0 1 1 0 .854z"/><path fill="#A2D8CB" d="M120.979 110.641h-23.34a.426.426 0 1 1 0-.854h23.34a.426.426 0 1 1 0 .854zm22.331-.05h-15.243a.427.427 0 1 1 0-.854h15.243a.426.426 0 1 1 0 .854z"/><path fill="#485A93" d="M138.066 82.507h-6.389a.427.427 0 1 1 0-.855h6.389a.427.427 0 1 1 0 .855zm20.857 0h-16.402a.427.427 0 1 1 0-.855h16.402a.427.427 0 1 1 0 .855z"/><path fill="#F7941E" d="M120.24 136.877h9.909"/><path fill="#F15A29" d="M130.149 137.304h-9.909a.426.426 0 1 1 0-.854h9.909a.427.427 0 1 1 0 .854z"/><path fill="#F7941E" d="M136.646 136.877h8.533"/><path fill="#F15A29" d="M145.179 137.304h-8.533a.426.426 0 1 1 0-.854h8.533a.427.427 0 1 1 0 .854z"/><path fill="#FFD682" d="M135.504 123.795H120.24a.426.426 0 1 1 0-.854h15.264a.427.427 0 1 1 0 .854zm23.419 0h-17.256a.426.426 0 1 1 0-.854h17.256a.427.427 0 1 1 0 .854z"/><path fill="#8BD7F8" d="M307.153 143.895h-129.31V54.558h129.31v89.337zm-128.456-.855H306.3V55.412H178.697v87.628z"/><path fill="#8BD7F8" d="M235.23 99.786V81.578l15.769 9.104-15.769 9.104zm.853-16.729v15.25l13.207-7.625-13.207-7.625zm-49.16 41.917h42.553v.854h-42.553zm65.466 0h42.553v.854h-42.553z"/><circle fill="#FFF" cx="213.222" cy="125.4" r="2.904"/><path fill="#8BD7F8" d="M213.222 128.625a3.228 3.228 0 0 1-3.225-3.225c0-1.777 1.446-3.225 3.225-3.225s3.225 1.447 3.225 3.225a3.228 3.228 0 0 1-3.225 3.225zm0-5.809c-1.425 0-2.584 1.159-2.584 2.584s1.159 2.584 2.584 2.584 2.584-1.159 2.584-2.584-1.159-2.584-2.584-2.584zm28.05-10.418c-11.987 0-21.739-9.753-21.739-21.741s9.752-21.74 21.739-21.74c11.988 0 21.741 9.752 21.741 21.74s-9.753 21.741-21.741 21.741zm0-42.627c-11.516 0-20.885 9.37-20.885 20.886 0 11.518 9.369 20.888 20.885 20.888 11.517 0 20.887-9.37 20.887-20.888 0-11.516-9.37-20.886-20.887-20.886zm68.79 73.944l-.696-.495 37.117-51.992 45.189 51.759-.644.563-44.478-50.946z"/><path fill="#8BD7F8" d="M478.064 144.044l-66.256-74.469-39.016 52.301-.684-.511 39.642-53.14.349.391 66.604 74.862z"/><path fill="#FFF" d="M451.132 115.613c14.191 0 25.697-11.504 25.697-25.695 0-14.192-11.506-25.696-25.697-25.696-14.19 0-25.695 11.504-25.695 25.696 0 14.191 11.504 25.695 25.695 25.695"/><path fill="#8BD7F8" d="M451.132 115.934c-14.345 0-26.015-11.67-26.015-26.016s11.67-26.017 26.015-26.017c14.347 0 26.018 11.671 26.018 26.017s-11.671 26.016-26.018 26.016zm0-51.392c-13.991 0-25.375 11.384-25.375 25.376s11.384 25.375 25.375 25.375c13.992 0 25.377-11.383 25.377-25.375s-11.385-25.376-25.377-25.376z"/><path fill="#FFF" d="M491.304 89.917a2.28 2.28 0 0 1-2.281 2.282h-17.797a2.282 2.282 0 1 1 0-4.564h17.797a2.28 2.28 0 0 1 2.281 2.282z"/><path fill="#8BD7F8" d="M489.022 92.52h-17.797c-1.434 0-2.602-1.168-2.602-2.603s1.168-2.603 2.602-2.603h17.797c1.435 0 2.602 1.168 2.602 2.603s-1.167 2.603-2.602 2.603zm-17.796-4.565c-1.081 0-1.961.88-1.961 1.962 0 1.081.88 1.962 1.961 1.962h17.797a1.963 1.963 0 0 0 0-3.924h-17.797z"/><circle fill="#FFF" cx="369.301" cy="83.536" r="5.941"/><path fill="#8BD7F8" d="M369.301 89.903a6.374 6.374 0 0 1-6.367-6.367 6.375 6.375 0 0 1 6.367-6.369 6.376 6.376 0 0 1 6.369 6.369 6.375 6.375 0 0 1-6.369 6.367zm0-11.882a5.52 5.52 0 0 0-5.513 5.515 5.52 5.52 0 0 0 5.513 5.513 5.52 5.52 0 0 0 5.515-5.513 5.522 5.522 0 0 0-5.515-5.515zm-14.937 5.001h6.188v.854h-6.188zm23.686 0h6.189v.854h-6.189zm-9.176 9.176h.854v6.188h-.854zm0-23.686h.854v6.189h-.854zm-6.062 20.818l.603.604-4.376 4.376-.604-.603zm16.758-16.759l.605.603-4.373 4.381-.604-.603zm-3.772 16.754l4.377 4.376-.604.604-4.377-4.376zM359.03 72.588l4.376 4.377-.604.604-4.376-4.377z"/><circle fill="#FFF" cx="458.675" cy="79.456" r="4.068"/><path fill="#8BD7F8" d="M458.675 83.846a4.394 4.394 0 0 1-4.389-4.39c0-2.419 1.969-4.388 4.389-4.388s4.389 1.969 4.389 4.388a4.395 4.395 0 0 1-4.389 4.39zm0-8.137a3.752 3.752 0 0 0-3.748 3.747c0 2.067 1.682 3.749 3.748 3.749s3.748-1.682 3.748-3.749a3.752 3.752 0 0 0-3.748-3.747z"/><path fill="#FFF" d="M462.743 101.053a4.068 4.068 0 1 1-8.136.002 4.068 4.068 0 0 1 8.136-.002z"/><path fill="#8BD7F8" d="M458.675 105.442a4.394 4.394 0 0 1-4.389-4.39c0-2.419 1.969-4.388 4.389-4.388s4.389 1.969 4.389 4.388a4.394 4.394 0 0 1-4.389 4.39zm0-8.136a3.752 3.752 0 0 0-3.748 3.747c0 2.067 1.682 3.749 3.748 3.749s3.748-1.682 3.748-3.749a3.752 3.752 0 0 0-3.748-3.747z"/><circle fill="#FFF" cx="440.298" cy="89.917" r="4.068"/><path fill="#8BD7F8" d="M440.298 94.306c-2.42 0-4.389-1.969-4.389-4.389s1.969-4.389 4.389-4.389 4.389 1.969 4.389 4.389-1.969 4.389-4.389 4.389zm0-8.137c-2.066 0-3.748 1.682-3.748 3.748s1.682 3.749 3.748 3.749 3.748-1.683 3.748-3.749-1.682-3.748-3.748-3.748z"/><path fill="#FFF" d="M454.858 80.856l-11.593 6.283"/><path fill="#8BD7F8" d="M454.694 80.57l.306.564-11.593 6.288-.305-.564z"/><path fill="#FFF" d="M442.868 93.069l11.738 6.57"/><path fill="#8BD7F8" d="M443.006 92.8l11.738 6.57-.313.559-11.738-6.57zm-124.868 29.368h-.854V42.109H190.908v8.861h-.853v-9.714h128.083z"/><g fill="#8BD7F8"><path d="M332.667 78.129c-2.576 0-4.429-.89-4.954-2.379-.428-1.212.054-2.646 1.357-4.037 1.252-1.336 3.128-2.491 5.282-3.251 1.625-.574 3.283-.878 4.792-.878 2.576 0 4.428.89 4.953 2.379.87 2.463-2.048 5.665-6.642 7.29-1.623.572-3.279.876-4.788.876zm6.478-9.904c-1.438 0-3.021.291-4.578.841-2.06.727-3.846 1.823-5.029 3.086-1.132 1.208-1.565 2.41-1.221 3.384.432 1.223 2.058 1.952 4.351 1.952 1.438 0 3.02-.29 4.576-.84 4.185-1.479 6.988-4.383 6.25-6.472-.431-1.222-2.056-1.951-4.349-1.951zm13.594-7.762c-2.576 0-4.429-.89-4.954-2.379-.869-2.464 2.048-5.665 6.641-7.287 1.625-.574 3.283-.877 4.792-.877 2.576 0 4.428.889 4.952 2.379.871 2.463-2.047 5.665-6.641 7.288-1.624.573-3.28.876-4.79.876zm6.479-9.903c-1.438 0-3.021.291-4.578.841-4.114 1.453-6.976 4.416-6.25 6.47.431 1.222 2.058 1.952 4.35 1.952 1.438 0 3.021-.291 4.577-.84 4.184-1.479 6.988-4.382 6.25-6.471-.431-1.223-2.056-1.952-4.349-1.952z"/><path d="M343.991 69.826h-.64V41.36l20.702-13.889V52.18h-.641V28.672l-19.421 13.03z"/></g><path fill="#8BD7F8" d="M484.513 58.848l-.972-5.14-5.141-.972 5.141-.972.972-5.14.973 5.14 5.14.972-5.14.972-.973 5.14zm-2.665-6.112l2.241.424.424 2.242.424-2.242 2.241-.424-2.241-.424-.424-2.241-.424 2.241-2.241.424zm-90.498-.553l-.972-5.14-5.141-.972 5.141-.972.972-5.14.973 5.14 5.14.972-5.14.972-.973 5.14zm-2.665-6.112l2.241.424.424 2.242.424-2.242 2.241-.424-2.241-.424-.424-2.242-.424 2.242-2.241.424zm-29.946-28.466l-.973-5.14-5.14-.972 5.14-.972.973-5.14.973 5.14 5.14.972-5.14.972-.973 5.14zm-2.665-6.111l2.241.424.424 2.241.424-2.241 2.241-.424-2.241-.424-.424-2.242-.424 2.242-2.241.424zM166.595 54.459l-.972-5.142-5.142-.971 5.142-.971.972-5.141.972 5.141 5.142.971-5.142.971-.972 5.142zm-2.663-6.112l2.239.423.424 2.242.424-2.242 2.239-.423-2.239-.423-.424-2.242-.424 2.242-2.239.423zM6.148 62.475l-.972-5.142-5.142-.971 5.142-.971.972-5.141.972 5.141 5.142.971-5.142.971-.972 5.142zm-2.663-6.113l2.239.423.424 2.242.424-2.242 2.239-.423-2.239-.423-.424-2.242-.424 2.242-2.239.423zm18.713-43.145l-.972-5.141-5.142-.971 5.142-.971.972-5.142.972 5.142 5.142.971-5.142.971-.972 5.141zm-2.664-6.112l2.24.423.424 2.242.424-2.242 2.24-.423-2.24-.423-.424-2.242-.424 2.242-2.24.423z"/><g fill="#8BD7F8"><path d="M420.087 51.295h-1a1.02 1.02 0 0 1-1.007-.852l-.101-.606a4.819 4.819 0 0 1-.434-.178l-.509.363c-.396.28-.96.234-1.311-.108l-.707-.708a1.015 1.015 0 0 1-.109-1.314l.353-.491a4.745 4.745 0 0 1-.191-.458l-.618-.105a1.018 1.018 0 0 1-.851-1.006v-.998c0-.5.358-.923.853-1.006l.594-.101c.054-.157.116-.311.188-.461l-.363-.509a1.02 1.02 0 0 1 .11-1.313l.709-.706c.333-.34.929-.389 1.315-.107l.492.354c.149-.073.302-.137.457-.193l.104-.616a1.02 1.02 0 0 1 1.007-.851h.998c.499 0 .923.358 1.007.851l.101.595c.165.057.327.124.487.201l.5-.357a1.037 1.037 0 0 1 1.313.11l.705.706c.355.352.401.905.11 1.314l-.356.5c.071.149.134.302.189.458l.605.103c.498.084.854.51.846 1.011v.993c0 .5-.358.924-.852 1.006l-.604.101a5.352 5.352 0 0 1-.19.458l.356.502c.291.407.244.959-.109 1.313l-.706.707c-.348.346-.92.391-1.314.109l-.498-.357a4.83 4.83 0 0 1-.46.189l-.103.606a1.017 1.017 0 0 1-1.006.851zm-2.596-2.382l.174.091c.219.115.452.21.693.285l.189.058.165.991c.03.184.188.318.374.318h1a.38.38 0 0 0 .375-.319l.169-.99.188-.058c.246-.076.487-.175.717-.296l.175-.092.815.584a.39.39 0 0 0 .49-.042l.704-.706a.377.377 0 0 0 .042-.489l-.582-.819.091-.174a4.09 4.09 0 0 0 .295-.714l.058-.191.992-.166a.378.378 0 0 0 .317-.375v-.997a.374.374 0 0 0-.313-.376l-.991-.168-.058-.189a4.114 4.114 0 0 0-.295-.714l-.093-.175.584-.817a.378.378 0 0 0-.042-.488l-.707-.707a.377.377 0 0 0-.486-.041l-.818.583-.176-.092a4.03 4.03 0 0 0-.741-.305l-.19-.057-.166-.983a.378.378 0 0 0-.375-.317h-.998a.378.378 0 0 0-.375.317l-.17 1-.188.058a3.904 3.904 0 0 0-.711.3l-.177.096-.813-.586a.385.385 0 0 0-.487.04l-.71.708a.38.38 0 0 0-.041.489l.589.827-.093.175a3.961 3.961 0 0 0-.291.714l-.057.191-.983.167a.377.377 0 0 0-.317.375v.998c0 .187.133.344.316.375l1 .17.059.187c.079.249.18.489.301.714l.095.176-.582.811a.377.377 0 0 0 .04.488l.706.707a.38.38 0 0 0 .487.042l.826-.592z"/><path d="M419.589 48.075a2.77 2.77 0 0 1-2.766-2.767 2.767 2.767 0 0 1 2.766-2.763 2.767 2.767 0 0 1 2.765 2.763 2.77 2.77 0 0 1-2.765 2.767zm0-4.89a2.127 2.127 0 0 0-2.125 2.123c0 1.173.953 2.126 2.125 2.126a2.128 2.128 0 0 0 2.124-2.126c0-1.17-.953-2.123-2.124-2.123z"/></g><g fill="#8BD7F8"><path d="M229.971 29.256h-.993c-.497 0-.919-.356-1.002-.847l-.1-.601a4.78 4.78 0 0 1-.43-.176l-.503.359c-.393.28-.963.233-1.306-.109l-.702-.701a1.013 1.013 0 0 1-.109-1.309l.35-.486a4.414 4.414 0 0 1-.19-.453l-.611-.105a1.014 1.014 0 0 1-.847-1.002v-.99c0-.499.357-.92.849-1.001l.588-.1c.054-.155.116-.308.186-.456l-.36-.504a1.017 1.017 0 0 1 .11-1.309l.704-.701a1.033 1.033 0 0 1 1.31-.106l.487.35a4.17 4.17 0 0 1 .453-.19l.104-.611c.083-.49.504-.847 1.002-.847h.992c.498 0 .919.356 1.002.847l.099.588c.163.057.324.124.483.199l.496-.353a1.03 1.03 0 0 1 1.307.11l.7.7c.354.351.401.901.11 1.309l-.354.495c.071.149.133.3.188.453l.601.102c.495.083.85.507.843 1.007v.986c0 .497-.357.918-.848 1.001l-.6.1c-.054.15-.117.302-.188.454l.354.498c.289.405.243.955-.11 1.308l-.7.701a1.04 1.04 0 0 1-1.31.11l-.494-.354a4.93 4.93 0 0 1-.455.187l-.102.601c-.084.49-.506.846-1.004.846zm-2.579-2.371l.175.092c.215.114.447.209.687.282l.19.058.163.987c.031.18.187.312.371.312h.993c.185 0 .34-.132.371-.313l.167-.986.188-.058c.249-.077.488-.175.711-.294l.175-.093.812.582a.384.384 0 0 0 .485-.042l.7-.701a.375.375 0 0 0 .041-.483l-.579-.815.091-.174c.125-.239.224-.478.294-.71l.057-.191.987-.165a.375.375 0 0 0 .313-.37v-.991a.368.368 0 0 0-.31-.371l-.985-.167-.058-.189a4.09 4.09 0 0 0-.293-.71l-.092-.174.58-.813a.373.373 0 0 0-.041-.483l-.702-.702a.375.375 0 0 0-.481-.041l-.814.581-.175-.092a4.045 4.045 0 0 0-.737-.303l-.191-.057-.164-.978a.376.376 0 0 0-.371-.313h-.992a.376.376 0 0 0-.371.313l-.169.996-.188.058a3.916 3.916 0 0 0-.706.297l-.176.096-.81-.583a.378.378 0 0 0-.481.04l-.705.702a.376.376 0 0 0-.041.484l.586.821-.093.175a3.976 3.976 0 0 0-.29.71l-.057.19-.977.166a.374.374 0 0 0-.315.37v.99c0 .184.132.34.314.371l.992.17.059.186c.078.248.179.486.299.709l.095.176-.58.806a.371.371 0 0 0 .04.482l.701.701a.379.379 0 0 0 .483.042l.824-.583z"/><path d="M229.476 26.058a2.754 2.754 0 0 1-2.75-2.75 2.752 2.752 0 0 1 2.75-2.748 2.752 2.752 0 0 1 2.749 2.748 2.753 2.753 0 0 1-2.749 2.75zm0-4.859a2.111 2.111 0 0 0-2.109 2.108c0 1.164.946 2.11 2.109 2.11a2.11 2.11 0 0 0 0-4.218z"/></g><g fill="#8BD7F8"><path d="M237.559 34.484h-.683a.797.797 0 0 1-.789-.665l-.059-.357a3.362 3.362 0 0 1-.196-.081l-.299.214a.815.815 0 0 1-1.028-.086l-.483-.483a.796.796 0 0 1-.086-1.028l.207-.288a3.527 3.527 0 0 1-.089-.212l-.364-.063a.797.797 0 0 1-.666-.789v-.682c0-.392.281-.724.668-.788l.346-.058c.027-.072.056-.144.088-.214l-.214-.3a.805.805 0 0 1 .085-1.029l.486-.484a.822.822 0 0 1 1.031-.083l.287.207c.069-.033.14-.062.211-.09l.062-.363a.799.799 0 0 1 .788-.667h.683c.393 0 .724.281.788.667l.058.347c.079.029.157.061.233.096l.294-.209a.811.811 0 0 1 1.028.086l.482.484a.794.794 0 0 1 .086 1.029l-.209.293c.032.07.061.141.088.212l.355.06a.79.79 0 0 1 .664.793v.678c0 .392-.28.723-.667.789l-.356.059a3.193 3.193 0 0 1-.088.213l.209.295a.795.795 0 0 1-.086 1.028l-.481.483a.817.817 0 0 1-1.029.088l-.295-.211c-.069.032-.14.061-.212.088l-.06.356a.795.795 0 0 1-.788.665zm-1.783-1.849l.175.093c.143.076.295.139.455.187l.191.058.123.742c.012.075.079.13.157.13h.683a.158.158 0 0 0 .158-.132l.125-.74.189-.058c.165-.051.323-.116.472-.195l.175-.093.609.437c.059.041.15.038.206-.019l.48-.482a.157.157 0 0 0 .018-.204l-.435-.611.091-.174c.083-.159.148-.316.194-.47l.057-.192.742-.123a.158.158 0 0 0 .131-.157v-.682a.154.154 0 0 0-.13-.157l-.739-.125-.058-.189a2.766 2.766 0 0 0-.194-.471l-.092-.174.435-.61a.154.154 0 0 0-.017-.202l-.484-.486a.16.16 0 0 0-.203-.017l-.61.436-.175-.093a2.624 2.624 0 0 0-.488-.2l-.192-.057-.123-.736a.157.157 0 0 0-.156-.132h-.683a.157.157 0 0 0-.157.134l-.126.743-.188.059c-.16.049-.317.116-.467.198l-.177.097-.608-.439a.159.159 0 0 0-.202.017l-.486.483a.163.163 0 0 0-.017.207l.438.614-.092.175c-.08.151-.144.31-.192.47l-.057.191-.734.124a.159.159 0 0 0-.134.156v.682c0 .08.055.144.134.157l.742.127.059.186c.051.162.118.32.199.471l.095.176-.436.605a.158.158 0 0 0 .017.203l.483.483c.056.056.14.064.206.018l.613-.439z"/><path d="M237.219 32.283a1.996 1.996 0 0 1-1.993-1.994c0-1.099.894-1.992 1.993-1.992a1.994 1.994 0 0 1 0 3.986zm0-3.345a1.354 1.354 0 0 0 0 2.705c.745 0 1.352-.607 1.352-1.353a1.354 1.354 0 0 0-1.352-1.352z"/></g></svg>