<svg xmlns="http://www.w3.org/2000/svg" width="512" height="512" viewBox="0 0 512 512"><path d="M450.275 357.96h40.209v6.313h-40.209zm45.969 0H512v6.313h-15.756z" fill="#D4EEF8"/><g fill="#D4EEF8"><path d="M15.723 184.454h36.704v4.495H15.723z"/><path d="M31.828 168.341h4.479v36.72h-4.479z"/></g><g fill="#FDBA12"><path d="M456.052 163.847h36.696v4.495h-36.696z"/><path d="M472.156 147.734h4.487v36.72h-4.487z"/></g><g fill="#D4EEF8"><path d="M402.636 435.229h36.703v4.494h-36.703z"/><path d="M418.74 419.133h4.486v36.704h-4.486z"/></g><path fill="#FDBA12" d="M31.365 316.016c0 8.665-7.026 15.675-15.674 15.675C7.042 331.69 0 324.681 0 316.016c0-8.648 7.042-15.658 15.691-15.658 8.648-.001 15.674 7.009 15.674 15.658z"/><path fill="#D4EEF8" d="M72.003 259.208c0 5.403-4.389 9.784-9.792 9.784-5.387 0-9.784-4.381-9.784-9.784s4.397-9.784 9.784-9.784c5.403 0 9.792 4.381 9.792 9.784z"/><path fill="#FDBA12" d="M456.612 403.085c0 5.403-4.382 9.784-9.793 9.784-5.387 0-9.784-4.381-9.784-9.784s4.397-9.784 9.784-9.784c5.411 0 9.793 4.381 9.793 9.784z"/><path fill="#D4EEF8" d="M496.229 393.317c0 2.726-2.215 4.948-4.949 4.948s-4.965-2.223-4.965-4.948c0-2.742 2.23-4.966 4.965-4.966s4.949 2.224 4.949 4.966zM394.652 143.305c0-7.27 5.906-13.176 13.159-13.176 7.277 0 13.185 5.906 13.185 13.176 0 7.269-5.907 13.159-13.185 13.159-7.252 0-13.159-5.89-13.159-13.159zm65.83 89.292c0-3.83 3.115-6.961 6.944-6.961 3.862 0 6.985 3.131 6.985 6.961 0 3.862-3.123 6.961-6.985 6.961a6.946 6.946 0 0 1-6.944-6.961z"/><path fill="#E7E9ED" d="M265.014 454.263c-45.206 0-87.702-17.605-119.668-49.555-31.965-31.966-49.563-74.462-49.563-119.668s17.597-87.702 49.563-119.668c31.966-31.965 74.462-49.571 119.668-49.571s87.702 17.605 119.66 49.571c31.974 31.966 49.57 74.462 49.57 119.668s-17.597 87.702-49.57 119.668c-31.958 31.949-74.454 49.555-119.66 49.555zm0-329.326c-88.278 0-160.095 71.817-160.095 160.104 0 88.286 71.817 160.087 160.095 160.087 88.286 0 160.104-71.801 160.104-160.087-.001-88.288-71.818-160.104-160.104-160.104z"/><path fill="#FFF" d="M400.777 346.521c0 22.611-18.318 40.938-40.938 40.938h-203.46c-22.619 0-40.955-18.327-40.955-40.938V223.543c0-22.611 18.335-40.931 40.955-40.931h203.459c22.62 0 40.938 18.319 40.938 40.931v122.978z"/><path fill="#485A93" d="M359.839 391.613h-203.46c-24.875 0-45.108-20.226-45.108-45.093V223.543c0-24.858 20.234-45.084 45.108-45.084h203.459c24.867 0 45.093 20.226 45.093 45.084v122.978c.001 24.867-20.225 45.092-45.092 45.092zm-203.46-204.847c-20.291 0-36.801 16.498-36.801 36.777v122.978c0 20.283 16.51 36.785 36.801 36.785h203.459c20.283 0 36.785-16.502 36.785-36.785V223.543c0-20.279-16.502-36.777-36.785-36.777H156.379z"/><path d="M211.029 199.017a4.152 4.152 0 0 1-4.154-4.154v-31.017c0-2.296 1.858-4.154 4.154-4.154s4.154 1.858 4.154 4.154v31.017a4.152 4.152 0 0 1-4.154 4.154zm94.16 0a4.15 4.15 0 0 1-4.153-4.154v-31.017c0-2.296 1.857-4.154 4.153-4.154s4.154 1.858 4.154 4.154v31.017a4.151 4.151 0 0 1-4.154 4.154z" fill="#485A93"/><path fill="#FFD682" d="M258.102 324.924c-15.042 0-27.276-12.234-27.276-27.276 0-15.041 12.234-27.284 27.276-27.284 15.041 0 27.284 12.243 27.284 27.284 0 15.041-12.243 27.276-27.284 27.276zm0-46.253c-10.458 0-18.969 8.511-18.969 18.977 0 10.458 8.511 18.969 18.969 18.969 10.466 0 18.977-8.511 18.977-18.969-.001-10.466-8.512-18.977-18.977-18.977z"/><path fill="#F15A29" d="M181.806 324.924c-15.042 0-27.276-12.234-27.276-27.276 0-15.041 12.234-27.284 27.276-27.284 15.049 0 27.292 12.243 27.292 27.284 0 15.041-12.243 27.276-27.292 27.276zm0-46.253c-10.458 0-18.969 8.511-18.969 18.977 0 10.458 8.511 18.969 18.969 18.969 10.47 0 18.984-8.511 18.984-18.969.001-10.466-8.514-18.977-18.984-18.977z"/><path fill="#A2D8CB" d="M334.396 324.924c-15.041 0-27.276-12.234-27.276-27.276 0-15.041 12.235-27.284 27.276-27.284 15.042 0 27.276 12.243 27.276 27.284.001 15.041-12.234 27.276-27.276 27.276zm0-46.253c-10.458 0-18.968 8.511-18.968 18.977 0 10.458 8.51 18.969 18.968 18.969s18.969-8.511 18.969-18.969c0-10.466-8.511-18.977-18.969-18.977z"/><path fill="#FFF" d="M296.176 62.709l57.651 17.192-53.351 178.836-44.452 43.786-13.2-60.985z"/><path fill="#485A93" d="M253.562 310.783l-15.021-69.412L293.385 57.54l65.61 19.565-54.844 183.838-50.589 49.84zm-6.454-69.079l11.378 52.561 38.314-37.738 51.858-173.831-49.692-14.818-51.858 173.826z"/><path fill="#A2D8CB" d="M303.607 185.769l-5.97-1.786 32.151-107.725 5.972 1.785z"/><path fill="#FFD682" d="M311.62 70.837l5.972 1.78-20.09 67.36-5.97-1.781z"/><path fill="#485A93" d="M276.137 285.835c-.292 0-.593-.04-.893-.13l-25.808-7.699a3.12 3.12 0 0 1-2.093-3.878 3.1 3.1 0 0 1 3.878-2.093l25.808 7.699a3.117 3.117 0 0 1 2.093 3.878 3.12 3.12 0 0 1-2.985 2.223z"/><path fill="#8BD7F8" d="M285.604 255.144c-.39 0-.795-.057-1.185-.175L258.6 247.27a4.15 4.15 0 0 1-2.791-5.168 4.141 4.141 0 0 1 5.168-2.791l25.812 7.699a4.162 4.162 0 0 1 2.799 5.168 4.163 4.163 0 0 1-3.984 2.966z"/></svg>