<svg xmlns="http://www.w3.org/2000/svg" width="512" height="512" viewBox="0 0 512 512"><path d="M450.561 328.686h40.209v6.312h-40.209zm45.968 0h15.756v6.312h-15.756z" fill="#D4EEF8"/><g fill="#D4EEF8"><path d="M16.008 155.179h36.704v4.495H16.008z"/><path d="M32.113 139.066h4.479v36.72h-4.479z"/></g><g fill="#FDBA12"><path d="M456.338 134.572h36.695v4.495h-36.695z"/><path d="M472.442 118.459h4.486v36.72h-4.486z"/></g><g fill="#D4EEF8"><path d="M402.921 405.954h36.704v4.495h-36.704z"/><path d="M419.025 389.858h4.486v36.703h-4.486z"/></g><path fill="#FDBA12" d="M31.65 286.741c0 8.664-7.026 15.674-15.674 15.674S.285 295.405.285 286.741c0-8.649 7.042-15.659 15.691-15.659s15.674 7.01 15.674 15.659z"/><path fill="#D4EEF8" d="M72.289 229.933c0 5.403-4.39 9.784-9.792 9.784-5.387 0-9.785-4.381-9.785-9.784s4.397-9.785 9.785-9.785c5.402 0 9.792 4.382 9.792 9.785z"/><path fill="#FDBA12" d="M456.897 373.811c0 5.403-4.381 9.784-9.793 9.784-5.387 0-9.784-4.381-9.784-9.784s4.397-9.784 9.784-9.784c5.413-.001 9.793 4.38 9.793 9.784z"/><path fill="#D4EEF8" d="M496.514 364.042c0 2.727-2.215 4.949-4.949 4.949s-4.965-2.223-4.965-4.949c0-2.742 2.23-4.965 4.965-4.965s4.949 2.223 4.949 4.965zM394.938 114.03c0-7.27 5.906-13.176 13.16-13.176 7.277 0 13.184 5.906 13.184 13.176 0 7.269-5.906 13.159-13.184 13.159-7.254 0-13.16-5.89-13.16-13.159zm65.83 89.292c0-3.83 3.115-6.961 6.944-6.961 3.862 0 6.985 3.131 6.985 6.961 0 3.862-3.123 6.961-6.985 6.961a6.945 6.945 0 0 1-6.944-6.961z"/><path fill="#E7E9ED" d="M265.299 424.987c-45.206 0-87.702-17.605-119.668-49.555-31.965-31.965-49.563-74.462-49.563-119.667 0-45.206 17.597-87.703 49.563-119.668 31.966-31.965 74.462-49.571 119.668-49.571s87.702 17.605 119.66 49.571c31.974 31.965 49.57 74.462 49.57 119.668s-17.597 87.703-49.57 119.667c-31.958 31.95-74.454 49.555-119.66 49.555zm0-329.325c-88.278 0-160.095 71.817-160.095 160.104s71.817 160.087 160.095 160.087c88.286 0 160.104-71.801 160.104-160.087S353.585 95.662 265.299 95.662z"/><path fill="#FFF" d="M260.602 410.781l-128.163-27.892v-251.53l128.163 27.893zm128.162-279.43l-128.162 27.893v251.529l128.162-27.892z"/><path fill="#485A93" d="M256.448 155.897v74.152c.178-.007.358-.022.535-.026 2.572-.057 5.181-.098 7.772-.127V162.59l119.854-26.083V379.53l-118.784 25.858-.526.565h-8.851v9.971l136.47-29.693V126.195l-136.47 29.702z"/><g fill="#8BD7F8"><path d="M261.234 343.979c-16.535 0-40.208-28.177-40.208-47.851 0-28.031 18.04-50.837 40.208-50.837 22.173 0 40.208 22.806 40.208 50.837 0 19.227-24.046 47.851-40.208 47.851zm0-90.38c-17.589 0-31.901 19.082-31.901 42.529 0 16.291 20.636 39.543 31.901 39.543 10.709 0 31.9-24.031 31.9-39.543.001-23.447-14.311-42.529-31.9-42.529z"/><path d="M195.595 391.643l-7.504-3.569 9.387-19.747c6.641-13.971 26.222-18.393 37.3-19.788 2.105-.665 6.369-9.16 8.718-17.476l7.991 2.256c-1.89 6.701-7.212 22.408-15.674 23.463-7.562.949-25.707 4.324-30.83 15.114l-9.388 19.747zm133.676 0l-9.379-19.747c-5.136-10.79-23.284-14.165-30.846-15.114-8.421-1.047-14.279-17.752-16.413-24.883l7.968-2.377c2.733 9.151 7.302 18.222 9.581 19.033 10.985 1.379 30.563 5.801 37.207 19.771l9.378 19.747-7.496 3.57z"/></g><path fill="#F7941E" d="M154.807 211.873l72.555 15.513"/><path fill="#F15A29" d="M227.37 235.693c-.576 0-1.16-.057-1.744-.183l-72.555-15.512a8.311 8.311 0 0 1-6.389-9.861c.961-4.487 5.407-7.338 9.861-6.389l72.555 15.512a8.311 8.311 0 0 1 6.389 9.861 8.311 8.311 0 0 1-8.117 6.572z"/><path fill="#8BD7F8" d="M297.28 233.511c-3.805 0-7.236-2.625-8.097-6.49a8.307 8.307 0 0 1 6.288-9.926l69.27-15.508a8.265 8.265 0 0 1 9.922 6.288 8.307 8.307 0 0 1-6.287 9.926l-69.27 15.508a8.394 8.394 0 0 1-1.826.202z"/><path fill="#A2D8CB" d="M227.37 198.56c-.576 0-1.16-.057-1.744-.183l-72.555-15.512a8.311 8.311 0 0 1-6.389-9.862c.961-4.49 5.407-7.342 9.861-6.389l72.555 15.512a8.311 8.311 0 0 1 6.389 9.862 8.311 8.311 0 0 1-8.117 6.572z"/><path fill="#FFD682" d="M297.28 196.377c-3.805 0-7.236-2.625-8.097-6.491a8.307 8.307 0 0 1 6.288-9.926l69.27-15.508c4.526-1.002 8.933 1.813 9.922 6.288a8.308 8.308 0 0 1-6.287 9.926l-69.27 15.508a8.274 8.274 0 0 1-1.826.203z"/><path fill="#485A93" d="M255.101 405.954l-1.063-.849-117.444-25.567V136.515l119.854 26.083v67.45c.178-.007.358.004.535 0 2.572-.057 5.181.029 7.772 0v-74.144l-136.47-29.702v260.036l136.47 29.694v-9.979h-9.654z"/></svg>