<svg xmlns="http://www.w3.org/2000/svg" width="512" height="512" viewBox="0 0 512 512"><path d="M450.548 331.49h40.209v6.312h-40.209zm45.969 0h15.756v6.312h-15.756z" fill="#D4EEF8"/><g fill="#D4EEF8"><path d="M15.996 157.984H52.7v4.495H15.996z"/><path d="M32.1 141.871h4.479v36.72H32.1z"/></g><g fill="#FDBA12"><path d="M456.325 137.376h36.695v4.495h-36.695z"/><path d="M472.43 121.264h4.486v36.72h-4.486z"/></g><g fill="#D4EEF8"><path d="M402.908 408.759h36.704v4.495h-36.704z"/><path d="M419.013 392.663h4.486v36.703h-4.486z"/></g><path fill="#FDBA12" d="M31.638 289.546c0 8.664-7.026 15.674-15.674 15.674S.273 298.21.273 289.546c0-8.649 7.042-15.659 15.691-15.659s15.674 7.009 15.674 15.659z"/><path fill="#D4EEF8" d="M72.276 232.738c0 5.403-4.39 9.784-9.792 9.784-5.387 0-9.785-4.381-9.785-9.784s4.397-9.785 9.785-9.785c5.403 0 9.792 4.381 9.792 9.785z"/><path fill="#FDBA12" d="M456.885 376.615c0 5.403-4.381 9.784-9.793 9.784-5.387 0-9.784-4.381-9.784-9.784s4.397-9.784 9.784-9.784c5.412 0 9.793 4.381 9.793 9.784z"/><path fill="#D4EEF8" d="M496.501 366.847c0 2.727-2.215 4.949-4.949 4.949s-4.965-2.223-4.965-4.949c0-2.742 2.23-4.965 4.965-4.965s4.949 2.222 4.949 4.965zM394.925 116.834c0-7.27 5.906-13.176 13.159-13.176 7.278 0 13.185 5.906 13.185 13.176 0 7.269-5.906 13.159-13.185 13.159-7.253.001-13.159-5.889-13.159-13.159zm65.83 89.293c0-3.83 3.115-6.961 6.944-6.961 3.862 0 6.985 3.131 6.985 6.961 0 3.862-3.123 6.961-6.985 6.961a6.945 6.945 0 0 1-6.944-6.961z"/><path fill="#E7E9ED" d="M265.286 427.792c-45.206 0-87.702-17.605-119.668-49.555-31.965-31.965-49.563-74.462-49.563-119.668s17.597-87.702 49.563-119.667c31.966-31.965 74.462-49.571 119.668-49.571s87.702 17.605 119.66 49.571c31.974 31.965 49.57 74.462 49.57 119.667 0 45.206-17.597 87.703-49.57 119.668-31.958 31.95-74.454 49.555-119.66 49.555zm0-329.326c-88.278 0-160.095 71.817-160.095 160.103 0 88.287 71.817 160.088 160.095 160.088 88.286 0 160.104-71.801 160.104-160.088 0-88.286-71.818-160.103-160.104-160.103z"/><path fill="#FFD682" d="M265.294 370.53c-63.063 0-114.37-51.308-114.37-114.37 0-63.059 51.307-114.362 114.37-114.362 63.056 0 114.354 51.303 114.354 114.362 0 63.063-51.298 114.37-114.354 114.37zm0-212.116c-53.903 0-97.754 43.847-97.754 97.747 0 53.903 43.851 97.755 97.754 97.755 53.896 0 97.738-43.852 97.738-97.755 0-53.9-43.843-97.747-97.738-97.747z"/><path fill="#F15A29" d="M265.286 324.375c-37.612 0-68.215-30.603-68.215-68.215s30.603-68.215 68.215-68.215 68.215 30.603 68.215 68.215-30.603 68.215-68.215 68.215zm0-119.814c-28.453 0-51.599 23.146-51.599 51.599 0 28.452 23.146 51.6 51.599 51.6 28.452 0 51.6-23.147 51.6-51.6 0-28.452-23.148-51.599-51.6-51.599z"/><path fill="#8BD7F8" d="M265.286 438.493a8.306 8.306 0 0 1-8.308-8.308V82.135a8.308 8.308 0 0 1 16.616 0v348.051a8.303 8.303 0 0 1-8.308 8.307z"/><path fill="#485A93" d="M439.312 264.468H91.261a8.308 8.308 0 0 1 0-16.616h348.051c4.592 0 8.308 3.72 8.308 8.308s-3.717 8.308-8.308 8.308z"/></svg>