<svg xmlns="http://www.w3.org/2000/svg" width="512" height="512" viewBox="0 0 512 512"><path d="M450.112 328.92h40.209v6.312h-40.209zm45.969 0h15.756v6.312h-15.756z" fill="#D4EEF8"/><g fill="#D4EEF8"><path d="M15.56 155.414h36.704v4.495H15.56z"/><path d="M31.665 139.301h4.479v36.72h-4.479z"/></g><g fill="#FDBA12"><path d="M455.89 134.807h36.695v4.495H455.89z"/><path d="M471.994 118.694h4.486v36.72h-4.486z"/></g><g fill="#D4EEF8"><path d="M402.473 406.188h36.704v4.495h-36.704z"/><path d="M418.577 390.093h4.486v36.703h-4.486z"/></g><path fill="#FDBA12" d="M31.202 286.976c0 8.664-7.026 15.674-15.674 15.674S-.163 295.64-.163 286.976c0-8.648 7.042-15.658 15.691-15.658s15.674 7.009 15.674 15.658z"/><path fill="#D4EEF8" d="M71.84 230.167c0 5.403-4.389 9.784-9.792 9.784-5.387 0-9.784-4.381-9.784-9.784s4.397-9.784 9.784-9.784c5.403 0 9.792 4.381 9.792 9.784z"/><path fill="#FDBA12" d="M456.449 374.045c0 5.403-4.381 9.784-9.793 9.784-5.387 0-9.784-4.381-9.784-9.784s4.397-9.784 9.784-9.784c5.412 0 9.793 4.381 9.793 9.784z"/><path fill="#D4EEF8" d="M496.065 364.276c0 2.727-2.215 4.949-4.949 4.949s-4.965-2.223-4.965-4.949c0-2.742 2.23-4.965 4.965-4.965s4.949 2.223 4.949 4.965zM394.489 114.264c0-7.27 5.906-13.176 13.159-13.176 7.278 0 13.185 5.906 13.185 13.176 0 7.269-5.906 13.159-13.185 13.159-7.252 0-13.159-5.89-13.159-13.159zm65.83 89.293c0-3.83 3.115-6.961 6.944-6.961 3.862 0 6.985 3.131 6.985 6.961 0 3.862-3.123 6.961-6.985 6.961a6.946 6.946 0 0 1-6.944-6.961z"/><path fill="#E7E9ED" d="M264.851 425.222c-45.206 0-87.702-17.604-119.668-49.555C113.217 343.702 95.62 301.205 95.62 256c0-45.206 17.597-87.702 49.563-119.668 31.966-31.965 74.462-49.571 119.668-49.571s87.702 17.605 119.66 49.571c31.974 31.966 49.57 74.462 49.57 119.668s-17.597 87.703-49.57 119.667c-31.958 31.95-74.454 49.555-119.66 49.555zm0-329.326c-88.278 0-160.095 71.817-160.095 160.104s71.817 160.087 160.095 160.087c88.286 0 160.104-71.801 160.104-160.087S353.137 95.896 264.851 95.896z"/><path d="M450.112 328.92h40.209v6.312h-40.209zm45.969 0h15.756v6.312h-15.756z" fill="#D4EEF8"/><g fill="#D4EEF8"><path d="M15.56 155.414h36.704v4.495H15.56z"/><path d="M31.665 139.301h4.479v36.72h-4.479z"/></g><g fill="#FDBA12"><path d="M455.89 134.807h36.695v4.495H455.89z"/><path d="M471.994 118.694h4.486v36.72h-4.486z"/></g><g fill="#D4EEF8"><path d="M402.473 406.188h36.704v4.495h-36.704z"/><path d="M418.577 390.093h4.486v36.703h-4.486z"/></g><path fill="#FDBA12" d="M31.202 286.976c0 8.664-7.026 15.674-15.674 15.674S-.163 295.64-.163 286.976c0-8.648 7.042-15.658 15.691-15.658s15.674 7.009 15.674 15.658z"/><path fill="#D4EEF8" d="M71.84 230.167c0 5.403-4.389 9.784-9.792 9.784-5.387 0-9.784-4.381-9.784-9.784s4.397-9.784 9.784-9.784c5.403 0 9.792 4.381 9.792 9.784z"/><path fill="#FDBA12" d="M456.449 374.045c0 5.403-4.381 9.784-9.793 9.784-5.387 0-9.784-4.381-9.784-9.784s4.397-9.784 9.784-9.784c5.412 0 9.793 4.381 9.793 9.784z"/><path fill="#D4EEF8" d="M496.065 364.276c0 2.727-2.215 4.949-4.949 4.949s-4.965-2.223-4.965-4.949c0-2.742 2.23-4.965 4.965-4.965s4.949 2.223 4.949 4.965zM394.489 114.264c0-7.27 5.906-13.176 13.159-13.176 7.278 0 13.185 5.906 13.185 13.176 0 7.269-5.906 13.159-13.185 13.159-7.252 0-13.159-5.89-13.159-13.159zm65.83 89.293c0-3.83 3.115-6.961 6.944-6.961 3.862 0 6.985 3.131 6.985 6.961 0 3.862-3.123 6.961-6.985 6.961a6.946 6.946 0 0 1-6.944-6.961z"/><path fill="#E7E9ED" d="M264.851 425.222c-45.206 0-87.702-17.604-119.668-49.555C113.217 343.702 95.62 301.205 95.62 256c0-45.206 17.597-87.702 49.563-119.668 31.966-31.965 74.462-49.571 119.668-49.571s87.702 17.605 119.66 49.571c31.974 31.966 49.57 74.462 49.57 119.668s-17.597 87.703-49.57 119.667c-31.958 31.95-74.454 49.555-119.66 49.555zm0-329.326c-88.278 0-160.095 71.817-160.095 160.104s71.817 160.087 160.095 160.087c88.286 0 160.104-71.801 160.104-160.087S353.137 95.896 264.851 95.896z"/><path fill="#FFF" d="M402.473 318.105c0 22.61-18.319 40.938-40.938 40.938h-203.46c-22.619 0-40.955-18.328-40.955-40.938V195.127c0-22.611 18.335-40.93 40.955-40.93h203.46c22.619 0 40.938 18.319 40.938 40.93v122.978z"/><path fill="#485A93" d="M361.534 363.197h-203.46c-24.875 0-45.108-20.226-45.108-45.092V195.127c0-24.858 20.234-45.084 45.108-45.084h203.46c24.866 0 45.093 20.226 45.093 45.084v122.979c0 24.866-20.227 45.091-45.093 45.091zm-203.46-204.846c-20.291 0-36.801 16.498-36.801 36.776v122.979c0 20.282 16.51 36.784 36.801 36.784h203.46c20.282 0 36.784-16.502 36.784-36.784V195.127c0-20.278-16.502-36.776-36.784-36.776h-203.46z"/><path fill="#FFF" d="M181.018 145.921h37.271v32.014h-37.271z"/><path fill="#FFF" d="M117.12 200.685v-62.56c0-8.373 6.791-15.155 15.147-15.155h70.876c8.356 0 15.147 6.783 15.147 15.155v16.072"/><path fill="#485A93" d="M117.12 204.838a4.152 4.152 0 0 1-4.154-4.154v-62.56c0-10.648 8.657-19.309 19.301-19.309h70.876c10.645 0 19.301 8.661 19.301 19.309v16.072a4.151 4.151 0 0 1-4.154 4.154 4.152 4.152 0 0 1-4.154-4.154v-16.072c0-6.064-4.933-11.001-10.993-11.001h-70.876c-6.061 0-10.993 4.937-10.993 11.001v62.56a4.152 4.152 0 0 1-4.154 4.154z"/><path fill="#A2D8CB" d="M261.2 260.146c-13.634 0-24.729-11.095-24.729-24.729 0-13.634 11.095-24.729 24.729-24.729 13.638 0 24.729 11.095 24.729 24.729 0 13.634-11.091 24.729-24.729 24.729zm0-41.15c-9.055 0-16.421 7.367-16.421 16.421s7.367 16.421 16.421 16.421c9.054 0 16.421-7.367 16.421-16.421s-7.367-16.421-16.421-16.421zm26.262 144.201h-8.308V280.72h-35.917v82.477h-8.307v-90.785h52.532z"/><path fill="#F15A29" d="M336.951 235.246c-13.638 0-24.729-11.094-24.729-24.729 0-13.634 11.091-24.729 24.729-24.729 13.639 0 24.729 11.095 24.729 24.729.001 13.635-11.09 24.729-24.729 24.729zm0-41.149c-9.054 0-16.421 7.367-16.421 16.421s7.367 16.421 16.421 16.421c9.055 0 16.421-7.367 16.421-16.421s-7.366-16.421-16.421-16.421z"/><path fill="#FFD682" d="M185.44 280.72c-13.634 0-24.729-11.09-24.729-24.729 0-13.634 11.094-24.729 24.729-24.729 13.634 0 24.729 11.095 24.729 24.729-.001 13.639-11.095 24.729-24.729 24.729zm0-41.15c-9.054 0-16.421 7.367-16.421 16.421 0 9.055 7.367 16.421 16.421 16.421s16.421-7.366 16.421-16.421c0-9.054-7.367-16.421-16.421-16.421zm26.262 123.627h-8.308v-61.61h-35.916v61.61h-8.308v-69.918h52.532z"/><path fill="#F15A29" d="M363.222 363.197h-8.308V252.998h-35.917v110.199h-8.308V244.69h52.533z"/></svg>