<svg xmlns="http://www.w3.org/2000/svg" width="512" height="512" viewBox="0 0 512 512"><path d="M449.887 330.85h40.209v6.312h-40.209zm45.968 0h15.756v6.312h-15.756z" fill="#D4EEF8"/><g fill="#D4EEF8"><path d="M15.334 157.343h36.704v4.495H15.334z"/><path d="M31.431 141.231h4.479v36.72h-4.479z"/></g><g fill="#FDBA12"><path d="M455.663 136.736h36.688v4.495h-36.688z"/><path d="M471.76 120.624h4.495v36.72h-4.495z"/></g><g fill="#D4EEF8"><path d="M402.247 408.118h36.703v4.495h-36.703z"/><path d="M418.344 392.022h4.494v36.703h-4.494z"/></g><path fill="#FDBA12" d="M30.977 288.905c0 8.664-7.026 15.674-15.674 15.674-8.649 0-15.691-7.01-15.691-15.674 0-8.648 7.042-15.658 15.691-15.658 8.648 0 15.674 7.01 15.674 15.658z"/><path fill="#D4EEF8" d="M71.607 232.097c0 5.403-4.381 9.784-9.785 9.784-5.387 0-9.784-4.381-9.784-9.784s4.397-9.784 9.784-9.784c5.404 0 9.785 4.381 9.785 9.784z"/><path fill="#FDBA12" d="M456.215 375.975c0 5.403-4.381 9.784-9.784 9.784-5.387 0-9.784-4.381-9.784-9.784s4.397-9.784 9.784-9.784c5.403-.001 9.784 4.38 9.784 9.784z"/><path fill="#D4EEF8" d="M495.84 366.206a4.958 4.958 0 0 1-4.949 4.949c-2.742 0-4.965-2.223-4.965-4.949a4.965 4.965 0 0 1 4.965-4.965c2.725 0 4.949 2.223 4.949 4.965zM394.264 116.194c0-7.27 5.906-13.176 13.159-13.176 7.27 0 13.176 5.906 13.176 13.176 0 7.269-5.906 13.159-13.176 13.159-7.253 0-13.159-5.89-13.159-13.159zm65.83 89.292c0-3.83 3.115-6.961 6.944-6.961 3.862 0 6.978 3.131 6.978 6.961a6.952 6.952 0 0 1-6.978 6.961 6.945 6.945 0 0 1-6.944-6.961z"/><path fill="#E7E9ED" d="M260.154 423.217c-45.206 0-87.702-17.605-119.667-49.555-31.965-31.966-49.555-74.462-49.555-119.667 0-45.206 17.589-87.703 49.555-119.668 31.965-31.966 74.462-49.571 119.667-49.571 45.206 0 87.703 17.605 119.668 49.571 31.966 31.965 49.571 74.462 49.571 119.668s-17.605 87.702-49.571 119.667c-31.965 31.949-74.462 49.555-119.668 49.555zm0-329.326c-88.27 0-160.087 71.817-160.087 160.104s71.817 160.087 160.087 160.087c88.287 0 160.104-71.801 160.104-160.087S348.441 93.891 260.154 93.891z"/><path fill="#FFF" d="M260.171 362.985c-60.199 0-109.007-48.809-109.007-108.991 0-60.199 48.808-109.007 109.007-109.007 60.183 0 108.991 48.808 108.991 109.007 0 60.183-48.808 108.991-108.991 108.991z"/><path fill="#485A93" d="M260.171 367.14c-62.397 0-113.161-50.756-113.161-113.145 0-62.398 50.764-113.162 113.161-113.162 62.39 0 113.145 50.764 113.145 113.162-.001 62.389-50.755 113.145-113.145 113.145zm0-217.999c-57.818 0-104.854 47.036-104.854 104.854 0 57.805 47.036 104.837 104.854 104.837 57.806 0 104.837-47.032 104.837-104.837 0-57.818-47.031-104.854-104.837-104.854z"/><path fill="#A2D8CB" d="M260.171 327.678c-40.638 0-73.699-33.053-73.699-73.683 0-40.639 33.061-73.699 73.699-73.699 40.63 0 73.683 33.061 73.683 73.699 0 40.63-33.053 73.683-73.683 73.683zm0-139.075c-36.059 0-65.392 29.333-65.392 65.392 0 36.046 29.333 65.375 65.392 65.375 36.046 0 65.375-29.328 65.375-65.375 0-36.059-29.329-65.392-65.375-65.392z"/><path fill="#8BD7F8" d="M128.646 291.834a4.153 4.153 0 0 1-3.752-2.369 4.144 4.144 0 0 1 1.963-5.533l83.305-39.689 98.127 30.229 73.691-65.286a4.157 4.157 0 0 1 5.866.353 4.153 4.153 0 0 1-.35 5.862l-77.195 68.385-99.491-30.651-80.384 38.293a4.109 4.109 0 0 1-1.78.406z"/><path fill="#FFD682" d="M211.671 304.012l-84.043-21.143a4.16 4.16 0 0 1-3.014-5.047c.563-2.223 2.827-3.529 5.042-3.018l79.646 20.039 68.207-63.907 67.695 47.446 45.125-31.792a4.165 4.165 0 0 1 5.793 1.002 4.163 4.163 0 0 1-1.007 5.789l-49.895 35.158-66.949-46.926-66.6 62.399z"/><path fill="#F15A29" d="M282.896 301.959l-73.212-14.425-82.615-33.702a4.157 4.157 0 0 1-2.272-5.419 4.176 4.176 0 0 1 5.42-2.271l81.845 33.474 68.174 13.354 62.674-60.848h47.063c2.296 0 4.154 1.858 4.154 4.154s-1.858 4.154-4.154 4.154h-43.688l-63.389 61.529z"/></svg>