<svg xmlns="http://www.w3.org/2000/svg" width="512" height="512" viewBox="0 0 512 512"><path d="M449.74 322.125h40.209v6.312H449.74zm45.969 0h15.756v6.312h-15.756z" fill="#D4EEF8"/><g fill="#D4EEF8"><path d="M15.188 148.619h36.704v4.495H15.188z"/><path d="M31.284 132.506h4.479v36.72h-4.479z"/></g><g fill="#FDBA12"><path d="M455.518 128.012h36.687v4.495h-36.687z"/><path d="M471.613 111.899h4.495v36.72h-4.495z"/></g><g fill="#D4EEF8"><path d="M402.101 399.394h36.704v4.495h-36.704z"/><path d="M418.197 383.298h4.494v36.703h-4.494z"/></g><path fill="#FDBA12" d="M30.83 280.181c0 8.664-7.026 15.674-15.674 15.674-8.649 0-15.691-7.01-15.691-15.674 0-8.648 7.042-15.658 15.691-15.658 8.648-.001 15.674 7.009 15.674 15.658z"/><path fill="#D4EEF8" d="M71.46 223.373c0 5.403-4.381 9.785-9.785 9.785-5.387 0-9.784-4.381-9.784-9.785s4.397-9.784 9.784-9.784c5.404-.001 9.785 4.38 9.785 9.784z"/><path fill="#FDBA12" d="M456.068 367.25c0 5.403-4.381 9.784-9.784 9.784-5.387 0-9.784-4.381-9.784-9.784s4.397-9.784 9.784-9.784c5.404 0 9.784 4.381 9.784 9.784z"/><path fill="#D4EEF8" d="M495.693 357.481a4.958 4.958 0 0 1-4.949 4.949c-2.742 0-4.965-2.223-4.965-4.949a4.965 4.965 0 0 1 4.965-4.965c2.726.001 4.949 2.223 4.949 4.965zM394.117 107.469c0-7.27 5.906-13.176 13.159-13.176 7.27 0 13.176 5.906 13.176 13.176s-5.906 13.159-13.176 13.159c-7.253 0-13.159-5.889-13.159-13.159zm65.83 89.293c0-3.829 3.115-6.961 6.944-6.961 3.862 0 6.978 3.132 6.978 6.961a6.952 6.952 0 0 1-6.978 6.961 6.946 6.946 0 0 1-6.944-6.961z"/><path fill="#E7E9ED" d="M264.471 418.427c-45.207 0-87.703-17.604-119.668-49.555-31.966-31.965-49.555-74.461-49.555-119.667s17.589-87.702 49.555-119.668c31.965-31.965 74.461-49.571 119.668-49.571 45.206 0 87.702 17.605 119.668 49.571 31.965 31.966 49.57 74.462 49.57 119.668 0 45.207-17.605 87.703-49.57 119.667-31.966 31.95-74.462 49.555-119.668 49.555zm0-329.326c-88.271 0-160.087 71.817-160.087 160.104S176.2 409.292 264.471 409.292c88.286 0 160.104-71.801 160.104-160.087S352.757 89.101 264.471 89.101z"/><path fill="#FFF" d="M402.101 316.535c0 22.611-18.319 40.938-40.938 40.938h-203.46c-22.619 0-40.955-18.327-40.955-40.938V193.557c0-22.611 18.335-40.931 40.955-40.931h203.46c22.619 0 40.938 18.319 40.938 40.931v122.978z"/><path fill="#485A93" d="M361.162 361.628h-203.46c-24.875 0-45.108-20.227-45.108-45.093V193.557c0-24.858 20.234-45.084 45.108-45.084h203.46c24.866 0 45.093 20.226 45.093 45.084v122.978c0 24.866-20.227 45.093-45.093 45.093zM157.702 156.78c-20.291 0-36.801 16.498-36.801 36.777v122.978c0 20.282 16.51 36.784 36.801 36.784h203.46c20.282 0 36.785-16.502 36.785-36.784V193.557c0-20.279-16.503-36.777-36.785-36.777h-203.46z"/><path fill="#FFD682" d="M198.325 247.671l-53.011-26.477v-95.089h53.011v121.566zm-44.703-31.612l36.395 18.177v-99.823h-36.395v81.646z"/><path fill="#F15A29" d="M312.792 250.592V101.636h53.011v120.65l-53.011 28.306zm8.308-140.648v126.791l36.396-19.431v-107.36H321.1z"/><path fill="#A2D8CB" d="M259.521 278.761L231.313 264.7V110.601h53.011V265.09l-24.803 13.671zm-19.901-19.204l19.707 9.825 16.688-9.192V118.909H239.62v140.648z"/><path fill="#FFF" d="M259.433 429.022c-36.777 0-66.593-29.815-66.593-66.575 0-36.777 29.816-66.593 66.593-66.593 36.769 0 66.575 29.815 66.575 66.593 0 36.76-29.807 66.575-66.575 66.575z"/><path fill="#8BD7F8" d="M259.433 433.177c-39.008 0-70.747-31.73-70.747-70.729 0-39.008 31.738-70.746 70.747-70.746 38.999 0 70.729 31.738 70.729 70.746 0 38.998-31.73 70.729-70.729 70.729zm0-133.168c-34.428 0-62.438 28.006-62.438 62.438 0 34.415 28.01 62.422 62.438 62.422 34.415 0 62.422-28.007 62.422-62.422-.001-34.432-28.007-62.438-62.422-62.438z"/><path fill="#485A93" d="M259.465 278.744l-143.602-72.636a4.155 4.155 0 0 1-1.833-5.582 4.136 4.136 0 0 1 5.582-1.833l139.772 70.706 138.611-73.273a4.164 4.164 0 0 1 5.614 1.728 4.157 4.157 0 0 1-1.736 5.614l-142.408 75.276z"/><path fill="#A2D8CB" d="M289.621 398.396a4.142 4.142 0 0 1-2.938-1.218l-31.414-31.422v-33.75c0-2.296 1.858-4.154 4.154-4.154s4.154 1.858 4.154 4.154v30.311l28.979 28.988a4.15 4.15 0 0 1 0 5.873 4.13 4.13 0 0 1-2.935 1.218z"/></svg>