<svg xmlns="http://www.w3.org/2000/svg" width="512" height="512" viewBox="0 0 512 512"><path d="M449.74 328.233h40.209v6.312H449.74zm45.969 0h15.756v6.312h-15.756z" fill="#D4EEF8"/><g fill="#D4EEF8"><path d="M15.188 154.727h36.704v4.495H15.188z"/><path d="M31.292 138.614h4.479v36.72h-4.479z"/></g><g fill="#FDBA12"><path d="M455.518 134.12h36.695v4.495h-36.695z"/><path d="M471.622 118.007h4.486v36.72h-4.486z"/></g><g fill="#D4EEF8"><path d="M402.101 405.502h36.704v4.495h-36.704z"/><path d="M418.205 389.406h4.486v36.703h-4.486z"/></g><path fill="#FDBA12" d="M30.83 286.289c0 8.664-7.026 15.674-15.674 15.674-8.649 0-15.691-7.01-15.691-15.674 0-8.649 7.042-15.658 15.691-15.658 8.648 0 15.674 7.009 15.674 15.658z"/><path fill="#D4EEF8" d="M71.468 229.481c0 5.403-4.389 9.784-9.792 9.784-5.387 0-9.784-4.381-9.784-9.784s4.397-9.785 9.784-9.785c5.403 0 9.792 4.382 9.792 9.785z"/><path fill="#FDBA12" d="M456.077 373.358c0 5.403-4.381 9.784-9.793 9.784-5.387 0-9.784-4.381-9.784-9.784s4.397-9.784 9.784-9.784c5.412 0 9.793 4.381 9.793 9.784z"/><path fill="#D4EEF8" d="M495.693 363.59c0 2.727-2.215 4.949-4.949 4.949s-4.965-2.223-4.965-4.949c0-2.742 2.23-4.965 4.965-4.965s4.949 2.223 4.949 4.965zM394.117 113.578c0-7.27 5.906-13.176 13.159-13.176 7.278 0 13.185 5.906 13.185 13.176 0 7.269-5.906 13.159-13.185 13.159-7.253 0-13.159-5.89-13.159-13.159zm65.83 89.292c0-3.83 3.115-6.961 6.944-6.961 3.862 0 6.985 3.131 6.985 6.961 0 3.862-3.123 6.961-6.985 6.961a6.946 6.946 0 0 1-6.944-6.961z"/><path fill="#E7E9ED" d="M264.479 424.535c-45.206 0-87.702-17.605-119.668-49.555-31.965-31.965-49.563-74.462-49.563-119.667 0-45.206 17.597-87.703 49.563-119.668 31.966-31.965 74.462-49.571 119.668-49.571s87.702 17.605 119.66 49.571c31.974 31.965 49.57 74.462 49.57 119.668s-17.597 87.703-49.57 119.667c-31.958 31.95-74.454 49.555-119.66 49.555zm0-329.326c-88.278 0-160.095 71.817-160.095 160.104S176.2 415.4 264.479 415.4c88.286 0 160.104-71.801 160.104-160.087S352.765 95.209 264.479 95.209z"/><path fill="#FFD682" d="M370.135 191.406H252.017v-42.805h118.118v42.805zm-109.811-8.307h101.503V156.91H260.324v26.189z"/><path fill="#A2D8CB" d="M370.135 275.669H252.017v-42.805h118.118v42.805zm-109.811-8.309h101.503v-26.188H260.324v26.188z"/><path fill="#FFF" d="M256.171 317.297h109.811v34.497H256.171z"/><path fill="#485A93" d="M370.135 355.947H252.017v-42.805h118.118v42.805zm-109.811-8.307h101.503v-26.188H260.324v26.188z"/><path fill="#FFD682" d="M202.535 205.547c-19.597 0-35.543-15.942-35.543-35.535 0-19.602 15.946-35.552 35.543-35.552s35.543 15.95 35.543 35.552c.001 19.593-15.946 35.535-35.543 35.535zm0-62.779c-15.017 0-27.235 12.223-27.235 27.244 0 15.013 12.218 27.227 27.235 27.227 15.018 0 27.236-12.214 27.236-27.227 0-15.021-12.218-27.244-27.236-27.244z"/><path fill="#FFD682" d="M195.988 186.186l-13.642-17.962a4.145 4.145 0 0 1 .795-5.817 4.149 4.149 0 0 1 5.817.795l8.247 10.855 19.674-17.297a4.153 4.153 0 1 1 5.485 6.238l-26.376 23.188z"/><path fill="#A2D8CB" d="M202.535 289.81c-19.597 0-35.543-15.942-35.543-35.543 0-19.597 15.946-35.543 35.543-35.543s35.543 15.946 35.543 35.543c.001 19.6-15.946 35.543-35.543 35.543zm0-62.779c-15.017 0-27.235 12.218-27.235 27.235s12.218 27.236 27.235 27.236c15.018 0 27.236-12.219 27.236-27.236s-12.218-27.235-27.236-27.235z"/><path fill="#A2D8CB" d="M195.988 270.443l-13.642-17.938a4.156 4.156 0 0 1 .791-5.821 4.156 4.156 0 0 1 5.821.791l8.247 10.843 19.674-17.297a4.162 4.162 0 0 1 5.862.377 4.154 4.154 0 0 1-.377 5.862l-26.376 23.183z"/><path fill="#FFF" d="M233.925 334.545c0 17.346-14.06 31.39-31.39 31.39-17.346 0-31.39-14.044-31.39-31.39 0-17.329 14.044-31.39 31.39-31.39 17.33 0 31.39 14.061 31.39 31.39z"/><path fill="#485A93" d="M202.535 370.089c-19.597 0-35.543-15.942-35.543-35.544 0-19.601 15.946-35.543 35.543-35.543s35.543 15.942 35.543 35.543c.001 19.601-15.946 35.544-35.543 35.544zm0-62.779c-15.017 0-27.235 12.219-27.235 27.235 0 15.018 12.218 27.236 27.235 27.236 15.018 0 27.236-12.219 27.236-27.236 0-15.017-12.218-27.235-27.236-27.235z"/><path fill="#FFF" d="M185.652 330.277l10.945 14.393 23.025-20.242"/><path fill="#485A93" d="M195.988 350.73l-13.642-17.938a4.162 4.162 0 0 1 .791-5.825 4.17 4.17 0 0 1 5.821.795l8.247 10.847 19.674-17.305a4.162 4.162 0 0 1 5.862.381 4.16 4.16 0 0 1-.377 5.866l-26.376 23.179z"/></svg>