<svg xmlns="http://www.w3.org/2000/svg" width="512" height="512" viewBox="0 0 512 512"><path d="M450.275 320.978h40.209v6.312h-40.209zm45.969 0H512v6.312h-15.756z" fill="#D4EEF8"/><g fill="#D4EEF8"><path d="M15.723 147.472h36.704v4.494H15.723z"/><path d="M31.828 131.358h4.479v36.72h-4.479z"/></g><g fill="#FDBA12"><path d="M456.053 126.864h36.695v4.494h-36.695z"/><path d="M472.157 110.76h4.486v36.712h-4.486z"/></g><g fill="#D4EEF8"><path d="M402.636 398.246h36.704v4.495h-36.704z"/><path d="M418.74 382.15h4.486v36.703h-4.486z"/></g><path fill="#FDBA12" d="M31.365 279.041c0 8.665-7.026 15.666-15.674 15.666S0 287.706 0 279.041c0-8.656 7.042-15.666 15.691-15.666s15.674 7.01 15.674 15.666z"/><path fill="#D4EEF8" d="M72.003 222.226c0 5.403-4.389 9.784-9.792 9.784-5.387 0-9.784-4.381-9.784-9.784s4.397-9.785 9.784-9.785c5.403-.001 9.792 4.381 9.792 9.785z"/><path fill="#FDBA12" d="M456.612 366.103c0 5.403-4.381 9.784-9.793 9.784-5.387 0-9.784-4.381-9.784-9.784s4.397-9.776 9.784-9.776c5.412-.001 9.793 4.372 9.793 9.776z"/><path fill="#D4EEF8" d="M496.229 356.334c0 2.727-2.215 4.949-4.949 4.949s-4.965-2.223-4.965-4.949c0-2.742 2.23-4.965 4.965-4.965s4.949 2.223 4.949 4.965zM394.652 106.322c0-7.27 5.906-13.176 13.159-13.176 7.278 0 13.185 5.906 13.185 13.176 0 7.269-5.906 13.159-13.185 13.159-7.252 0-13.159-5.89-13.159-13.159zm65.83 89.3c0-3.837 3.115-6.969 6.944-6.969 3.862 0 6.985 3.132 6.985 6.969 0 3.854-3.123 6.953-6.985 6.953a6.943 6.943 0 0 1-6.944-6.953z"/><path fill="#485A93" d="M268.454 405.653h-23.463c-8.616 0-16.214-5.841-18.486-14.197l-1.127-4.228c-8.62-3.602-14.438-12.039-14.438-21.791v-7.042a13.736 13.736 0 0 1-.746-2.824c-2.105-13.476-8.409-26.221-17.748-35.827-15.869-16.518-24.712-38.164-24.927-60.99-.244-23.994 8.823-46.568 25.52-63.562 16.705-16.997 39.125-26.457 63.136-26.635 49.834-.005 89.84 40.037 89.84 89.252 0 23.243-8.892 45.246-25.053 61.967-9.477 9.825-15.577 22.198-17.646 35.787a14.616 14.616 0 0 1-.778 2.872v7.074c0 9.59-5.906 18.101-14.426 21.711l-1.127 4.211c-2.273 8.382-9.891 14.222-18.531 14.222zm-11.622-220.484c-20.096.149-38.355 7.841-51.94 21.67-13.585 13.82-20.956 32.2-20.757 51.753.175 18.575 7.371 36.188 20.263 49.6 11.679 12.023 19.585 27.974 22.222 44.89l.937 2.279v10.077a6.985 6.985 0 0 0 5.935 6.937l5.347.844 3.716 13.922c.304 1.12 1.286 1.898 2.438 1.898h23.463c1.176 0 2.174-.778 2.49-1.931l3.724-13.931 5.388-.811c3.343-.495 5.865-3.448 5.865-6.856v-10.214l.941-2.434c2.62-16.803 10.263-32.307 22.148-44.622 13.151-13.614 20.389-31.52 20.389-50.431-.002-40.054-32.551-72.64-72.569-72.64z"/><path fill="#FFD682" d="M256.746 150.286c5.022 0 9.144-4.04 9.144-9.135v-31.966c0-5.006-4.04-9.144-9.144-9.144a9.101 9.101 0 0 0-9.119 9.144v31.966c0 5.095 4.13 9.135 9.119 9.135z"/><path fill="#8BD7F8" d="M149.305 257.736c0-4.99-4.041-9.119-9.119-9.119h-31.99c-4.99 0-9.119 4.057-9.119 9.119 0 5.021 4.056 9.135 9.119 9.135h31.99c5.079 0 9.119-4.057 9.119-9.135z"/><path fill="#485A93" d="M405.297 248.617h-31.966c-4.989 0-9.119 4.057-9.119 9.119 0 5.021 4.057 9.135 9.119 9.135h31.966c5.047 0 9.16-4.057 9.16-9.135 0-4.99-4.057-9.119-9.16-9.119zm-237.389 85.139l-22.644 22.651c-3.602 3.586-3.602 9.313 0 12.924 1.745 1.745 4.113 2.621 6.409 2.621 2.288 0 4.673-.876 6.442-2.621l22.644-22.668c3.57-3.586 3.57-9.338 0-12.907-3.512-3.586-9.338-3.586-12.851 0z"/><path fill="#F15A29" d="M339.199 184.442c2.288 0 4.657-.876 6.41-2.637l22.659-22.651a9.089 9.089 0 0 0 0-12.908c-3.562-3.603-9.321-3.603-12.907 0l-22.66 22.651c-3.61 3.587-3.61 9.314 0 12.908 1.834 1.761 4.113 2.637 6.498 2.637z"/><path fill="#A2D8CB" d="M167.908 181.749c1.745 1.744 4.113 2.62 6.426 2.62 2.296 0 4.681-.876 6.425-2.62a9.137 9.137 0 0 0 0-12.924l-22.644-22.652c-3.602-3.586-9.362-3.586-12.908 0-3.602 3.595-3.602 9.322 0 12.925l22.701 22.651z"/><path fill="#8BD7F8" d="M345.609 333.756a9.089 9.089 0 0 0-12.908 0c-3.61 3.569-3.61 9.321 0 12.907l22.66 22.668c1.752 1.745 4.097 2.621 6.409 2.621 2.296 0 4.681-.876 6.426-2.621 3.569-3.61 3.569-9.338 0-12.924l-22.587-22.651z"/></svg>