<svg id="Layer_1" xmlns="http://www.w3.org/2000/svg" viewBox="0 0 100 100"><style>.st0{fill:#8ad6f7}.st1{fill:#fff}.st2{fill:#475a92}.st3{fill:#ffd480}.st4{fill:#a1d7cb}.st5{fill:#f05a29}</style><path class="st0" d="M100 81.9l-6-.9c-.4-.1-10.9-1.6-19.6-5.8l-2.2-1.1 1.5-2C77.8 66.8 80 60.5 80 54c0-17.8-16.2-32.2-36.2-32.2-7.7 0-15 2.1-21.2 6.1l-6.5 4.2 3.6-6.8c6.7-12.6 21-20.7 36.4-20.7 22.2 0 40.2 16.3 40.2 36.3 0 6.9-2.2 13.6-6.3 19.4.8 8.3 2.8 14.5 5.7 17.3l4.3 4.3zm-21.6-9.3c4.1 1.7 8.4 2.8 11.5 3.5-2.5-4.8-3.5-11.1-3.9-16.2l-.1-.8.4-.6c3.9-5.3 5.9-11.4 5.9-17.7C92.3 23.1 76 8.6 56.1 8.6c-11.1 0-21.4 4.6-28.2 12.1 5-2 10.4-3 16-3C66 17.7 84.1 34 84.1 54c0 6.6-2 13-5.7 18.6z"/><path class="st1" d="M43.9 19.7C22.8 19.7 5.7 35.1 5.7 54c0 7 2.3 13.4 6.3 18.9-.5 6.2-2 15-6.3 19.3 0 0 12.9-1.8 21.8-7.1 1 .4 2.4.9 3.8 1.3 3.9 1.2 8.2 1.9 12.6 1.9C65 88.2 82.1 72.9 82.1 54S65 19.7 43.9 19.7z"/><path class="st2" d="M0 95l4.3-4.3c2.9-2.9 4.9-9 5.7-17.3C5.8 67.6 3.7 60.9 3.7 54c0-20 18-36.3 40.2-36.3C66 17.7 84.1 34 84.1 54S66 90.2 43.9 90.2c-4.5 0-8.9-.7-13.2-2-1.1-.2-2.1-.6-3-1-9 5.1-21.2 6.8-21.7 6.9L0 95zm43.9-73.2c-20 0-36.2 14.4-36.2 32.2 0 6.3 2 12.4 5.9 17.7l.4.6v.7c-.4 5.1-1.5 11.4-3.9 16.3 4.4-1 10.9-2.8 16.1-5.8l.2-.2.8-.6 1.1.5c.8.4 2.1.9 3.5 1.2 4 1.2 8 1.8 12.1 1.8C63.8 86.2 80 71.7 80 54c0-17.8-16.2-32.2-36.1-32.2z"/><path class="st3" d="M63 54H24.8c-1.4 0-2.5 1.1-2.5 2.5s1.1 2.5 2.5 2.5H63c1.4 0 2.5-1.1 2.5-2.5S64.4 54 63 54z"/><path class="st4" d="M63 42.8H24.8c-1.4 0-2.5 1.1-2.5 2.5s1.1 2.5 2.5 2.5H63c1.4 0 2.5-1.1 2.5-2.5s-1.1-2.5-2.5-2.5z"/><path class="st5" d="M63 65.2H24.8c-1.4 0-2.5 1.1-2.5 2.5s1.1 2.5 2.5 2.5H63c1.4 0 2.5-1.1 2.5-2.5s-1.1-2.5-2.5-2.5z"/></svg>