<svg xmlns="http://www.w3.org/2000/svg" width="512" height="512" viewBox="0 0 512 512"><path fill="#8BD7F8" d="M395.262 334.016a8.28 8.28 0 0 1-6.839-3.586l-61.043-88.355-151.354 57.047-86.355-150.089a8.303 8.303 0 0 1 3.059-11.342c3.976-2.284 9.058-.917 11.342 3.059l79.313 137.845 150.274-56.649 68.426 99.04c2.612 3.773 1.672 8.949-2.109 11.554a8.263 8.263 0 0 1-4.714 1.476z"/><path d="M449.773 320.978h40.209v6.313h-40.209zm45.969 0h15.756v6.313h-15.756z" fill="#D4EEF8"/><g fill="#D4EEF8"><path d="M15.221 147.472h36.704v4.494H15.221z"/><path d="M31.334 131.358h4.478v36.721h-4.478z"/></g><g fill="#FDBA12"><path d="M455.551 126.864h36.703v4.494h-36.703z"/><path d="M471.663 110.768h4.479v36.704h-4.479z"/></g><g fill="#D4EEF8"><path d="M402.134 398.247h36.703v4.494h-36.703z"/><path d="M418.246 382.15h4.479v36.703h-4.479z"/></g><path fill="#FDBA12" d="M30.863 279.049c0 8.665-7.026 15.659-15.674 15.659-8.649 0-15.691-6.994-15.691-15.659 0-8.664 7.042-15.674 15.691-15.674 8.648 0 15.674 7.01 15.674 15.674z"/><path fill="#D4EEF8" d="M71.51 222.226c0 5.403-4.397 9.784-9.801 9.784-5.387 0-9.784-4.381-9.784-9.784s4.397-9.784 9.784-9.784c5.403-.001 9.801 4.38 9.801 9.784z"/><path fill="#FDBA12" d="M456.118 366.103c0 5.403-4.381 9.784-9.801 9.784-5.387 0-9.784-4.381-9.784-9.784s4.397-9.769 9.784-9.769c5.42 0 9.801 4.365 9.801 9.769z"/><path fill="#D4EEF8" d="M495.727 356.334a4.947 4.947 0 0 1-4.949 4.949c-2.726 0-4.965-2.223-4.965-4.949a4.975 4.975 0 0 1 4.965-4.965 4.951 4.951 0 0 1 4.949 4.965zM394.15 106.322c0-7.27 5.906-13.176 13.159-13.176 7.286 0 13.192 5.906 13.192 13.176 0 7.269-5.906 13.159-13.192 13.159-7.252 0-13.159-5.89-13.159-13.159zm65.83 89.309c0-3.846 3.115-6.978 6.944-6.978 3.862 0 6.993 3.132 6.993 6.978s-3.131 6.944-6.993 6.944a6.942 6.942 0 0 1-6.944-6.944z"/><path fill="#19335E" d="M254.979 362.581c-61.619 0-111.75-50.114-111.75-111.717 0-61.618 50.13-111.749 111.75-111.749 61.602 0 111.717 50.131 111.717 111.749 0 61.603-50.115 111.717-111.717 111.717zm0-206.851c-52.455 0-95.134 42.679-95.134 95.134 0 52.435 42.679 95.102 95.134 95.102 52.443 0 95.101-42.667 95.101-95.102 0-52.455-42.658-95.134-95.101-95.134z"/><path fill="#F15D62" d="M309.223 250.856c0 29.97-24.29 54.244-54.244 54.244-29.97 0-54.277-24.274-54.277-54.244s24.307-54.261 54.277-54.261c29.954.001 54.244 24.292 54.244 54.261z"/><path fill="#FFF" d="M249.121 295.819v-10.466c-7.383-.341-14.539-2.435-18.741-4.755l3.327-12.884c4.625 2.516 11.131 4.836 18.287 4.836 6.394 0 10.693-2.531 10.693-6.815 0-4.219-3.537-6.847-11.78-9.605-11.796-3.976-19.861-9.477-19.861-20.153 0-9.833 6.847-17.427 18.627-19.633v-10.466h10.807v9.703c7.27.211 12.219 1.865 16.08 3.618l-3.294 12.462c-2.759-1.314-7.935-3.862-15.869-3.862-7.172 0-9.492 3.196-9.492 6.296 0 3.537 3.878 5.955 13.338 9.362 13.127 4.625 18.303 10.693 18.303 20.721 0 9.801-6.847 18.189-19.52 20.283v11.358h-10.905z"/><path fill="#8BD7F8" d="M416.396 361.089l-54.901-27.982c-4.089-2.077-5.711-7.082-3.626-11.172 2.077-4.08 7.082-5.72 11.172-3.626l30.399 15.487-.422-33.287a8.31 8.31 0 0 1 8.202-8.414c4.665.235 8.356 3.61 8.413 8.203l.763 60.791z"/></svg>