<svg xmlns="http://www.w3.org/2000/svg" width="512" height="512" viewBox="0 0 512 512"><path d="M450.275 320.45h40.209v6.312h-40.209zm45.969 0H512v6.312h-15.756z" fill="#D4EEF8"/><g fill="#D4EEF8"><path d="M15.723 146.944h36.704v4.494H15.723z"/><path d="M31.828 130.831h4.479v36.72h-4.479z"/></g><g fill="#FDBA12"><path d="M456.053 126.337h36.695v4.494h-36.695z"/><path d="M472.157 110.232h4.486v36.712h-4.486z"/></g><g fill="#D4EEF8"><path d="M402.636 397.719h36.704v4.495h-36.704z"/><path d="M418.74 381.623h4.486v36.703h-4.486z"/></g><path fill="#FDBA12" d="M31.365 278.514c0 8.665-7.026 15.666-15.674 15.666S0 287.179 0 278.514c0-8.656 7.042-15.666 15.691-15.666s15.674 7.009 15.674 15.666z"/><path fill="#D4EEF8" d="M72.003 221.698c0 5.403-4.389 9.784-9.792 9.784-5.387 0-9.784-4.381-9.784-9.784s4.397-9.785 9.784-9.785c5.403 0 9.792 4.382 9.792 9.785z"/><path fill="#FDBA12" d="M456.612 365.575c0 5.403-4.381 9.784-9.793 9.784-5.387 0-9.784-4.381-9.784-9.784s4.397-9.776 9.784-9.776c5.412 0 9.793 4.373 9.793 9.776z"/><path fill="#D4EEF8" d="M496.229 355.807c0 2.727-2.215 4.949-4.949 4.949s-4.965-2.223-4.965-4.949c0-2.742 2.23-4.965 4.965-4.965s4.949 2.222 4.949 4.965zM394.652 105.794c0-7.269 5.906-13.175 13.159-13.175 7.278 0 13.185 5.906 13.185 13.175 0 7.27-5.906 13.16-13.185 13.16-7.252 0-13.159-5.891-13.159-13.16zm65.83 89.301c0-3.837 3.115-6.969 6.944-6.969 3.862 0 6.985 3.132 6.985 6.969 0 3.854-3.123 6.953-6.985 6.953a6.944 6.944 0 0 1-6.944-6.953z"/><path fill="#19335E" d="M264.356 380.13c-68.073 0-123.457-55.372-123.457-123.433 0-68.076 55.384-123.465 123.457-123.465 68.069 0 123.44 55.389 123.44 123.465.001 68.061-55.37 123.433-123.44 123.433zm0-230.281c-58.913 0-106.841 47.932-106.841 106.849 0 58.901 47.928 106.817 106.841 106.817 58.901 0 106.825-47.916 106.825-106.817.001-58.918-47.923-106.849-106.825-106.849z"/><path fill="#8BD7F8" d="M418.74 256.697c0 23.975-19.447 43.43-43.453 43.43-23.982 0-43.438-19.455-43.438-43.43 0-24.006 19.455-43.47 43.438-43.47 24.006.001 43.453 19.464 43.453 43.47z"/><path fill="#FFF" d="M375.287 308.435c-28.534 0-51.746-23.211-51.746-51.737 0-28.55 23.212-51.777 51.746-51.777 28.541 0 51.761 23.228 51.761 51.777 0 28.526-23.22 51.737-51.761 51.737zm0-86.9c-19.374 0-35.13 15.772-35.13 35.162 0 19.366 15.756 35.122 35.13 35.122 19.382 0 35.146-15.756 35.146-35.122 0-19.389-15.764-35.162-35.146-35.162z"/><path fill="#A2D8CB" d="M196.848 256.697c0 23.975-19.455 43.43-43.445 43.43-23.999 0-43.446-19.455-43.446-43.43 0-24.006 19.447-43.47 43.446-43.47 23.99.001 43.445 19.464 43.445 43.47z"/><path fill="#FFF" d="M153.402 308.435c-28.538 0-51.753-23.211-51.753-51.737 0-28.55 23.215-51.777 51.753-51.777s51.753 23.228 51.753 51.777c0 28.526-23.215 51.737-51.753 51.737zm0-86.9c-19.374 0-35.138 15.772-35.138 35.162 0 19.366 15.764 35.122 35.138 35.122s35.138-15.756 35.138-35.122c0-19.389-15.764-35.162-35.138-35.162z"/><path fill="#F15A29" d="M264.349 102.298c23.982 0 43.453 19.438 43.453 43.438 0 23.99-19.471 43.445-43.453 43.445-23.999 0-43.438-19.455-43.438-43.445 0-24 19.439-43.438 43.438-43.438z"/><path fill="#FFF" d="M264.349 197.488c-28.534 0-51.746-23.216-51.746-51.753 0-28.534 23.212-51.745 51.746-51.745 28.542 0 51.762 23.211 51.762 51.745-.001 28.537-23.22 51.753-51.762 51.753zm0-86.883c-19.37 0-35.13 15.76-35.13 35.13 0 19.374 15.76 35.138 35.13 35.138 19.382 0 35.146-15.764 35.146-35.138-.001-19.37-15.765-35.13-35.146-35.13z"/><path fill="#FFD682" d="M264.349 324.174c23.982 0 43.453 19.472 43.453 43.462s-19.471 43.438-43.453 43.438c-23.999 0-43.438-19.447-43.438-43.438s19.439-43.462 43.438-43.462z"/><path fill="#FFF" d="M264.349 419.381c-28.534 0-51.746-23.211-51.746-51.745 0-28.542 23.212-51.77 51.746-51.77 28.542 0 51.762 23.228 51.762 51.77-.001 28.534-23.22 51.745-51.762 51.745zm0-86.9c-19.37 0-35.13 15.772-35.13 35.154 0 19.374 15.76 35.13 35.13 35.13 19.382 0 35.146-15.756 35.146-35.13-.001-19.381-15.765-35.154-35.146-35.154z"/><path fill="#19335E" d="M264.349 213.228c23.982 0 43.453 19.464 43.453 43.47 0 23.975-19.471 43.43-43.453 43.43-23.999 0-43.438-19.455-43.438-43.43 0-24.007 19.439-43.47 43.438-43.47z"/><path fill="#FFF" d="M264.349 308.435c-28.534 0-51.746-23.211-51.746-51.737 0-28.55 23.212-51.777 51.746-51.777 28.542 0 51.762 23.228 51.762 51.777-.001 28.526-23.22 51.737-51.762 51.737zm0-86.9c-19.37 0-35.13 15.772-35.13 35.162 0 19.366 15.76 35.122 35.13 35.122 19.382 0 35.146-15.756 35.146-35.122-.001-19.389-15.765-35.162-35.146-35.162z"/></svg>