<svg xmlns="http://www.w3.org/2000/svg" width="512" height="512" viewBox="0 0 512 512"><path d="M450.275 320.978h40.209v6.313h-40.209zm45.969 0H512v6.313h-15.756z" fill="#D4EEF8"/><g fill="#D4EEF8"><path d="M15.723 147.472h36.704v4.494H15.723z"/><path d="M31.828 131.358h4.479v36.72h-4.479z"/></g><g fill="#FDBA12"><path d="M456.052 126.864h36.696v4.494h-36.696z"/><path d="M472.156 110.76h4.487v36.712h-4.487z"/></g><g fill="#D4EEF8"><path d="M402.636 398.246h36.703v4.495h-36.703z"/><path d="M418.74 382.15h4.486v36.703h-4.486z"/></g><path fill="#FDBA12" d="M31.365 279.041c0 8.665-7.026 15.666-15.675 15.666-8.648 0-15.69-7.001-15.69-15.666 0-8.656 7.042-15.666 15.69-15.666 8.649 0 15.675 7.01 15.675 15.666z"/><path fill="#D4EEF8" d="M72.003 222.226c0 5.403-4.389 9.784-9.792 9.784-5.387 0-9.784-4.381-9.784-9.784s4.397-9.785 9.784-9.785c5.403-.001 9.792 4.381 9.792 9.785z"/><path fill="#FDBA12" d="M456.612 366.103c0 5.403-4.382 9.784-9.793 9.784-5.387 0-9.784-4.381-9.784-9.784s4.397-9.776 9.784-9.776c5.411-.001 9.793 4.372 9.793 9.776z"/><path fill="#D4EEF8" d="M496.229 356.334c0 2.727-2.215 4.949-4.949 4.949s-4.966-2.223-4.966-4.949c0-2.742 2.231-4.965 4.966-4.965s4.949 2.223 4.949 4.965zM394.652 106.322c0-7.27 5.906-13.176 13.159-13.176 7.277 0 13.184 5.906 13.184 13.176 0 7.269-5.906 13.159-13.184 13.159-7.252 0-13.159-5.89-13.159-13.159zm65.829 89.3c0-3.837 3.116-6.969 6.945-6.969 3.861 0 6.985 3.132 6.985 6.969 0 3.854-3.124 6.953-6.985 6.953a6.944 6.944 0 0 1-6.945-6.953z"/><g fill="#8BD7F8"><path d="M259.927 290.432c-17.743 0-42.188-28.81-42.188-49.721 0-29.041 18.928-52.662 42.188-52.662 23.269 0 42.212 23.621 42.212 52.662 0 20.445-24.859 49.721-42.212 49.721zm0-88.936c-15.853 0-28.761 17.59-28.761 39.215 0 14.23 19.114 36.27 28.761 36.27 8.56 0 28.753-21.459 28.753-36.27 0-21.625-12.901-39.215-28.753-39.215z"/><path d="M197.732 335.824l-12.153-5.776 9.241-19.431c6.912-14.604 26.538-19.333 38.083-20.858 1.915-1.753 5.176-8.827 7.034-15.398l12.94 3.658c-2.499 8.819-8.097 23.788-17.638 24.98-14.596 1.842-25.167 6.848-28.282 13.387l-9.225 19.438zm126.767 0l-9.241-19.423c-3.107-6.555-13.694-11.561-28.282-13.402-8.997-1.111-14.944-14.937-18.359-26.335l12.883-3.838c2.183 7.254 5.825 15.042 7.887 16.933 11.568 1.549 31.105 6.287 38.01 20.858l9.24 19.431-12.138 5.776z"/></g><path fill="#8BD7F8" d="M308.5 126.604c-31.325-11.261-66.576-11.78-99.775.856l15.204 35.786c23.35-8.515 47.948-8.21 70.024-.612l14.547-36.03zm50.982 170.165l36.192 14.928c11.269-31.333 11.025-68.32-.723-99.414l-35.786 15.208c7.481 20.887 7.903 47.201.317 69.278zm-198.608-68.191l-35.868-14.166c-11.269 31.32-12.9 63.972 1.014 100.14l35.778-15.195c-9.621-25.979-8.518-48.687-.924-70.779zm50.35 168.687c31.325 11.261 66.576 11.78 99.774-.868l-15.22-35.762c-23.35 8.494-47.932 8.202-70.008.592l-14.546 36.038z"/><path fill="#485A93" d="M199.241 119.311c-78.64 33.426-115.425 124.601-82.007 203.249 33.426 78.632 124.601 115.425 203.249 82.007 78.632-33.434 115.425-124.608 81.999-203.257-33.426-78.64-124.601-115.425-203.241-81.999zm191.387 82.793l-35.778 15.208c-12.016-24.968-29.134-39.937-50.31-49.79l14.701-35.66c30.367 13.617 54.999 35.105 71.387 70.242zM225.771 361.227c22.076 7.61 46.658 7.902 70.008-.592l15.22 35.762c-33.198 12.648-68.45 12.129-99.774.868l14.546-36.038zm80.206-4.941c22.327-10.904 39.178-28.826 49.044-49.993l36.038 14.547c-13.63 30.367-37.718 56.102-69.87 71.232l-15.212-35.786zm-9.314-7.765c-47.738 20.299-103.102-2.028-123.376-49.773-20.315-47.762 2.028-103.113 49.766-123.408 47.754-20.295 103.109 2.045 123.399 49.798 20.3 47.746-2.036 103.092-49.789 123.383zm-2.71-185.886c-22.084-7.598-46.675-7.902-70.024.612l-15.204-35.786c33.199-12.637 68.45-12.117 99.775-.856l-14.547 36.03zm-80.206 4.945c-22.335 10.899-39.194 28.821-49.043 49.988l-36.039-14.534c13.63-30.363 37.718-56.11 69.862-71.241l15.22 35.787zm-88.911 46.463l36.184 14.916c-7.578 22.076-8.843 44.419.787 70.397l-35.787 15.195c-13.914-36.167-12.445-69.188-1.184-100.508zm5.517 110.707l35.779-15.212c9.866 19.877 28.509 38.432 49.668 48.313l-14.376 36.396c-30.36-13.622-56.841-39.471-71.071-69.497zm265.16-13.435l-35.876-14.166c7.602-22.084 7.01-48.771-.471-69.659l35.786-15.208c11.748 31.094 11.829 67.716.561 99.033z"/></svg>