<svg xmlns="http://www.w3.org/2000/svg" width="512" height="512" viewBox="0 0 512 512"><path d="M450.275 320.978h40.209v6.312h-40.209zm45.969 0H512v6.312h-15.756z" fill="#D4EEF8"/><g fill="#D4EEF8"><path d="M15.723 147.472h36.704v4.494H15.723z"/><path d="M31.828 131.358h4.479v36.72h-4.479z"/></g><g fill="#FDBA12"><path d="M456.053 126.864h36.695v4.494h-36.695z"/><path d="M472.157 110.76h4.486v36.712h-4.486z"/></g><g fill="#D4EEF8"><path d="M402.636 398.246h36.703v4.495h-36.703z"/><path d="M418.74 382.15h4.486v36.703h-4.486z"/></g><path fill="#FDBA12" d="M31.365 279.041c0 8.665-7.026 15.666-15.674 15.666C7.042 294.707 0 287.706 0 279.041c0-8.656 7.042-15.666 15.691-15.666 8.648 0 15.674 7.01 15.674 15.666z"/><path fill="#D4EEF8" d="M72.003 222.226c0 5.403-4.389 9.784-9.792 9.784-5.387 0-9.784-4.381-9.784-9.784s4.397-9.785 9.784-9.785c5.403-.001 9.792 4.381 9.792 9.785z"/><path fill="#FDBA12" d="M456.612 366.103c0 5.403-4.381 9.784-9.793 9.784-5.387 0-9.784-4.381-9.784-9.784s4.397-9.776 9.784-9.776c5.412-.001 9.793 4.372 9.793 9.776z"/><path fill="#D4EEF8" d="M496.229 356.334c0 2.727-2.215 4.949-4.949 4.949s-4.965-2.223-4.965-4.949c0-2.742 2.23-4.965 4.965-4.965s4.949 2.223 4.949 4.965zM394.652 106.321c0-7.269 5.906-13.175 13.159-13.175 7.278 0 13.185 5.906 13.185 13.175 0 7.27-5.906 13.16-13.185 13.16-7.252 0-13.159-5.89-13.159-13.16zm65.83 89.301c0-3.837 3.115-6.969 6.944-6.969 3.862 0 6.985 3.132 6.985 6.969 0 3.854-3.123 6.953-6.985 6.953a6.943 6.943 0 0 1-6.944-6.953z"/><path fill="#19335E" d="M222.817 316.288h111.036c11.106 0 20.137-9.021 20.137-20.129V168.313a4.787 4.787 0 0 0-4.795-4.786H139.618l-9.931-19.325c-5.225-10.166-15.577-16.479-27-16.479H82.494a4.798 4.798 0 0 0-4.794 4.795 4.794 4.794 0 0 0 4.794 4.795h20.194c7.821 0 14.896 4.316 18.465 11.277l79.216 154.003a24.84 24.84 0 0 0 5.363 7.05l-28.566 38.099C164.412 349 154.4 359.782 154.4 372.869c0 13.913 11.334 25.247 25.248 25.247 13.922 0 25.256-11.334 25.256-25.247 0-5.915-2.052-11.351-5.468-15.658h109.526a25.062 25.062 0 0 0-5.46 15.658c0 13.913 11.326 25.247 25.24 25.247s25.248-11.334 25.248-25.247c0-13.931-11.318-25.257-25.248-25.257H189.246l24.688-32.923a25.424 25.424 0 0 0 8.883 1.599zm-43.169 72.231c-8.632 0-15.658-7.01-15.658-15.649 0-8.633 7.018-15.658 15.65-15.658h.008c8.632 0 15.674 7.025 15.674 15.658 0 8.639-7.042 15.649-15.674 15.649zm164.752-15.65c0 8.64-7.026 15.649-15.658 15.649-8.633 0-15.658-7.01-15.658-15.649 0-8.633 7.025-15.658 15.658-15.658 8.632 0 15.658 7.025 15.658 15.658zM144.559 173.108H344.4v123.051c0 5.817-4.722 10.548-10.547 10.548H222.817c-5.898 0-11.229-3.262-13.938-8.495l-64.32-125.104z"/><path fill="#FFF" d="M375.019 182.106c0 43.948-35.632 79.581-79.589 79.581a79.685 79.685 0 0 1-22.214-3.14c-9.816-2.848-40.281 18.335-48.143 12.21-4.665-3.643 12.518-33.67 8.77-38.245-11.245-13.728-17.995-31.276-17.995-50.406 0-43.957 35.632-79.59 79.581-79.59 43.958.001 79.59 35.633 79.59 79.59z"/><path fill="#8BD7F8" d="M229.089 280.185c-3.606 0-6.677-.965-9.123-2.872-7.225-5.646-3.517-15.402 1.623-28.906 1.412-3.716 3.639-9.565 4.296-12.555-11.845-15.326-18.344-34.314-18.344-53.745 0-48.468 39.426-87.897 87.889-87.897 48.468 0 87.897 39.43 87.897 87.897 0 48.463-39.43 87.889-87.897 87.889a87.88 87.88 0 0 1-24.526-3.473c-2.993.065-11.11 3.537-17.037 6.061-9.144 3.909-17.784 7.601-24.778 7.601zm66.341-169.361c-39.3 0-71.273 31.978-71.273 71.282 0 16.425 5.724 32.456 16.113 45.141 4.88 5.955 1.683 14.353-3.152 27.069-.88 2.309-2.064 5.432-3.006 8.202 3.935-1.241 8.929-3.375 13.229-5.213 10.941-4.665 21.163-8.778 28.189-6.737a71.403 71.403 0 0 0 19.901 2.811c39.308 0 71.281-31.974 71.281-71.272-.001-39.305-31.975-71.283-71.282-71.283z"/><path fill="#FFD682" d="M290.156 222.753v-9.46c-6.677-.301-13.151-2.19-16.94-4.284l2.994-11.658c4.187 2.288 10.06 4.381 16.542 4.381 5.776 0 9.663-2.288 9.663-6.174 0-3.789-3.188-6.183-10.66-8.673-10.661-3.586-17.938-8.567-17.938-18.23 0-8.867 6.183-15.747 16.843-17.735v-9.468h9.76v8.771c6.58.194 11.059 1.695 14.547 3.286l-2.985 11.261c-2.491-1.201-7.172-3.489-14.353-3.489-6.474 0-8.567 2.889-8.567 5.68 0 3.188 3.489 5.379 12.057 8.47 11.861 4.187 16.542 9.663 16.542 18.733 0 8.867-6.182 16.438-17.638 18.327v10.264h-9.867z"/></svg>