<svg xmlns="http://www.w3.org/2000/svg" width="512" height="512" viewBox="0 0 512 512"><path d="M450.275 320.978h40.209v6.312h-40.209zm45.969 0H512v6.312h-15.756z" fill="#D4EEF8"/><g fill="#D4EEF8"><path d="M15.723 147.472h36.704v4.494H15.723z"/><path d="M31.828 131.358h4.479v36.72h-4.479z"/></g><g fill="#FDBA12"><path d="M456.053 126.864h36.695v4.494h-36.695z"/><path d="M472.156 110.76h4.487v36.712h-4.487z"/></g><g fill="#D4EEF8"><path d="M402.636 398.246h36.703v4.495h-36.703z"/><path d="M418.74 382.15h4.486v36.703h-4.486z"/></g><path fill="#FDBA12" d="M31.365 279.041c0 8.665-7.026 15.666-15.674 15.666C7.042 294.707 0 287.706 0 279.041c0-8.656 7.042-15.666 15.691-15.666 8.648 0 15.674 7.01 15.674 15.666z"/><path fill="#D4EEF8" d="M72.003 222.226c0 5.403-4.389 9.784-9.792 9.784-5.387 0-9.784-4.381-9.784-9.784s4.397-9.785 9.784-9.785c5.403-.001 9.792 4.381 9.792 9.785z"/><path fill="#FDBA12" d="M456.612 366.103c0 5.403-4.381 9.784-9.793 9.784-5.387 0-9.784-4.381-9.784-9.784s4.397-9.776 9.784-9.776c5.412-.001 9.793 4.372 9.793 9.776z"/><path fill="#D4EEF8" d="M496.229 356.334c0 2.727-2.215 4.949-4.949 4.949s-4.965-2.223-4.965-4.949c0-2.742 2.23-4.965 4.965-4.965s4.949 2.223 4.949 4.965zM394.652 106.321c0-7.269 5.906-13.175 13.159-13.175 7.277 0 13.185 5.906 13.185 13.175 0 7.27-5.907 13.16-13.185 13.16-7.252 0-13.159-5.89-13.159-13.16zm65.83 89.301c0-3.837 3.115-6.969 6.944-6.969 3.862 0 6.985 3.132 6.985 6.969 0 3.854-3.123 6.953-6.985 6.953a6.943 6.943 0 0 1-6.944-6.953z"/><path fill="#FFF" d="M352.983 329.358c16.583-23.146 26.465-51.421 26.465-82.08 0-77.901-63.176-141.095-141.094-141.095-77.926 0-141.111 63.193-141.111 141.095 0 77.935 63.185 141.119 141.111 141.119 29.735 0 57.287-9.257 80.036-24.973l50.731 26.814-16.138-60.88z"/><path fill="#485A93" d="M382.013 406.448l-63.137-33.368c-24.087 15.472-51.81 23.625-80.522 23.625-82.388 0-149.418-67.03-149.418-149.427 0-82.38 67.03-149.402 149.418-149.402 82.38 0 149.403 67.022 149.403 149.402 0 29.962-8.893 58.804-25.76 83.67l20.016 75.5zM238.354 114.491c-73.229 0-132.803 59.566-132.803 132.787 0 73.229 59.574 132.812 132.803 132.812 27.017 0 53.06-8.13 75.314-23.504l4.146-2.864 38.415 20.308-12.274-46.326 2.279-3.181c16.291-22.749 24.907-49.457 24.907-77.244 0-73.221-59.567-132.788-132.787-132.788z"/><path fill="#8BD7F8" d="M326.268 224.846l-13.752-2.328a77.196 77.196 0 0 0-5.509-13.33l8.097-11.342c3.448-4.836 2.904-11.424-1.314-15.594l-12.193-12.194c-2.288-2.296-5.33-3.569-8.543-3.569-2.531 0-4.966.795-7.01 2.247l-11.366 8.105c-4.414-2.329-9.055-4.251-13.833-5.671l-2.288-13.59a12.102 12.102 0 0 0-11.958-10.108h-17.232a12.089 12.089 0 0 0-11.951 10.108l-2.377 13.914a74.263 74.263 0 0 0-13.281 5.614l-11.269-8.105c-2.044-1.477-4.495-2.247-7.042-2.247-3.221 0-6.304 1.25-8.551 3.546l-12.234 12.193c-4.17 4.171-4.738 10.774-1.314 15.594l8.202 11.504a73.673 73.673 0 0 0-5.452 13.371l-13.589 2.312a12.071 12.071 0 0 0-10.109 11.935v17.232a12.087 12.087 0 0 0 10.109 11.95l13.914 2.369a76.31 76.31 0 0 0 5.614 13.313l-8.064 11.196c-3.44 4.844-2.913 11.423 1.298 15.602l12.194 12.193c2.304 2.288 5.322 3.562 8.567 3.562 2.531 0 4.941-.771 6.994-2.247l11.504-8.178c4.129 2.166 8.462 3.927 12.916 5.306l2.296 13.752a12.095 12.095 0 0 0 11.951 10.108h17.281a12.093 12.093 0 0 0 11.943-10.108l2.336-13.752a77.199 77.199 0 0 0 13.346-5.517l11.326 8.104a12.147 12.147 0 0 0 7.051 2.248c3.213 0 6.255-1.274 8.543-3.562l12.193-12.194c4.171-4.17 4.738-10.774 1.314-15.594l-8.097-11.391c2.247-4.292 4.13-8.746 5.509-13.321l13.752-2.296a12.088 12.088 0 0 0 10.108-11.951v-17.231c.078-5.939-4.173-10.96-10.03-11.958zm-.925 29.19c0 .527-.373.974-.917 1.055l-17.176 2.872c-2.166.374-3.894 1.972-4.413 4.057-1.566 6.021-3.935 11.789-7.132 17.135a5.6 5.6 0 0 0 .235 6.021l10.109 14.238c.292.422.243 1.03-.113 1.396l-12.202 12.193a1.016 1.016 0 0 1-.763.325c-.244 0-.471-.081-.608-.203l-14.223-10.108c-1.761-1.274-4.13-1.355-5.995-.235-5.371 3.196-11.14 5.565-17.16 7.123-2.125.527-3.724 2.288-4.048 4.413l-2.921 17.184a1.048 1.048 0 0 1-1.046.909h-17.24c-.527 0-.974-.365-1.055-.909l-2.88-17.184a5.443 5.443 0 0 0-4.048-4.413c-5.833-1.518-11.48-3.846-16.77-6.888a5.777 5.777 0 0 0-2.775-.723c-1.12 0-2.255.324-3.205 1.006l-14.319 10.19c-.203.122-.406.203-.609.203a1.12 1.12 0 0 1-.787-.325l-12.194-12.193c-.365-.365-.405-.934-.122-1.38l10.061-14.133a5.513 5.513 0 0 0 .243-6.036c-3.18-5.33-5.646-11.099-7.188-17.118-.584-2.085-2.288-3.684-4.43-4.057l-17.305-2.938a1.081 1.081 0 0 1-.909-1.07V237.21c0-.535.381-.974.909-1.055l17.062-2.88c2.158-.365 3.927-1.947 4.47-4.089a65.526 65.526 0 0 1 6.985-17.176 5.43 5.43 0 0 0-.276-5.979l-10.19-14.319c-.284-.405-.243-1.038.122-1.396l12.194-12.202c.284-.275.568-.324.771-.324.26 0 .462.081.625.211l14.117 10.06a5.554 5.554 0 0 0 6.06.244c5.306-3.197 11.075-5.647 17.094-7.188 2.085-.584 3.684-2.313 4.057-4.438l2.953-17.298a1.071 1.071 0 0 1 1.055-.916h17.232c.535 0 .974.389 1.055.916l2.88 17.054c.365 2.167 1.963 3.936 4.089 4.454a67.049 67.049 0 0 1 17.549 7.213 5.474 5.474 0 0 0 6.012-.243l14.141-10.149c.203-.114.405-.195.601-.195.162 0 .486.033.778.325l12.187 12.186c.373.373.405.933.13 1.403l-10.109 14.198c-1.258 1.761-1.339 4.13-.243 6.012 3.196 5.354 5.565 11.123 7.123 17.143.535 2.126 2.288 3.725 4.422 4.049l17.175 2.921c.552.081.909.519.909 1.055v17.231h-.034z"/><path fill="#FFD682" d="M238.378 203.135c-23.341 0-42.277 18.937-42.277 42.253 0 23.334 18.936 42.294 42.277 42.294 23.309 0 42.277-18.96 42.277-42.294 0-23.317-18.967-42.253-42.277-42.253zm0 73.488c-17.24 0-31.235-13.995-31.235-31.235 0-17.216 13.995-31.211 31.235-31.211 17.216 0 31.211 13.995 31.211 31.211.001 17.24-13.995 31.235-31.211 31.235z"/></svg>