<svg xmlns="http://www.w3.org/2000/svg" width="512" height="512" viewBox="0 0 512 512"><path fill="#8BD7F8" d="M352.78 428.261H143.188v-69.334h22.976v-76.353h-27.828v-57.367h19.975v-58.941h49.457v20.851h16.323v-20.851h47.771v20.851H288.2v-20.851h49.441v58.941H357.6v57.367h-27.812v76.353h22.992v69.334zm-192.977-16.615h176.362v-36.104h-22.992V265.959h27.812v-24.137h-19.958v-58.941h-16.21v20.851h-49.571v-20.851h-14.538v20.851h-49.555v-20.851h-16.226v58.941h-19.974v24.137h27.828v109.583h-22.976v36.104z"/><path fill="#485A93" d="M127.156 334.563c-22.335-27.504-34.635-62.228-34.635-97.796 0-85.706 69.74-155.43 155.454-155.43 85.724 0 155.463 69.724 155.463 155.43 0 34.976-11.342 68.004-32.784 95.516l-13.111-10.223c19.155-24.558 29.28-54.058 29.28-85.293 0-76.538-62.284-138.814-138.848-138.814-76.555 0-138.838 62.276-138.838 138.814 0 32.226 10.693 62.414 30.919 87.313l-12.9 10.483z"/><path fill="#F7941E" d="M222.614 284.635v68.426"/><path fill="#F15A29" d="M222.614 361.369a8.304 8.304 0 0 1-8.308-8.309v-68.426a8.303 8.303 0 0 1 8.308-8.308 8.304 8.304 0 0 1 8.309 8.308v68.426a8.304 8.304 0 0 1-8.309 8.309z"/><path fill="#FFD682" d="M275.926 361.369a8.304 8.304 0 0 1-8.308-8.309v-68.426c0-4.592 3.716-8.308 8.308-8.308s8.308 3.716 8.308 8.308v68.426a8.304 8.304 0 0 1-8.308 8.309z"/><path d="M450.275 332.786h40.209v6.313h-40.209zm45.969 0H512v6.313h-15.756z" fill="#D4EEF8"/><g fill="#D4EEF8"><path d="M15.723 159.28h36.704v4.494H15.723z"/><path d="M31.828 143.168h4.478v36.72h-4.478z"/></g><g fill="#FDBA12"><path d="M456.052 138.673h36.695v4.495h-36.695z"/><path d="M472.156 122.568h4.487v36.712h-4.487z"/></g><g fill="#D4EEF8"><path d="M402.636 410.055h36.703v4.495h-36.703z"/><path d="M418.74 393.959h4.486v36.703h-4.486z"/></g><path fill="#FDBA12" d="M31.365 290.85c0 8.665-7.026 15.667-15.675 15.667S0 299.515 0 290.85c0-8.656 7.042-15.666 15.69-15.666s15.675 7.009 15.675 15.666z"/><path fill="#D4EEF8" d="M72.003 234.034c0 5.403-4.389 9.784-9.792 9.784-5.387 0-9.784-4.381-9.784-9.784s4.397-9.784 9.784-9.784c5.403 0 9.792 4.381 9.792 9.784z"/><path fill="#FDBA12" d="M456.612 377.911c0 5.403-4.382 9.784-9.793 9.784-5.387 0-9.784-4.381-9.784-9.784s4.397-9.776 9.784-9.776c5.411 0 9.793 4.373 9.793 9.776z"/><path fill="#D4EEF8" d="M496.229 368.144a4.953 4.953 0 0 1-4.949 4.948c-2.734 0-4.966-2.223-4.966-4.948a4.97 4.97 0 0 1 4.966-4.966c2.733 0 4.949 2.222 4.949 4.966zM394.652 118.131c0-7.27 5.906-13.176 13.159-13.176 7.277 0 13.184 5.906 13.184 13.176 0 7.269-5.906 13.159-13.184 13.159-7.252 0-13.159-5.891-13.159-13.159zm65.829 89.301c0-3.838 3.116-6.97 6.945-6.97 3.861 0 6.985 3.132 6.985 6.97 0 3.854-3.124 6.952-6.985 6.952a6.945 6.945 0 0 1-6.945-6.952z"/></svg>