<svg xmlns="http://www.w3.org/2000/svg" width="512" height="512" viewBox="0 0 512 512"><path d="M449.943 320.978h40.209v6.313h-40.209zm45.969 0h15.756v6.313h-15.756z" fill="#D4EEF8"/><g fill="#D4EEF8"><path d="M15.391 147.472h36.704v4.494H15.391z"/><path d="M31.504 131.358h4.479v36.72h-4.479z"/></g><g fill="#FDBA12"><path d="M455.721 126.864h36.703v4.494h-36.703z"/><path d="M471.833 110.768h4.479v36.704h-4.479z"/></g><g fill="#D4EEF8"><path d="M402.304 398.246h36.704v4.495h-36.704z"/><path d="M418.416 382.15h4.479v36.703h-4.479z"/></g><path fill="#FDBA12" d="M31.033 279.049c0 8.665-7.026 15.658-15.674 15.658S-.332 287.714-.332 279.049c0-8.664 7.042-15.674 15.691-15.674s15.674 7.01 15.674 15.674z"/><path fill="#D4EEF8" d="M71.68 222.226c0 5.403-4.397 9.784-9.801 9.784-5.387 0-9.784-4.381-9.784-9.784s4.397-9.785 9.784-9.785c5.403-.001 9.801 4.381 9.801 9.785z"/><path fill="#FDBA12" d="M456.288 366.103c0 5.403-4.381 9.784-9.801 9.784-5.387 0-9.784-4.381-9.784-9.784s4.397-9.769 9.784-9.769c5.42 0 9.801 4.365 9.801 9.769z"/><path fill="#D4EEF8" d="M495.896 356.334a4.947 4.947 0 0 1-4.949 4.949c-2.726 0-4.965-2.223-4.965-4.949a4.975 4.975 0 0 1 4.965-4.965 4.951 4.951 0 0 1 4.949 4.965zM394.32 106.322c0-7.27 5.906-13.176 13.159-13.176 7.286 0 13.192 5.906 13.192 13.176 0 7.269-5.906 13.159-13.192 13.159-7.252 0-13.159-5.89-13.159-13.159zm65.83 89.309c0-3.846 3.115-6.978 6.944-6.978 3.862 0 6.993 3.132 6.993 6.978s-3.131 6.944-6.993 6.944a6.942 6.942 0 0 1-6.944-6.944z"/><path fill="#485A93" d="M195.193 381.647a8.306 8.306 0 0 1-8.308-8.308V138.66a8.308 8.308 0 0 1 16.616 0v234.68a8.305 8.305 0 0 1-8.308 8.307zm125.315 15.497a8.304 8.304 0 0 1-8.308-8.309v-265.67c0-4.589 3.716-8.309 8.308-8.309s8.308 3.72 8.308 8.309v265.67a8.304 8.304 0 0 1-8.308 8.309z"/><path fill="#F7941E" d="M129.948 209.131v93.755"/><path fill="#F15A29" d="M129.948 311.193a8.306 8.306 0 0 1-8.308-8.308V209.13a8.308 8.308 0 0 1 16.616 0v93.755a8.305 8.305 0 0 1-8.308 8.308z"/><path fill="#FFD682" d="M381.404 305.271a8.303 8.303 0 0 1-8.308-8.308v-81.909c0-4.588 3.716-8.309 8.308-8.309s8.308 3.721 8.308 8.309v81.909a8.303 8.303 0 0 1-8.308 8.308z"/><path fill="#A2D8CB" d="M259.611 356.659a8.306 8.306 0 0 1-8.308-8.308V163.648a8.308 8.308 0 0 1 16.616 0v184.703a8.306 8.306 0 0 1-8.308 8.308z"/></svg>