<svg xmlns="http://www.w3.org/2000/svg" width="512" height="512" viewBox="0 0 512 512"><path d="M450.275 320.978h40.209v6.313h-40.209zm45.969 0H512v6.313h-15.756z" fill="#D4EEF8"/><g fill="#D4EEF8"><path d="M15.723 147.472h36.704v4.494H15.723z"/><path d="M31.828 131.358h4.479v36.721h-4.479z"/></g><g fill="#FDBA12"><path d="M456.052 126.864h36.696v4.494h-36.696z"/><path d="M472.156 110.76h4.487v36.712h-4.487z"/></g><g fill="#D4EEF8"><path d="M402.636 398.247h36.703v4.494h-36.703z"/><path d="M418.74 382.15h4.486v36.703h-4.486z"/></g><path fill="#FDBA12" d="M31.365 279.041c0 8.665-7.026 15.667-15.674 15.667C7.042 294.708 0 287.706 0 279.041c0-8.656 7.042-15.666 15.691-15.666 8.648 0 15.674 7.01 15.674 15.666z"/><path fill="#D4EEF8" d="M72.003 222.226c0 5.403-4.389 9.784-9.792 9.784-5.387 0-9.784-4.381-9.784-9.784s4.397-9.784 9.784-9.784c5.403-.001 9.792 4.38 9.792 9.784z"/><path fill="#FDBA12" d="M456.612 366.103c0 5.403-4.381 9.784-9.793 9.784-5.387 0-9.784-4.381-9.784-9.784s4.397-9.776 9.784-9.776c5.412-.001 9.793 4.372 9.793 9.776z"/><path fill="#D4EEF8" d="M496.229 356.334c0 2.727-2.215 4.949-4.949 4.949s-4.965-2.223-4.965-4.949c0-2.742 2.23-4.965 4.965-4.965s4.949 2.223 4.949 4.965zM394.652 106.322c0-7.27 5.906-13.176 13.159-13.176 7.277 0 13.185 5.906 13.185 13.176 0 7.269-5.907 13.159-13.185 13.159-7.252 0-13.159-5.89-13.159-13.159zm65.83 89.3c0-3.837 3.115-6.969 6.944-6.969 3.861 0 6.985 3.132 6.985 6.969 0 3.854-3.124 6.953-6.985 6.953a6.943 6.943 0 0 1-6.944-6.953z"/><path fill="#8BD7F8" d="M52.427 364.634a8.269 8.269 0 0 1-6.044-2.612 8.298 8.298 0 0 1 .349-11.739l133.241-125.615 169.896 56.687 73.164-97.682c2.758-3.659 7.959-4.43 11.634-1.671 3.676 2.75 4.422 7.959 1.672 11.634l-80.353 107.271-171.843-57.335L58.122 362.37a8.24 8.24 0 0 1-5.695 2.264z"/><path fill="#FFF" d="M333.236 253.136c0 53.604-43.453 97.057-97.041 97.057-53.603 0-97.057-43.453-97.057-97.057 0-53.587 43.454-97.04 97.057-97.04 53.588 0 97.041 43.453 97.041 97.04z"/><path fill="#485A93" d="M236.196 358.501c-58.098 0-105.364-47.268-105.364-105.365 0-58.089 47.267-105.348 105.364-105.348 58.089 0 105.348 47.259 105.348 105.348 0 58.097-47.259 105.365-105.348 105.365zm0-194.098c-48.938 0-88.749 39.803-88.749 88.732 0 48.938 39.811 88.749 88.749 88.749 48.93 0 88.733-39.811 88.733-88.749 0-48.929-39.803-88.732-88.733-88.732z"/><path fill="#FFF" d="M352.927 364.432l-44.873-46.229"/><path fill="#485A93" d="M352.927 372.739a8.29 8.29 0 0 1-5.963-2.523l-44.873-46.229a8.304 8.304 0 0 1 .178-11.747 8.306 8.306 0 0 1 11.748.178l44.873 46.229a8.306 8.306 0 0 1-5.963 14.092z"/><path fill="#8BD7F8" d="M191.071 273.435c-10.685 0-19.382-8.688-19.382-19.374 0-10.685 8.697-19.374 19.382-19.374 10.685 0 19.382 8.689 19.382 19.374 0 10.685-8.697 19.374-19.382 19.374zm0-30.44c-6.109 0-11.075 4.965-11.075 11.065 0 6.102 4.965 11.066 11.075 11.066 6.109 0 11.074-4.965 11.074-11.066.001-6.1-4.965-11.065-11.074-11.065z"/><path fill="#FFD682" d="M235.304 273.435c-10.685 0-19.374-8.688-19.374-19.374 0-10.685 8.689-19.374 19.374-19.374 10.685 0 19.382 8.689 19.382 19.374 0 10.685-8.698 19.374-19.382 19.374zm0-30.44c-6.101 0-11.066 4.965-11.066 11.065 0 6.102 4.965 11.066 11.066 11.066 6.109 0 11.074-4.965 11.074-11.066 0-6.1-4.965-11.065-11.074-11.065z"/><path fill="#F15A29" d="M281.305 273.435c-10.685 0-19.382-8.688-19.382-19.374 0-10.685 8.697-19.374 19.382-19.374s19.382 8.689 19.382 19.374c0 10.685-8.698 19.374-19.382 19.374zm0-30.44c-6.109 0-11.074 4.965-11.074 11.065 0 6.102 4.965 11.066 11.074 11.066s11.074-4.965 11.074-11.066c0-6.1-4.965-11.065-11.074-11.065z"/></svg>