<svg xmlns="http://www.w3.org/2000/svg" width="512" height="512" viewBox="0 0 512 512"><path d="M450.275 320.978h40.209v6.313h-40.209zm45.969 0H512v6.313h-15.756z" fill="#D4EEF8"/><g fill="#D4EEF8"><path d="M15.723 147.472h36.704v4.494H15.723z"/><path d="M31.828 131.358h4.479v36.72h-4.479z"/></g><g fill="#FDBA12"><path d="M456.052 126.864h36.696v4.494h-36.696z"/><path d="M472.156 110.76h4.487v36.712h-4.487z"/></g><g fill="#D4EEF8"><path d="M402.636 398.246h36.703v4.495h-36.703z"/><path d="M418.74 382.15h4.486v36.703h-4.486z"/></g><path fill="#FDBA12" d="M31.365 279.041c0 8.665-7.026 15.666-15.675 15.666-8.648 0-15.69-7.001-15.69-15.666 0-8.656 7.042-15.666 15.69-15.666 8.649 0 15.675 7.01 15.675 15.666z"/><path fill="#D4EEF8" d="M72.003 222.226c0 5.403-4.389 9.784-9.792 9.784-5.387 0-9.784-4.381-9.784-9.784s4.397-9.785 9.784-9.785c5.403-.001 9.792 4.381 9.792 9.785z"/><path fill="#FDBA12" d="M456.612 366.103c0 5.403-4.382 9.784-9.793 9.784-5.387 0-9.784-4.381-9.784-9.784s4.397-9.776 9.784-9.776c5.411-.001 9.793 4.372 9.793 9.776z"/><path fill="#D4EEF8" d="M496.229 356.334c0 2.727-2.215 4.949-4.949 4.949s-4.966-2.223-4.966-4.949c0-2.742 2.231-4.965 4.966-4.965s4.949 2.223 4.949 4.965zM394.652 106.322c0-7.27 5.906-13.176 13.159-13.176 7.277 0 13.184 5.906 13.184 13.176 0 7.269-5.906 13.159-13.184 13.159-7.252 0-13.159-5.89-13.159-13.159zm65.829 89.3c0-3.837 3.116-6.969 6.945-6.969 3.861 0 6.985 3.132 6.985 6.969 0 3.854-3.124 6.953-6.985 6.953a6.944 6.944 0 0 1-6.945-6.953z"/><path fill="#8BD7F8" d="M325.602 258.26a.886.886 0 0 1-.762.884l-14.434 2.41c-1.842.316-3.294 1.659-3.708 3.403a55.79 55.79 0 0 1-5.995 14.408 4.676 4.676 0 0 0 .187 5.063l8.502 11.959c.244.357.211.876-.081 1.185l-10.271 10.239a.853.853 0 0 1-.649.275.829.829 0 0 1-.511-.162l-11.959-8.503c-1.477-1.07-3.464-1.136-5.03-.211-4.503 2.693-9.362 4.689-14.433 6.004-1.769.422-3.115 1.915-3.392 3.716l-2.45 14.425a.88.88 0 0 1-.876.779h-14.498a.872.872 0 0 1-.884-.779l-2.426-14.425c-.3-1.834-1.623-3.294-3.399-3.716a57.102 57.102 0 0 1-14.093-5.793 4.823 4.823 0 0 0-2.336-.6c-.949 0-1.907.259-2.702.844l-12.023 8.551c-.179.098-.349.179-.503.179a.974.974 0 0 1-.682-.276l-10.239-10.255c-.308-.292-.349-.778-.105-1.152l8.462-11.877a4.655 4.655 0 0 0 .203-5.079c-2.669-4.479-4.746-9.313-6.052-14.393a4.75 4.75 0 0 0-3.716-3.403l-14.546-2.467a.928.928 0 0 1-.771-.904V244.11c0-.458.333-.815.771-.885l14.344-2.417a4.7 4.7 0 0 0 3.764-3.448 55.204 55.204 0 0 1 5.858-14.441 4.555 4.555 0 0 0-.235-5.018l-8.567-12.024c-.227-.349-.203-.892.105-1.184l10.255-10.268a.907.907 0 0 1 .649-.26.8.8 0 0 1 .52.162l11.877 8.471a4.585 4.585 0 0 0 5.079.194 53.859 53.859 0 0 1 14.376-6.02c1.745-.508 3.107-1.956 3.408-3.749l2.474-14.53a.916.916 0 0 1 .893-.774h14.49a.89.89 0 0 1 .885.774l2.426 14.336c.3 1.813 1.646 3.302 3.415 3.736a55.866 55.866 0 0 1 14.767 6.061 4.615 4.615 0 0 0 5.063-.203l11.861-8.526c.187-.098.349-.154.519-.154.13 0 .414.02.657.26l10.23 10.246c.325.313.341.775.122 1.164l-8.494 11.947c-1.071 1.477-1.136 3.468-.211 5.059 2.686 4.507 4.673 9.354 5.987 14.412a4.58 4.58 0 0 0 3.708 3.399l14.44 2.446c.463.069.779.426.779.893v14.49h-.043z"/><path fill="#485A93" d="M315.477 330.519c-17.597 13.135-39.332 21.021-62.933 21.021-16.989 0-33.868-4.13-48.8-11.943-1.412-.738-2.986-1.111-4.677-1.111-4.843 0-14.681 4.949-29.353 14.766 10.121-30.107 5.776-35.056 3.46-37.701a105.404 105.404 0 0 1-26.148-69.529c0-58.183 47.336-105.515 105.519-105.515 58.179 0 105.511 47.332 105.511 105.515 0 1.708-.179 3.375-.26 5.063l16.145 8.049c.463-4.313.73-8.682.73-13.111 0-67.342-54.788-122.13-122.126-122.13-67.347 0-122.134 54.788-122.134 122.13a122.009 122.009 0 0 0 29.17 79.208c-.004 6.702-7.521 29.329-15.017 47.486l-11.484 27.812 24.128-17.979c15.683-11.691 35.284-24.794 40.967-27.139 16.766 8.349 35.511 12.746 54.37 12.746 28.339 0 54.382-9.784 75.127-26.043l-12.195-11.595z"/><path fill="#FFD682" d="M387.351 305.149a.379.379 0 0 1-.349.373l-6.637 1.136a2.062 2.062 0 0 0-1.695 1.558 25.586 25.586 0 0 1-2.751 6.604c-.422.73-.397 1.64.09 2.337l3.895 5.501a.396.396 0 0 1-.033.519l-4.714 4.706a.398.398 0 0 1-.316.13.325.325 0 0 1-.211-.081l-5.5-3.895c-.665-.486-1.591-.52-2.313-.098-2.053 1.233-4.3 2.143-6.62 2.759a2.071 2.071 0 0 0-1.558 1.688l-1.12 6.637a.409.409 0 0 1-.405.356h-6.652a.398.398 0 0 1-.406-.356l-1.104-6.637c-.154-.827-.754-1.493-1.573-1.688a25.422 25.422 0 0 1-6.467-2.661 2.155 2.155 0 0 0-1.07-.275c-.431 0-.893.113-1.241.373l-5.525 3.942c-.089.033-.154.065-.235.065a.555.555 0 0 1-.316-.113l-4.697-4.706a.466.466 0 0 1-.049-.535l3.895-5.452a2.117 2.117 0 0 0 .089-2.32c-1.225-2.077-2.174-4.284-2.782-6.62-.228-.779-.868-1.412-1.704-1.558l-6.677-1.136a.422.422 0 0 1-.35-.422v-6.637c0-.228.146-.373.35-.406l6.596-1.104a2.252 2.252 0 0 0 1.736-1.59c.56-2.32 1.46-4.543 2.669-6.637a2.045 2.045 0 0 0-.098-2.287l-3.942-5.533a.453.453 0 0 1 .049-.536l4.713-4.722a.416.416 0 0 1 .301-.113c.097 0 .17.032.235.081l5.451 3.878a2.089 2.089 0 0 0 2.321.098 25.249 25.249 0 0 1 6.596-2.774 2.165 2.165 0 0 0 1.573-1.721l1.137-6.652c.04-.228.202-.373.413-.373h6.669c.203 0 .357.146.39.373l1.111 6.571c.122.828.755 1.509 1.566 1.72a24.738 24.738 0 0 1 6.774 2.775c.729.438 1.63.39 2.32-.081l5.468-3.927a.396.396 0 0 1 .219-.065s.203 0 .309.114l4.697 4.705c.154.13.154.357.049.535l-3.895 5.469a2.16 2.16 0 0 0-.097 2.336 25.18 25.18 0 0 1 2.742 6.621 2.062 2.062 0 0 0 1.712 1.541l6.636 1.136c.195.032.35.195.35.406v6.669h-.019z"/></svg>