<svg xmlns="http://www.w3.org/2000/svg" width="512" height="512" viewBox="0 0 512 512"><path d="M450.275 320.978h40.209v6.313h-40.209zm45.969 0H512v6.313h-15.756z" fill="#D4EEF8"/><g fill="#D4EEF8"><path d="M15.723 147.472h36.704v4.494H15.723z"/><path d="M31.828 131.359h4.479v36.72h-4.479z"/></g><g fill="#FDBA12"><path d="M456.053 126.864h36.695v4.495h-36.695z"/><path d="M472.157 110.768h4.486v36.704h-4.486z"/></g><g fill="#D4EEF8"><path d="M402.636 398.247h36.703v4.494h-36.703z"/><path d="M418.74 382.15h4.486v36.703h-4.486z"/></g><path fill="#FDBA12" d="M31.365 279.05c0 8.664-7.026 15.658-15.674 15.658C7.042 294.708 0 287.714 0 279.05c0-8.665 7.042-15.675 15.691-15.675 8.648 0 15.674 7.01 15.674 15.675z"/><path fill="#D4EEF8" d="M72.003 222.226c0 5.403-4.389 9.784-9.792 9.784-5.387 0-9.784-4.381-9.784-9.784s4.397-9.784 9.784-9.784c5.403-.001 9.792 4.38 9.792 9.784z"/><path fill="#FDBA12" d="M456.612 366.103c0 5.403-4.381 9.784-9.793 9.784-5.387 0-9.784-4.381-9.784-9.784s4.397-9.768 9.784-9.768c5.412 0 9.793 4.364 9.793 9.768z"/><path fill="#D4EEF8" d="M496.229 356.335c0 2.726-2.215 4.948-4.949 4.948s-4.965-2.223-4.965-4.948c0-2.742 2.23-4.966 4.965-4.966s4.949 2.224 4.949 4.966zM394.652 106.322c0-7.27 5.906-13.176 13.159-13.176 7.278 0 13.185 5.906 13.185 13.176 0 7.269-5.906 13.159-13.185 13.159-7.252 0-13.159-5.89-13.159-13.159zm65.83 89.309c0-3.846 3.115-6.978 6.944-6.978 3.862 0 6.985 3.132 6.985 6.978s-3.123 6.944-6.985 6.944a6.942 6.942 0 0 1-6.944-6.944z"/><path fill="#FFF" d="M150.343 356.326V195.614h222.843"/><path fill="#8BD7F8" d="M158.651 356.326h-16.615V187.307h231.15v16.615H158.651z"/><path fill="#FFD682" d="M191.314 232.01h150.157v47.031H191.314z"/><path fill="#A2D8CB" d="M286.367 317.489h-98.168v-23.146h98.168v23.146zm-91.937-6.231h85.707v-10.685H194.43v10.685z"/><path fill="#F15A29" d="M286.367 350.307h-98.168V327.16h98.168v23.147zm-91.937-6.232h85.707V333.39H194.43v10.685z"/><path fill="#485A93" d="M385.647 406.578l-63.137-33.377c-24.071 15.472-51.802 23.626-80.522 23.626-82.388 0-149.418-67.03-149.418-149.427 0-82.376 67.03-149.395 149.418-149.395 82.38 0 149.402 67.019 149.402 149.395 0 29.962-8.892 58.804-25.759 83.678l20.016 75.5zM241.989 114.622c-73.229 0-132.803 59.565-132.803 132.778 0 73.229 59.574 132.811 132.803 132.811 27.025 0 53.068-8.129 75.314-23.495l4.146-2.872 38.415 20.315-12.274-46.326 2.271-3.18c16.299-22.758 24.915-49.474 24.915-77.253-.001-73.212-59.567-132.778-132.787-132.778z"/></svg>