<svg xmlns="http://www.w3.org/2000/svg" width="512" height="512" viewBox="0 0 512 512"><path d="M454.955 235.813h37.016v5.812h-37.016zm42.315 0h14.515v5.812H497.27zM.244 360.165h37.021v5.813H.244zm42.316 0h14.514v5.813H42.56zM97.135 60.399h37.017v5.814H97.135zm42.315 0h14.514v5.814H139.45z" fill="#F1F2F2"/><g fill="#F1F2F2"><path d="M25.714 131.901h33.797v4.143H25.714z"/><path d="M40.538 117.074h4.133v33.805h-4.133z"/></g><g fill="#F1F2F2"><path d="M431.181 112.929h33.796v4.139h-33.796z"/><path d="M446.004 98.101h4.133v33.801h-4.133z"/></g><g fill="#F1F2F2"><path d="M473.467 303.74h23.705v2.901h-23.705z"/><path d="M483.86 293.334h2.902v23.709h-2.902z"/></g><g fill="#FFDE17"><path d="M287.854 36.222h23.7v2.904h-23.7z"/><path d="M298.252 25.818h2.897v23.709h-2.897z"/></g><path fill="#F1F2F2" d="M28.665 224.202c0 7.979-6.477 14.427-14.437 14.427S-.217 232.181-.217 224.202c0-7.972 6.485-14.43 14.445-14.43s14.437 6.458 14.437 14.43z"/><path fill="#8DC63F" d="M62.461 184.665c0 4.977-4.039 9.007-9.016 9.007-4.96 0-9.012-4.031-9.012-9.007 0-4.979 4.052-9.006 9.012-9.006 4.977 0 9.016 4.028 9.016 9.006z"/><path fill="#F1F2F2" d="M460.779 277.369c0 4.977-4.039 9.008-9.008 9.008-4.965 0-9.012-4.031-9.012-9.008 0-4.98 4.047-9.008 9.012-9.008 4.969 0 9.008 4.028 9.008 9.008z"/><path fill="#8DC63F" d="M497.258 268.37a4.562 4.562 0 0 1-4.557 4.557 4.568 4.568 0 0 1-4.565-4.557 4.569 4.569 0 0 1 4.565-4.569 4.562 4.562 0 0 1 4.557 4.569z"/><path fill="#F1F2F2" d="M374.645 94.017c0-6.698 5.434-12.134 12.122-12.134 6.704 0 12.134 5.436 12.134 12.134 0 6.695-5.43 12.116-12.134 12.116-6.689-.001-12.122-5.422-12.122-12.116zM189.868 40.976c0-6.694 5.437-12.134 12.122-12.134 6.708 0 12.133 5.439 12.133 12.134s-5.425 12.117-12.133 12.117c-6.685 0-12.122-5.423-12.122-12.117z"/><path fill="#F7941E" d="M445.356 164.53c0-3.542 2.873-6.421 6.407-6.421a6.42 6.42 0 0 1 6.419 6.421c0 3.54-2.869 6.403-6.419 6.403a6.405 6.405 0 0 1-6.407-6.403z"/><path fill="#8DC63F" d="M218.94 22.439c0-3.54 2.874-6.419 6.411-6.419a6.422 6.422 0 0 1 6.419 6.419c0 3.542-2.874 6.403-6.419 6.403a6.406 6.406 0 0 1-6.411-6.403z"/><path fill="#F1F2F2" d="M238.598 53.102c0-3.54 2.877-6.419 6.407-6.419a6.42 6.42 0 0 1 6.419 6.419c0 3.542-2.87 6.403-6.419 6.403a6.407 6.407 0 0 1-6.407-6.403z"/><path fill="#FFDE17" d="M25.714 274.011l2.951 9.411 9.415 2.955-9.415 2.951-2.951 9.415-2.947-9.415-9.415-2.951 9.057-2.955zm429.241 76.699l2.946 9.406 9.415 2.955-9.415 2.951-2.946 9.412-2.951-9.412-9.415-2.951 9.06-2.955z"/><path fill="#F1F2F2" d="M163.868 7.189l3.635 11.603 11.608 3.639-11.608 3.64-3.635 11.602-3.636-11.602-11.607-3.64 11.171-3.639z"/><path d="M260.982 474.509h-76.617l-.534-.363c-15.223-10.401-29.089-.163-29.228-.061l-.561.424H83.86c-1.154 0-2.087-.934-2.087-2.087s.933-2.087 2.087-2.087h68.842c3.096-2.025 17.416-10.193 32.941 0h75.339a2.087 2.087 0 1 1 0 4.174zm56.544 0H270.83c-1.154 0-2.087-.934-2.087-2.087s.933-2.087 2.087-2.087h46.696a2.087 2.087 0 1 1 0 4.174zm110.578 0h-75.591a2.087 2.087 0 1 1 0-4.174h75.591c1.153 0 2.086.934 2.086 2.087s-.933 2.087-2.086 2.087zm-87.02 0h-15.777a2.087 2.087 0 1 1 0-4.174h15.777c1.154 0 2.087.934 2.087 2.087s-.933 2.087-2.087 2.087zm-121.675 31.66H139.45a2.086 2.086 0 1 1 0-4.173h79.959a2.086 2.086 0 1 1 0 4.173zm159.409 0h-115.3a2.086 2.086 0 1 1 0-4.173h115.301a2.086 2.086 0 1 1-.001 4.173zm-131.29 0H231.75a2.085 2.085 0 0 1-2.086-2.086c0-1.154.933-2.087 2.086-2.087h15.778c1.153 0 2.086.933 2.086 2.087a2.084 2.084 0 0 1-2.086 2.086z" fill="#D4EEF8"/><path fill="#8AD7F8" d="M245.009 442.799c-96.511 0-175.028-78.525-175.028-175.04 0-96.509 78.517-175.032 175.028-175.032 96.515 0 175.04 78.523 175.04 175.032 0 96.514-78.525 175.04-175.04 175.04zm0-336.255c-88.894 0-161.211 72.321-161.211 161.215 0 88.897 72.317 161.223 161.211 161.223 88.898 0 161.223-72.325 161.223-161.223 0-88.894-72.325-161.215-161.223-161.215z"/><path fill="#FFF" d="M160.371 235.813v54.958h71.804l14.754 12.231v-67.189z"/><path fill="#F15D62" d="M251.103 311.884l-20.434-16.939h-74.471v-63.306h94.905v80.245zm-86.559-25.287h69.136l9.075 7.524v-54.135h-78.211v46.611z"/><path fill="#8DC63F" d="M203.652 270.783a6.979 6.979 0 0 0 6.978-6.979 6.98 6.98 0 0 0-6.978-6.983c-3.848 0-6.978 3.128-6.978 6.983a6.984 6.984 0 0 0 6.978 6.979zm-22.743 0c3.57 0 6.456-2.886 6.456-6.448s-2.886-6.454-6.456-6.454c-3.554 0-6.448 2.892-6.448 6.454s2.894 6.448 6.448 6.448zm44.965 0c3.847 0 6.969-3.127 6.969-6.979 0-3.855-3.122-6.983-6.969-6.983-3.864 0-6.994 3.128-6.994 6.983-.001 3.852 3.129 6.979 6.994 6.979z"/><path fill="#8BD7F8" d="M204.655 370.812H161.81c-2.305 0-4.173-1.867-4.173-4.174s1.869-4.174 4.173-4.174h42.845c2.305 0 4.173 1.867 4.173 4.174s-1.869 4.174-4.173 4.174zm36.886-.147h-24.679c-2.305 0-4.174-1.867-4.174-4.174s1.869-4.174 4.174-4.174h24.679c2.305 0 4.173 1.867 4.173 4.174s-1.868 4.174-4.173 4.174zm64.516 0H279.16c-2.307 0-4.173-1.867-4.173-4.174s1.866-4.174 4.173-4.174h26.896c2.308 0 4.174 1.867 4.174 4.174s-1.866 4.174-4.173 4.174zm-41.182 0H254.16c-2.305 0-4.174-1.867-4.174-4.174s1.869-4.174 4.174-4.174h10.715c2.307 0 4.174 1.867 4.174 4.174s-1.867 4.174-4.174 4.174z"/><path fill="#A2D8CB" d="M228.522 390.824H161.81a4.172 4.172 0 0 1-4.173-4.174 4.172 4.172 0 0 1 4.173-4.174h66.713a4.174 4.174 0 1 1-.001 8.348zm45.707-.143h-33.503a4.172 4.172 0 0 1-4.174-4.173 4.172 4.172 0 0 1 4.174-4.174h33.503a4.17 4.17 0 0 1 4.174 4.174 4.172 4.172 0 0 1-4.174 4.173zm31.82 0h-18.231a4.17 4.17 0 0 1-4.174-4.173 4.171 4.171 0 0 1 4.174-4.174h18.231a4.171 4.171 0 0 1 4.174 4.174 4.172 4.172 0 0 1-4.174 4.173z"/><path fill="#FFD682" d="M194.881 349.617H161.81a4.172 4.172 0 0 1-4.173-4.174 4.173 4.173 0 0 1 4.173-4.174h33.071a4.173 4.173 0 0 1 4.174 4.174 4.172 4.172 0 0 1-4.174 4.174zm59.099-.138h-46.896a4.172 4.172 0 0 1-4.174-4.174 4.172 4.172 0 0 1 4.174-4.173h46.896a4.173 4.173 0 1 1 0 8.347zm52.069 0h-38.476a4.17 4.17 0 0 1-4.174-4.174 4.17 4.17 0 0 1 4.174-4.173h38.476a4.17 4.17 0 0 1 4.174 4.173 4.172 4.172 0 0 1-4.174 4.174z"/><path fill="#5D84C3" d="M141.691 196.687c.514-2.231 3.905-13.466 20.118-13.466v-10.434c-21.056 0-29.142 14.718-30.479 22.5l-.069 186.603c2.972 2.963 6.085 5.788 9.281 8.511h1.149V196.687zm183.591 11.728v199.071c3.563-2.054 7.052-4.214 10.435-6.525V208.415h-10.435z"/><path fill="#5D84C3" d="M376.638 213.632H179.743l1.728-6.548a18.27 18.27 0 0 0 .604-4.655c0-10.593-9.089-19.209-20.265-19.209v-10.434h185.173c17.473 0 31.689 13.297 31.689 29.643 0 2.478-.33 4.954-.986 7.357l-1.048 3.846zm-184.141-10.434h175.725c.012-.257.016-.512.016-.769 0-10.593-9.533-19.209-21.255-19.209h-161.81c4.573 5.178 7.336 11.887 7.336 19.209 0 .257-.004.512-.012.769z"/><path fill="#FFF" d="M360.473 273.652c0 23.717-19.221 42.942-42.942 42.942s-42.942-19.226-42.942-42.942c0-23.717 19.221-42.945 42.942-42.945s42.942 19.228 42.942 42.945z"/><path fill="#A2D8CB" d="M317.53 320.769c-25.979 0-47.116-21.137-47.116-47.116 0-25.981 21.137-47.119 47.116-47.119s47.116 21.137 47.116 47.119c0 25.979-21.136 47.116-47.116 47.116zm0-85.888c-21.378 0-38.77 17.394-38.77 38.771s17.392 38.77 38.77 38.77 38.77-17.392 38.77-38.77-17.392-38.771-38.77-38.771z"/><path fill="#5D84C3" d="M317.53 258.715a4.173 4.173 0 0 1-4.174-4.174v-11.227c0-2.305 1.867-4.174 4.174-4.174s4.174 1.869 4.174 4.174v11.227a4.173 4.173 0 0 1-4.174 4.174z"/><path fill="#C49A6C" d="M317.53 308.166a4.171 4.171 0 0 1-4.174-4.174v-11.229c0-2.307 1.867-4.174 4.174-4.174s4.174 1.867 4.174 4.174v11.229a4.171 4.171 0 0 1-4.174 4.174z"/><path fill="#F15D62" d="M298.419 277.826H287.19c-2.307 0-4.173-1.867-4.173-4.174s1.866-4.174 4.173-4.174h11.229c2.307 0 4.174 1.867 4.174 4.174s-1.867 4.174-4.174 4.174z"/><path fill="#FFD682" d="M347.871 277.826h-11.229c-2.307 0-4.174-1.867-4.174-4.174s1.867-4.174 4.174-4.174h11.229c2.307 0 4.173 1.867 4.173 4.174s-1.866 4.174-4.173 4.174z"/></svg>