<svg xmlns="http://www.w3.org/2000/svg" width="512" height="512" viewBox="0 0 512 512"><path d="M450.275 358.677h40.209v6.313h-40.209zm45.969 0H512v6.313h-15.756z" fill="#D4EEF8"/><g fill="#D4EEF8"><path d="M15.723 185.167h36.704v4.494H15.723z"/><path d="M31.828 169.054h4.479v36.721h-4.479z"/></g><g fill="#FDBA12"><path d="M456.052 164.56h36.696v4.494h-36.696z"/><path d="M472.156 148.455h4.487v36.712h-4.487z"/></g><g fill="#D4EEF8"><path d="M402.636 435.946h36.703v4.494h-36.703z"/><path d="M418.74 419.851h4.486v36.703h-4.486z"/></g><path fill="#FDBA12" d="M31.365 316.733c0 8.664-7.026 15.674-15.675 15.674-8.648 0-15.69-7.01-15.69-15.674 0-8.649 7.042-15.659 15.69-15.659 8.649 0 15.675 7.01 15.675 15.659z"/><path fill="#D4EEF8" d="M72.003 259.921c0 5.407-4.389 9.789-9.792 9.789-5.387 0-9.784-4.382-9.784-9.789 0-5.403 4.397-9.784 9.784-9.784 5.403 0 9.792 4.381 9.792 9.784z"/><path fill="#FDBA12" d="M456.612 403.802c0 5.404-4.382 9.785-9.793 9.785-5.387 0-9.784-4.381-9.784-9.785 0-5.402 4.397-9.783 9.784-9.783 5.411 0 9.793 4.38 9.793 9.783z"/><path fill="#D4EEF8" d="M496.229 394.034c0 2.727-2.215 4.949-4.949 4.949s-4.966-2.223-4.966-4.949c0-2.742 2.231-4.965 4.966-4.965s4.949 2.223 4.949 4.965zM394.652 144.018c0-7.27 5.906-13.176 13.159-13.176 7.277 0 13.184 5.906 13.184 13.176 0 7.269-5.906 13.159-13.184 13.159-7.252 0-13.159-5.891-13.159-13.159zm65.829 89.299c0-3.837 3.116-6.969 6.945-6.969 3.861 0 6.985 3.132 6.985 6.969 0 3.854-3.124 6.953-6.985 6.953a6.944 6.944 0 0 1-6.945-6.953z"/><path fill="#485A93" d="M151.609 444.644l-1.067-61.124h-14.908c-17.463 0-31.673-14.206-31.673-31.673V208.654c0-17.468 14.21-31.682 31.673-31.682h58.041v16.615h-58.041c-8.304 0-15.058 6.759-15.058 15.066v143.192c0 8.307 6.754 15.057 15.058 15.057h31.239l.702 40.42 43.835-40.42h164.963c8.299 0 15.05-6.75 15.05-15.057V208.654c0-8.308-6.751-15.066-15.05-15.066H321.01v-16.615h55.364c17.459 0 31.665 14.214 31.665 31.682v143.192c0 17.467-14.206 31.673-31.665 31.673H217.901l-66.292 61.124z"/><path fill="#8BD7F8" d="M357.884 316.862H151.812a8.311 8.311 0 0 1-8.308-8.308 8.306 8.306 0 0 1 8.308-8.308h206.072a8.308 8.308 0 0 1 8.308 8.308c-.001 4.585-3.724 8.308-8.308 8.308z"/><path fill="#F7941E" d="M151.812 273.652h206.072"/><path fill="#F15A29" d="M357.884 281.96H151.812a8.306 8.306 0 0 1-8.308-8.308 8.311 8.311 0 0 1 8.308-8.308h206.072c4.584 0 8.308 3.724 8.308 8.308a8.31 8.31 0 0 1-8.308 8.308z"/><path fill="#FFD682" d="M357.884 347.011H151.812a8.306 8.306 0 0 1-8.308-8.308 8.311 8.311 0 0 1 8.308-8.308h206.072c4.584 0 8.308 3.724 8.308 8.308a8.31 8.31 0 0 1-8.308 8.308z"/><path fill="#485A93" d="M309.692 250.185h-16.615V133.58L256 83.404l-37.077 50.176v116.605h-16.615V128.104L256 55.446l53.692 72.658z"/><path fill="#485A93" d="M245.413 171.991h16.616v78.088h-16.616z"/><path fill="#485A93" d="M253.72 185.548c-13.744 0-24.923-11.18-24.923-24.923 0-13.744 11.18-24.924 24.923-24.924s24.923 11.18 24.923 24.924c.001 13.743-11.179 24.923-24.923 24.923zm0-33.232c-4.58 0-8.308 3.729-8.308 8.309 0 4.579 3.728 8.308 8.308 8.308s8.308-3.729 8.308-8.308c0-4.58-3.728-8.309-8.308-8.309z"/></svg>