<svg xmlns="http://www.w3.org/2000/svg" width="512" height="512" viewBox="0 0 512 512"><path d="M450.274 320.978h40.208v6.313h-40.208zm45.969 0h15.755v6.313h-15.755z" fill="#D4EEF8"/><g fill="#D4EEF8"><path d="M15.726 147.472h36.703v4.494H15.726z"/><path d="M31.838 131.358h4.479v36.721h-4.479z"/></g><g fill="#FDBA12"><path d="M456.051 126.864h36.703v4.494h-36.703z"/><path d="M472.163 110.768h4.479v36.704h-4.479z"/></g><g fill="#D4EEF8"><path d="M402.634 398.246h36.704v4.495h-36.704z"/><path d="M418.747 382.15h4.478v36.703h-4.478z"/></g><path fill="#FDBA12" d="M31.367 279.049c0 8.665-7.025 15.658-15.675 15.658-8.648 0-15.69-6.993-15.69-15.658 0-8.664 7.042-15.674 15.69-15.674 8.65 0 15.675 7.01 15.675 15.674z"/><path fill="#D4EEF8" d="M72.014 222.226c0 5.403-4.397 9.784-9.801 9.784-5.387 0-9.784-4.381-9.784-9.784s4.397-9.785 9.784-9.785c5.403-.001 9.801 4.381 9.801 9.785z"/><path fill="#FDBA12" d="M456.618 366.103c0 5.403-4.381 9.784-9.8 9.784-5.388 0-9.785-4.381-9.785-9.784s4.397-9.769 9.785-9.769c5.419 0 9.8 4.365 9.8 9.769z"/><path fill="#D4EEF8" d="M496.227 356.334a4.947 4.947 0 0 1-4.949 4.949c-2.726 0-4.965-2.223-4.965-4.949a4.975 4.975 0 0 1 4.965-4.965 4.951 4.951 0 0 1 4.949 4.965zM394.65 106.322c0-7.27 5.906-13.176 13.16-13.176 7.285 0 13.191 5.906 13.191 13.176 0 7.269-5.906 13.159-13.191 13.159-7.253 0-13.16-5.89-13.16-13.159zm65.83 89.309c0-3.846 3.115-6.978 6.944-6.978 3.862 0 6.994 3.132 6.994 6.978s-3.132 6.944-6.994 6.944a6.942 6.942 0 0 1-6.944-6.944z"/><path fill="#485A93" d="M368.202 355.409H127.459c-17.464 0-31.674-14.206-31.674-31.673V180.54c0-17.467 14.21-31.682 31.674-31.682h240.743c17.459 0 31.657 14.215 31.657 31.682v143.196c0 17.467-14.198 31.673-31.657 31.673zM127.459 165.475c-8.304 0-15.059 6.758-15.059 15.065v143.196c0 8.3 6.755 15.058 15.059 15.058h240.743c8.292 0 15.042-6.758 15.042-15.058V180.54c0-8.308-6.75-15.065-15.042-15.065H127.459z"/><path d="M186.06 397.159a8.276 8.276 0 0 1-3.951-.998 8.322 8.322 0 0 1-3.347-11.269l22.619-41.75a8.305 8.305 0 0 1 11.265-3.351 8.322 8.322 0 0 1 3.347 11.269l-22.619 41.75a8.311 8.311 0 0 1-7.314 4.349zm123.525.009a8.329 8.329 0 0 1-7.586-4.909l-17.751-39.511a8.305 8.305 0 0 1 4.17-10.984c4.187-1.858 9.104-.024 10.985 4.17l17.751 39.511a8.305 8.305 0 0 1-4.17 10.985 8.296 8.296 0 0 1-3.399.738zm-61.761-236.895a8.308 8.308 0 0 1-8.308-8.308v-20.607a8.308 8.308 0 0 1 16.616 0v20.607a8.308 8.308 0 0 1-8.308 8.308z" fill="#485A93"/><path fill="#FFD682" d="M228.596 305.344l-26.663-14.101c-6.888 3.732-14.567 5.68-22.485 5.68-26.148 0-47.421-21.273-47.421-47.422 0-26.144 21.272-47.412 47.421-47.412 26.145 0 47.413 21.269 47.413 47.412a47.014 47.014 0 0 1-6.665 24.186l8.4 31.657zm-49.149-86.64c-16.984 0-30.806 13.816-30.806 30.797s13.821 30.806 30.806 30.806a30.545 30.545 0 0 0 17.468-5.452l4.146-2.855 1.736.908-.613-2.304 2.276-3.188c3.784-5.285 5.784-11.479 5.784-17.914 0-16.981-13.816-30.798-30.797-30.798z"/><path fill="#F7941E" d="M250.964 212.44h94.116"/><path fill="#F15A29" d="M345.08 220.749h-94.116a8.309 8.309 0 0 1 0-16.617h94.116a8.311 8.311 0 0 1 8.308 8.308 8.311 8.311 0 0 1-8.308 8.309z"/><path fill="#485A93" d="M345.08 263.147h-94.116a8.308 8.308 0 0 1 0-16.616h94.116c4.584 0 8.308 3.72 8.308 8.308s-3.724 8.308-8.308 8.308z"/><path fill="#A2D8CB" d="M345.08 303.016h-94.116c-4.588 0-8.308-3.725-8.308-8.309 0-4.583 3.72-8.308 8.308-8.308h94.116c4.584 0 8.308 3.725 8.308 8.308 0 4.584-3.724 8.309-8.308 8.309z"/></svg>