<svg xmlns="http://www.w3.org/2000/svg" width="512" height="512" viewBox="0 0 512 512"><path d="M450.275 320.978h40.209v6.313h-40.209zm45.969 0H512v6.313h-15.756z" fill="#D4EEF8"/><g fill="#D4EEF8"><path d="M15.723 147.472h36.704v4.494H15.723z"/><path d="M31.828 131.358h4.479v36.72h-4.479z"/></g><g fill="#FDBA12"><path d="M456.052 126.864h36.696v4.494h-36.696z"/><path d="M472.156 110.76h4.487v36.712h-4.487z"/></g><g fill="#D4EEF8"><path d="M402.636 398.246h36.703v4.495h-36.703z"/><path d="M418.74 382.15h4.486v36.703h-4.486z"/></g><path fill="#FDBA12" d="M31.365 279.041c0 8.665-7.026 15.666-15.675 15.666-8.648 0-15.69-7.001-15.69-15.666 0-8.656 7.042-15.666 15.69-15.666 8.649 0 15.675 7.01 15.675 15.666z"/><path fill="#D4EEF8" d="M72.003 222.226c0 5.403-4.389 9.784-9.792 9.784-5.387 0-9.784-4.381-9.784-9.784s4.397-9.785 9.784-9.785c5.403-.001 9.792 4.381 9.792 9.785z"/><path fill="#FDBA12" d="M456.612 366.103c0 5.403-4.382 9.784-9.793 9.784-5.387 0-9.784-4.381-9.784-9.784s4.397-9.776 9.784-9.776c5.411-.001 9.793 4.372 9.793 9.776z"/><path fill="#D4EEF8" d="M496.229 356.334c0 2.727-2.215 4.949-4.949 4.949s-4.966-2.223-4.966-4.949c0-2.742 2.231-4.965 4.966-4.965s4.949 2.223 4.949 4.965zM394.652 106.322c0-7.27 5.906-13.176 13.159-13.176 7.277 0 13.184 5.906 13.184 13.176 0 7.269-5.906 13.159-13.184 13.159-7.252 0-13.159-5.89-13.159-13.159zm65.829 89.3c0-3.837 3.116-6.969 6.945-6.969 3.861 0 6.985 3.132 6.985 6.969 0 3.854-3.124 6.953-6.985 6.953a6.944 6.944 0 0 1-6.945-6.953z"/><path d="M156.493 172.735c0 6.697-5.436 12.138-12.146 12.138s-12.137-5.44-12.137-12.138c0-6.709 5.428-12.149 12.137-12.149s12.146 5.44 12.146 12.149zm31.398 0c0 6.697-5.428 12.138-12.137 12.138s-12.137-5.44-12.137-12.138c0-6.709 5.428-12.149 12.137-12.149s12.137 5.44 12.137 12.149zm29.767 0c0 6.697-5.436 12.138-12.137 12.138-6.709 0-12.146-5.44-12.146-12.138 0-6.709 5.436-12.149 12.146-12.149 6.701 0 12.137 5.44 12.137 12.149z" fill="#8BD7F8"/><path fill="#FFF" d="M147.439 294.383l72.815-60.402 90.826 21.853 53.538-61.813"/><path fill="#8BD7F8" d="M152.745 300.776l-10.612-12.786 76.019-63.059 89.958 21.641 50.228-57.992 12.559 10.88-56.848 65.635-91.694-22.064z"/><path fill="#FFF" d="M163.138 294.383c0 8.673-7.026 15.707-15.699 15.707-8.681 0-15.707-7.034-15.707-15.707s7.026-15.698 15.707-15.698c8.673 0 15.699 7.025 15.699 15.698z"/><path fill="#8BD7F8" d="M147.439 314.244c-10.953 0-19.861-8.908-19.861-19.861 0-10.944 8.908-19.853 19.861-19.853 10.949 0 19.853 8.908 19.853 19.853 0 10.953-8.904 19.861-19.853 19.861zm0-31.406c-6.369 0-11.553 5.177-11.553 11.545 0 6.369 5.185 11.553 11.553 11.553 6.365 0 11.545-5.184 11.545-11.553 0-6.368-5.18-11.545-11.545-11.545z"/><path fill="#FFF" d="M236.918 236.987c0 8.673-7.034 15.702-15.707 15.702s-15.699-7.029-15.699-15.702 7.026-15.703 15.699-15.703 15.707 7.03 15.707 15.703z"/><path fill="#FFD682" d="M221.211 256.844c-10.948 0-19.853-8.908-19.853-19.856 0-10.949 8.904-19.857 19.853-19.857 10.953 0 19.861 8.908 19.861 19.857 0 10.948-8.908 19.856-19.861 19.856zm0-31.406c-6.365 0-11.545 5.18-11.545 11.549 0 6.368 5.18 11.549 11.545 11.549 6.369 0 11.553-5.181 11.553-11.549 0-6.369-5.184-11.549-11.553-11.549z"/><path fill="#FFF" d="M326.438 254.556c0 8.673-7.025 15.699-15.698 15.699s-15.707-7.026-15.707-15.699 7.034-15.703 15.707-15.703 15.698 7.03 15.698 15.703z"/><path fill="#F15A29" d="M310.739 274.408c-10.953 0-19.861-8.908-19.861-19.853 0-10.948 8.908-19.856 19.861-19.856 10.944 0 19.853 8.908 19.853 19.856 0 10.945-8.908 19.853-19.853 19.853zm0-31.401c-6.369 0-11.554 5.181-11.554 11.549 0 6.365 5.185 11.545 11.554 11.545 6.368 0 11.545-5.18 11.545-11.545 0-6.368-5.177-11.549-11.545-11.549z"/><circle fill="#FFF" cx="364.618" cy="192.394" r="15.699"/><path fill="#485A93" d="M364.618 212.25c-10.945 0-19.854-8.908-19.854-19.856s8.908-19.856 19.854-19.856c10.944 0 19.853 8.908 19.853 19.856s-8.908 19.856-19.853 19.856zm0-31.405c-6.369 0-11.545 5.18-11.545 11.549s5.176 11.549 11.545 11.549c6.368 0 11.545-5.18 11.545-11.549s-5.177-11.549-11.545-11.549z"/><path fill="#FFD682" d="M129.866 366.11v-37.482s32.226 16.413 45.888-12.145c0 0 2.093-6.71 2.093-12.275l31.706-32.12s20.98 5.136 31.268-7.715l44.557 12.283s4.463 13.419 25.362 13.419c20.891 0 31.17-16.688 31.17-29.122l22.709-31.276s14.125-.101 19.276-7.119V366.11H129.866z"/><path fill="#19335E" d="M108.658 366.11h-8.307V127.205h283.544v8.308H108.658z"/></svg>